<?xml version="1.0" standalone="no"?>
<!DOCTYPE svg PUBLIC "-//W3C//DTD SVG 1.1//EN" "http://www.w3.org/Graphics/SVG/1.1/DTD/svg11.dtd" >
<svg xmlns="http://www.w3.org/2000/svg">
<metadata></metadata>
<defs>
<font id="chaparral_probold" horiz-adv-x="1153" >
<font-face units-per-em="2048" ascent="1516" descent="-532" />
<missing-glyph horiz-adv-x="460" />
<glyph unicode="&#xfb03;" horiz-adv-x="1988" d="M33 707q0 74 4 180q74 4 121 4q12 3 12 16q0 115 26.5 193t92.5 147q89 91 175.5 123.5t176.5 32.5q63 0 120 -12t85 -27q0 -51 -35.5 -128.5t-65.5 -100.5q-100 55 -163 55q-49 0 -62 -41q-22 -58 -18 -256h340q10 0 10 16q0 139 29 213.5t116 153.5q93 84 175.5 111.5 t197.5 27.5q97 0 191 -18.5t149 -46.5q0 -53 -41 -134.5t-80 -109.5q-171 98 -293 98q-63 0 -86 -33q-23 -31 -28.5 -83t0.5 -195q7 0 225 4q72 1 177 6.5t176 10.5t77 6q4 0 4 -7q0 -532 -2 -739l113 -4v-168h-279q-39 0 -126 -1t-126 -1q0 115 2 168l88 6q7 0 7 8v523 q-37 2 -160 2h-178v-533l104 -4q0 -113 -2 -170q-45 0 -132.5 1t-133.5 1q-42 0 -135 -1t-133 -1q0 113 2 168l100 6q8 0 8 10q0 355 -2 523q-53 1 -113.5 1t-133 -0.5t-109.5 -0.5v-533l118 -4q0 -113 -2 -168h-280q-44 0 -137.5 -1t-132.5 -1q0 113 2 168l100 6q8 0 8 10 q0 355 -2 523h-141z" />
<glyph unicode="&#xfb04;" horiz-adv-x="2002" d="M35 709q0 31 1 92t1 88q53 0 123 4q12 3 12 16q0 111 26.5 190.5t92.5 147.5q90 91 175.5 123.5t176.5 32.5q122 0 203 -37q0 -50 -35.5 -127t-65.5 -98l-14 7q-14 7 -20 9.5t-21 9t-26 10t-25.5 7.5t-28.5 6t-28 2q-49 0 -64 -41q-20 -46 -16 -256h338q12 0 12 14 q0 142 28 218t109 149q101 86 189.5 112.5t240.5 26.5q107 0 241 -19t195 -44q7 -4 7 -17q-1 -142 -4.5 -552t-4.5 -607l117 -6v-168h-278q-41 0 -131 -1t-125 -1v168l94 6q8 0 8 10v523q-129 2 -360 2q0 -70 -1 -262.5t-1 -270.5l112 -6q0 -113 -2 -170q-24 0 -121 1 t-149 1q-43 0 -136.5 -1t-131.5 -1q0 113 2 168l100 6q8 4 8 10q0 357 -2 525h-354q0 -70 -1 -262.5t-1 -270.5l121 -6q0 -30 -5 -168h-280q-42 0 -135 -1t-133 -1q0 113 2 168l100 6q8 4 8 10q0 357 -2 525h-141zM1178 889q54 0 173 1t187 1v311q-82 27 -231 27 q-32 0 -62 -15t-41 -36q-16 -28 -21.5 -85t-4.5 -204z" />
<glyph horiz-adv-x="2048" />
<glyph horiz-adv-x="2048" />
<glyph unicode="&#xd;" horiz-adv-x="2048" />
<glyph unicode=" "  horiz-adv-x="460" />
<glyph unicode="&#x09;" horiz-adv-x="460" />
<glyph unicode="&#xa0;" horiz-adv-x="460" />
<glyph unicode="!" horiz-adv-x="643" d="M109 1282q62 14 210.5 34.5t194.5 20.5q2 -2 2 -4q-8 -72 -45 -421.5t-49 -458.5q-29 -9 -101.5 -18t-99.5 -9q-21 160 -49 401q-31 275 -63 455zM152 137q0 73 50.5 121.5t127.5 48.5q73 0 118.5 -47.5t45.5 -118.5q0 -72 -48.5 -116.5t-126.5 -44.5q-69 0 -118 44 t-49 113z" />
<glyph unicode="&#x22;" horiz-adv-x="907" d="M127 1395q45 16 135.5 27.5t120.5 9.5q-3 -44 -14.5 -190.5t-20 -269.5t-10.5 -181q-78 -19 -145 -19q-32 355 -66 623zM532 1397q43 14 135 25.5t121 9.5q-40 -487 -45 -641q-78 -19 -145 -19q-31 349 -66 625z" />
<glyph unicode="#" d="M55 385q-2 54 8 170h220q7 51 22 149.5t19 122.5h-215q0 60 8 158q37 0 114 1t117 1q10 61 55 334q63 4 187 4q-9 -52 -30 -169.5t-30 -166.5h199q28 179 53 332h189q-8 -49 -29 -161.5t-31 -170.5q33 1 98 2t95 2q3 -78 -8 -168h-215q-18 -120 -43 -272q33 -1 69 -1 t77 0.5t60 0.5q3 -84 -8 -162q-26 0 -104 -1t-123 -1q-12 -68 -32.5 -187.5t-28.5 -164.5q-116 -4 -170 -2q30 179 57 354q-33 0 -101 -1t-102 -1q-25 -129 -63 -350q-65 -5 -168 -2q10 65 28.5 184t26.5 168q-38 0 -107.5 -1t-93.5 -1zM461 553h201q15 110 40 272h-200 q-38 -247 -41 -272z" />
<glyph unicode="$" d="M96 129q2 34 41.5 109t75.5 104q153 -104 250 -119q1 50 4 156t4 162q-152 62 -206 97q-112 72 -135 191q-7 37 -7 80q0 78 42.5 148t106.5 114q119 84 295 97q1 32 2 94.5t2 95.5q83 16 160 19q-4 -130 -8 -205q74 0 152.5 -17t128.5 -45q0 -44 -33.5 -116t-69.5 -99 q-46 34 -99 62t-87 35q-2 -75 -10 -295q172 -50 254.5 -129.5t82.5 -218.5q0 -83 -29.5 -153.5t-80.5 -117.5q-62 -53 -136 -84t-186 -39q-3 -115 -8 -196q-90 -11 -151 -13q6 102 6 203q-98 0 -197 22.5t-164 57.5zM395 956q0 -46 35 -74t123 -51q1 42 4 131.5t4 131.5 q-82 -3 -121 -39q-45 -36 -45 -99zM612 223q80 0 123 39q41 38 41 103q0 53 -35 87.5t-120 53.5q-1 -45 -4.5 -140t-4.5 -143z" />
<glyph unicode="%" horiz-adv-x="1748" d="M80 965q0 99 38 179t101 126q88 65 236 65q420 -3 829 21q17 -24 68 -111q-260 -400 -424 -659q-326 -507 -422 -658q-92 47 -141 78q163 250 419 656q184 291 334 544l-10 6q-180 0 -408 5q32 -32 52 -96t20 -136q0 -112 -41 -196.5t-108 -133.5q-83 -65 -209 -65 q-123 0 -207 63q-56 41 -91.5 121t-35.5 191zM332 963q0 -175 37 -218q24 -30 57 -30q37 0 57 26q37 46 37 226q0 68 -9 128t-22 83q-18 32 -61 32q-29 0 -51 -28q-20 -22 -32.5 -82t-12.5 -137zM979 334q0 93 38.5 181.5t96.5 133.5q96 74 221 74q142 0 219 -70 q49 -43 81 -118t32 -170q0 -104 -38.5 -190t-102.5 -134q-82 -64 -207 -64q-127 0 -209 58q-54 39 -92.5 118.5t-38.5 180.5zM1229 342q0 -81 9.5 -138t23.5 -73q23 -29 61 -29q33 0 55 25q39 46 39 221q0 73 -10 135t-23 82q-18 33 -61 33q-26 0 -55 -29q-39 -42 -39 -227z " />
<glyph unicode="&#x26;" horiz-adv-x="1576" d="M49 338q0 116 77 216.5t204 158.5v8q-160 126 -160 270q0 129 100 226q55 55 146 88.5t209 33.5q180 0 282 -84q101 -76 101 -196q0 -198 -234 -324v-8q173 -134 303 -274q32 33 58 103t26 118v6t-0.5 4.5t-2 3.5t-3.5 1.5t-6 0.5l-86 6q0 56 4 154h252q40 0 114.5 1 t104.5 1q3 -80 0 -156l-106 -8q-82 -233 -222 -373q101 -92 129 -120q26 -29 60 -29l135 -2q0 -111 -2 -162q-96 -6 -432 -22q-106 118 -117 129q-87 -62 -192.5 -95.5t-255.5 -33.5q-190 0 -299 61q-94 52 -140.5 129t-46.5 168zM393 410q0 -110 80 -179q61 -55 176 -55 q121 0 207 66q-264 268 -389 358q-74 -68 -74 -190zM475 1044q0 -57 39.5 -107.5t120.5 -107.5q92 79 92 195q0 81 -41 119q-28 33 -88 33q-51 0 -86 -35q-37 -37 -37 -97z" />
<glyph unicode="'" horiz-adv-x="493" d="M121 1397q44 15 134.5 26t121.5 9q-40 -487 -45 -641q-78 -19 -146 -19q-33 364 -65 625z" />
<glyph unicode="(" horiz-adv-x="831" d="M172 545q0 154 43 300t118 264t168 212t199 160q34 -36 84 -105q-149 -133 -231 -342t-82 -465q0 -145 22 -268t65.5 -225t97 -183.5t128.5 -166.5q-56 -56 -104 -91q-85 66 -150.5 126.5t-136 147t-116.5 176.5t-75.5 209t-29.5 251z" />
<glyph unicode=")" horiz-adv-x="831" d="M41 -262q319 316 319 835q0 268 -77 463.5t-232 352.5q33 35 96 90q84 -56 155 -119t138.5 -146.5t114.5 -175t75.5 -207t28.5 -239.5q0 -129 -29 -251.5t-77.5 -222t-117 -191t-141.5 -161.5t-157 -131q-42 42 -96 103z" />
<glyph unicode="*" horiz-adv-x="835" d="M61 891q42 26 127 79.5t127 80.5q-42 27 -127 80t-127 79q61 90 78 111q27 -19 219 -166q-1 23 -5.5 123.5t-6.5 153.5q25 2 72 2t67 -2q-6 -138 -12 -279q213 164 221 170q30 -38 76 -113q-25 -16 -113.5 -72.5t-136.5 -88.5q143 -90 250 -162q-27 -41 -78 -111 q-139 110 -217 168q4 -90 8 -274q-43 -4 -137 0q6 92 14 276q-43 -31 -119 -89t-104 -79q-34 41 -76 113z" />
<glyph unicode="+" d="M127 397q1 31 3 94.5t3 88.5q215 0 354 2q-1 66 -1 193t-1 181q148 9 203 9q-2 -113 -6 -379q59 1 179.5 2t168.5 2q0 -114 -8 -195h-342q-2 -137 -2 -385q-88 -6 -191 -6q0 241 -2 393h-358z" />
<glyph unicode="," horiz-adv-x="608" d="M70 -287q168 124 168 254q0 49 -40.5 81.5t-93.5 45.5q-6 98 45 164t127 66q83 0 147 -71t64 -165q0 -139 -86.5 -272t-236.5 -213q-64 72 -94 110z" />
<glyph unicode="-" horiz-adv-x="768" d="M76 406q0 15 2.5 82.5t3.5 101.5q201 0 301 2q121 0 309 4q0 -112 -8 -193h-315q-39 0 -143.5 1.5t-149.5 1.5z" />
<glyph unicode="." horiz-adv-x="608" d="M129 150q0 69 50 119t132 50q77 0 123.5 -47.5t46.5 -117.5q0 -79 -50 -126.5t-130 -47.5q-66 0 -119 48.5t-53 121.5z" />
<glyph unicode="/" horiz-adv-x="835" d="M0 -72q168 391 317 754q48 113 154 369t154 370q100 -23 204 -63q-52 -118 -172.5 -395t-148.5 -340q-83 -199 -326 -756q-138 44 -182 61z" />
<glyph unicode="0" d="M78 602q0 414 203 610q130 127 329 127q193 0 301 -118q72 -73 119 -210.5t47 -348.5q0 -377 -205 -572q-116 -110 -317 -110q-171 0 -287 98q-42 38 -74 81.5t-59.5 105.5t-42 147t-14.5 190zM436 625q0 -149 14 -265.5t35 -154.5q37 -66 93 -66q28 0 48 12t40 42 q55 82 55 423q0 185 -12.5 320.5t-34.5 173.5q-21 36 -40.5 52t-49.5 16q-28 0 -47 -12.5t-39 -43.5q-26 -39 -44 -187.5t-18 -309.5z" />
<glyph unicode="1" d="M102 1126q92 25 258.5 82.5t288 100.5t129.5 43t8 -11q0 -187 -3.5 -619.5t-4.5 -543.5l283 -6q0 -64 -4 -170h-459q-61 0 -212 -1t-243 -1q0 115 4 172l287 6q10 0 10 12v807q-44 -5 -92.5 -11.5t-114 -15t-108.5 -14.5q-21 116 -27 170z" />
<glyph unicode="2" d="M70 178q196 144 303 246q73 68 122.5 121t98 117.5t72.5 130.5t24 133q0 99 -47 157q-42 58 -125 58q-84 0 -135 -35q-6 -6 -12 -21l-47 -204q-101 9 -211 22q6 131 22 367q75 30 188 49.5t214 19.5q137 0 228 -26.5t157 -83.5q61 -52 94 -127t33 -156 q0 -77 -29.5 -155.5t-69.5 -137.5t-102.5 -123.5t-104.5 -100.5t-100 -81q-36 -29 -154 -112v-9q84 1 323 10t249 9l4 -4q0 -111 -14 -244q-40 0 -311.5 1t-354.5 1h-260q-35 96 -55 178z" />
<glyph unicode="3" d="M90 356q126 23 213 35l47 -192q2 -10 15 -19q36 -18 88 -18q123 0 182 53t59 143q0 102 -77.5 160t-202.5 60h-117q-4 122 -4 190q112 1 190.5 18t121.5 49.5t61 71.5t18 90q0 70 -39 109q-28 31 -62 41t-85 10q-72 0 -117 -31q-7 -4 -10 -18l-41 -182q-123 7 -207 20 q3 52 8 162t8 166q167 65 406 65q241 0 352 -75q57 -38 95 -98.5t38 -131.5q0 -113 -75.5 -194.5t-202.5 -116.5v-12q149 -28 229 -119.5t80 -200.5q0 -102 -45.5 -173.5t-126.5 -131.5q-139 -106 -477 -106q-176 0 -279 22q-28 210 -43 354z" />
<glyph unicode="4" d="M25 543q156 224 266 372q200 274 315 414q146 0 309 -10q0 -105 -2 -377t-2 -403q33 0 109 1t94 1q0 -100 -6 -199q-17 0 -98.5 1t-100.5 1q0 -121 -2 -176l121 -6q0 -107 -2 -160h-303q-47 0 -155 -1t-165 -1q0 85 3 162l182 6q2 0 5 3.5t3 6.5v154q-59 -2 -490 -2 q-43 95 -81 213zM292.5 545.5q1.5 -4.5 4.5 -4.5q92 -4 299 -4l2 467h-12q-54 -79 -152 -230q-89 -136 -141 -221q-2 -3 -0.5 -7.5z" />
<glyph unicode="5" d="M104 340q136 29 205 37l51 -187q3 -13 17 -20q36 -16 80 -16q109 0 172 55q69 63 69 178q0 117 -83 178.5t-230 61.5q-80 0 -197 -6l-41 38q33 327 82 662h389q248 0 400 2q0 -118 -17 -254q-212 0 -569 6q-37 -210 -37 -211q35 6 150 6q232 0 365.5 -113t133.5 -288 q0 -122 -53 -221t-137 -156q-165 -112 -436 -112q-166 0 -268 18q-31 220 -46 342z" />
<glyph unicode="6" d="M84 551q0 373 182 588q170 200 479 200q115 0 197 -20q29 -214 39 -322q-26 -5 -201 -36l-43 157q-3 17 -12 23q-24 12 -68 12q-92 0 -145 -86q-69 -115 -78 -295h10q43 24 114.5 47t139.5 23q165 0 263 -94q50 -49 84 -129.5t34 -147.5q0 -120 -37 -209.5t-122 -171.5 q-56 -54 -147 -82t-187 -28q-200 0 -310 94q-192 161 -192 477zM440 567q-4 -122 12 -215.5t40 -136.5q41 -78 114 -78q26 0 53.5 15t45.5 43q16 25 24.5 61.5t10 64t1.5 74.5q0 58 -17.5 118.5t-43.5 90.5q-33 39 -88 39q-42 0 -87 -21.5t-65 -54.5z" />
<glyph unicode="7" d="M84 891q15 120 66 432q62 0 194 -4h698q37 -99 66 -232q-350 -538 -420 -833q-14 -60 -14 -248q-82 -14 -336 -14q-5 172 31 270q45 112 167.5 331.5t266.5 453.5v10q-55 0 -117 0.5t-93.5 1t-68 0.5h-54t-38 -1t-32.5 -2.5t-25 -4.5q-25 -6 -39 -41l-49 -156 q-116 17 -203 37z" />
<glyph unicode="8" d="M72 303q0 107 71.5 196t182.5 148v10q-197 117 -197 320q0 87 45.5 158.5t108.5 113.5q131 90 323 90q201 0 305 -82q46 -36 79.5 -93.5t33.5 -127.5q0 -179 -197 -299v-8q117 -60 183.5 -151t66.5 -189q0 -101 -40.5 -175t-123.5 -138q-127 -96 -368 -96q-214 0 -330 75 q-143 91 -143 248zM403 344q0 -82 39 -139q19 -29 60.5 -47.5t77.5 -18.5q81 0 127 49q43 49 43 134q0 137 -256 245q-44 -43 -67.5 -106.5t-23.5 -116.5zM436 1016q0 -60 52.5 -109t166.5 -96q78 78 78 201q0 69 -35 116q-38 50 -108 50q-65 0 -103 -33q-51 -48 -51 -129z " />
<glyph unicode="9" d="M80 872q0 212 162 355q61 52 150 82t188 30q88 0 167.5 -27t131.5 -73q83 -74 135.5 -203t52.5 -293q0 -202 -52.5 -359t-140.5 -245q-162 -159 -444 -159q-145 0 -233 18q-9 52 -28 156.5t-28 156.5q75 22 195 45l57 -172q3 -15 17 -20q34 -19 90 -19q46 0 88.5 23.5 t66.5 64.5q60 110 64 320h-8q-133 -68 -244 -68q-78 0 -149 27t-119 72q-53 55 -86 130t-33 158zM416 915q0 -132 51 -198q37 -45 100 -45q38 0 80 17t66 48q1 125 -12.5 227t-34.5 140q-38 78 -117 78q-61 0 -94 -54q-39 -62 -39 -213z" />
<glyph unicode=":" horiz-adv-x="608" d="M133 147q0 69 49 118.5t131 49.5q77 0 122.5 -47t45.5 -116q0 -77 -49.5 -124.5t-128.5 -47.5q-68 0 -119 46.5t-51 120.5zM133 748q0 69 49.5 119.5t130.5 50.5q77 0 122.5 -48t45.5 -118q0 -77 -49.5 -123.5t-128.5 -46.5q-67 0 -118.5 47t-51.5 119z" />
<glyph unicode=";" horiz-adv-x="608" d="M70 -285q168 124 168 254q0 49 -40.5 81.5t-93.5 45.5q-6 97 45 163.5t127 66.5q82 0 146.5 -71.5t64.5 -164.5q0 -140 -87 -273.5t-236 -211.5q-64 72 -94 110zM131 748q0 69 49.5 119.5t130.5 50.5q76 0 122 -48t46 -118q0 -77 -49.5 -123.5t-128.5 -46.5 q-67 0 -118.5 47t-51.5 119z" />
<glyph unicode="&#x3c;" d="M211 578q590 412 614 428q45 -47 99 -138q-100 -78 -256.5 -199.5t-214.5 -166.5q76 -63 475 -396q-47 -69 -105 -131q-48 35 -266.5 195.5t-339.5 251.5q-6 70 -6 156z" />
<glyph unicode="=" d="M127 199q0 103 6 194q119 0 449 -1t448 -1q0 -95 -6 -184q-417 0 -897 -8zM127 592q0 96 6 184q397 0 897 8q0 -102 -6 -194q-128 0 -458 1t-439 1z" />
<glyph unicode="&#x3e;" d="M188 109q455 366 480 387q-143 117 -467 372q56 90 98 138q239 -167 604 -431q6 -73 6 -155q-150 -111 -616 -445q-36 38 -105 134z" />
<glyph unicode="?" horiz-adv-x="1003" d="M66 956q4 56 11 167.5t11 160.5q61 28 179 48t235 20q197 0 315.5 -84t118.5 -236q0 -72 -23.5 -132.5t-72.5 -112t-111 -93.5t-151 -88q-33 -18 -33 -39q0 -52 8 -123q-88 -33 -217 -38q-26 39 -52.5 107.5t-27.5 121.5q90 62 139 100.5t91.5 83t58.5 87t16 95.5 q0 66 -38.5 106t-92.5 40q-55 0 -90 -25q-12 -9 -14 -20l-47 -170q-117 10 -213 24zM268 131q0 69 50.5 117.5t127.5 48.5q72 0 118 -45.5t46 -118.5q0 -68 -48.5 -110.5t-127.5 -42.5q-67 0 -116.5 42.5t-49.5 108.5z" />
<glyph unicode="@" horiz-adv-x="1425" d="M78 391q0 153 55.5 284.5t150.5 222.5t225.5 142.5t278.5 51.5q250 0 402.5 -135.5t152.5 -350.5q0 -108 -44.5 -195.5t-108.5 -134.5q-64 -51 -141 -75.5t-222 -24.5q-17 0 -40 14t-29 27q0 10 14 96l-10 6q-56 -55 -132 -99t-120 -44q-28 0 -83.5 33t-74.5 70 q-6 18 -6 49q0 84 33 188q15 46 42.5 93.5t66.5 94t93.5 76t112.5 29.5q92 0 162 -55h6l35 57q50 -10 184 -45q-18 -74 -59.5 -260.5t-44.5 -198.5q-1 -4 2 -6t8 -2q68 0 135 59q84 89 84 224q0 81 -27 152.5t-80.5 130t-142.5 92.5t-204 34q-106 0 -201.5 -40t-169 -113 t-117 -184t-43.5 -244q0 -90 25.5 -163t67.5 -120.5t99 -79.5t117 -45.5t125 -13.5q148 0 275 75q41 -51 45 -86q-136 -90 -365 -90q-101 0 -194 30.5t-169.5 90t-122.5 158.5t-46 225zM588 381q0 -16 8 -26.5t22 -10.5q32 0 86.5 49.5t69.5 89.5q15 38 43 156 q-23 35 -74 35q-60 0 -114 -119q-41 -99 -41 -174z" />
<glyph unicode="A" horiz-adv-x="1306" d="M-18 0q0 117 2 172l94 6q9 0 12 10q69 184 223 599t205 550q56 6 281 6q65 -187 204.5 -604t188.5 -559l104 -8q0 -27 -1 -85t-1 -87h-245h-332q0 30 1 88t1 86l100 6q11 0 8 10l-41 127q-3 11 -14 11l-379 -4q-4 -23 -17.5 -74t-17.5 -72l113 -6q0 -115 -2 -172h-287 h-200zM446 510q-1 -3 -1 -6q0 -6 6 -6h284q-21 68 -68 226t-71 239h-10q-21 -68 -69 -223.5t-71 -229.5z" />
<glyph unicode="B" horiz-adv-x="1306" d="M94 0q0 115 2 168l111 6q2 0 5 3t3 7v967l-119 6q0 115 2 170q306 6 422 6q129 0 191.5 -2t141.5 -14t134 -37q72 -33 123 -105.5t51 -148.5q0 -100 -67 -179t-170 -118v-16q132 -22 220.5 -113t88.5 -217q0 -167 -152.5 -276t-410.5 -109q-36 0 -154 1t-135 1h-287z M551 215q-1 -31 24 -43t66 -12q101 0 166 55t65 156q0 90 -73 157.5t-191 67.5q-49 0 -55 -2zM555 760q6 -2 51 -2q99 0 160 57t61 152q0 84 -57 145.5t-143 61.5q-45 0 -70 -7z" />
<glyph unicode="C" horiz-adv-x="1251" d="M88 586q0 204 78.5 354.5t206.5 251.5q100 80 231 121t270 41q187 0 271 -31q21 -207 33 -418q-131 -19 -217 -28l-48 215q-4 17 -14 22q-34 27 -94 27q-116 0 -197 -84q-139 -145 -139 -404q0 -257 119 -364q44 -41 109 -62.5t130 -21.5q68 0 168 18t152 39 q20 -88 35 -190q-98 -38 -222 -65t-202 -27q-273 0 -439 120q-102 74 -166.5 202t-64.5 284z" />
<glyph unicode="D" horiz-adv-x="1456" d="M98 1153q0 30 1 88t1 86q228 6 502 6q300 0 461 -90q134 -74 219.5 -217t85.5 -305q0 -207 -83.5 -365t-217.5 -247q-83 -57 -203.5 -84t-242.5 -27q-34 0 -119.5 1t-120.5 1h-279v170l107 8q6 0 6 8l2 963zM563 205q0 -20 14 -31.5t37 -11.5q146 0 246 90 q66 62 98.5 169t32.5 218q0 160 -34.5 262t-116.5 180q-89 86 -209 86q-43 0 -62 -8z" />
<glyph unicode="E" horiz-adv-x="1189" d="M100 -2q0 29 1 88t1 86l107 6q8 0 8 8v963l-117 4q0 121 2 176h271h477h203q12 -177 18 -362q-16 -2 -87.5 -10t-111.5 -11l-32 156q-3 15 -12 23.5t-29 11.5q-87 12 -215 12h-21v-387q31 1 90 2t88 2q10 0 18 10.5t9 28.5l12 76q24 1 53 1q59 0 140 -3q-2 -66 -2 -213 q-2 -74 -2 -201q-177 -6 -193 -6l-8 82q-6 43 -33 43q-114 4 -174 4v-363q0 -29 19 -37t88 -8q98 0 161 13q29 9 39 38l60 164q44 -6 200 -37q-5 -26 -32 -157.5t-43 -202.5q-29 0 -268 1t-404 1q-48 0 -144 -1t-137 -1z" />
<glyph unicode="F" horiz-adv-x="1134" d="M98 1155q0 119 2 174h271q33 0 246 1t233 1q47 0 115.5 1t87.5 1q20 -254 26 -383q-54 -7 -200 -24l-39 176q-3 15 -12 23.5t-29 11.5q-101 14 -219 14q-13 0 -17 -2l-2 -440q130 0 193 2q26 0 35 8.5t12 30.5l12 84q35 0 193 -5q-5 -175 -5 -219q0 -40 -1 -111t-1 -100 q-122 -4 -190 -4l-10 94q-2 22 -12 30.5t-35 8.5q-110 7 -191 7l-2 -353l221 -6q0 -119 -2 -176q-54 0 -191 1t-204 1q-49 0 -145.5 -1t-137.5 -1q0 119 2 172l105 6q8 0 8 8v965z" />
<glyph unicode="G" horiz-adv-x="1392" d="M86 612q0 203 85.5 351.5t221.5 246.5q102 72 240 107t272 35q97 0 180.5 -13.5t126.5 -35.5q18 -242 23 -406q-143 -17 -217 -23l-45 218q-4 18 -12 24q-49 39 -123 39q-122 0 -213 -82q-70 -64 -111 -178t-41 -250q0 -251 113 -373q101 -116 254 -116q46 0 49 24 l-2 279l-160 4q0 70 4 180h328h272q0 -66 -4 -180l-84 -4q-10 -3 -10 -8l-6 -398q-55 -32 -159.5 -52.5t-238.5 -20.5q-333 0 -516 141q-227 183 -227 491z" />
<glyph unicode="H" horiz-adv-x="1554" d="M100 0q0 28 1 88t1 88l105 6q8 0 8 8v959l-113 6q0 119 2 174h295h293q0 -119 -2 -174l-119 -6q-4 0 -4 -10l-2 -357q0 -6 4 -6l420 -2v375l-125 6q0 27 1 87t1 87h310h276q0 -121 -2 -174l-100 -6q-7 0 -7 -8l-6 -959l113 -6q-1 -28 -2 -88t-2 -88q-39 0 -138 1t-143 1 q-55 0 -163 -1t-152 -1q0 121 2 176l131 6q6 0 6 8v388q0 8 -6 8l-418 -4l-4 -400l129 -6q0 -119 -2 -176q-39 0 -143 1t-156 1q-45 0 -146 -1t-143 -1z" />
<glyph unicode="I" horiz-adv-x="780" d="M88 0q0 119 2 176l119 6q6 0 6 8v961l-125 6v174q42 0 151.5 -1t157.5 -1q53 0 158 1t145 1q0 -119 -2 -174l-127 -6q-4 0 -4 -10l-6 -959l137 -6q0 -119 -2 -176q-40 0 -147.5 1t-161.5 1q-46 0 -150.5 -1t-150.5 -1z" />
<glyph unicode="J" horiz-adv-x="1107" d="M33 369q112 29 203 45l65 -213q2 -11 18 -23q42 -28 103 -28q86 0 125 55q18 27 27 70t10.5 75.5t1.5 93.5q0 233 -4 709l-217 6q0 117 2 170h401h283q0 -117 -2 -170l-109 -6q-6 0 -6 -8q0 -505 -4 -647q-3 -129 -30 -220.5t-97 -162.5q-154 -164 -447 -164 q-150 0 -264 24q-47 306 -59 394z" />
<glyph unicode="K" horiz-adv-x="1386" d="M100 0q0 119 2 176l105 6q6 0 6 6l2 963l-113 6q0 64 4 174q40 0 143 -1t150 -1q49 0 147 1t132 1q0 -119 -4 -176l-103 -4q-4 0 -4 -10l-2 -387q8 1 94 10q105 110 297 373q9 12 -8 12l-96 4q0 119 2 176h303q36 0 104.5 1t96.5 1q0 -119 -2 -176l-78 -4 q-197 -220 -365 -395v-15q103 -73 197 -270q80 -176 107 -223q27 -60 71 -62l103 -10q0 -40 -5 -172q-114 -4 -221 -4q-45 -2 -213 -2q-62 95 -145 313q-43 113 -89.5 196t-78.5 83q-58 0 -76 -2l-2 -406l115 -6q0 -119 -2 -176q-37 0 -136 1t-149 1q-45 0 -146 -1t-143 -1z " />
<glyph unicode="L" horiz-adv-x="1138" d="M98 -2q0 119 2 174l105 4q10 0 10 10v965l-113 4q0 119 2 172h291q45 0 150.5 1t156.5 1q0 -64 -4 -174l-129 -6q-6 0 -6 -8l-4 -922q0 -31 13 -38t79 -7q96 0 164 14q26 6 37 39l70 211q85 -15 204 -41q-50 -248 -86 -401q-200 4 -659 4q-48 0 -145 -1t-138 -1z" />
<glyph unicode="M" horiz-adv-x="1792" d="M84 0q0 119 2 172l104 6q9 3 9 8q1 149 4 480t4 473l-113 6q0 70 4 184h512q109 -294 291 -835h17q45 126 148 418.5t148 416.5h476q0 -66 -4 -184l-101 -6q-6 0 -6 -11q0 -336 4 -950l113 -6q0 -117 -2 -172h-246h-299q0 119 2 172l117 6q6 0 6 8q-4 458 -8 688h-17 q-131 -374 -315 -796q-58 -4 -178 -4q-154 365 -307 827h-19q-3 -205 -12 -721l141 -8q0 -117 -2 -172h-264h-209z" />
<glyph unicode="N" horiz-adv-x="1464" d="M70 1155q0 119 2 174h393q170 -243 588 -889h10q-1 79 -1.5 223.5t-1.5 263.5t-3 224l-148 4q0 121 2 174h267q37 0 113.5 1t105.5 1q0 -117 -4 -174l-90 -6q-7 0 -7 -10l-10 -1121q-32 -15 -103 -26.5t-145 -11.5q-296 355 -602 809h-14q-1 -104 -2 -305.5t-2 -303.5 l151 -6q0 -62 -4 -176q-41 0 -142 1t-151 1q-34 0 -99.5 -1t-92.5 -1q0 119 2 176l100 4q8 3 8 8l-2 963z" />
<glyph unicode="O" horiz-adv-x="1505" d="M88 653q0 195 85.5 351.5t217.5 236.5q176 111 412 111q200 0 354 -101q119 -74 189.5 -223.5t70.5 -329.5q0 -155 -54.5 -301t-156.5 -241q-188 -176 -489 -176q-133 0 -250.5 45t-194.5 122q-184 190 -184 506zM475 676q0 -159 24 -262t79 -168q74 -92 186 -92 q54 0 95 17t79 65q96 129 96 415q0 247 -84 408q-58 119 -182 119q-115 0 -188 -86q-47 -60 -76 -168t-29 -248z" />
<glyph unicode="P" horiz-adv-x="1245" d="M104 1155q0 119 2 172q221 6 498 6q62 0 96.5 -1t92.5 -9.5t112 -24.5q123 -39 199 -150.5t76 -244.5q0 -119 -68 -223t-174 -158q-62 -31 -149 -47t-138 -16q-82 0 -96 2l-2 -285l186 -6q0 -115 -2 -170q-48 0 -175.5 1t-192.5 1q-45 0 -134.5 -1t-128.5 -1q0 37 5 170 l96 6q8 0 8 8v967zM555 653q0 -13 18.5 -16.5t53.5 -3.5q83 0 139 53q68 68 68 207q0 114 -60.5 194t-148.5 80q-54 0 -66 -6z" />
<glyph unicode="Q" horiz-adv-x="1505" d="M88 655q0 192 84 346t213 238q171 113 410 113q208 0 362 -99q119 -78 189.5 -226.5t70.5 -330.5q0 -168 -59 -309.5t-158 -232.5q-48 -44 -100 -76.5t-82 -42.5v-10q105 -67 223 -113q72 -29 182 -29q57 0 150 15q13 -74 20 -191q-78 -28 -173.5 -48.5t-145.5 -20.5 q-81 0 -139 32q-182 92 -408 310h-20q-123 0 -243 47t-202 131q-174 174 -174 497zM475 666q0 -168 24.5 -262t78.5 -160q79 -88 184 -88q115 0 172 80q98 129 98 403q0 128 -22.5 241.5t-63.5 184.5q-62 113 -170 113q-115 0 -194 -82q-49 -55 -78 -171.5t-29 -258.5z" />
<glyph unicode="R" horiz-adv-x="1302" d="M106 1155q3 89 3 174q282 4 473 4q77 0 108.5 -1t83 -7t109.5 -20q128 -28 210.5 -126.5t82.5 -203.5q0 -125 -70.5 -217.5t-185.5 -139.5v-10q41 -19 79 -68t60.5 -93t74.5 -155q4 -8 6 -12.5t5 -11t6 -12.5q18 -38 31 -54.5t30 -17.5l99 -12v-170h-152q-23 0 -130.5 -2 t-125.5 -2q-42 73 -192 424q-38 88 -109 88q-37 0 -49 -4l-2 -330l111 -6q0 -28 -1.5 -84t-1.5 -84h-292q-44 0 -132.5 -1t-125.5 -1v170l102 6q4 0 4 8l2 967zM553 680q8 -2 49 -2q102 0 161.5 63t59.5 166q0 111 -58.5 185.5t-141.5 74.5q-48 0 -66 -6z" />
<glyph unicode="S" horiz-adv-x="1101" d="M68 401q127 27 215 37l57 -202q6 -17 12 -19q51 -39 135 -39q95 0 144 41q49 40 49 111q0 72 -40 103t-171 79q-367 138 -367 403q0 91 38 170t102 136q144 131 436 131q192 0 272 -39q22 -222 29 -373q-72 -12 -209 -27l-45 191q-3 11 -8 16q-43 31 -105 31 q-78 0 -123 -37q-55 -41 -55 -117q0 -26 3.5 -44.5t16 -35t26.5 -27.5t45.5 -25.5t60.5 -25.5t84 -30q173 -60 257.5 -152t84.5 -233q0 -98 -39.5 -184t-112.5 -144q-146 -116 -434 -116q-205 0 -313 40q-24 194 -45 381z" />
<glyph unicode="T" horiz-adv-x="1261" d="M23 915q20 347 24 416q18 0 86.5 -1t108.5 -1h401q328 0 383 2h195q16 -269 18 -413q-154 -14 -217 -21l-33 197q-3 18 -11.5 27t-27.5 12q-45 10 -143 10l-4 -961l147 -6q0 -119 -2 -176q-40 0 -151 1t-166 1q-49 0 -160 -1t-162 -1q0 117 2 176l140 6q6 0 6 8v955 q-69 0 -142 -10q-31 -4 -39 -39l-38 -199q-25 2 -101.5 8.5t-113.5 9.5z" />
<glyph unicode="U" horiz-adv-x="1386" d="M63 1159q0 89 3 172q37 0 136 -1t146 -1q54 0 163 1t155 1q0 -119 -4 -174l-140 -4l-4 -618v-11q0 -102 18 -162q18 -63 56 -108q57 -66 164 -66q94 0 155 72q70 79 70 301q0 416 -4 584q0 4 -8 8l-144 4q0 29 1 88t1 86q36 0 131 -1t142 -1q44 0 126 1t117 1 q0 -27 -1 -86t-1 -88l-98 -6l-4 -557q-1 -171 -44.5 -291t-107.5 -184q-65 -67 -151 -103t-219 -36q-137 0 -236 29.5t-172 96.5q-145 131 -145 422v613q0 12 -10 12z" />
<glyph unicode="V" horiz-adv-x="1366" d="M14 1157q0 29 1 87.5t1 84.5h277q63 0 193.5 1t183.5 1q0 -27 -1 -87t-1 -89l-140 -6q31 -153 84 -358q115 -433 121 -453h15q24 76 60.5 196t39.5 130q7 24 42 140.5t59 202.5t32 132q0 10 -6 10l-119 4q-1 25 -1 56t0.5 67t0.5 53h307q32 0 101 1t98 1q2 -43 2 -87 t-2 -89l-107 -4q-144 -394 -192 -510q-224 -572 -260 -657q-20 -4 -287 -4q-166 447 -237 675q-18 58 -72.5 230t-81.5 260q0 5 -10 8z" />
<glyph unicode="W" horiz-adv-x="1845" d="M16 1155q0 119 2 174h256h373q0 -119 -2 -174l-143 -6q10 -132 39 -352q7 -62 26 -215.5t29 -239.5h16q48 167 238 901q26 4 119 6q46 1 83.5 1t65.5 -1q220 -898 221 -905h19q39 234 59 373q3 25 26 183.5t32 238.5q3 10 -7 10l-133 4q0 121 2 174q48 0 156 1t164 1 q31 0 96.5 1t93.5 1q0 -121 -2 -176l-96 -6q-29 -107 -75 -283.5t-60 -230.5q-25 -98 -182 -651q-33 -4 -291 -4q-136 422 -219 727h-11q-149 -465 -241 -723q-39 -4 -289 -4q-114 488 -150 657q-43 189 -104 506q-3 8 -10 8z" />
<glyph unicode="X" horiz-adv-x="1349" d="M-10 0q0 119 2 174l98 6q9 0 19 10q37 42 385 445v14q-53 69 -114 152.5t-136.5 191t-108.5 152.5q-6 6 -12 6l-105 4q0 121 2 174h277q65 0 190.5 1t174.5 1q0 -91 -3 -174l-112 -8q101 -167 180 -287h14q101 133 185 277q2 3 0 6.5t-8 3.5l-101 4q0 123 2 176h309 q32 0 98 1t93 1q0 -119 -2 -174l-94 -8q-154 -187 -371 -432v-12q69 -89 226 -302.5t165 -224.5l98 -4q0 -117 -2 -172h-268q-63 0 -193.5 -1t-185.5 -1q0 121 2 176l113 4q6 2 9 6t-1 9q-25 37 -66 100.5t-73 111t-55 78.5h-13q-112 -147 -213 -303l121 -6q0 -119 -2 -174 h-317q-144 0 -207 -2z" />
<glyph unicode="Y" horiz-adv-x="1275" d="M16 1157q0 119 2 172h258q63 0 188.5 1t172.5 1q0 -119 -2 -174l-123 -8q77 -189 197 -451h10q122 224 209 441q3 10 -6 10l-111 4q0 119 2 176h291q35 0 96.5 1t85.5 1q0 -119 -2 -176l-90 -6q-247 -426 -393 -649l-2 -318l151 -6q0 -62 -4 -176q-41 0 -151.5 1 t-167.5 1q-47 0 -156 -1t-160 -1q0 62 4 176l129 6q9 0 9 11v305q-65 110 -344 643q0 3 -4 6.5t-7 3.5z" />
<glyph unicode="Z" horiz-adv-x="1239" d="M49 164q189 253 705 958l-4 8h-123q-165 0 -199 -10q-30 -10 -43 -49l-72 -205q-23 5 -67.5 13.5t-81 16t-66.5 13.5q43 245 78 426q5 0 92.5 -2t124.5 -2l697 -2q35 -102 63 -233q-344 -463 -698 -889l4 -8q273 0 375 24q46 13 63 62l64 180q69 -11 219 -43 q-53 -243 -99 -424q-9 0 -96 0.5t-237.5 1t-313.5 0.5h-319q-29 59 -66 164z" />
<glyph unicode="[" horiz-adv-x="835" d="M248 -344v1784q90 2 257.5 7t242.5 7q3 -76 -3 -151l-206 -11q-19 0 -19 -20l-6 -1465l234 -10q0 -33 -5 -151q-329 8 -495 10z" />
<glyph unicode="\" horiz-adv-x="835" d="M12 1348q156 69 203 82q40 -96 146.5 -358t158.5 -388q141 -342 307 -739q-116 -57 -182 -82q-47 110 -162 382.5t-159 377.5q-129 308 -312 725z" />
<glyph unicode="]" horiz-adv-x="835" d="M86 -203l231 10v1465q0 18 -18 20l-205 11q-5 66 -2 149q164 -4 500 -12l-8 -1784q-172 -2 -494 -10q-4 47 -4 151z" />
<glyph unicode="^" d="M98 666q413 627 420 637q39 2 135 2q377 -584 412 -639q-40 -36 -143 -109q-203 288 -342 479q-140 -202 -338 -475q-117 82 -144 105z" />
<glyph unicode="_" horiz-adv-x="1024" d="M0 -150h1024v-110h-1024v110z" />
<glyph unicode="`" horiz-adv-x="921" d="M221 1266q60 75 135 153q24 -23 310 -309q-36 -43 -97 -104q-243 187 -348 260z" />
<glyph unicode="a" horiz-adv-x="1069" d="M45 219q0 45 27.5 96.5t80 100t145.5 80.5t208 32h98q1 11 1 20q1 62 -27 100q-32 42 -99 42q-87 0 -258 -115q-35 41 -106 146q120 99 238 151t257 52q122 0 218 -90.5t96 -217.5q0 -241 -4 -417q0 -7 0.5 -10t2.5 -4.5t7 -0.5l108 4v-168q-33 -12 -133 -26t-209 -14 q-23 20 -78 90h-10q-181 -90 -299 -90q-54 0 -115 31.5t-105 88.5t-44 119zM371 254q0 -33 30 -55.5t64 -22.5q59 0 137 45q4 4 4 12v142q-12 2 -43 2q-96 0 -144 -35t-48 -88z" />
<glyph unicode="b" horiz-adv-x="1140" d="M-12 1210q0 64 4 170q50 4 162.5 17.5t202.5 24t98 10.5q6 0 6 -7q0 -91 -3.5 -304.5t-4.5 -291.5l8 -2q143 66 193.5 81.5t113.5 15.5q81 0 153.5 -55t115 -142.5t42.5 -181.5q0 -156 -55 -293q-51 -120 -164 -205q-43 -31 -116.5 -49t-155.5 -18q-115 0 -217 55 l-72 -78q-22 3 -84 13t-102 16q10 132 10 250v968zM453 236q0 -38 41.5 -60t83.5 -22q70 0 106 59q45 75 45 238q0 133 -33 190q-35 57 -86 57q-72 0 -155 -57q0 -61 -1 -201t-1 -204z" />
<glyph unicode="c" horiz-adv-x="903" d="M61 391q0 108 42 205t117.5 170t188 115.5t244.5 42.5q58 0 125 -15t103 -37q0 -46 -37.5 -128t-67.5 -99q-2 1 -32 13.5t-54.5 21.5t-61.5 18t-65 9q-74 0 -112 -64q-43 -72 -43 -209q0 -123 63 -196q43 -50 139 -50q99 0 236 56q32 -121 39 -164q-91 -49 -198 -74.5 t-181 -25.5q-192 0 -318.5 111.5t-126.5 299.5z" />
<glyph unicode="d" horiz-adv-x="1165" d="M61 393q0 236 158 408q53 59 132 91t151 32q88 0 176 -27l14 6q-1 64 -6 299l-154 4q-1 25 -1 54.5t0.5 64.5t0.5 53q52 4 169.5 18t212.5 25t104 11q6 0 6 -7q0 -158 -4 -594t-4 -628q0 -21 12 -21l105 6q2 -51 2 -168q-26 -11 -137.5 -25.5t-206.5 -14.5q-43 32 -74 92 h-15q-125 -59 -179 -75.5t-97 -16.5q-142 0 -240 98q-57 55 -91 137t-34 178zM414 430q0 -122 41 -186q13 -21 39.5 -37.5t52.5 -16.5q63 0 131 37q8 5 8 37q0 299 2 432q-70 29 -123 29q-68 0 -102 -55q-49 -77 -49 -240z" />
<glyph unicode="e" horiz-adv-x="1021" d="M61 403q0 145 64.5 263.5t183.5 188t269 69.5q91 0 162.5 -30t115.5 -79q105 -124 105 -319q-1 -20 -49 -68.5t-62 -50.5q-55 -6 -447 -6q5 -86 56 -133q52 -50 151 -50q62 0 147.5 18.5t141.5 39.5q26 -85 39 -170q-87 -40 -204.5 -68t-192.5 -28q-139 0 -245 44 t-170.5 141t-64.5 238zM403 535q114 0 232 4q18 0 18 22q0 83 -24 129q-27 62 -92 62q-61 0 -97 -56q-22 -34 -30 -68q-8 -31 -7 -81v-12z" />
<glyph unicode="f" horiz-adv-x="784" d="M35 709q0 31 1 92t1 88q53 0 123 4q12 3 12 16q0 133 25.5 206.5t93.5 144.5q62 63 128.5 99t116 46t107.5 10q131 0 223 -37q0 -57 -34 -132.5t-66 -96.5q-3 1 -26.5 10.5t-46.5 18.5t-53.5 16.5t-51.5 7.5q-54 0 -66 -35q-9 -29 -11.5 -77.5t-2.5 -194.5q46 0 135 1 t125 1q0 -101 -6 -190h-254q0 -70 -1 -262t-1 -269l184 -6q0 -28 -1 -84.5t-1 -83.5h-352q-42 0 -135 -1t-133 -1q0 113 2 168l100 6q8 4 8 10q0 357 -2 525h-141z" />
<glyph unicode="g" horiz-adv-x="1101" d="M2 -285q0 34 43 64q52 36 117.5 76.5t77.5 48.5v12q-37 15 -59.5 27.5t-47.5 34t-37 52.5t-12 72q0 18 29.5 38t171.5 98v14q-38 17 -73.5 42t-70 61t-55 86.5t-20.5 107.5q0 108 65.5 194.5t174 133.5t237.5 47q121 0 200 -19q30 -6 45 -6q180 11 306 16q5 -49 5 -115 q0 -32 -1 -69q-20 0 -80 -1t-86 -1l-4 -8q43 -57 43 -148q0 -127 -92 -225q-125 -128 -375 -128q-18 0 -37 1q-43 -37 -43 -69q0 -31 37.5 -40t167.5 -14q169 -5 236.5 -17.5t123.5 -51.5q54 -38 75 -77.5t21 -113.5q0 -102 -72 -184.5t-200 -126.5q-146 -55 -350 -55 q-218 0 -339.5 63.5t-121.5 179.5zM342 -264q0 -52 54 -80.5t132 -28.5q113 0 172 39q60 35 60 107q0 41 -28.5 56t-121.5 21q-52 3 -123 9.5t-90 7.5q-55 -68 -55 -131zM399 578q0 -118 32.5 -164.5t92.5 -46.5q119 0 119 223q0 88 -31 145q-23 43 -88 43q-56 0 -90.5 -53 t-34.5 -147z" />
<glyph unicode="h" horiz-adv-x="1222" d="M20 1206q0 29 1.5 87.5t1.5 84.5q50 4 162.5 18t202 25t97.5 11q7 0 7 -9q0 -92 -4 -303.5t-5 -298.5l11 -2q150 71 202 88t113 17q64 0 134 -51t108 -119q30 -52 30 -150q0 -7 -5 -430l104 -4q0 -115 -2 -168h-250q-104 0 -264 -4q0 28 1 85t1 85l73 6q6 0 6 8 q1 41 1 95t-0.5 117.5t-0.5 88.5q0 50 -0.5 73t-5 49.5t-14.5 43.5q-23 41 -80 41q-72 0 -160 -59q0 -205 -4 -455l97 -6q0 -102 -5 -168h-270q-43 0 -132 -1t-128 -1q0 117 2 170l98 4q7 4 7 10q0 158 1 513t1 505z" />
<glyph unicode="i" horiz-adv-x="653" d="M43 692q0 66 4 176q48 3 160 17.5t202.5 26.5t96.5 12q4 0 4 -6q-6 -669 -6 -742l112 -6v-168h-282q-45 0 -142 -1t-137 -1q0 115 2 168l109 6q8 0 8 8v506zM133 1223q0 67 53.5 118.5t135.5 51.5q85 0 132.5 -49t47.5 -117q0 -81 -56 -133t-135 -52q-69 0 -123.5 52.5 t-54.5 128.5z" />
<glyph unicode="j" horiz-adv-x="608" d="M-84 -371q148 74 188 146q34 62 48 147q14 80 14 222v20l-4 520l-154 4q0 29 2 89t2 87q40 5 161.5 20.5t218 27.5t102.5 12q4 0 4 -6q0 -118 -1 -385t-1 -386q0 -101 -11.5 -160t-46.5 -132q-57 -126 -142 -231t-177 -152q-51 0 -124.5 57t-78.5 100zM102 1229 q0 67 55 119.5t138 52.5q85 0 131.5 -49t46.5 -115q0 -84 -53.5 -136t-138.5 -52q-67 0 -123 52t-56 128z" />
<glyph unicode="k" horiz-adv-x="1169" d="M23 1204q0 29 1 86.5t1 83.5q42 5 160 20.5t205.5 26.5t96.5 11q5 0 5 -9q0 -61 -5 -858q12 1 33.5 1t39.5 1.5t34 3.5q81 72 143 146q5 8 -4 8l-76 4q0 117 2 170q45 0 145 1t142 1q55 2 176 2q0 -117 -2 -170l-76 -6q-166 -139 -225 -186v-13q27 -18 47 -36t48.5 -59 t52.5 -97q48 -112 63 -141q13 -19 31 -19l104 -4q0 -117 -4 -170q-349 0 -407 -4q-20 37 -88 240q-57 168 -101 168q-37 0 -80 -3q0 -33 -1 -114.5t-1 -114.5l74 -6q0 -113 -2 -166h-250q-42 0 -132 -1t-132 -1q0 62 4 168l100 6q7 0 7 8q0 159 1 513t1 505z" />
<glyph unicode="l" horiz-adv-x="632" d="M12 1206q0 64 4 170q46 5 161.5 19.5t206.5 25.5t99 11q6 0 6 -9q-1 -130 -4 -582.5t-4 -666.5l119 -4q0 -28 -1 -85t-1 -83h-285q-43 0 -140 -1t-140 -1q0 26 1 84t1 84l110 6q7 0 7 10v1014z" />
<glyph unicode="m" horiz-adv-x="1763" d="M53 696q0 60 4 166q41 4 142.5 19.5t184 28t87.5 12.5q6 0 6 -7l19 -114l6 -2q141 83 192.5 104t114.5 21q38 0 75 -16t65 -42t43 -42.5t26 -32.5h10q148 86 203 107.5t115 21.5q120 0 210 -117q28 -36 46 -86t18 -96q0 -52 -6 -445l106 -4q0 -60 -4 -170h-252 q-44 0 -130 -1t-122 -1v170l72 6q8 0 8 8v353q0 71 -14 100q-22 45 -80 45q-30 0 -70.5 -15t-72.5 -36q0 -66 -2 -229t-2 -226l82 -4q0 -88 -3 -170h-256q-40 0 -115.5 -1t-101.5 -1v170l74 6q8 3 8 10v371q0 63 -14 92q-15 37 -70 37q-30 0 -73 -17.5t-78 -41.5 q-4 -242 -4 -451l84 -4q0 -115 -2 -170h-265q-38 0 -125.5 -1t-125.5 -1q0 119 2 172l102 4q6 0 6 10v504z" />
<glyph unicode="n" horiz-adv-x="1247" d="M47 694q0 28 1 85.5t1 82.5q45 3 146 18t183.5 28.5t86.5 13.5t4 -7q5 -21 14.5 -63.5t14.5 -63.5l10 -2q148 90 207.5 114t130.5 24q61 0 119.5 -45t93.5 -103q47 -76 47 -182q0 -156 -8 -418l102 -6q0 -115 -2 -168h-264q-46 0 -134 -1t-122 -1q0 26 1 84t1 84l82 6 q8 0 8 8v277q0 84 -2.5 119.5t-13.5 56.5q-23 45 -78 45q-33 0 -79.5 -21t-84.5 -51q-6 -363 -6 -432l88 -6q0 -115 -2 -168h-256q-42 0 -136 -1t-134 -1q0 26 1 84t1 84l100 6q8 0 8 8v508z" />
<glyph unicode="o" horiz-adv-x="1118" d="M61 426q0 121 51.5 225.5t145.5 173.5q132 99 332 99q159 0 280 -76q84 -52 135.5 -150t51.5 -229q0 -130 -62 -240.5t-159 -171.5q-118 -77 -299 -77q-209 0 -324 98q-152 129 -152 348zM420 461q0 -198 49 -266q34 -56 94 -56q59 0 90 49q28 38 37.5 100.5t9.5 174.5 q0 150 -36 235q-14 31 -41 47.5t-56 16.5q-59 0 -92 -49q-55 -77 -55 -252z" />
<glyph unicode="p" horiz-adv-x="1171" d="M25 692q0 62 4 168q41 5 143.5 21.5t185 30.5t86.5 14q5 0 5 -4q4 -20 11 -57.5t11 -57.5l12 -2q154 83 202.5 101t113.5 18q83 0 155.5 -56.5t114.5 -150.5t41 -199q0 -135 -63 -274q-53 -121 -156 -199q-33 -25 -97 -45t-122 -20q-110 0 -180 28l-15 -4q2 -102 2 -311 l166 -6q0 -115 -2 -168q-221 0 -330 -2q-188 0 -270 -2q0 113 2 168l98 8q9 0 9 10l2 989zM483 236q0 -28 44 -50t81 -22q68 0 105 53q47 70 47 225q0 140 -33 191q-34 53 -80 53q-69 0 -160 -57q-4 -230 -4 -393z" />
<glyph unicode="q" horiz-adv-x="1138" d="M61 387q0 237 158 412q114 125 305 125q96 0 228 -45l110 73q88 -12 170 -34q-5 -58 -10 -220q-8 -653 -8 -914v-89l110 -2q0 -87 -6 -170q-39 0 -132.5 -1t-143.5 -1q-42 0 -94.5 -1t-119 -2.5t-102.5 -2.5q0 115 4 170l152 10q8 0 8 10l4 352h-16q-78 -37 -130 -54.5 t-72.5 -20t-53.5 -2.5q-137 0 -236 94q-125 115 -125 313zM414 432q0 -128 43 -190q13 -21 38.5 -37.5t51.5 -16.5q60 0 131 35q10 6 10 37v432q-60 33 -121 33q-28 0 -56.5 -14t-45.5 -41q-51 -83 -51 -238z" />
<glyph unicode="r" horiz-adv-x="933" d="M53 700q0 66 4 168q39 4 139.5 18.5t182 26t86.5 11.5q4 0 4 -6q9 -129 18 -261l15 -2q48 92 82 144.5t66 81.5t59 37t69 8q70 0 148 -29q0 -68 -34 -168t-63 -127q-5 1 -29 6.5t-52 10t-50 4.5q-33 0 -57 -19q-53 -42 -106 -143q-31 -56 -31 -174q-2 -35 -2 -113l170 -6 q0 -60 -4 -166h-312q-44 0 -144.5 -1t-143.5 -1q0 115 2 166l96 6q8 0 8 8v516z" />
<glyph unicode="s" horiz-adv-x="915" d="M55 293q117 25 181 33l32 -117q5 -15 17 -23q53 -30 112 -30q55 0 80 10q45 22 45 67q0 38 -29.5 56.5t-134.5 46.5q-274 79 -274 272q0 86 52 154t124 102q120 60 293 60q80 0 148.5 -9t97.5 -20q19 -172 28 -272q-103 -19 -184 -29l-31 108q-5 18 -14 23q-33 23 -80 23 q-52 0 -78 -17q-37 -25 -37 -72q0 -32 33 -48t160 -50q124 -34 186 -92t62 -172q0 -85 -48 -154.5t-132 -111.5q-109 -51 -306 -51q-161 0 -270 32q-17 130 -33 281z" />
<glyph unicode="t" horiz-adv-x="868" d="M29 709q0 89 6 174q20 1 66 5t67 5q5 0 9.5 4.5t4.5 11.5q2 31 7.5 91.5t7.5 78.5q47 23 122 50.5t127 44t56 16.5q6 0 6 -8q-1 -23 -3 -142t-3 -145q53 0 160.5 1t154.5 1q0 -111 -8 -192q-42 0 -150.5 1t-156.5 1v-170q-2 -84 -2 -250q0 -41 29 -66.5t65 -25.5 q105 0 223 30q15 -81 25 -172q-190 -73 -445 -73q-91 0 -157 61q-45 39 -58.5 75t-13.5 87q0 69 1 152.5t1 84.5q0 25 1 144t1 125h-143z" />
<glyph unicode="u" horiz-adv-x="1165" d="M41 723q0 28 1 85t1 83q45 2 223.5 7.5t192.5 6.5q6 0 6 -8q-6 -429 -6 -473v-20v-21v-20.5t1 -22t2 -20t3 -20.5l4.5 -18t6 -18.5t7.5 -15.5q17 -26 36 -33.5t46 -7.5q65 0 123 43q1 62 1 146.5t-0.5 183.5t-0.5 137l-100 4q0 29 1 88.5t1 85.5q312 8 430 8q4 0 4 -8 q-6 -651 -6 -698q0 -13 8 -13l115 4q0 -115 -2 -170q-18 -9 -131 -23.5t-203 -14.5q-43 32 -96 102h-9q-120 -68 -172.5 -85t-119.5 -17q-93 0 -186 97t-93 191q0 81 1 234t1 217z" />
<glyph unicode="v" horiz-adv-x="1060" d="M6 729q1 28 2 87.5t2 86.5h248h289q0 -117 -2 -174l-88 -4q13 -64 51 -215q14 -50 37.5 -134t32.5 -116h14q13 44 38 119.5t38 116.5q5 19 25 93.5t32 123.5q0 10 -8 10l-66 4q0 123 2 174h234q29 0 90.5 1t87.5 1q0 -62 -4 -172l-78 -4q-55 -136 -145 -344 q-68 -159 -185 -401q-59 -2 -297 -2q-100 268 -163 456q-22 63 -52.5 155.5t-42.5 125.5q0 4 -12 8z" />
<glyph unicode="w" horiz-adv-x="1519" d="M10 729q0 29 1 88.5t1 85.5h234h305q0 -117 -2 -176l-117 -4q21 -168 27 -213q21 -147 39 -252l14 -4q62 223 172 557q41 6 270 6q91 -354 142 -571h16q45 234 49 256q22 114 37 213q0 8 -8 8l-94 4q0 68 4 174h264q28 0 84 1t78 1q0 -62 -4 -172l-76 -4 q-58 -180 -115 -346q-27 -78 -139 -397q-126 -4 -303 -4q-90 306 -129 442h-12q-47 -126 -173 -438q-140 -4 -294 -4q-63 240 -103 405q-56 214 -82 330q-4 8 -14 8z" />
<glyph unicode="x" horiz-adv-x="1095" d="M6 0q0 117 2 170l74 6q12 0 24 8q109 106 259 240v16q-211 242 -244 277q-5 5 -15 8l-73 4q0 121 2 174h239h306q0 -119 -2 -174l-76 -4q97 -121 116 -141h17q39 42 106 131q4 8 -4 8l-55 4q0 29 1 88t1 86h217q29 0 89 1t83 1q0 -62 -4 -172l-63 -4q-25 -24 -78 -77.5 t-98.5 -97.5t-86.5 -81v-12q45 -51 129 -148.5t115 -132.5l86 -6q0 -117 -2 -172h-237h-306q0 28 1 87t1 85l60 4q15 4 8 14q-47 61 -104 121h-17q-21 -23 -112 -135l63 -4q-1 -28 -2 -86t-2 -86h-225h-193z" />
<glyph unicode="y" horiz-adv-x="1052" d="M10 729q0 68 4 174h242h293q0 -119 -2 -174l-94 -4q25 -88 65 -213q9 -28 82 -240h12q45 138 62 217q49 216 51 224q0 10 -8 10l-70 4q0 123 2 174h234q29 0 90 1t84 1q0 -62 -4 -172l-74 -4q-124 -316 -172 -436q-174 -423 -303 -627q-48 -76 -85.5 -124t-72.5 -68 q-52 0 -149 66.5t-97 105.5q86 48 148 108q114 103 151 197q-133 329 -170 428q-30 76 -76 199t-53 141q-1 3 -12 8z" />
<glyph unicode="z" horiz-adv-x="1024" d="M37 154q64 69 135 143.5t121.5 126t141.5 145t149 152.5l-2 10h-209q-42 0 -54 -31l-61 -161q-91 12 -188 32q10 50 32.5 162t34.5 170q15 1 29 1h12q18 0 75 -1.5t109 -1.5q162 -2 535 -2q37 -111 55 -219q-77 -92 -518 -502l4 -8q18 1 49 1.5t81.5 1t88.5 1.5 q61 3 72 39l68 160q53 -9 180 -41q-35 -155 -82 -332h-367h-260h-180q-30 81 -51 154z" />
<glyph unicode="{" horiz-adv-x="835" d="M131 623q47 0 79.5 7t50.5 18t27.5 29.5t12 35t2.5 41.5q0 40 -27 151t-28 193q0 175 129 269.5t371 94.5q3 -73 -3 -145q-73 0 -121 -15.5t-69 -45.5t-28 -59.5t-7 -72.5q0 -74 20.5 -187t20.5 -161q0 -92 -52.5 -144t-137.5 -71v-16q79 -15 133.5 -72.5t54.5 -148.5 q0 -60 -21.5 -182t-21.5 -210q0 -93 48.5 -138.5t174.5 -45.5q4 -95 2 -145q-221 0 -358 90.5t-137 255.5q0 84 29.5 209.5t29.5 181.5q0 35 -4.5 55.5t-21 41t-52.5 29t-94 7.5q-2 47 -2 150z" />
<glyph unicode="|" d="M483 -512v2048h189v-2048h-189z" />
<glyph unicode="}" horiz-adv-x="835" d="M94 -252q126 0 175.5 47.5t49.5 136.5q0 87 -20 209t-20 183q0 91 54.5 148.5t133.5 72.5v16q-188 42 -188 209q0 52 21.5 166.5t21.5 187.5q-1 39 -4.5 64t-17 52t-37 42t-65.5 25t-102 10q-5 64 -2 145q498 0 498 -364q1 -83 -27 -194.5t-28 -149.5q0 -32 4.5 -51.5 t20 -40t51.5 -30t94 -9.5q0 -103 -2 -150q-57 1 -93 -8t-53 -28.5t-22 -41t-5 -55.5q0 -56 29 -181.5t29 -209.5q0 -164 -137.5 -255t-358.5 -91q-4 50 0 145z" />
<glyph unicode="~" d="M121 319q3 147 77 243.5t181 96.5q57 0 104.5 -15.5t114.5 -49.5q8 -4 37.5 -18t41 -19t33.5 -14t37.5 -12t30.5 -3q38 0 66 36.5t28 97.5q24 2 52.5 2t60 -1t45.5 -1q0 -147 -73.5 -243.5t-182.5 -96.5q-39 0 -83 12t-66 21.5t-76 35.5q-12 5 -53 25t-67.5 28.5 t-53.5 8.5q-37 0 -65 -36t-31 -98q-42 -5 -158 0z" />
<glyph unicode="&#xa1;" horiz-adv-x="643" d="M121 -428q7 68 44 418t48 461q29 9 102 17.5t101 8.5q2 -14 11.5 -96.5t21.5 -183t14 -121.5q58 -425 63 -453q-59 -14 -208.5 -33.5t-196.5 -19.5v2zM141 760q0 71 50 117.5t126 46.5q70 0 119 -45t49 -113q0 -72 -50 -120t-128 -48q-74 0 -120 47t-46 115z" />
<glyph unicode="&#xa2;" d="M125 606q0 195 128 338.5t363 179.5v211q88 16 172 21q-1 -37 -2 -111t-2 -112h17q60 0 127 -13.5t112 -36.5q0 -49 -28.5 -127.5t-59.5 -97.5l-26 14l-38 19t-35.5 16.5t-42.5 15.5t-36 7q-8 -334 -10 -514q100 3 227 49q14 -41 43 -150q-132 -63 -266 -82 q-4 -168 -4 -245q-27 -2 -81.5 -7.5t-80.5 -7.5q0 160 2 246q-65 1 -128 12.5t-128 39.5t-113.5 70.5t-79 111t-30.5 153.5zM440 655q0 -102 49 -166q36 -51 115 -73q1 73 3 248.5t3 267.5q-71 -14 -120.5 -92t-49.5 -185z" />
<glyph unicode="&#xa3;" d="M27 -2q0 60 4 186l153 6q14 0 27 9q39 42 54.5 98t15.5 143q0 60 -9 113h-194q0 64 4 174h145q6 0 6 8q-32 126 -32 213q0 80 42 158.5t117 128.5q85 58 174 81t207 23q111 0 230 -34q21 -254 28 -367q-171 -22 -200 -25l-47 201q-5 19 -13 23q-19 12 -71 12 q-51 0 -88 -43q-35 -43 -35 -150q0 -55 28 -219q138 0 318 4q2 -67 -6 -190q-185 0 -285 2q0 -13 1 -39t1 -35q0 -78 -38.5 -149t-102.5 -125q-15 -13 -14 -17t20 -4q288 0 326 17q31 6 43 45l65 200q91 -16 203 -45q-51 -245 -86 -405q-148 4 -658 4q-51 0 -163 -1t-170 -1 z" />
<glyph unicode="&#xa4;" d="M76 147q62 74 164 191q-53 45 -84 120t-31 163q0 83 35 164t94 135q-31 38 -83 101t-69 83q49 49 127 115q93 -111 160 -199q80 47 217 47q118 0 185 -33q62 75 153 195q73 -56 129 -115q-83 -102 -145 -176q54 -48 84 -126t30 -157q0 -92 -35.5 -174.5t-99.5 -134.5 q28 -33 85.5 -99.5t82.5 -96.5q-85 -77 -127 -105q-9 10 -71.5 82.5t-104.5 118.5q-31 -18 -87.5 -29.5t-115.5 -11.5q-120 0 -192 35q-36 -39 -96.5 -106.5t-85.5 -94.5q-69 52 -119 108zM336 631q0 -131 82 -209q23 -21 69.5 -37t92.5 -16q92 0 155 47q96 74 96 229 q0 142 -100 217q-51 39 -143 39q-100 0 -158 -51q-94 -84 -94 -219z" />
<glyph unicode="&#xa5;" d="M23 1135q0 116 2 165h227q60 0 174.5 1.5t151.5 1.5q0 -85 -3 -168l-114 -7q31 -73 186 -415h15q124 266 182 401q3 12 -10 12l-103 7q0 112 2 167h254q31 0 84.5 1.5t69.5 1.5q0 -115 -2 -168l-70 -5q-147 -259 -278 -471q45 0 123.5 1.5t107.5 1.5q4 -80 -2 -142h-299 v-102h301q0 -88 -2 -133q-42 0 -143.5 -1t-155.5 -1l-2 -107l168 -8q0 -54 -4 -168q-39 0 -149.5 1t-166.5 1q-48 0 -155 -1t-156 -1q0 62 4 168l146 6q10 0 10 14v95q-47 0 -150.5 -1t-144.5 -1q0 55 4 137q41 0 139 -1t152 -1v106h-293q0 86 4 129h250q-242 416 -271 467 q-8 12 -22 12z" />
<glyph unicode="&#xa6;" d="M483 358h189v-716h-189v716zM483 666v716h189v-716h-189z" />
<glyph unicode="&#xa7;" horiz-adv-x="974" d="M33 -317q15 52 60 108.5t97 75.5q51 -44 115.5 -76.5t124.5 -32.5q63 0 98 35t35 90q0 18 -4 34t-8 27.5t-17.5 25.5t-21.5 22t-32.5 23.5t-37.5 23.5t-48.5 28.5t-55.5 32.5q-64 39 -108.5 74.5t-80 79.5t-52.5 98t-17 119q0 181 139 326q-67 79 -67 194 q0 69 35.5 134.5t95.5 111.5q126 100 321 100q91 0 172 -25t135 -67q-8 -47 -50 -102.5t-95 -79.5q-39 37 -103 66.5t-116 29.5q-69 0 -101 -37q-32 -35 -32 -82q0 -27 8 -47.5t31.5 -39.5t42 -30.5t64.5 -36.5t75 -42q78 -47 131.5 -95.5t91 -125t37.5 -168.5 q0 -177 -125 -318q24 -25 40.5 -75t16.5 -111q0 -159 -131 -270q-120 -103 -293 -103q-218 0 -370 105zM301 565q0 -38 11.5 -68.5t37 -55t44 -38t54.5 -35.5q9 -5 13 -8q18 -13 84 -53.5t94 -60.5q31 50 31 127q0 66 -38 110t-114 95q-15 11 -75.5 50.5t-94.5 67.5 q-47 -54 -47 -131z" />
<glyph unicode="&#xa8;" horiz-adv-x="921" d="M139 1169q0 47 35 84t94 37q56 0 89.5 -34.5t33.5 -81.5q0 -57 -35.5 -92t-93.5 -35q-49 0 -86 34t-37 88zM530 1174q0 47 34 81.5t93 34.5q57 0 91 -37t34 -84q0 -53 -37.5 -87.5t-87.5 -34.5q-58 0 -92.5 35t-34.5 92z" />
<glyph unicode="&#xa9;" horiz-adv-x="1550" d="M90 657q0 141 55 269t147.5 221.5t222 149t271.5 55.5q144 0 269.5 -52t214.5 -141.5t140.5 -215t51.5 -267.5q0 -141 -54.5 -270t-147.5 -222t-221.5 -148.5t-270.5 -55.5q-193 0 -348 88t-242.5 243t-87.5 346zM225 659q0 -159 69 -290t195.5 -208t284.5 -77 t285.5 80.5t197.5 214.5t70 293t-69 290t-196 208t-286 77q-157 0 -284.5 -80.5t-197 -214.5t-69.5 -293zM420 612q0 209 160 338q119 90 286 90q110 0 160 -16q12 -122 18 -252q-13 -3 -129 -18l-28 125q0 12 -8 16q-17 14 -48 14q-61 0 -102 -41q-43 -43 -61.5 -92.5 t-18.5 -128.5q0 -114 62 -172q50 -47 137 -47q36 0 94.5 11t85.5 22q20 -105 21 -117q-55 -27 -124 -43t-122 -16q-164 0 -250 67q-58 43 -95.5 111.5t-37.5 148.5z" />
<glyph unicode="&#xaa;" horiz-adv-x="837" d="M47 772q0 37 21 78t60 79t106.5 62.5t150.5 24.5h82q2 61 -19.5 93t-72.5 32q-39 0 -97 -27t-104 -63q-38 46 -80 112q96 79 183 117.5t196 38.5q89 0 164.5 -70t75.5 -166q0 -56 -1 -174.5t-1 -148.5q0 -12 6 -12l84 4q0 -88 -2 -129q-139 -31 -262 -31q-32 21 -58 67 h-8q-114 -67 -221 -67q-69 0 -136 54.5t-67 125.5zM289 801q0 -24 24.5 -41t53.5 -17q27 0 56.5 10.5t41.5 22.5q4 4 4 10v113q-4 2 -31 2q-74 0 -111.5 -27.5t-37.5 -72.5z" />
<glyph unicode="&#xab;" horiz-adv-x="991" d="M102 520q60 57 344 342q50 -38 97 -92q-36 -57 -100 -161t-95 -154q74 -124 195 -322q-19 -20 -99 -90q-42 42 -157.5 159t-180.5 181q-4 43 -4 137zM500 510q20 21 323 338q40 -33 92 -88q-30 -52 -91 -153.5t-91 -153.5q30 -51 93 -154t94 -154q-23 -25 -91 -88 q-57 58 -163.5 168t-161.5 166q-4 39 -4 119z" />
<glyph unicode="&#xac;" d="M121 410q1 25 3 88t3 94q130 1 443.5 4t443.5 4q12 0 12 -8q0 -92 -3 -292.5t-3 -270.5q-88 -6 -184 -6v385q-123 0 -368.5 1t-346.5 1z" />
<glyph unicode="&#xad;" horiz-adv-x="768" d="M76 406q0 15 2.5 82.5t3.5 101.5q201 0 301 2q121 0 309 4q0 -112 -8 -193h-315q-39 0 -143.5 1.5t-149.5 1.5z" />
<glyph unicode="&#xae;" horiz-adv-x="1036" d="M88 922q0 179 126 304.5t310 125.5q186 0 305 -118.5t119 -301.5q0 -179 -126.5 -304.5t-309.5 -125.5q-187 0 -305.5 118t-118.5 302zM180 924q0 -149 93.5 -246.5t242.5 -97.5q147 0 242.5 101t95.5 249q0 150 -94 247t-244 97q-148 0 -242 -100t-94 -250zM309 707v69 l37 2v301h-37v72q63 2 183 2q75 0 122 -12q47 -10 73 -40.5t26 -66.5q0 -43 -25.5 -73.5t-62.5 -45.5v-12q18 -8 32.5 -29.5t42.5 -74.5q12 -21 23 -21l31 -2v-69h-156q-39 81 -61 139q-9 22 -41 22h-15v-90l37 -2v-69h-209zM481 938h15q38 0 61 20t23 56q0 32 -23 49.5 t-59 17.5h-17v-143z" />
<glyph unicode="&#xaf;" horiz-adv-x="921" d="M217 1221q332 4 490 4q3 -77 0 -150q-69 0 -237 1t-251 1q-6 60 -2 144z" />
<glyph unicode="&#xb0;" horiz-adv-x="786" d="M100 1065q0 111 84.5 192.5t208.5 81.5h4q131 0 211 -74.5t80 -193.5q0 -118 -85.5 -196t-209.5 -78q-125 0 -209 71.5t-84 196.5zM281 1067q0 -65 33.5 -104t82.5 -39q53 0 82 39t29 104q0 67 -28 106t-85 39q-50 0 -82 -42t-32 -103z" />
<glyph unicode="&#xb1;" d="M127 -4q0 74 8 188q124 0 453 -1t442 -1q0 -90 -6 -178zM133 549q0 97 6 182q79 0 353 4l-3 305q137 9 195 9q0 -64 -4 -310q60 1 182.5 2t171.5 2q2 -69 -6 -196h-350q0 -48 -1 -137.5t-1 -122.5q-110 -8 -184 -8v270h-359z" />
<glyph unicode="&#xb2;" horiz-adv-x="794" d="M82 920q117 74 176 122q86 73 136 137t50 130q0 42 -24 73q-19 25 -62 25q-40 0 -67 -21q-6 -3 -6 -12l-27 -121q-29 1 -87 7t-62 6q8 173 10 231q113 45 274 45q160 0 228 -65q69 -66 69 -164q0 -152 -225 -301q-38 -26 -80 -45v-11q27 0 91.5 2.5t135 6t86.5 4.5 q2 0 2 -2q0 -64 -8 -162q-41 0 -203.5 1t-203.5 1h-172q-18 54 -31 113z" />
<glyph unicode="&#xb3;" horiz-adv-x="794" d="M94 1030q62 12 158 23l24 -115q0 -2 11 -12q5 -3 22 -7t27 -4q58 0 82 21q33 29 33 68q0 54 -37.5 80t-120.5 26h-72q-4 84 -2 123q70 -1 116 6.5t68.5 24.5t31 36t9.5 48q0 31 -20 51q-18 18 -62 18q-42 0 -67 -18q-6 -3 -6 -10l-23 -103q-26 2 -77 5t-76 5q4 132 8 205 q119 39 270 39q163 0 221 -45q72 -54 72 -125q0 -127 -152 -168v-10q82 -13 125 -62t43 -110q0 -106 -94 -168q-89 -59 -282 -59q-116 0 -207 16q-19 175 -23 221z" />
<glyph unicode="&#xb4;" horiz-adv-x="921" d="M266 1110q30 28 322 309q67 -67 135 -155q-55 -39 -179 -128t-186 -132q-50 54 -92 106z" />
<glyph unicode="&#xb5;" horiz-adv-x="1165" d="M115 -508q6 276 6 774q0 235 4 559q63 34 162.5 57t163.5 23q6 0 6 -8q-4 -300 -4 -463v-32.5v-35.5t1.5 -30t4 -33t8 -26t12.5 -27q18 -27 36.5 -36t47.5 -9q49 0 87 29t38 79v512q63 33 166 55.5t164 22.5q4 0 4 -8q0 -97 -2 -300t-2 -290q0 -62 9 -89.5t32 -27.5 q38 0 104 17q20 -120 23 -162q-42 -25 -149 -44t-212 -19q-40 27 -108 116h-12q-112 -114 -197 -114q-48 0 -92 41l-10 -5q1 -65 4.5 -161.5t7.5 -189t4 -101.5q-45 -32 -149 -54t-158 -20z" />
<glyph unicode="&#xb6;" horiz-adv-x="1300" d="M88 815q0 84 24.5 157.5t66.5 127t89.5 92.5t102.5 65q141 76 481 76q149 0 395 -8q2 -49 2 -174l-143 2l-8 -1454q-89 -23 -183 -33l-4 1491h-135l-6 -1464q-91 -25 -188 -35l-2 692h-43q-30 0 -83 11.5t-100 33.5q-266 128 -266 420z" />
<glyph unicode="&#xb7;" horiz-adv-x="608" d="M127 530q0 70 49.5 121t132.5 51q77 0 123.5 -48.5t46.5 -118.5q0 -77 -50.5 -125t-129.5 -48q-67 0 -119.5 48t-52.5 120z" />
<glyph unicode="&#xb8;" horiz-adv-x="921" d="M283 -403q172 6 172 100q0 25 -23 51q-29 33 -102 27q-3 9 -12 34t-13 35l193 162h172l-172 -145q62 -11 102.5 -55t40.5 -107q0 -96 -88.5 -157.5t-257.5 -61.5q-8 47 -12 117z" />
<glyph unicode="&#xb9;" horiz-adv-x="794" d="M115 1423q64 16 170.5 48.5t181 55.5t86.5 23q2 0 2 -6q0 -84 -1 -300.5t-1 -313.5l168 -2q0 -82 -2 -119h-270q-48 0 -153 -1t-163 -1q0 80 2 121l184 2q5 0 5 8v389q-54 -6 -191 -24q-14 92 -18 120z" />
<glyph unicode="&#xba;" horiz-adv-x="854" d="M59 936q0 93 37 172.5t105 132.5q96 78 248 78q130 0 213 -62q59 -39 96 -113.5t37 -172.5q0 -101 -42.5 -185.5t-109.5 -130.5q-89 -63 -231 -63q-159 0 -244 82q-109 102 -109 262zM317 961q0 -147 37 -203q25 -41 76 -41q50 0 72 35q35 52 35 211q0 130 -29 184 q-24 47 -74 47q-49 0 -76 -37q-41 -61 -41 -196z" />
<glyph unicode="&#xbb;" horiz-adv-x="991" d="M74 145q120 194 188 308q-30 52 -90.5 153.5t-91.5 153.5q52 55 92 88q83 -88 324 -338q0 -45 -4 -119q-50 -50 -104.5 -105.5t-119.5 -122t-104 -106.5q-8 8 -41 39.5t-49 48.5zM449 133q55 87 196 320q-97 163 -194 317q34 36 98 92q117 -119 342 -344q0 -49 -4 -135 q-164 -167 -340 -340q-75 65 -98 90z" />
<glyph unicode="&#xbc;" horiz-adv-x="1824" d="M137 1217q64 16 170.5 48.5t181 55t86.5 22.5q3 0 3 -6q0 -85 -1.5 -301.5t-1.5 -312.5l168 -2q0 -82 -2 -121h-270h-315q0 80 2 121l184 2q4 0 4 6v391q-26 -3 -55.5 -7t-68.5 -9.5t-66 -9.5q-3 19 -6 40t-7 45.5t-6 37.5zM481 41q184 289 369 584q64 105 210.5 351.5 t227.5 381.5q98 -46 148 -82q-38 -62 -207 -335.5t-242 -393.5q-60 -96 -369 -584q-9 5 -59 32.5t-78 45.5zM1006 301q20 26 51.5 67t59.5 77t59 75q105 131 172 209q5 0 233 -6q0 -57 -1 -204t-1 -216h129q0 -82 -4 -129h-127v-72l86 -2q0 -67 -2 -98h-215q-37 0 -111.5 -1 t-111.5 -1v100l151 2q6 0 6 7v57h-317q-36 70 -57 135zM1192 317q-8 -14 6 -14h182l2 256h-14q-26 -36 -60 -80t-44 -59q-55 -75 -72 -103z" />
<glyph unicode="&#xbd;" horiz-adv-x="1824" d="M115 1217q64 16 170.5 48.5t181 55t86.5 22.5q2 0 2 -6q0 -85 -1 -301.5t-1 -312.5l168 -2q0 -82 -2 -121h-270h-316q0 80 2 121l184 2q5 0 5 6v391q-26 -3 -56 -7t-69.5 -9.5t-65.5 -9.5q-9 64 -18 123zM459 41q54 84 115.5 182.5t135.5 217t115 184.5q64 106 211 352.5 t228 380.5q89 -40 147 -82q-89 -146 -244 -399t-202 -330q-175 -275 -371 -584q-13 8 -61 34t-74 44zM1102 113q111 70 176 123q55 45 91 81.5t65.5 86.5t29.5 96q0 42 -24 73q-19 25 -62 25q-41 0 -67 -20q-6 -3 -6 -13l-27 -121q-22 1 -47.5 3t-56 5.5t-46.5 4.5 q1 43 5.5 119.5t5.5 111.5q113 45 274 45q159 0 227 -65q70 -67 70 -164q0 -150 -225 -299q-38 -26 -80 -45v-10q27 0 91 2.5t136.5 6t85.5 3.5q2 0 2 -2q0 -62 -8 -160h-407h-172q-18 54 -31 113z" />
<glyph unicode="&#xbe;" horiz-adv-x="1824" d="M166 823q69 13 158 23l24 -115q2 -7 10 -12q4 -3 22.5 -6.5t27.5 -3.5q58 0 84 20q32 28 32 68q0 54 -38 80t-121 26h-72q-4 84 -2 123q93 -1 144.5 14.5t66 38.5t14.5 62q0 31 -20 51q-18 18 -62 18q-42 0 -67 -18q-7 -4 -7 -10l-22 -103q-26 2 -77 5.5t-77 5.5 q3 100 9 204q119 39 270 39q165 0 223 -45q72 -57 72 -125q0 -126 -154 -168v-10q83 -13 126.5 -62t43.5 -110q0 -107 -96 -168q-86 -59 -283 -59q-129 0 -207 16q-11 81 -22 221zM461 41q186 292 366 584q77 126 236.5 392.5t204.5 340.5q95 -45 147 -82 q-381 -620 -448 -729q-60 -96 -369 -584q-9 5 -59 32.5t-78 45.5zM985 301q20 26 51.5 67t59.5 77t59 75q105 131 172 209q6 0 234 -6q0 -57 -1 -204t-1 -216h129q0 -70 -5 -129h-127v-72l86 -2q0 -67 -2 -98h-215q-37 0 -111.5 -1t-111.5 -1v100l152 2q6 0 6 7v57h-318 q-36 70 -57 135zM1171 317q-8 -14 7 -14h182l2 256h-14q-26 -37 -60.5 -80.5t-44.5 -58.5q-55 -75 -72 -103z" />
<glyph unicode="&#xbf;" horiz-adv-x="1003" d="M59 -129q0 72 24 132.5t73.5 111t111.5 92.5t152 88q33 22 33 39q0 46 -9 123q85 36 218 41q26 -38 52 -108.5t27 -123.5q-72 -50 -114.5 -81.5t-84 -68.5t-62 -68.5t-33 -68t-13.5 -79.5q0 -66 38.5 -106t92.5 -40q55 0 90 25q13 10 15 22l47 168q123 -10 213 -24 q-11 -197 -23 -326q-61 -30 -178 -50t-235 -20q-197 0 -316 84.5t-119 237.5zM385 768q0 65 51 110.5t127 45.5q66 0 116 -42t50 -108q0 -70 -51 -119t-129 -49q-72 0 -118 45t-46 117z" />
<glyph unicode="&#xc0;" horiz-adv-x="1306" d="M-18 0q0 117 2 172l94 6q9 0 12 10q69 184 223 599t205 550q56 6 281 6q65 -187 204.5 -604t188.5 -559l104 -8q0 -27 -1 -85t-1 -87h-245h-332q0 30 1 88t1 86l100 6q11 0 8 10l-41 127q-3 11 -14 11l-379 -4q-4 -23 -17.5 -74t-17.5 -72l113 -6q0 -115 -2 -172h-287 h-200zM360 1636q69 116 117 176q156 -111 365 -260q-44 -75 -78 -118q-105 54 -404 202zM446 510q-3 -12 5 -12h284q-21 68 -68 226t-71 239h-10q-21 -68 -69 -223.5t-71 -229.5z" />
<glyph unicode="&#xc1;" horiz-adv-x="1306" d="M-18 0q0 117 2 172l94 6q9 0 12 10q69 184 223 599t205 550q56 6 281 6q65 -187 204.5 -604t188.5 -559l104 -8q0 -27 -1 -85t-1 -87h-245h-332q0 30 1 88t1 86l100 6q11 0 8 10l-41 127q-3 11 -14 11l-379 -4q-4 -23 -17.5 -74t-17.5 -72l113 -6q0 -115 -2 -172h-287 h-200zM446 510q-3 -12 5 -12h284q-21 68 -68 226t-71 239h-10q-21 -68 -69 -223.5t-71 -229.5zM449 1550q345 247 364 260q50 -60 115 -176l-199 -99.5l-205 -102.5q-43 63 -75 118z" />
<glyph unicode="&#xc2;" horiz-adv-x="1306" d="M-18 0q0 117 2 172l94 6q9 0 12 10q69 184 223 599t205 550q56 6 281 6q65 -187 204.5 -604t188.5 -559l104 -8q0 -27 -1 -85t-1 -87h-245h-332q0 30 1 88t1 86l100 6q11 0 8 10l-41 127q-3 11 -14 11l-379 -4q-4 -23 -17.5 -74t-17.5 -72l113 -6q0 -115 -2 -172h-287 h-200zM330 1544q172 136 291 234q62 4 90 2q19 -14 295 -234q-25 -38 -86 -104q-37 23 -124.5 75t-129.5 78q-43 -26 -130.5 -77.5t-123.5 -73.5q-21 21 -82 100zM446 510q-3 -12 5 -12h284q-21 68 -68 226t-71 239h-10q-21 -68 -69 -223.5t-71 -229.5z" />
<glyph unicode="&#xc3;" horiz-adv-x="1306" d="M-18 0q0 117 2 172l94 6q9 0 12 10q69 184 223 599t205 550q56 6 281 6q65 -187 204.5 -604t188.5 -559l104 -8q0 -27 -1 -85t-1 -87h-245h-332q0 30 1 88t1 86l100 6q11 0 8 10l-41 127q-3 11 -14 11l-379 -4q-4 -23 -17.5 -74t-17.5 -72l113 -6q0 -115 -2 -172h-287 h-200zM319 1468q3 109 60.5 188t142.5 79q27 0 58 -9.5t44 -16t50 -26.5q5 -3 18 -10t18 -9.5l16 -8t16 -7.5t14 -5.5t14.5 -5t13 -2.5t13.5 -1q30 0 53.5 26.5t26.5 68.5q39 4 118 0q-7 -118 -56.5 -192.5t-145.5 -74.5q-26 0 -57 10t-47 18t-52 28q-65 37 -89 42 q-14 3 -30 3q-31 0 -53.5 -25.5t-26.5 -69.5q-40 -4 -119 0zM446 510q-3 -12 5 -12h284q-21 68 -68 226t-71 239h-10q-21 -68 -69 -223.5t-71 -229.5z" />
<glyph unicode="&#xc4;" horiz-adv-x="1306" d="M-18 0q0 117 2 172l94 6q9 0 12 10q69 184 223 599t205 550q56 6 281 6q65 -187 204.5 -604t188.5 -559l104 -8q0 -27 -1 -85t-1 -87h-245h-332q0 30 1 88t1 86l100 6q11 0 8 10l-41 127q-3 11 -14 11l-379 -4q-4 -23 -17.5 -74t-17.5 -72l113 -6q0 -115 -2 -172h-287 h-200zM326 1583q0 47 36 85t97 38q57 0 91 -36t34 -83q0 -59 -35.5 -94t-95.5 -35q-51 0 -89 35.5t-38 89.5zM446 510q-3 -12 5 -12h284q-21 68 -68 226t-71 239h-10q-21 -68 -69 -223.5t-71 -229.5zM750 1587q0 47 35 83t94 36q58 0 93.5 -38t35.5 -85q0 -54 -38 -89.5 t-89 -35.5q-60 0 -95.5 35t-35.5 94z" />
<glyph unicode="&#xc5;" horiz-adv-x="1306" d="M-18 0q0 117 2 172l94 6q9 0 12 10q69 184 223 599t205 550q56 6 281 6q65 -187 204.5 -604t188.5 -559l104 -8q0 -27 -1 -85t-1 -87h-245h-332q0 30 1 88t1 86l100 6q11 0 8 10l-41 127q-3 11 -14 11l-379 -4q-4 -23 -17.5 -74t-17.5 -72l113 -6q0 -115 -2 -172h-287 h-200zM399 1638q0 85 74.5 150t183.5 65q110 0 181 -59.5t71 -151.5q0 -93 -74.5 -154t-181.5 -61q-109 0 -181.5 56t-72.5 155zM446 510q-3 -12 5 -12h284q-21 68 -68 226t-71 239h-10q-21 -68 -69 -223.5t-71 -229.5zM551 1638q0 -48 30.5 -77t73.5 -29q47 0 74 29t27 79 q0 49 -27.5 79t-73.5 30q-43 0 -73.5 -32.5t-30.5 -78.5z" />
<glyph unicode="&#xc6;" horiz-adv-x="1855" d="M-25 0q0 115 2 172l113 10q7 0 14 11q44 77 191.5 332t260.5 448.5t202 343.5q7 12 18 12h287h469h203q12 -177 18 -362q-16 -2 -87.5 -10t-111.5 -11l-32 156q-3 15 -12 23.5t-29 11.5q-87 12 -217 12h-19l-4 -444q78 2 178 6q25 0 31 39l12 75q71 2 193 -2 q-2 -66 -2 -213q-2 -68 -2 -170q-91 -6 -193 -6l-10 58q-1 21 -8 28.5t-23 7.5q-57 2 -176 2v-305q0 -30 19.5 -38.5t87.5 -8.5q94 0 161 15q28 6 39 38l45 129q117 -17 201 -36q-5 -29 -26 -145t-33 -181q-104 2 -674 2h-316q0 27 1.5 85.5t1.5 86.5l141 4q8 0 8 10v310 q0 10 -14 10l-357 -6q-97 -196 -153 -322l131 -6q0 -115 -2 -172q-53 0 -163 1t-163 1q-36 0 -104 -1t-97 -1zM618 684q-6 -12 7 -12l272 2v483h-10q-123 -202 -269 -473z" />
<glyph unicode="&#xc7;" horiz-adv-x="1251" d="M88 584q0 384 285 608q100 80 231 121t270 41q187 0 271 -31q21 -207 33 -418q-137 -20 -217 -28l-48 215q-4 17 -14 22q-34 27 -94 27q-117 0 -195 -84q-141 -144 -141 -404q0 -257 119 -364q44 -41 109 -62.5t130 -21.5q67 0 171 16.5t149 32.5q20 -89 35 -193 q-116 -44 -281 -69l-153 -142q79 -7 121 -47.5t42 -107.5q0 -96 -99 -164t-265 -68q-12 51 -19 115q81 3 132 26.5t51 71.5q0 41 -29 60q-36 24 -107 24q-5 13 -14.5 38t-13.5 34l170 150h-21q-96 0 -199.5 31.5t-177.5 86.5q-102 74 -166.5 201.5t-64.5 282.5z" />
<glyph unicode="&#xc8;" horiz-adv-x="1189" d="M100 -2q0 29 1 88t1 86l107 6q8 0 8 8v963l-117 4q0 121 2 176h271h477h203q12 -177 18 -362q-16 -2 -87.5 -10t-111.5 -11l-32 156q-3 15 -12 23.5t-29 11.5q-87 12 -215 12h-21v-387q31 1 90 2t88 2q10 0 18 10.5t9 28.5l12 76q71 2 193 -2q-2 -66 -2 -213 q-2 -74 -2 -201q-177 -6 -193 -6l-8 82q-6 43 -33 43q-114 4 -174 4v-363q0 -29 19 -37t88 -8q98 0 161 13q29 9 39 38l60 164q44 -6 200 -37q-5 -26 -32 -157.5t-43 -202.5q-29 0 -268 1t-404 1q-48 0 -144 -1t-137 -1zM336 1634q61 103 117 176q63 -44 364 -260 q-31 -61 -76 -118q-73 37 -405 202z" />
<glyph unicode="&#xc9;" horiz-adv-x="1189" d="M100 -2q0 29 1 88t1 86l107 6q8 0 8 8v963l-117 4q0 121 2 176h271h477h203q12 -177 18 -362q-16 -2 -87.5 -10t-111.5 -11l-32 156q-3 15 -12 23.5t-29 11.5q-87 12 -215 12h-21v-387q31 1 90 2t88 2q10 0 18 10.5t9 28.5l12 76q71 2 193 -2q-2 -66 -2 -213 q-2 -74 -2 -201q-177 -6 -193 -6l-8 82q-6 43 -33 43q-114 4 -174 4v-363q0 -29 19 -37t88 -8q98 0 161 13q29 9 39 38l60 164q44 -6 200 -37q-5 -26 -32 -157.5t-43 -202.5q-29 0 -268 1t-404 1q-48 0 -144 -1t-137 -1zM424 1548q84 61 367 262q50 -66 112 -176 q-191 -99 -401 -202q-40 54 -78 116z" />
<glyph unicode="&#xca;" horiz-adv-x="1189" d="M100 -2q0 29 1 88t1 86l107 6q8 0 8 8v963l-117 4q0 121 2 176h271h477h203q12 -177 18 -362q-16 -2 -87.5 -10t-111.5 -11l-32 156q-3 15 -12 23.5t-29 11.5q-87 12 -215 12h-21v-387q31 1 90 2t88 2q10 0 18 10.5t9 28.5l12 76q71 2 193 -2q-2 -66 -2 -213 q-2 -74 -2 -201q-177 -6 -193 -6l-8 82q-6 43 -33 43q-114 4 -174 4v-363q0 -29 19 -37t88 -8q98 0 161 13q29 9 39 38l60 164q44 -6 200 -37q-5 -26 -32 -157.5t-43 -202.5q-29 0 -268 1t-404 1q-48 0 -144 -1t-137 -1zM266 1542q250 202 291 236h90q124 -97 293 -234 q-29 -45 -84 -104q-37 22 -124.5 75t-129.5 78q-43 -26 -131.5 -77.5t-124.5 -73.5q-48 55 -80 100z" />
<glyph unicode="&#xcb;" horiz-adv-x="1189" d="M100 -2q0 29 1 88t1 86l107 6q8 0 8 8v963l-117 4q0 121 2 176h271h477h203q12 -177 18 -362q-16 -2 -87.5 -10t-111.5 -11l-32 156q-3 15 -12 23.5t-29 11.5q-87 12 -215 12h-21v-387q31 1 90 2t88 2q10 0 18 10.5t9 28.5l12 76q71 2 193 -2q-2 -66 -2 -213 q-2 -74 -2 -201q-177 -6 -193 -6l-8 82q-6 43 -33 43q-114 4 -174 4v-363q0 -29 19 -37t88 -8q98 0 161 13q29 9 39 38l60 164q44 -6 200 -37q-5 -26 -32 -157.5t-43 -202.5q-29 0 -268 1t-404 1q-48 0 -144 -1t-137 -1zM252 1583q0 47 36 85t97 38q57 0 91 -36t34 -83 q0 -59 -35.5 -94t-95.5 -35q-51 0 -89 35.5t-38 89.5zM676 1587q0 47 35 83t94 36q58 0 93.5 -38t35.5 -85q0 -54 -38 -89.5t-89 -35.5q-60 0 -95.5 35t-35.5 94z" />
<glyph unicode="&#xcc;" horiz-adv-x="780" d="M88 0q0 119 2 176l119 6q6 0 6 8v961l-125 6v174q42 0 151.5 -1t157.5 -1q53 0 158 1t145 1q0 -119 -2 -174l-127 -6q-4 0 -4 -10l-6 -959l137 -6q0 -119 -2 -176q-40 0 -147.5 1t-161.5 1q-46 0 -150.5 -1t-150.5 -1zM92 1636q68 114 115 176q173 -120 366 -262 q-35 -65 -75 -116q-78 37 -232.5 115t-173.5 87z" />
<glyph unicode="&#xcd;" horiz-adv-x="780" d="M88 0q0 119 2 176l119 6q6 0 6 8v961l-125 6v174q42 0 151.5 -1t157.5 -1q53 0 158 1t145 1q0 -119 -2 -174l-127 -6q-4 0 -4 -10l-6 -959l137 -6q0 -119 -2 -176q-40 0 -147.5 1t-161.5 1q-46 0 -150.5 -1t-150.5 -1zM219 1550q57 42 365 260q51 -64 114 -176 l-199 -99.5t-204 -102.5q-33 46 -76 118z" />
<glyph unicode="&#xce;" horiz-adv-x="780" d="M68 1542q139 113 292 236q27 2 91 2q20 -16 131 -105t161 -129q-23 -38 -84 -104q-44 27 -142.5 85.5t-110.5 65.5q-140 -82 -259 -149q-16 17 -44.5 54t-34.5 44zM88 0q0 119 2 176l119 6q6 0 6 8v961l-125 6v174q42 0 151.5 -1t157.5 -1q53 0 158 1t145 1 q0 -119 -2 -174l-127 -6q-4 0 -4 -10l-6 -959l137 -6q0 -119 -2 -176q-40 0 -147.5 1t-161.5 1q-46 0 -150.5 -1t-150.5 -1z" />
<glyph unicode="&#xcf;" horiz-adv-x="780" d="M63 1583q0 47 36.5 85t97.5 38q57 0 91 -36t34 -83q0 -59 -36 -94t-96 -35q-51 0 -89 35.5t-38 89.5zM88 0q0 119 2 176l119 6q6 0 6 8v961l-125 6v174q42 0 151.5 -1t157.5 -1q53 0 158 1t145 1q0 -119 -2 -174l-127 -6q-4 0 -4 -10l-6 -959l137 -6q0 -119 -2 -176 q-40 0 -147.5 1t-161.5 1q-46 0 -150.5 -1t-150.5 -1zM487 1587q0 47 35 83t94 36q58 0 93.5 -38t35.5 -85q0 -54 -38 -89.5t-89 -35.5q-60 0 -95.5 35t-35.5 94z" />
<glyph unicode="&#xd0;" horiz-adv-x="1495" d="M106 565q5 162 7 187q47 2 141 2l2 395l-119 4q0 117 2 174q228 6 498 6q317 0 485 -100q119 -70 202 -212t83 -298q0 -218 -84 -371.5t-217 -242.5q-154 -111 -451 -111q-33 0 -117 1t-118 1h-281q0 117 2 170l105 8q8 0 8 8v379h-148zM600 203q0 -41 49 -41 q159 0 252 90q66 65 98.5 170.5t32.5 214.5q0 158 -33.5 257.5t-107.5 176.5q-94 96 -223 96q-41 0 -62 -8l-4 -403q94 0 250 4q0 -95 -10 -197h-240z" />
<glyph unicode="&#xd1;" horiz-adv-x="1464" d="M70 1155q0 119 2 174h393q170 -243 588 -889h10q-1 79 -1.5 223.5t-1.5 263.5t-3 224l-148 4q0 121 2 174h267q37 0 113.5 1t105.5 1q0 -117 -4 -174l-90 -6q-7 0 -7 -10l-10 -1121q-32 -15 -103 -26.5t-145 -11.5q-296 355 -602 809h-14q-1 -104 -2 -305.5t-2 -303.5 l151 -6q0 -62 -4 -176q-41 0 -142 1t-151 1q-34 0 -99.5 -1t-92.5 -1q0 119 2 176l100 4q8 3 8 8l-2 963zM430 1468q3 109 60 188t141 79q10 0 19 -1t19 -3t17 -3.5t17.5 -6t15.5 -6.5t16.5 -7.5t15 -7.5t16.5 -9t15 -8q5 -3 18 -10t18 -9.5l16 -8t16 -7.5t14 -5.5t14.5 -5 t13 -2.5t13.5 -1q30 0 53.5 26.5t26.5 68.5q40 4 119 0q-7 -117 -56.5 -192t-146.5 -75q-26 0 -56 9.5t-47 18.5t-50 28t-46.5 26t-33 13t-39.5 6q-31 0 -53.5 -25.5t-26.5 -69.5q-40 -4 -119 0z" />
<glyph unicode="&#xd2;" horiz-adv-x="1505" d="M88 653q0 195 85.5 351.5t217.5 236.5q176 111 412 111q200 0 354 -101q119 -74 189.5 -223.5t70.5 -329.5q0 -155 -54.5 -301t-156.5 -241q-188 -176 -489 -176q-133 0 -250.5 45t-194.5 122q-184 190 -184 506zM475 676q0 -159 24 -262t79 -168q74 -92 186 -92 q54 0 95 17t79 65q96 129 96 415q0 247 -84 408q-58 119 -182 119q-115 0 -188 -86q-47 -60 -76 -168t-29 -248zM500 1638q74 125 114 177q166 -115 367 -263q-33 -61 -76 -116q-174 84 -405 202z" />
<glyph unicode="&#xd3;" horiz-adv-x="1505" d="M88 653q0 195 85.5 351.5t217.5 236.5q176 111 412 111q200 0 354 -101q119 -74 189.5 -223.5t70.5 -329.5q0 -155 -54.5 -301t-156.5 -241q-188 -176 -489 -176q-133 0 -250.5 45t-194.5 122q-184 190 -184 506zM475 676q0 -159 24 -262t79 -168q74 -92 186 -92 q54 0 95 17t79 65q96 129 96 415q0 247 -84 408q-58 119 -182 119q-115 0 -188 -86q-47 -60 -76 -168t-29 -248zM616 1552q23 17 367 260q47 -62 115 -176q-299 -148 -404 -202q-44 60 -78 118z" />
<glyph unicode="&#xd4;" horiz-adv-x="1505" d="M88 653q0 195 85.5 351.5t217.5 236.5q176 111 412 111q200 0 354 -101q119 -74 189.5 -223.5t70.5 -329.5q0 -155 -54.5 -301t-156.5 -241q-188 -176 -489 -176q-133 0 -250.5 45t-194.5 122q-184 190 -184 506zM453 1544q262 213 290 236q27 2 91 2q41 -32 144 -115 t150 -119q-19 -30 -86 -106q-43 27 -137 83t-117 70q-43 -26 -131.5 -77.5t-124.5 -73.5q-42 48 -79 100zM475 676q0 -159 24 -262t79 -168q74 -92 186 -92q54 0 95 17t79 65q96 129 96 415q0 247 -84 408q-58 119 -182 119q-115 0 -188 -86q-47 -60 -76 -168t-29 -248z" />
<glyph unicode="&#xd5;" horiz-adv-x="1505" d="M88 653q0 195 85.5 351.5t217.5 236.5q176 111 412 111q200 0 354 -101q119 -74 189.5 -223.5t70.5 -329.5q0 -155 -54.5 -301t-156.5 -241q-188 -176 -489 -176q-133 0 -250.5 45t-194.5 122q-184 190 -184 506zM449 1468q3 109 60 188t142 79q27 0 58 -9.5t44 -16 t50 -26.5q5 -3 18 -10t18 -9.5l16 -8t16 -7.5t14 -5.5t14.5 -5t13 -2.5t13.5 -1q30 0 53.5 26.5t26.5 68.5q39 4 118 0q-7 -118 -56.5 -192.5t-145.5 -74.5q-26 0 -57 10t-47 18t-52 28q-43 26 -66 35.5t-53 9.5q-31 0 -53.5 -25.5t-26.5 -69.5q-39 -4 -118 0zM475 676 q0 -159 24 -262t79 -168q74 -92 186 -92q54 0 95 17t79 65q96 129 96 415q0 247 -84 408q-58 119 -182 119q-115 0 -188 -86q-47 -60 -76 -168t-29 -248z" />
<glyph unicode="&#xd6;" horiz-adv-x="1505" d="M88 653q0 195 85.5 351.5t217.5 236.5q176 111 412 111q200 0 354 -101q119 -74 189.5 -223.5t70.5 -329.5q0 -155 -54.5 -301t-156.5 -241q-188 -176 -489 -176q-133 0 -250.5 45t-194.5 122q-184 190 -184 506zM446 1583q0 47 36.5 85t97.5 38q57 0 91 -36t34 -83 q0 -59 -36 -94t-96 -35q-51 0 -89 35.5t-38 89.5zM475 676q0 -159 24 -262t79 -168q74 -92 186 -92q54 0 95 17t79 65q96 129 96 415q0 247 -84 408q-58 119 -182 119q-115 0 -188 -86q-47 -60 -76 -168t-29 -248zM870 1587q0 47 35 83t94 36q58 0 93.5 -38t35.5 -85 q0 -54 -38 -89.5t-89 -35.5q-60 0 -95.5 35t-35.5 94z" />
<glyph unicode="&#xd7;" d="M113 145q43 44 154.5 161.5t174.5 182.5q-58 58 -157.5 159t-134.5 136q40 45 143 144q135 -142 282 -299q53 57 153 160.5t140 146.5q94 -82 146 -141q-37 -37 -140 -140.5t-165 -165.5q193 -203 325 -344q-49 -55 -127 -125q-176 180 -332 336q-74 -73 -198.5 -198.5 t-136.5 -137.5q-78 70 -127 125z" />
<glyph unicode="&#xd8;" horiz-adv-x="1505" d="M43 14q17 19 180 193q-137 166 -137 452q0 188 85 343.5t218 238.5q94 58 193 84.5t225 26.5q112 0 190.5 -25.5t157.5 -73.5q23 26 69 77t68 77q55 -40 146 -131q-7 -7 -62 -66t-84 -92q57 -75 93 -190t36 -228q0 -155 -56 -302t-159 -244q-183 -174 -487 -174 q-217 0 -371 104q-122 -126 -180 -184q-16 12 -34 28.5t-30.5 28t-32.5 30.5t-28 27zM451 627q0 -120 8 -185q127 151 239 275q161 180 281 321q-24 59 -78.5 99.5t-128.5 40.5q-69 0 -115 -21t-82 -65q-124 -146 -124 -465zM532 291q32 -57 96.5 -97t133.5 -40 q120 0 186 84q111 138 111 438q0 126 -10 190q-137 -162 -248 -286q-73 -76 -269 -289z" />
<glyph unicode="&#xd9;" horiz-adv-x="1386" d="M63 1159q0 89 3 172q37 0 136 -1t146 -1q54 0 163 1t155 1q0 -119 -4 -174l-140 -4l-4 -618q-1 -110 17.5 -173t56.5 -108q57 -66 164 -66q94 0 155 72q70 79 70 301q0 416 -4 584q0 4 -8 8l-144 4q0 29 1 88t1 86q36 0 131 -1t142 -1q44 0 126 1t117 1q0 -27 -1 -86 t-1 -88l-98 -6l-4 -557q-1 -171 -44.5 -291t-107.5 -184q-65 -67 -151 -103t-219 -36q-137 0 -236 29.5t-172 96.5q-145 131 -145 422v613q0 12 -10 12zM477 1636q61 103 117 176q344 -243 367 -260q-27 -53 -78 -118q-41 21 -406 202z" />
<glyph unicode="&#xda;" horiz-adv-x="1386" d="M63 1159q0 89 3 172q37 0 136 -1t146 -1q54 0 163 1t155 1q0 -119 -4 -174l-140 -4l-4 -618q-1 -110 17.5 -173t56.5 -108q57 -66 164 -66q94 0 155 72q70 79 70 301q0 416 -4 584q0 4 -8 8l-144 4q0 29 1 88t1 86q36 0 131 -1t142 -1q44 0 126 1t117 1q0 -27 -1 -86 t-1 -88l-98 -6l-4 -557q-1 -171 -44.5 -291t-107.5 -184q-65 -67 -151 -103t-219 -36q-137 0 -236 29.5t-172 96.5q-145 131 -145 422v613q0 12 -10 12zM557 1550q263 188 367 260q38 -47 114 -176q-60 -30 -199.5 -99.5t-205.5 -102.5q-33 46 -76 118z" />
<glyph unicode="&#xdb;" horiz-adv-x="1386" d="M63 1159q0 89 3 172q37 0 136 -1t146 -1q54 0 163 1t155 1q0 -119 -4 -174l-140 -4l-4 -618q-1 -110 17.5 -173t56.5 -108q57 -66 164 -66q94 0 155 72q70 79 70 301q0 416 -4 584q0 4 -8 8l-144 4q0 29 1 88t1 86q36 0 131 -1t142 -1q44 0 126 1t117 1q0 -27 -1 -86 t-1 -88l-98 -6l-4 -557q-1 -171 -44.5 -291t-107.5 -184q-65 -67 -151 -103t-219 -36q-137 0 -236 29.5t-172 96.5q-145 131 -145 422v613q0 12 -10 12zM412 1544q178 144 290 234q60 4 91 2q41 -31 92.5 -72t112 -90t89.5 -72q-32 -50 -86 -104q-42 26 -137 83t-116 70 q-43 -26 -131.5 -77.5t-124.5 -73.5q-37 40 -80 100z" />
<glyph unicode="&#xdc;" horiz-adv-x="1386" d="M63 1159q0 89 3 172q37 0 136 -1t146 -1q54 0 163 1t155 1q0 -119 -4 -174l-140 -4l-4 -618q-1 -110 17.5 -173t56.5 -108q57 -66 164 -66q94 0 155 72q70 79 70 301q0 416 -4 584q0 4 -8 8l-144 4q0 29 1 88t1 86q36 0 131 -1t142 -1q44 0 126 1t117 1q0 -27 -1 -86 t-1 -88l-98 -6l-4 -557q-1 -171 -44.5 -291t-107.5 -184q-65 -67 -151 -103t-219 -36q-137 0 -236 29.5t-172 96.5q-145 131 -145 422v613q0 12 -10 12zM408 1583q0 47 36 85t97 38q57 0 91 -36t34 -83q0 -59 -35.5 -94t-95.5 -35q-51 0 -89 35.5t-38 89.5zM831 1587 q0 47 35.5 83t94.5 36q58 0 93.5 -38t35.5 -85q0 -54 -38 -89.5t-89 -35.5q-60 0 -96 35t-36 94z" />
<glyph unicode="&#xdd;" horiz-adv-x="1275" d="M16 1157q0 119 2 172h258q63 0 188.5 1t172.5 1q0 -119 -2 -174l-123 -8q77 -189 197 -451h10q122 224 209 441q3 10 -6 10l-111 4q0 119 2 176h291q35 0 96.5 1t85.5 1q0 -119 -2 -176l-90 -6q-247 -426 -393 -649l-2 -318l151 -6q0 -62 -4 -176q-41 0 -151.5 1 t-167.5 1q-47 0 -156 -1t-160 -1q0 62 4 176l129 6q9 0 9 11v305q-65 110 -344 643q0 3 -4 6.5t-7 3.5zM541 1550q315 225 366 260q49 -62 113 -176l-199 -99.5l-205 -102.5q-28 39 -75 118z" />
<glyph unicode="&#xde;" horiz-adv-x="1277" d="M104 0q0 28 1 86t1 84l101 6q8 0 8 8l2 967l-113 6q0 117 2 172h318h278q0 -111 -2 -162l-135 -6q-8 0 -8 -8v-92h84q189 0 295 -31q125 -35 199.5 -126.5t74.5 -207.5q0 -121 -68 -216.5t-175 -143.5q-65 -28 -156 -42.5t-168 -14.5h-92v-105l168 -6q0 -113 -2 -168 h-348h-265zM553 469q0 -11 14.5 -13.5t57.5 -2.5t90 11.5t76 33.5q67 55 67 182q-2 91 -61.5 151t-155.5 60q-56 0 -86 -6z" />
<glyph unicode="&#xdf;" horiz-adv-x="1409" d="M35 709q0 31 1 92t1 88l123 4q12 0 12 16q2 142 47.5 232.5t153.5 158.5q107 66 201 91.5t198 25.5q158 0 264 -88q60 -49 92.5 -136.5t22.5 -203.5q-11 -8 -62 -43t-75 -55q-66 -57 -66 -113q1 -40 30.5 -61.5t114.5 -58.5q5 -2 9 -3.5t8 -3.5q130 -46 186 -118.5 t56 -176.5q0 -93 -42.5 -171t-121.5 -130q-52 -35 -137.5 -55t-178.5 -20q-102 0 -206 22q-11 71 -35 281q77 18 168 34l32 -120q2 -9 17 -19q33 -20 72 -20t71 22q39 27 39 90q0 51 -29 77t-139 71q-108 43 -152 109.5t-44 158.5q0 22 5.5 43.5t11.5 36.5t20 35.5t21 30 t25 30.5t23 27q10 13 25 29.5t25 28.5t18 24q5 71 -15.5 125t-50.5 80q-52 43 -115 43q-39 0 -62 -9.5t-44 -31.5q-26 -29 -36 -84t-11 -189q0 -97 -1 -362t-1 -369l31 -4q0 -82 -3 -168h-196q-42 0 -135 -1t-133 -1q0 113 2 168l100 6q8 0 8 10q0 355 -2 525h-141z" />
<glyph unicode="&#xe0;" horiz-adv-x="1069" d="M45 219q0 45 27.5 96.5t80 100t145.5 80.5t208 32h98q5 77 -26.5 119.5t-98.5 42.5q-87 0 -258 -115q-35 41 -106 146q120 99 238 151t257 52q122 0 218 -90.5t96 -217.5q0 -241 -4 -417q0 -7 0.5 -10t2.5 -4.5t7 -0.5l108 4v-168q-33 -12 -133 -26t-209 -14 q-23 20 -78 90h-10q-181 -90 -299 -90q-54 0 -115 31.5t-105 88.5t-44 119zM291 1268q59 77 135 153q44 -42 97 -95t117 -118t95 -96q-41 -49 -96 -104q-291 220 -348 260zM371 254q0 -33 30 -55.5t64 -22.5q59 0 137 45q4 4 4 12v142q-12 2 -43 2q-96 0 -144 -35t-48 -88z " />
<glyph unicode="&#xe1;" horiz-adv-x="1069" d="M45 219q0 45 27.5 96.5t80 100t145.5 80.5t208 32h98q5 77 -26.5 119.5t-98.5 42.5q-87 0 -258 -115q-35 41 -106 146q120 99 238 151t257 52q122 0 218 -90.5t96 -217.5q0 -241 -4 -417q0 -7 0.5 -10t2.5 -4.5t7 -0.5l108 4v-168q-33 -12 -133 -26t-209 -14 q-23 20 -78 90h-10q-181 -90 -299 -90q-54 0 -115 31.5t-105 88.5t-44 119zM371 254q0 -33 30 -55.5t64 -22.5q59 0 137 45q4 4 4 12v142q-12 2 -43 2q-96 0 -144 -35t-48 -88zM422 1112q61 57 185.5 177.5t135.5 131.5q66 -63 138 -153q-275 -198 -367 -262q-62 71 -92 106 z" />
<glyph unicode="&#xe2;" horiz-adv-x="1069" d="M45 219q0 45 27.5 96.5t80 100t145.5 80.5t208 32h98q5 77 -26.5 119.5t-98.5 42.5q-87 0 -258 -115q-35 41 -106 146q120 99 238 151t257 52q122 0 218 -90.5t96 -217.5q0 -241 -4 -417q0 -7 0.5 -10t2.5 -4.5t7 -0.5l108 4v-168q-33 -12 -133 -26t-209 -14 q-23 20 -78 90h-10q-181 -90 -299 -90q-54 0 -115 31.5t-105 88.5t-44 119zM250 1098q32 36 248 286q41 2 131 2q38 -42 126.5 -145.5t123.5 -142.5q-42 -45 -97 -90q-70 64 -219 198q-26 -23 -69.5 -63.5t-78 -72.5t-63.5 -58q-54 41 -102 86zM371 254q0 -33 30 -55.5 t64 -22.5q59 0 137 45q4 4 4 12v142q-12 2 -43 2q-96 0 -144 -35t-48 -88z" />
<glyph unicode="&#xe3;" horiz-adv-x="1069" d="M45 219q0 45 27.5 96.5t80 100t145.5 80.5t208 32h98q5 77 -26.5 119.5t-98.5 42.5q-87 0 -258 -115q-35 41 -106 146q120 99 238 151t257 52q122 0 218 -90.5t96 -217.5q0 -241 -4 -417q0 -7 0.5 -10t2.5 -4.5t7 -0.5l108 4v-168q-33 -12 -133 -26t-209 -14 q-23 20 -78 90h-10q-181 -90 -299 -90q-54 0 -115 31.5t-105 88.5t-44 119zM219 1047q11 119 60 192.5t135 73.5q17 0 33.5 -3.5t36 -13t28.5 -14.5t33 -20.5t28 -18.5q27 -16 39.5 -23t31.5 -13.5t36 -6.5q60 0 74 103q62 3 114 0q-8 -122 -56.5 -194.5t-137.5 -72.5 q-8 0 -16 1t-17 3.5t-15.5 4.5t-16 7t-14.5 7t-15.5 8.5t-14 9t-15.5 10t-15 9.5q-9 5 -26 16.5t-25 16t-21 11t-24 9t-23 2.5q-63 0 -80 -104q-43 -4 -117 0zM371 254q0 -33 30 -55.5t64 -22.5q59 0 137 45q4 4 4 12v142q-12 2 -43 2q-96 0 -144 -35t-48 -88z" />
<glyph unicode="&#xe4;" horiz-adv-x="1069" d="M45 219q0 45 27.5 96.5t80 100t145.5 80.5t208 32h98q5 77 -26.5 119.5t-98.5 42.5q-87 0 -258 -115q-35 41 -106 146q120 99 238 151t257 52q122 0 218 -90.5t96 -217.5q0 -241 -4 -417q0 -7 0.5 -10t2.5 -4.5t7 -0.5l108 4v-168q-33 -12 -133 -26t-209 -14 q-23 20 -78 90h-10q-181 -90 -299 -90q-54 0 -115 31.5t-105 88.5t-44 119zM229 1169q0 47 35 84t94 37q56 0 89.5 -34.5t33.5 -81.5q0 -57 -35.5 -92t-93.5 -35q-49 0 -86 34t-37 88zM371 254q0 -33 30 -55.5t64 -22.5q59 0 137 45q4 4 4 12v142q-12 2 -43 2 q-96 0 -144 -35t-48 -88zM621 1174q0 47 34 81.5t93 34.5q56 0 90 -37t34 -84q0 -53 -37.5 -87.5t-86.5 -34.5q-58 0 -92.5 35t-34.5 92z" />
<glyph unicode="&#xe5;" horiz-adv-x="1069" d="M45 219q0 45 27.5 96.5t80 100t145.5 80.5t208 32h98q10 162 -123 162q-91 0 -258 -115q-38 41 -108 146q120 99 238.5 151t256.5 52q122 0 218 -90.5t96 -217.5q0 -241 -4 -417q0 -7 0.5 -10t2.5 -4.5t7 -0.5l108 4v-168q-33 -12 -133 -26t-209 -14q-23 20 -78 90h-10 q-181 -90 -299 -90q-54 0 -115 31.5t-105 88.5t-44 119zM324 1241q0 80 73 142.5t176 62.5q105 0 173.5 -55.5t68.5 -145.5q0 -91 -72 -152t-174 -61q-104 0 -174.5 56.5t-70.5 152.5zM371 254q0 -33 30 -55.5t64 -22.5q59 0 137 45q4 4 4 12v142q-12 2 -43 2 q-96 0 -144 -35t-48 -88zM473 1241q0 -46 28.5 -75t69.5 -29q45 0 71 29t26 77q0 47 -25.5 72.5t-71.5 25.5q-43 0 -70.5 -28t-27.5 -72z" />
<glyph unicode="&#xe6;" horiz-adv-x="1556" d="M45 217q0 36 16 76t53 82t88.5 76t131 55.5t172.5 21.5h94q0 164 -119 164q-86 0 -258 -114q-48 55 -108 145q245 201 456 201q156 0 222 -150h12q106 150 313 150q85 0 156.5 -29.5t114.5 -77.5q106 -128 106 -319q-1 -20 -49 -68.5t-62 -50.5q-91 -10 -448 -6 q5 -85 55 -135q52 -50 158 -50q60 0 144.5 18.5t140.5 39.5q26 -85 39 -170q-86 -41 -203.5 -68.5t-194.5 -27.5q-236 0 -370 124h-17q-92 -58 -197 -91t-182 -33q-52 0 -112.5 30.5t-106 87t-45.5 119.5zM373 254q0 -35 32 -59.5t74 -24.5q36 0 82 17.5t66 35.5q7 11 4 17 q-17 49 -27 135q-8 2 -33 2q-99 0 -148.5 -34t-49.5 -89zM936 535q115 0 233 4q19 0 19 24q0 72 -25 127q-32 62 -92 62q-57 0 -96 -54q-22 -31 -30.5 -66t-8.5 -97z" />
<glyph unicode="&#xe7;" horiz-adv-x="903" d="M61 389q0 109 42 206.5t117.5 170.5t188 115.5t244.5 42.5q58 0 125 -15t103 -37q0 -46 -37.5 -128t-67.5 -99q-2 1 -32 13.5t-54.5 21.5t-61.5 18t-65 9q-74 0 -112 -64q-43 -72 -43 -209q0 -123 63 -196q43 -50 139 -50q99 0 236 48q32 -121 39 -164q-105 -54 -226 -74 l-161 -139q62 -9 102.5 -53t40.5 -107q0 -96 -88.5 -157.5t-257.5 -61.5q-8 47 -12 117q172 6 172 88q0 38 -25 63q-28 31 -100 25q-4 10 -12.5 35.5t-12.5 35.5l164 138h-10q-45 0 -96 13.5t-105 45.5t-97.5 77.5t-71.5 116t-28 154.5z" />
<glyph unicode="&#xe8;" horiz-adv-x="1021" d="M61 403q0 145 64.5 263.5t183.5 188t269 69.5q91 0 162.5 -30t115.5 -79q105 -124 105 -319q-1 -20 -49 -68.5t-62 -50.5q-55 -6 -447 -6q5 -86 56 -133q52 -50 151 -50q62 0 147.5 18.5t141.5 39.5q26 -85 39 -170q-87 -40 -204.5 -68t-192.5 -28q-139 0 -245 44 t-170.5 141t-64.5 238zM326 1268q66 82 137 153q55 -54 166 -166.5t141 -142.5q-14 -17 -96 -104q-24 18 -103 78.5t-136 103t-109 78.5zM403 535q114 0 232 4q18 0 18 22q0 83 -24 129q-27 62 -92 62q-61 0 -97 -56q-21 -34 -29.5 -68.5t-7.5 -92.5z" />
<glyph unicode="&#xe9;" horiz-adv-x="1021" d="M61 403q0 145 64.5 263.5t183.5 188t269 69.5q91 0 162.5 -30t115.5 -79q105 -124 105 -319q-1 -20 -49 -68.5t-62 -50.5q-55 -6 -447 -6q5 -86 56 -133q52 -50 151 -50q62 0 147.5 18.5t141.5 39.5q26 -85 39 -170q-87 -40 -204.5 -68t-192.5 -28q-139 0 -245 44 t-170.5 141t-64.5 238zM383 1112q51 49 159.5 154.5t159.5 154.5q66 -63 138 -153q-299 -215 -365 -262q-50 54 -92 106zM403 535q114 0 232 4q18 0 18 22q0 83 -24 129q-27 62 -92 62q-61 0 -97 -56q-21 -34 -29.5 -68.5t-7.5 -92.5z" />
<glyph unicode="&#xea;" horiz-adv-x="1021" d="M61 403q0 145 64.5 263.5t183.5 188t269 69.5q91 0 162.5 -30t115.5 -79q105 -124 105 -319q-1 -20 -49 -68.5t-62 -50.5q-55 -6 -447 -6q5 -86 56 -133q52 -50 151 -50q62 0 147.5 18.5t141.5 39.5q26 -85 39 -170q-87 -40 -204.5 -68t-192.5 -28q-139 0 -245 44 t-170.5 141t-64.5 238zM260 1098q43 48 127 146t121 140q41 2 129 2q38 -42 126.5 -145.5t123.5 -142.5q-45 -48 -96 -90q-39 36 -220 198q-28 -25 -100 -93t-109 -101q-54 41 -102 86zM403 535q114 0 232 4q18 0 18 22q0 83 -24 129q-27 62 -92 62q-61 0 -97 -56 q-21 -34 -29.5 -68.5t-7.5 -92.5z" />
<glyph unicode="&#xeb;" horiz-adv-x="1021" d="M61 403q0 145 64.5 263.5t183.5 188t269 69.5q91 0 162.5 -30t115.5 -79q105 -124 105 -319q-1 -20 -49 -68.5t-62 -50.5q-55 -6 -447 -6q5 -86 56 -133q52 -50 153 -50q62 0 146 18t143 40q30 -115 39 -170q-89 -41 -205.5 -68.5t-191.5 -27.5q-104 0 -190.5 25.5 t-152.5 76.5t-102.5 133t-36.5 188zM246 1169q0 47 35 84t94 37q56 0 89.5 -34.5t33.5 -81.5q0 -57 -35.5 -92t-93.5 -35q-49 0 -86 34t-37 88zM403 535q114 0 232 4q18 0 18 22q0 83 -24 129q-27 62 -92 62q-61 0 -97 -56q-21 -34 -29.5 -68.5t-7.5 -92.5zM637 1174 q0 47 34 81.5t93 34.5q57 0 91 -37t34 -84q0 -53 -37.5 -87.5t-87.5 -34.5q-58 0 -92.5 35t-34.5 92z" />
<glyph unicode="&#xec;" horiz-adv-x="653" d="M43 692q0 66 4 176q48 3 160 17.5t202.5 26.5t96.5 12q4 0 4 -6q-6 -669 -6 -742l112 -6v-168h-282q-45 0 -142 -1t-137 -1q0 115 2 168l109 6q8 0 8 8v506zM72 1268q46 60 135 153q44 -42 97 -95t117 -118t95 -96q-41 -49 -96 -104q-24 18 -103 78.5t-136 103t-109 78.5 z" />
<glyph unicode="&#xed;" horiz-adv-x="653" d="M43 692q0 66 4 176q48 3 160 17.5t202.5 26.5t96.5 12q4 0 4 -6q-6 -669 -6 -742l112 -6v-168h-282q-45 0 -142 -1t-137 -1q0 115 2 168l109 6q8 0 8 8v506zM147 1112q125 117 324 309q61 -61 135 -153q-357 -257 -364 -262q-53 57 -95 106z" />
<glyph unicode="&#xee;" horiz-adv-x="653" d="M27 1098q28 32 115.5 134t131.5 152q41 2 129 2q43 -48 137.5 -157.5t112.5 -130.5q-35 -40 -96 -90q-135 125 -219 198q-40 -36 -109.5 -102.5t-99.5 -93.5q-47 36 -102 88zM43 692q0 66 4 176q48 3 160 17.5t202.5 26.5t96.5 12q4 0 4 -6q-6 -669 -6 -742l112 -6v-168 h-282q-45 0 -142 -1t-137 -1q0 115 2 168l109 6q8 0 8 8v506z" />
<glyph unicode="&#xef;" horiz-adv-x="653" d="M4 1169q0 47 35 84t94 37q56 0 89.5 -34.5t33.5 -81.5q0 -57 -35.5 -92t-93.5 -35q-49 0 -86 34t-37 88zM43 692q0 66 4 176q48 3 160 17.5t202.5 26.5t96.5 12q4 0 4 -6q-6 -669 -6 -742l112 -6v-168h-282q-45 0 -142 -1t-137 -1q0 115 2 168l109 6q8 0 8 8v506z M395 1174q0 47 34 81.5t93 34.5q57 0 91 -37t34 -84q0 -53 -37.5 -87.5t-85.5 -34.5q-60 0 -94.5 34.5t-34.5 92.5z" />
<glyph unicode="&#xf0;" horiz-adv-x="1107" d="M61 401q0 229 162 375q62 56 139.5 83.5t155.5 27.5q109 0 150 -33l12 8q-46 148 -135 244q-36 -27 -102.5 -76t-90.5 -67q-35 39 -86 108q27 21 79 60.5t79 60.5q-86 66 -250 90q10 63 35 156q217 -7 393 -97q150 113 207 158q50 -57 90 -117q-28 -21 -82.5 -60.5 t-81.5 -59.5q129 -96 214 -272t85 -365q0 -364 -184 -529q-123 -116 -336 -116q-74 0 -150 19t-126 54q-80 56 -128.5 145.5t-48.5 202.5zM410 442q0 -192 49 -260q34 -47 90 -47q53 0 92 53q55 85 55 295q0 171 -28 201q-34 41 -115 41q-69 0 -102 -59q-41 -78 -41 -224z " />
<glyph unicode="&#xf1;" horiz-adv-x="1247" d="M47 694q0 28 1 85.5t1 82.5q45 3 146 18t183.5 28.5t86.5 13.5t4 -7q5 -21 14.5 -63.5t14.5 -63.5l10 -2q148 90 207.5 114t130.5 24q61 0 119.5 -45t93.5 -103q47 -76 47 -182q0 -156 -8 -418l102 -6q0 -115 -2 -168h-264q-46 0 -134 -1t-122 -1q0 26 1 84t1 84l82 6 q8 0 8 8v277q0 84 -2.5 119.5t-13.5 56.5q-23 45 -78 45q-33 0 -79.5 -21t-84.5 -51q-6 -363 -6 -432l88 -6q0 -115 -2 -168h-256q-42 0 -136 -1t-134 -1q0 26 1 84t1 84l100 6q8 0 8 8v508zM311 1047q11 119 60.5 192.5t136.5 73.5q17 0 33.5 -3t37 -13.5t28 -14.5 t33.5 -21t28 -18q28 -17 39.5 -23.5t30.5 -13t36 -6.5q60 0 74 103q62 3 115 0q-8 -121 -57 -194t-138 -73q-11 0 -21 1.5t-21.5 5.5t-19 7t-21 10.5t-18.5 10.5t-20.5 13t-19.5 12q-8 5 -31 20t-31.5 19.5t-25 10t-31.5 5.5q-63 0 -80 -104q-43 -4 -117 0z" />
<glyph unicode="&#xf2;" horiz-adv-x="1118" d="M61 426q0 121 51.5 225.5t145.5 173.5q132 99 332 99q159 0 280 -76q84 -52 135.5 -150t51.5 -229q0 -130 -62 -240.5t-159 -171.5q-118 -77 -299 -77q-209 0 -324 98q-152 129 -152 348zM326 1268q60 75 135 153q44 -42 97 -95t117 -118t95 -96q-14 -17 -96 -104 q-24 18 -103 78.5t-136 103t-109 78.5zM420 461q0 -198 49 -266q34 -56 94 -56q59 0 90 49q28 38 37.5 100.5t9.5 174.5q0 150 -36 235q-14 31 -41 47.5t-56 16.5q-59 0 -92 -49q-55 -77 -55 -252z" />
<glyph unicode="&#xf3;" horiz-adv-x="1118" d="M61 426q0 121 51.5 225.5t145.5 173.5q132 99 332 99q159 0 280 -76q84 -52 135.5 -150t51.5 -229q0 -130 -62 -240.5t-159 -171.5q-118 -77 -299 -77q-209 0 -324 98q-152 129 -152 348zM383 1112q51 49 159.5 154.5t159.5 154.5q66 -63 138 -153q-299 -215 -365 -262 q-29 31 -92 106zM420 461q0 -198 49 -266q34 -56 94 -56q59 0 90 49q28 38 37.5 100.5t9.5 174.5q0 150 -36 235q-14 31 -41 47.5t-56 16.5q-59 0 -92 -49q-55 -77 -55 -252z" />
<glyph unicode="&#xf4;" horiz-adv-x="1118" d="M61 426q0 121 51.5 225.5t145.5 173.5q132 99 332 99q159 0 280 -76q84 -52 135.5 -150t51.5 -229q0 -130 -62 -240.5t-159 -171.5q-118 -77 -299 -77q-209 0 -324 98q-152 129 -152 348zM266 1098q43 48 127 146t121 140q41 2 129 2q38 -42 126.5 -145.5t123.5 -142.5 q-45 -48 -96 -90q-70 64 -219 198q-28 -25 -100 -93t-109 -101q-59 45 -103 86zM420 461q0 -198 49 -266q34 -56 94 -56q59 0 90 49q28 38 37.5 100.5t9.5 174.5q0 150 -36 235q-14 31 -41 47.5t-56 16.5q-59 0 -92 -49q-55 -77 -55 -252z" />
<glyph unicode="&#xf5;" horiz-adv-x="1118" d="M61 426q0 121 51.5 225.5t145.5 173.5q132 99 332 99q159 0 280 -76q84 -52 135.5 -150t51.5 -229q0 -130 -62 -240.5t-159 -171.5q-118 -77 -299 -77q-209 0 -324 98q-152 129 -152 348zM260 1047q11 119 60.5 192.5t136.5 73.5q17 0 34 -3.5t35.5 -12.5t29.5 -15 t32.5 -20t29.5 -19q67 -43 105 -43q60 0 74 103q61 3 114 0q-8 -122 -56.5 -194.5t-137.5 -72.5q-11 0 -21 1.5t-22 6t-18.5 6.5t-21.5 10.5t-18.5 10.5t-21.5 13t-19 12q-9 6 -25.5 16.5t-25 15.5t-21 11.5t-23.5 9t-23 2.5q-63 0 -80 -104q-43 -4 -117 0zM420 461 q0 -198 49 -266q34 -56 94 -56q59 0 90 49q28 38 37.5 100.5t9.5 174.5q0 150 -36 235q-14 31 -41 47.5t-56 16.5q-59 0 -92 -49q-55 -77 -55 -252z" />
<glyph unicode="&#xf6;" horiz-adv-x="1118" d="M61 426q0 121 51.5 225.5t145.5 173.5q132 99 332 99q159 0 280 -76q84 -52 135.5 -150t51.5 -229q0 -130 -62 -240.5t-159 -171.5q-118 -77 -299 -77q-209 0 -324 98q-152 129 -152 348zM258 1169q0 47 35 84t94 37q56 0 89.5 -34.5t33.5 -81.5q0 -57 -35.5 -92 t-93.5 -35q-49 0 -86 34t-37 88zM420 461q0 -198 49 -266q34 -56 94 -56q59 0 90 49q28 38 37.5 100.5t9.5 174.5q0 150 -36 235q-14 31 -41 47.5t-56 16.5q-59 0 -92 -49q-55 -77 -55 -252zM649 1174q0 47 34 81.5t93 34.5q57 0 91 -37t34 -84q0 -53 -37.5 -87.5 t-87.5 -34.5q-58 0 -92.5 35t-34.5 92z" />
<glyph unicode="&#xf7;" d="M127 399q0 6 6 183q132 0 498 4t399 4q0 -104 -6 -193zM436 125q0 61 43.5 103t100.5 42q61 0 100 -41.5t39 -109.5q0 -63 -37.5 -103.5t-99.5 -40.5t-104 40t-42 110zM438 866q0 65 41.5 105.5t104.5 40.5q60 0 98.5 -41.5t38.5 -104.5q0 -68 -39.5 -108.5t-108.5 -40.5 q-53 0 -94 40.5t-41 108.5z" />
<glyph unicode="&#xf8;" horiz-adv-x="1118" d="M31 -25q66 69 135 150q-46 49 -75.5 128t-29.5 173q0 117 51 220t132 167q138 111 350 111q118 0 221 -47q24 29 65 75t56 64q45 -32 139 -121q-15 -15 -117 -127q43 -48 71 -128.5t28 -168.5q0 -131 -62 -241.5t-157 -172.5q-127 -77 -299 -77q-144 0 -238 47 q-106 -114 -156 -164q-56 51 -114 112zM389 449q0 -64 4 -97q28 34 128 155t153 187q-27 68 -107 68q-70 0 -106 -53q-32 -46 -52 -115.5t-20 -144.5zM453 203q38 -64 118 -64q61 0 97 49q27 39 45 112.5t18 148.5q0 24 -4 86q-53 -65 -274 -332z" />
<glyph unicode="&#xf9;" horiz-adv-x="1165" d="M41 723q0 28 1 85t1 83q45 2 223.5 7.5t192.5 6.5q6 0 6 -8q-6 -429 -6 -473v-20v-21v-20.5t1 -22t2 -20t3 -20.5l4.5 -18t6 -18.5t7.5 -15.5q17 -26 36 -33.5t46 -7.5q65 0 123 43q1 62 1 146.5t-0.5 183.5t-0.5 137l-100 4q0 29 1 88.5t1 85.5q312 8 430 8q4 0 4 -8 q-6 -651 -6 -698q0 -13 8 -13l115 4q0 -115 -2 -170q-18 -9 -131 -23.5t-203 -14.5q-43 32 -96 102h-9q-120 -68 -172.5 -85t-119.5 -17q-93 0 -186 97t-93 191q0 81 1 234t1 217zM317 1266q55 72 136 153q49 -47 311 -309q-41 -49 -96 -104q-246 186 -351 260z" />
<glyph unicode="&#xfa;" horiz-adv-x="1165" d="M41 723q0 28 1 85t1 83q45 2 223.5 7.5t192.5 6.5q6 0 6 -8q-6 -429 -6 -473v-20v-21v-20.5t1 -22t2 -20t3 -20.5l4.5 -18t6 -18.5t7.5 -15.5q17 -26 36 -33.5t46 -7.5q65 0 123 43q1 62 1 146.5t-0.5 183.5t-0.5 137l-100 4q0 29 1 88.5t1 85.5q312 8 430 8q4 0 4 -8 q-6 -651 -6 -698q0 -13 8 -13l115 4q0 -115 -2 -170q-18 -9 -131 -23.5t-203 -14.5q-43 32 -96 102h-9q-120 -68 -172.5 -85t-119.5 -17q-93 0 -186 97t-93 191q0 81 1 234t1 217zM408 1110q77 73 323 309q52 -50 135 -153q-244 -178 -364 -262q-18 19 -52 58.5t-42 47.5z " />
<glyph unicode="&#xfb;" horiz-adv-x="1165" d="M41 723q0 28 1 85t1 83q45 2 223.5 7.5t192.5 6.5q6 0 6 -8q-6 -429 -6 -473v-20v-21v-20.5t1 -22t2 -20t3 -20.5l4.5 -18t6 -18.5t7.5 -15.5q17 -26 36 -33.5t46 -7.5q65 0 123 43q1 62 1 146.5t-0.5 183.5t-0.5 137l-100 4q0 29 1 88.5t1 85.5q312 8 430 8q4 0 4 -8 q-6 -651 -6 -698q0 -13 8 -13l115 4q0 -115 -2 -170q-18 -9 -131 -23.5t-203 -14.5q-43 32 -96 102h-9q-120 -68 -172.5 -85t-119.5 -17q-93 0 -186 97t-93 191q0 81 1 234t1 217zM264 1098q43 48 127 146t121 140q41 2 131 2q45 -50 250 -290q-48 -52 -96 -88 q-21 19 -97.5 89t-121.5 109q-45 -40 -121.5 -112t-89.5 -84q-62 47 -103 88z" />
<glyph unicode="&#xfc;" horiz-adv-x="1165" d="M41 723q0 28 1 85t1 83q45 2 223.5 7.5t192.5 6.5q6 0 6 -8q-6 -429 -6 -473v-20v-21v-20.5t1 -22t2 -20t3 -20.5l4.5 -18t6 -18.5t7.5 -15.5q17 -26 36 -33.5t46 -7.5q65 0 123 43q1 62 1 146.5t-0.5 183.5t-0.5 137l-100 4q0 29 1 88.5t1 85.5q312 8 430 8q4 0 4 -8 q-6 -651 -6 -698q0 -13 8 -13l115 4q0 -115 -2 -170q-18 -9 -131 -23.5t-203 -14.5q-43 32 -96 102h-9q-120 -68 -172.5 -85t-119.5 -17q-93 0 -186 97t-93 191q0 81 1 234t1 217zM244 1169q0 47 35 84t94 37q56 0 89.5 -34.5t33.5 -81.5q0 -57 -35.5 -92t-93.5 -35 q-49 0 -86 34t-37 88zM635 1174q0 47 34 81.5t93 34.5q57 0 91 -37t34 -84q0 -53 -37.5 -87.5t-87.5 -34.5q-58 0 -92.5 35t-34.5 92z" />
<glyph unicode="&#xfd;" horiz-adv-x="1052" d="M10 729q0 68 4 174h242h293q0 -119 -2 -174l-94 -4q25 -88 65 -213q9 -28 82 -240h12q45 138 62 217q49 216 51 224q0 10 -8 10l-70 4q0 123 2 174h234q29 0 90 1t84 1q0 -62 -4 -172l-74 -4q-124 -316 -172 -436q-174 -423 -303 -627q-48 -76 -85.5 -124t-72.5 -68 q-52 0 -149 66.5t-97 105.5q86 48 148 108q114 103 151 197q-133 329 -170 428q-30 76 -76 199t-53 141q-1 3 -12 8zM426 1112q30 28 322 309q61 -59 137 -153q-275 -198 -367 -262q-62 71 -92 106z" />
<glyph unicode="&#xfe;" d="M-2 1083q2 53 2 170q45 5 160.5 19.5t206 25.5t98.5 11q6 0 6 -6q0 -62 -1.5 -153.5t-3.5 -196.5t-3 -146l10 -2q133 76 189 97.5t124 21.5q81 0 152 -56t112.5 -149t41.5 -197q0 -147 -58 -278q-48 -105 -162 -197q-32 -27 -94.5 -47t-124.5 -20q-109 0 -182 28l-12 -4 q0 -34 0.5 -97t0.5 -117t-1 -103l170 -6q0 -62 -4 -168q-221 0 -330 -2q-147 0 -270 -3q0 115 2 168l98 9q8 0 8 10v1384zM465 236q0 -28 44 -50t83 -22q68 0 102 51q47 78 47 229q0 137 -30 189q-33 51 -84 51q-27 0 -71.5 -14t-86.5 -41q-4 -234 -4 -393z" />
<glyph unicode="&#xff;" horiz-adv-x="1052" d="M10 729q0 68 4 174h244h291q0 -119 -2 -174l-94 -4q25 -88 65 -213q9 -28 82 -240h12q45 138 62 217q49 216 51 224q0 10 -8 10l-70 4q0 123 2 174h234q29 0 90 1t84 1q0 -62 -4 -172l-74 -4q-124 -316 -172 -436q-174 -423 -303 -627q-48 -76 -85.5 -124t-72.5 -68 q-52 0 -149 66.5t-97 105.5q86 48 148 108q114 103 151 197q-133 329 -170 428q-30 76 -76 199t-53 141q-1 3 -12 8zM244 1169q0 47 35 84t94 37q56 0 89.5 -34.5t33.5 -81.5q0 -57 -35.5 -92t-93.5 -35q-49 0 -86 34t-37 88zM635 1174q0 47 34 81.5t93 34.5q57 0 91 -37 t34 -84q0 -53 -37.5 -87.5t-87.5 -34.5q-58 0 -92.5 35t-34.5 92z" />
<glyph unicode="&#x152;" horiz-adv-x="1968" d="M88 649q0 178 70.5 337t199.5 257q148 109 359 109q95 0 170 -30t119 -77v84h153h469h203q16 -235 20 -362q-17 -2 -88 -10t-110 -11l-35 156q-3 15 -12 23.5t-29 11.5q-87 12 -215 12h-19l-2 -387q30 1 89.5 2t87.5 2q24 0 30 39l13 76q69 2 190 -2q0 -32 -1 -103.5 t-1 -109.5q0 -40 -1 -108.5t-1 -92.5q-177 -6 -191 -6l-10 84q-3 23 -10.5 32t-22.5 9q-114 4 -174 4v-363q0 -29 19 -37t88 -8q106 0 164 15q26 5 37 38l59 160q64 -9 201 -37q-30 -156 -76 -358q-24 0 -262 1t-404 1q-25 0 -79.5 -1t-81.5 -1v108q-117 -126 -340 -126 q-96 0 -197 33.5t-174 101.5q-205 191 -205 534zM475 676q0 -163 21.5 -259.5t78.5 -172.5q70 -90 189 -90q75 0 137.5 44.5t93.5 127.5v698q-26 73 -90.5 113.5t-134.5 40.5q-119 0 -190 -86q-105 -134 -105 -416z" />
<glyph unicode="&#x153;" horiz-adv-x="1648" d="M61 428q0 118 50.5 221.5t134.5 171.5q131 103 321 103q97 0 177 -46t118 -116h15q118 162 333 162q90 0 161.5 -31.5t111.5 -79.5q104 -125 104 -319q-1 -23 -47 -68t-65 -47q-129 -10 -441 -6q5 -84 56 -135q52 -50 153 -50q59 0 143 18.5t140 39.5q26 -85 39 -170 q-86 -41 -203.5 -68.5t-194.5 -27.5q-219 0 -313 143h-14q-54 -67 -137.5 -105t-186.5 -38q-193 0 -305 96q-150 131 -150 352zM420 461q0 -188 47 -266q37 -56 98 -56q55 0 92 47q26 39 34.5 100.5t8.5 172.5q0 165 -36 239q-13 30 -39.5 47t-53.5 17q-63 0 -96 -49 q-55 -77 -55 -252zM1034 535q117 0 219 4q23 0 23 24q0 73 -25 125q-28 64 -86 64q-56 0 -94 -56q-37 -58 -37 -161z" />
<glyph unicode="&#x178;" horiz-adv-x="1275" d="M16 1157q0 119 2 172h258q63 0 188.5 1t172.5 1q0 -119 -2 -174l-123 -8q77 -189 197 -451h10q122 224 209 441q3 10 -6 10l-111 4q0 119 2 176h291q35 0 96.5 1t85.5 1q0 -119 -2 -176l-90 -6q-247 -426 -393 -649l-2 -318l151 -6q0 -62 -4 -176q-41 0 -151.5 1 t-167.5 1q-47 0 -156 -1t-160 -1q0 62 4 176l129 6q9 0 9 11v305q-65 110 -344 643q0 3 -4 6.5t-7 3.5zM373 1583q0 47 36 85t97 38q57 0 91 -36t34 -83q0 -59 -35.5 -94t-95.5 -35q-51 0 -89 35.5t-38 89.5zM797 1587q0 47 35 83t94 36q58 0 93.5 -38t35.5 -85 q0 -54 -38 -89.5t-89 -35.5q-60 0 -95.5 35t-35.5 94z" />
<glyph unicode="&#x2c6;" horiz-adv-x="921" d="M147 1098q43 48 127 146t121 140q41 2 129 2q41 -46 131.5 -152t118.5 -138q-48 -52 -96 -88q-32 29 -105 96t-112 102q-45 -40 -121.5 -112t-89.5 -84q-62 47 -103 88z" />
<glyph unicode="&#x2dc;" horiz-adv-x="921" d="M137 1047q11 119 60.5 192.5t136.5 73.5q17 0 33.5 -3.5t35 -12.5t29 -15t33 -20.5t29.5 -18.5q25 -16 37.5 -23t30.5 -13.5t36 -6.5q60 0 74 103q62 3 114 0q-8 -122 -56.5 -194.5t-137.5 -72.5q-8 0 -16 1t-17 3.5t-15.5 4.5t-16 7t-14.5 7t-15.5 8.5t-14 9t-15.5 10 t-15 9.5q-9 5 -26 16.5t-25 16t-21 11t-24 9t-23 2.5q-63 0 -80 -104q-43 -4 -117 0z" />
<glyph unicode="&#x2000;" horiz-adv-x="926" />
<glyph unicode="&#x2001;" horiz-adv-x="1853" />
<glyph unicode="&#x2002;" horiz-adv-x="926" />
<glyph unicode="&#x2003;" horiz-adv-x="1853" />
<glyph unicode="&#x2004;" horiz-adv-x="617" />
<glyph unicode="&#x2005;" horiz-adv-x="463" />
<glyph unicode="&#x2006;" horiz-adv-x="308" />
<glyph unicode="&#x2007;" horiz-adv-x="308" />
<glyph unicode="&#x2008;" horiz-adv-x="231" />
<glyph unicode="&#x2009;" horiz-adv-x="370" />
<glyph unicode="&#x200a;" horiz-adv-x="102" />
<glyph unicode="&#x2010;" horiz-adv-x="768" d="M76 406q0 15 2.5 82.5t3.5 101.5q201 0 301 2q121 0 309 4q0 -112 -8 -193h-315q-39 0 -143.5 1.5t-149.5 1.5z" />
<glyph unicode="&#x2011;" horiz-adv-x="768" d="M76 406q0 15 2.5 82.5t3.5 101.5q201 0 301 2q121 0 309 4q0 -112 -8 -193h-315q-39 0 -143.5 1.5t-149.5 1.5z" />
<glyph unicode="&#x2012;" horiz-adv-x="768" d="M76 406q0 15 2.5 82.5t3.5 101.5q201 0 301 2q121 0 309 4q0 -112 -8 -193h-315q-39 0 -143.5 1.5t-149.5 1.5z" />
<glyph unicode="&#x2013;" horiz-adv-x="1024" d="M78 406q0 98 6 184q154 -2 461 2q173 0 403 4q0 -79 -8 -193h-393q-61 0 -230 1.5t-239 1.5z" />
<glyph unicode="&#x2014;" horiz-adv-x="2048" d="M78 406q0 4 2 76.5t4 107.5q317 -2 950 2q394 0 938 4q0 -114 -8 -193h-917q-547 0 -969 3z" />
<glyph unicode="&#x2018;" horiz-adv-x="567" d="M109 1008q0 135 90 271.5t223 199.5q33 -33 90 -111q-158 -114 -158 -235q0 -30 12 -52.5t35 -36.5t40 -20.5t44 -13.5q3 -103 -47 -166.5t-135 -63.5q-73 0 -133.5 71t-60.5 157z" />
<glyph unicode="&#x2019;" horiz-adv-x="567" d="M66 846q89 64 123 120.5t34 114.5q0 88 -127 131q-6 97 43.5 158.5t132.5 61.5q77 0 137 -69t60 -155q0 -138 -90 -275.5t-225 -199.5q-59 72 -88 113z" />
<glyph unicode="&#x201a;" horiz-adv-x="575" d="M78 -260q90 64 124 120.5t34 114.5q0 52 -38 83.5t-89 47.5q-6 97 43.5 158.5t132.5 61.5q77 0 136.5 -69t59.5 -155q0 -137 -90 -274t-225 -199q-59 71 -88 111z" />
<glyph unicode="&#x201c;" horiz-adv-x="983" d="M109 1055q0 128 84.5 255t209.5 185q54 -61 84 -106q-149 -106 -149 -215q0 -28 10.5 -48.5t31.5 -33.5t37 -19.5t40 -13.5q13 -88 -36.5 -149.5t-127.5 -61.5q-74 0 -129 64t-55 143zM553 1055q0 128 84.5 255t210.5 185q37 -39 82 -106q-148 -107 -148 -215 q0 -28 10.5 -49t32.5 -34t35.5 -18.5t38.5 -13.5q10 -90 -37.5 -150.5t-126.5 -60.5q-72 0 -127 64t-55 143z" />
<glyph unicode="&#x201d;" horiz-adv-x="983" d="M66 889q84 60 115.5 111.5t31.5 105.5q0 26 -10.5 47t-30.5 35t-36 22t-40 17q-9 87 39 146t125 59q73 0 127.5 -64t54.5 -145q0 -129 -83 -256t-209 -185q-51 58 -84 107zM510 889q147 108 147 217q0 26 -11 47t-30.5 35t-36.5 22t-40 15q-6 92 40 149.5t123 57.5 q74 0 128.5 -64t54.5 -145q0 -128 -82.5 -255.5t-206.5 -185.5q-20 22 -86 107z" />
<glyph unicode="&#x201e;" horiz-adv-x="991" d="M78 -233q84 60 115.5 111.5t31.5 105.5q0 26 -10.5 46.5t-30 35t-35.5 22t-40 16.5q-9 87 38.5 146t124.5 59q73 0 128 -64t55 -145q0 -127 -83.5 -254t-209.5 -186q-51 58 -84 107zM522 -233q148 109 148 217q0 26 -11 47t-31 34.5t-37 21t-40 15.5q-6 92 40.5 149.5 t123.5 57.5q74 0 128 -64t54 -145q0 -127 -82.5 -253.5t-206.5 -186.5q-40 48 -86 107z" />
<glyph unicode="&#x2022;" horiz-adv-x="862" d="M145 518q0 123 80.5 215t210.5 92q70 0 125.5 -26t89 -68.5t51 -94.5t17.5 -108q0 -119 -81.5 -205.5t-205.5 -86.5q-122 0 -204.5 78t-82.5 204z" />
<glyph unicode="&#x2026;" horiz-adv-x="1949" d="M150 150q0 69 50 119t132 50q77 0 123.5 -47.5t46.5 -117.5q0 -79 -50 -126.5t-130 -47.5q-66 0 -119 48.5t-53 121.5zM799 150q0 69 50 119t132 50q77 0 123.5 -47.5t46.5 -117.5q0 -79 -50 -126.5t-130 -47.5q-66 0 -119 48.5t-53 121.5zM1448 150q0 69 50 119t132 50 q77 0 123.5 -47.5t46.5 -117.5q0 -79 -50 -126.5t-130 -47.5q-66 0 -119 48.5t-53 121.5z" />
<glyph unicode="&#x202f;" horiz-adv-x="370" />
<glyph unicode="&#x2039;" horiz-adv-x="614" d="M102 516q58 58 170.5 169.5t171.5 168.5q26 -18 99 -86q-145 -237 -195 -317q113 -191 195 -324q-33 -33 -103 -86q-234 238 -334 338q-4 43 -4 137z" />
<glyph unicode="&#x203a;" horiz-adv-x="614" d="M74 127q120 193 194 326q-69 119 -192 317q50 50 100 88q223 -223 338 -340q0 -51 -4 -137q-28 -29 -147.5 -150t-188.5 -192q-47 39 -100 88z" />
<glyph unicode="&#x205f;" horiz-adv-x="463" />
<glyph unicode="&#x20ac;" d="M-2 414v106h100q0 10 -1 30t-1 30q0 17 4 71h-102v113l117 -2q58 255 260 416q98 76 226 118.5t249 42.5q160 0 246 -28q18 -202 30 -416q-153 -23 -213 -29l-47 213q-4 18 -12 23q-1 1 -6 4.5t-6.5 4.5l-6 4t-7 4t-7 3t-8.5 2.5t-9.5 1.5t-11 1.5t-12.5 0.5 q-36 0 -83.5 -21t-88.5 -63q-103 -109 -129 -280l305 -2v-113l-313 2v-12q0 -67 8 -119h305v-106l-276 2q22 -73 80 -131q42 -39 108 -60.5t113 -21.5q151 0 287 57q23 -89 34 -190q-226 -90 -389 -90q-114 0 -225 30t-192 90q-156 113 -203 316z" />
<glyph unicode="&#x2122;" horiz-adv-x="1361" d="M63 1139q7 124 9 192q43 0 129 -1t129 -1q41 0 122 1t121 1q10 -143 11 -192q-16 -1 -51.5 -4.5t-53.5 -4.5l-16 101q-16 6 -57 6l-3 -336h58v-92h-133h-146v92l60 2v334q-46 0 -62 -8l-14 -99q-17 1 -51 4.5t-52 4.5zM618 809v90l56 2q4 100 4 332l-57 2q0 65 2 96 q41 0 125 -1t124 -1q8 -31 22 -82.5t31 -115t25 -93.5h11q71 245 86 291q37 0 116 1t119 1v-96l-57 -2q2 -100 2 -332l57 -2v-90h-115h-112v90l37 2v229h-11q-57 -182 -96 -292h-92q-54 154 -94 297h-13v-234l39 -2v-90h-100h-109z" />
<glyph unicode="&#xe000;" horiz-adv-x="901" d="M0 0v901h901v-901h-901z" />
<glyph unicode="&#xfb01;" horiz-adv-x="1318" d="M35 709q0 31 1 92t1 88q20 0 63.5 2t61.5 2q10 0 10 16q0 139 29 213.5t116 153.5q93 85 176 112t199 27q95 0 189.5 -18.5t152.5 -46.5q0 -53 -42 -134.5t-81 -109.5q-176 98 -295 98q-58 0 -81 -33q-22 -31 -27.5 -82t0.5 -194q116 0 225 2q71 1 176.5 6.5t181 11 t76.5 5.5q4 0 4 -7q0 -532 -2 -739l113 -4v-168h-283q-40 0 -127.5 -1t-126.5 -1q0 88 3 168l86 6q6 0 6 8v525q-33 2 -154 2h-180v-535l98 -4q0 -113 -2 -168h-266q-42 0 -135 -1t-133 -1q0 113 2 168l100 6q8 0 8 10q0 355 -2 525h-141z" />
<glyph unicode="&#xfb02;" horiz-adv-x="1333" d="M35 707q0 127 2 182q19 1 61.5 2t61.5 2q12 0 12 16q0 143 28 218.5t109 148.5q103 87 186 113t226 26q118 0 256.5 -19.5t204.5 -45.5q8 -8 8 -17q0 -185 -3.5 -614.5t-4.5 -542.5l118 -6q0 -28 -1 -85t-1 -83h-284q-41 0 -131 -1t-125 -1q0 117 2 168l92 6q8 4 8 12 v521h-358q0 -70 -1 -262t-1 -269l108 -6q0 -111 -2 -168h-270q-43 0 -136.5 -1t-131.5 -1q0 113 2 168l100 8q8 0 8 8q0 355 -2 523h-141zM502 891q54 0 172 1t186 1v307q-98 29 -227 29q-38 0 -67 -12t-40 -31q-29 -47 -24 -295z" />
</font>
</defs>
</svg>
