<?xml version="1.0" standalone="no"?>
<!DOCTYPE svg PUBLIC "-//W3C//DTD SVG 1.1//EN" "http://www.w3.org/Graphics/SVG/1.1/DTD/svg11.dtd" >
<svg xmlns="http://www.w3.org/2000/svg" xmlns:xlink="http://www.w3.org/1999/xlink" version="1.1">
<metadata></metadata>
<defs>
<font id="electrolux_sanssemibold" horiz-adv-x="1712" >
<font-face units-per-em="2048" ascent="1653" descent="-395" />
<missing-glyph horiz-adv-x="708" />
<glyph unicode="&#xfb01;" horiz-adv-x="1044" d="M127 0v1083q0 119 26.5 188.5t86.5 114.5q59 44 131 57t164 13h167v-209h-137q-106 0 -154.5 -33.5t-48.5 -111.5v-70h553v-1032h-243v809h-307v-809h-238z" />
<glyph unicode="&#xfb02;" horiz-adv-x="1103" d="M125 0v1083q0 118 27 188.5t86 117.5q36 29 85 45t84.5 19t86.5 3h106v-205h-94q-70 0 -102.5 -33.5t-32.5 -111.5v-74h194v-223h-194v-809h-246zM729 0v1427h246v-1427h-246z" />
<glyph unicode="&#xfb03;" horiz-adv-x="1589" d="M125 0v1083q0 118 27 188.5t86 117.5q36 29 85 45t84.5 19t86.5 3h96v-205h-94q-70 0 -103 -33.5t-33 -111.5v-74h318v51q0 118 27 188.5t86 117.5q36 29 85 45t84.5 19t86.5 3h206v-205h-204q-70 0 -103 -33.5t-33 -111.5v-74h553v-1032h-243v809h-308v-809h-237v809 h-316v-809h-237z" />
<glyph unicode="&#xfb04;" horiz-adv-x="1626" d="M125 0v1083q0 118 27 188.5t86 117.5q36 29 85 45t84.5 19t86.5 3h96v-205h-94q-70 0 -103 -33.5t-33 -111.5v-74h318v51q0 118 27 188.5t86 117.5q36 29 85 45t84.5 19t86.5 3h104v-205h-102q-70 0 -103 -33.5t-33 -111.5v-74h205v-223h-203v-809h-237v809h-316v-809 h-237zM1262 0v1427h235v-1427h-235z" />
<glyph horiz-adv-x="0" />
<glyph horiz-adv-x="0" />
<glyph horiz-adv-x="682" />
<glyph unicode="&#xd;" horiz-adv-x="0" />
<glyph unicode=" "  horiz-adv-x="708" />
<glyph unicode="&#x09;" horiz-adv-x="708" />
<glyph unicode="&#xa0;" horiz-adv-x="708" />
<glyph unicode="!" horiz-adv-x="593" d="M147 1427h297l-43 -1067h-211zM156 115q0 59 41.5 100t99.5 41t99.5 -41t41.5 -100t-41.5 -100.5t-99.5 -41.5t-99.5 41.5t-41.5 100.5z" />
<glyph unicode="&#x22;" horiz-adv-x="765" d="M100 1427h230l-35 -516h-162zM436 1427h230l-33 -516h-164z" />
<glyph unicode="#" horiz-adv-x="1292" d="M80 397v207h229l51 203h-178v207h232l49 200h209l-51 -200h208l52 200h206l-49 -200h176v-207h-227l-51 -203h178v-207h-229l-54 -204h-206l51 204h-209l-53 -204h-207l51 204h-178zM518 604h207l53 203h-209z" />
<glyph unicode="$" horiz-adv-x="1206" d="M68 303l200 125q40 -86 113 -143.5t170 -75.5v442q-73 27 -126 51.5t-107 61t-87 78.5t-54 101t-21 130q0 161 111.5 264t281.5 115v201h145v-207q226 -35 348 -219l-182 -127q-62 97 -168 119v-373q236 -85 334 -186.5t98 -264.5q0 -173 -110 -285.5t-320 -129.5v-197 h-145v199q-173 14 -295 99.5t-186 221.5zM401 1075q0 -65 36 -104t114 -72v328q-69 -9 -109.5 -49t-40.5 -103zM692 209q54 5 92.5 25t56.5 48.5t25.5 54t7.5 52.5q0 76 -43.5 120t-138.5 89v-389z" />
<glyph unicode="%" horiz-adv-x="1579" d="M82 1137q0 132 95 224.5t229 92.5t228.5 -92.5t94.5 -224.5t-94.5 -224t-228.5 -92t-229 92t-95 224zM197 0l954 1427h231l-954 -1427h-231zM272 1137q0 -60 38.5 -101t95.5 -41q55 0 94 41.5t39 100.5q0 58 -39.5 100.5t-93.5 42.5q-56 0 -95 -42t-39 -101zM850 291 q0 131 95 223t229 92q135 0 229 -91.5t94 -223.5t-94 -225t-229 -93q-134 0 -229 93t-95 225zM1040 291q0 -60 38.5 -102t95.5 -42q56 0 95.5 42t39.5 102q0 58 -39.5 99.5t-95.5 41.5q-57 0 -95.5 -41t-38.5 -100z" />
<glyph unicode="&#x26;" horiz-adv-x="1667" d="M96 457q0 148 73 259t212 179q-45 85 -45 176q0 169 116 278t306 109q169 0 276 -95t107 -237q0 -89 -49 -141h503v-225h-264v-84q0 -232 -102 -400l264 -276h-317l-103 111q-163 -142 -432 -142q-245 0 -395 135t-150 353zM346 457q0 -121 79 -191.5t216 -70.5 q166 0 244 92q-117 125 -197.5 208.5t-100 103.5t-34.5 37t-45 56q-162 -75 -162 -235zM575 1065q0 -66 36.5 -127.5t103.5 -132.5l332 -352q47 80 47 249v58h-287v151q55 12 90 59t35 111q0 73 -50.5 121.5t-127.5 48.5q-70 0 -124.5 -48t-54.5 -138z" />
<glyph unicode="'" horiz-adv-x="430" d="M100 1427h230l-35 -516h-162z" />
<glyph unicode="(" horiz-adv-x="684" d="M104 633q0 281 119 530.5t348 450.5l115 -123q-178 -185 -267 -390.5t-89 -467.5q0 -267 88 -470.5t268 -391.5l-115 -123q-231 198 -349 449t-118 536z" />
<glyph unicode=")" horiz-adv-x="684" d="M-2 -229q179 189 267.5 392.5t88.5 469.5q0 261 -89 466.5t-267 391.5l115 123q229 -201 347 -450.5t118 -530.5q0 -285 -117.5 -536t-347.5 -449z" />
<glyph unicode="*" horiz-adv-x="817" d="M86 1141l55 157l201 -90l-20 219h172l-19 -219l203 90l53 -157l-213 -56l148 -165l-140 -101l-118 185l-119 -185l-135 101l147 165z" />
<glyph unicode="+" horiz-adv-x="1001" d="M109 604v217h272v295h237v-295h275v-217h-275v-293h-237v293h-272z" />
<glyph unicode="," horiz-adv-x="495" d="M-43 -262l182 489h264l-258 -489h-188z" />
<glyph unicode="-" horiz-adv-x="892" d="M102 446v226h686v-226h-686z" />
<glyph unicode="." horiz-adv-x="458" d="M86 125q0 58 42.5 98.5t100.5 40.5t100 -40.5t42 -98.5q0 -59 -42 -100t-100 -41t-100.5 41t-42.5 100z" />
<glyph unicode="/" horiz-adv-x="944" d="M-6 -279l657 1760h223l-659 -1760h-221z" />
<glyph unicode="0" horiz-adv-x="1232" d="M102 715q0 222 7 301q13 123 83.5 223.5t182 157.5t241.5 57t242 -57t182.5 -157.5t83.5 -223.5q6 -68 6 -301q0 -235 -6 -303q-13 -123 -83.5 -223.5t-182.5 -158t-242 -57.5q-198 0 -342.5 125.5t-164.5 313.5q-7 79 -7 303zM352 715q0 -224 6 -277q9 -101 82.5 -166 t175.5 -65t175.5 65t82.5 166q7 62 7 277q0 217 -4 270q-10 101 -85 168.5t-176 67.5t-175 -67.5t-85 -168.5q-4 -53 -4 -270z" />
<glyph unicode="1" horiz-adv-x="729" d="M92 1196v231h459v-1427h-256v1196h-203z" />
<glyph unicode="2" horiz-adv-x="1144" d="M6 0l668 819q86 106 86 199q0 84 -58 143.5t-141 59.5q-86 0 -146.5 -67.5t-60.5 -162.5h-254q0 126 62 232.5t168 168.5t231 62q188 0 320.5 -128.5t132.5 -309.5q0 -76 -22 -148t-95 -161l-389 -476h545v-231h-1047z" />
<glyph unicode="3" horiz-adv-x="1196" d="M31 268l205 113q40 -82 124.5 -127t198.5 -45q129 0 211 72t82 188q0 118 -87.5 191t-232.5 73q-162 0 -260 -33l392 496h-502v231h942l-406 -505h2q168 -9 285 -139.5t117 -307.5q0 -217 -149 -358.5t-390 -141.5q-184 0 -325.5 79t-206.5 214z" />
<glyph unicode="4" horiz-adv-x="1269" d="M72 287l530 1140h270l-426 -913h414v285h248v-799h-248v287h-788z" />
<glyph unicode="5" horiz-adv-x="1177" d="M57 264l209 119q37 -79 115 -126.5t172 -47.5q117 0 199 78t82 192q0 119 -89.5 195t-222.5 76q-99 0 -195 -25.5t-165 -69.5l133 772h694v-231h-500l-43 -242q62 19 129 19q212 0 361 -146t149 -348q0 -138 -71.5 -254t-194 -183t-266.5 -67q-162 0 -295.5 79 t-200.5 210z" />
<glyph unicode="6" horiz-adv-x="1208" d="M82 489q0 47 11 95t25.5 85.5t45.5 92t52.5 88t66.5 100.5q2 3 14 22q91 138 299 455h285l-308 -456q40 8 80 8q83 0 167 -35t152.5 -96t112 -154.5t43.5 -199.5q0 -141 -70.5 -259t-190.5 -185.5t-263 -67.5q-106 0 -202.5 40t-166.5 107.5t-111.5 161.5t-41.5 198z M336 487q0 -116 77.5 -194t190.5 -78q112 0 192.5 80.5t80.5 191.5q0 109 -80.5 190t-192.5 81q-115 0 -191.5 -78t-76.5 -193z" />
<glyph unicode="7" horiz-adv-x="1171" d="M82 1196v231h1061l-670 -1427h-268l567 1196h-690z" />
<glyph unicode="8" horiz-adv-x="1196" d="M90 455q0 127 61 222.5t160 145.5q-56 41 -88.5 103.5t-32.5 136.5q0 161 120.5 276t287.5 115t287.5 -115t120.5 -276q0 -150 -121 -240q99 -48 161 -144.5t62 -223.5q0 -197 -149.5 -338.5t-360.5 -141.5t-359.5 141.5t-148.5 338.5zM344 455q0 -102 74.5 -174 t179.5 -72t180.5 72.5t75.5 173.5q0 100 -76 172.5t-180 72.5t-179 -72t-75 -173zM426 1063q0 -71 51 -121.5t121 -50.5q72 0 122 50.5t50 121.5q0 69 -50 117.5t-122 48.5q-71 0 -121.5 -48.5t-50.5 -117.5z" />
<glyph unicode="9" horiz-adv-x="1204" d="M86 948q0 138 69.5 254t188 183t258.5 67q145 0 264 -67.5t185.5 -182t66.5 -250.5q0 -61 -14.5 -119t-49.5 -125t-66.5 -117.5t-90.5 -137.5l-299 -453h-285l324 479q-34 -12 -82 -12q-80 0 -162.5 33.5t-151 93t-112 152.5t-43.5 202zM336 952q0 -110 78.5 -189 t187.5 -79q121 0 194.5 77t73.5 191q0 110 -79 188.5t-189 78.5q-109 0 -187.5 -78.5t-78.5 -188.5z" />
<glyph unicode=":" horiz-adv-x="475" d="M96 242q0 58 42 98.5t100 40.5t100.5 -40.5t42.5 -98.5q0 -59 -42.5 -100.5t-100.5 -41.5t-100 41.5t-42 100.5zM96 795q0 59 42 100t100 41t100.5 -41t42.5 -100t-42.5 -100.5t-100.5 -41.5t-100 41.5t-42 100.5z" />
<glyph unicode=";" horiz-adv-x="540" d="M-35 -262l182 489h265l-258 -489h-189zM131 793q0 59 42 100t101 41q58 0 100 -41t42 -100t-42 -100.5t-100 -41.5q-59 0 -101 41t-42 101z" />
<glyph unicode="&#x3c;" horiz-adv-x="956" d="M39 729l795 514v-254l-408 -260l408 -260v-252z" />
<glyph unicode="=" horiz-adv-x="1060" d="M111 412v215h837v-215h-837zM111 815v215h837v-215h-837z" />
<glyph unicode="&#x3e;" horiz-adv-x="956" d="M123 217v252l407 260l-407 260v254l792 -514z" />
<glyph unicode="?" horiz-adv-x="903" d="M113 1083v267q136 104 315 104q96 0 172.5 -28t121.5 -74.5t68 -100t23 -110.5q0 -133 -58 -211t-210 -170q-64 -38 -95.5 -67.5t-31.5 -69.5q0 -80 98 -80q91 0 152 39v-205q-78 -37 -185 -37q-138 0 -222.5 77.5t-84.5 203.5q0 170 203 299q9 6 41.5 27t41 27t31.5 23 t30 27t19 26.5t15.5 33t3.5 36.5q0 8 -2.5 18.5t-11.5 26.5t-23.5 29t-42 22t-63.5 9q-159 0 -305 -142zM301 104q0 58 41 98t98 40q58 0 99 -40t41 -98t-41 -97.5t-99 -39.5t-98.5 39.5t-40.5 97.5z" />
<glyph unicode="@" horiz-adv-x="1685" d="M92 598q0 203 101 375t274 272.5t377 100.5q152 0 291 -56.5t239.5 -152t160.5 -228t60 -278.5q0 -213 -93.5 -329t-256.5 -116q-87 0 -149.5 40.5t-85.5 111.5q-32 -43 -84.5 -66.5t-114.5 -23.5q-141 0 -235.5 99.5t-94.5 246.5q0 145 95 245.5t235 100.5 q118 0 178 -80v66h193v-463q0 -60 24 -81.5t54 -21.5q24 0 45.5 10t44 36t36 83.5t13.5 141.5q0 144 -74.5 265.5t-202.5 192t-278 70.5q-112 0 -215 -44.5t-177.5 -119.5t-118.5 -179t-44 -218q0 -113 44.5 -216.5t119 -178.5t177 -119.5t214.5 -44.5q129 0 243 63l82 -170 q-149 -79 -325 -79q-123 0 -238 37.5t-207.5 107t-162 161t-107 205t-37.5 234.5zM680 594q0 -69 45.5 -115.5t112.5 -46.5q68 0 113.5 46.5t45.5 115.5q0 70 -45.5 117t-113.5 47t-113 -47t-45 -117z" />
<glyph unicode="A" horiz-adv-x="1533" d="M61 0l707 1497l705 -1497h-273l-127 276h-614l-127 -276h-271zM555 498h422l-211 465z" />
<glyph unicode="B" horiz-adv-x="1298" d="M178 0v1427h516q169 0 284.5 -103.5t115.5 -260.5q0 -103 -48.5 -179t-134.5 -108q138 -26 212.5 -121.5t74.5 -232.5q0 -182 -123.5 -302t-310.5 -120h-586zM434 231h287q96 0 159.5 58.5t63.5 146.5q0 87 -63 144t-162 57h-285v-406zM434 852h225q81 0 133 49.5 t52 126.5q0 71 -51.5 119.5t-130.5 48.5h-228v-344z" />
<glyph unicode="C" horiz-adv-x="1499" d="M102 713q0 209 101.5 379t275 265t381.5 95q167 0 313 -67.5t252 -188.5l-174 -149q-73 83 -173.5 128.5t-217.5 45.5q-216 0 -360 -145t-144 -363t144 -362t360 -144q118 0 220.5 46.5t174.5 131.5l172 -149q-104 -123 -251.5 -192t-315.5 -69q-156 0 -295.5 56 t-241.5 153t-161.5 234.5t-59.5 294.5z" />
<glyph unicode="D" horiz-adv-x="1542" d="M178 0v1427h510q178 0 320.5 -53t236 -148.5t143.5 -226.5t50 -288q0 -158 -49.5 -288.5t-143 -224.5t-235.5 -146t-320 -52h-512zM434 231h238q110 0 197 24t145 66.5t96 103.5t55 131.5t17 154.5q0 108 -27.5 194t-86.5 152.5t-159.5 102.5t-238.5 36h-236v-965z" />
<glyph unicode="E" horiz-adv-x="1189" d="M166 455v972h887v-231h-631v-338h590v-231h-590v-181q0 -62 20.5 -107t53.5 -67t65.5 -31.5t65.5 -9.5h440v-231h-453q-224 0 -336 117t-112 338z" />
<glyph unicode="F" horiz-adv-x="1150" d="M178 0v1427h864v-231h-608v-358h555v-232h-555v-606h-256z" />
<glyph unicode="G" horiz-adv-x="1568" d="M102 713q0 209 101.5 379t275 265t381.5 95q155 0 291 -55.5t240 -159.5l-170 -156q-143 140 -361 140q-215 0 -359.5 -145.5t-144.5 -362.5q0 -218 144 -362t360 -144q203 0 342 123v262h-397v227h639v-575q-102 -125 -254.5 -197t-329.5 -72q-156 0 -295.5 56 t-241.5 153t-161.5 234.5t-59.5 294.5z" />
<glyph unicode="H" horiz-adv-x="1554" d="M178 0v1427h256v-557h686v557h254v-1427h-254v639h-686v-639h-256z" />
<glyph unicode="I" horiz-adv-x="630" d="M186 0v1427h256v-1427h-256z" />
<glyph unicode="J" horiz-adv-x="743" d="M43 -4v231h96q30 0 59.5 8.5t60.5 29t50 62t19 99.5v1001h256v-993q0 -212 -108.5 -325t-323.5 -113h-109z" />
<glyph unicode="K" horiz-adv-x="1409" d="M178 0v1427h256v-684l604 684h303l-555 -628l572 -799h-299l-445 616l-180 -198v-418h-256z" />
<glyph unicode="L" horiz-adv-x="1087" d="M178 0v1427h256v-1196h567v-231h-823z" />
<glyph unicode="M" horiz-adv-x="1816" d="M178 0v1475l729 -883l729 883v-1475h-252v809l-477 -582l-477 582v-809h-252z" />
<glyph unicode="N" horiz-adv-x="1585" d="M178 0v1481l973 -955v901h256v-1480l-973 950v-897h-256z" />
<glyph unicode="O" d="M102 711q0 206 101 376.5t274 267.5t379 97q207 0 380.5 -97t274.5 -267.5t101 -376.5t-101 -376.5t-274.5 -267t-380.5 -96.5q-206 0 -379 96.5t-274 267t-101 376.5zM354 711q0 -142 65.5 -258.5t180.5 -183t256 -66.5q105 0 198.5 39.5t160 107t105 161.5t38.5 200 q0 141 -65.5 258t-181 184.5t-255.5 67.5q-213 0 -357.5 -147t-144.5 -363z" />
<glyph unicode="P" horiz-adv-x="1280" d="M178 0v1427h545q86 0 168.5 -32.5t149 -90.5t107 -147t40.5 -194q0 -132 -67 -239.5t-173 -165.5t-225 -58h-289v-500h-256zM434 731h277q86 0 154.5 61t68.5 171q0 58 -20 104.5t-53.5 73.5t-71.5 41t-78 14h-277v-465z" />
<glyph unicode="Q" d="M102 713q0 206 101.5 376t274.5 266.5t380 96.5t379.5 -96.5t273.5 -266.5t101 -376q0 -282 -191 -486l140 -168l-172 -143l-144 170q-165 -109 -387 -109q-207 0 -380 96t-274.5 265.5t-101.5 374.5zM354 713q0 -215 145 -359.5t359 -144.5q125 0 227 57l-200 238 l172 145l203 -239q98 125 98 303q0 141 -65.5 257.5t-180.5 183.5t-254 67q-213 0 -358.5 -147t-145.5 -361z" />
<glyph unicode="R" horiz-adv-x="1343" d="M178 0v1427h555q126 0 232 -58.5t168.5 -163t62.5 -230.5q0 -139 -71.5 -248.5t-188.5 -157.5l346 -569h-289l-305 508h-4h-250v-508h-256zM434 737h273q104 0 169.5 65.5t65.5 168.5q0 98 -61 161.5t-154 63.5h-293v-459z" />
<glyph unicode="S" horiz-adv-x="1204" d="M63 301l193 121q52 -101 142.5 -159t215.5 -58q70 0 121 18.5t75.5 49t35 59.5t10.5 59q0 38 -15 69t-36 53t-63.5 45t-78 38t-98.5 39q-78 29 -131.5 54t-110 62.5t-90.5 79.5t-55.5 102.5t-21.5 133.5q0 115 60 203.5t160.5 135t221.5 46.5q292 0 440 -231l-182 -125 q-81 127 -254 127q-85 0 -139.5 -43t-54.5 -109q0 -24 6 -44.5t14.5 -36t27.5 -30.5t34.5 -25.5t47.5 -24.5t54 -23t66 -26.5t73 -29.5q202 -81 291.5 -178t89.5 -256q0 -189 -128.5 -305.5t-371.5 -116.5q-199 0 -340 87t-209 239z" />
<glyph unicode="T" horiz-adv-x="1153" d="M61 1196v231h1031v-231h-387v-1196h-256v1196h-388z" />
<glyph unicode="U" horiz-adv-x="1490" d="M166 547v880h256v-854q0 -184 85.5 -274t237.5 -90q151 0 236.5 90t85.5 274v854h256v-880q0 -139 -45 -249t-123.5 -179.5t-183 -105.5t-226.5 -36q-123 0 -227.5 36t-183.5 105.5t-123.5 179.5t-44.5 249z" />
<glyph unicode="V" horiz-adv-x="1501" d="M63 1427h273l414 -929l415 929h273l-688 -1488z" />
<glyph unicode="W" horiz-adv-x="2021" d="M63 1427h261l284 -854l404 879l397 -877l289 852h260l-504 -1484l-442 964l-449 -962z" />
<glyph unicode="X" horiz-adv-x="1411" d="M74 0l473 735l-449 692h285l324 -503l321 503h281l-447 -694l477 -733h-282l-355 547l-354 -547h-274z" />
<glyph unicode="Y" horiz-adv-x="1396" d="M57 1427h277l366 -628l365 628h274l-514 -874v-553h-254v553z" />
<glyph unicode="Z" horiz-adv-x="1363" d="M59 0l807 1196h-657v231h1091l-804 -1196h774v-231h-1211z" />
<glyph unicode="[" horiz-adv-x="755" d="M168 -444v1871h563v-219h-321v-1433h321v-219h-563z" />
<glyph unicode="\" horiz-adv-x="944" d="M55 1481h221l660 -1760h-221z" />
<glyph unicode="]" horiz-adv-x="755" d="M25 -225h321v1433h-321v219h561v-1871h-561v219z" />
<glyph unicode="^" horiz-adv-x="1120" d="M53 717l506 766l508 -766h-244l-264 405l-264 -405h-242z" />
<glyph unicode="_" horiz-adv-x="802" d="M18 -174h766v-199h-766v199z" />
<glyph unicode="`" horiz-adv-x="1118" d="M307 1427h281l104 -297h-186z" />
<glyph unicode="a" horiz-adv-x="1300" d="M84 516q0 150 68 274t186.5 194.5t261.5 70.5q126 0 214.5 -48.5t115.5 -123.5v149h246v-1032h-246v150q-27 -75 -115.5 -124t-214.5 -49q-143 0 -261.5 70.5t-186.5 194.5t-68 274zM328 516q0 -135 87 -225t218 -90q134 0 224.5 90t90.5 225t-90.5 225t-224.5 90 q-131 0 -218 -90t-87 -225z" />
<glyph unicode="b" horiz-adv-x="1302" d="M129 0v1427h246v-544q27 75 115.5 123.5t214.5 48.5q143 0 261.5 -70.5t186.5 -194.5t68 -274t-68 -274t-186.5 -194.5t-261.5 -70.5q-126 0 -214.5 49t-115.5 124v-150h-246zM356 516q0 -135 91 -225t225 -90q131 0 218 90t87 225t-87 225t-218 90q-134 0 -225 -90 t-91 -225z" />
<glyph unicode="c" horiz-adv-x="1120" d="M84 518q0 154 75 280t203.5 196.5t282.5 70.5q247 0 414 -178l-152 -158q-110 113 -262 113q-135 0 -226 -92.5t-91 -231.5t91 -231t226 -92q153 0 262 112l152 -157q-168 -179 -414 -179q-154 0 -282.5 70.5t-203.5 196.5t-75 280z" />
<glyph unicode="d" horiz-adv-x="1302" d="M84 516q0 150 68 274t186.5 194.5t261.5 70.5q126 0 214.5 -48.5t115.5 -123.5v544h246v-1427h-246v150q-27 -75 -115.5 -124t-214.5 -49q-143 0 -261.5 70.5t-186.5 194.5t-68 274zM328 516q0 -135 87 -225t218 -90q134 0 224.5 90t90.5 225t-90.5 225t-224.5 90 q-131 0 -218 -90t-87 -225z" />
<glyph unicode="e" horiz-adv-x="1210" d="M84 508v8q0 245 153 395t388 150q113 0 209 -40.5t161.5 -111t102.5 -165.5t37 -203q-1 -45 -5 -86h-802q6 -123 90.5 -197t220.5 -74q90 0 153.5 28.5t125.5 90.5l147 -143q-95 -100 -202 -142.5t-232 -42.5q-245 0 -396 145.5t-151 387.5zM334 627h551 q0 92 -76.5 158.5t-183.5 66.5q-115 0 -199 -65.5t-92 -159.5z" />
<glyph unicode="f" horiz-adv-x="641" d="M125 0v1083q0 118 27 188.5t86 117.5q36 29 85 45t84.5 19t86.5 3h106v-205h-94q-70 0 -102.5 -33.5t-32.5 -111.5v-74h194v-223h-194v-809h-246z" />
<glyph unicode="g" horiz-adv-x="1300" d="M84 520q0 148 68 271t186.5 193.5t261.5 70.5q126 0 214.5 -48.5t115.5 -123.5v149h246v-950q0 -107 -30.5 -199.5t-94 -169t-173.5 -120.5t-257 -44q-173 0 -303.5 76t-186.5 197l215 108q28 -72 100 -116.5t168 -44.5q162 0 242 75t80 230v69q-36 -65 -124.5 -108 t-211.5 -43q-219 0 -367.5 151.5t-148.5 376.5zM328 520q0 -133 87 -222t218 -89q134 0 224.5 89t90.5 222q0 132 -90.5 221.5t-224.5 89.5q-130 0 -217.5 -89.5t-87.5 -221.5z" />
<glyph unicode="h" horiz-adv-x="1175" d="M129 0v1427h244v-538q35 74 115 119t186 45q178 0 277.5 -111t99.5 -303v-639h-244v604q0 105 -55 167.5t-152 62.5q-100 0 -163.5 -67t-63.5 -173v-594h-244z" />
<glyph unicode="i" horiz-adv-x="503" d="M104 1298q0 61 43.5 103.5t104.5 42.5q59 0 102 -42.5t43 -103.5t-43 -103t-102 -42q-61 0 -104.5 42t-43.5 103zM129 0v1032h246v-1032h-246z" />
<glyph unicode="j" horiz-adv-x="497" d="M-72 -213h9q97 0 143.5 40t46.5 134v1071h246v-1089q0 -379 -396 -379h-49v223zM102 1296q0 61 43.5 103.5t104.5 42.5q59 0 102 -42.5t43 -103.5t-43 -103t-102 -42q-61 0 -104.5 42t-43.5 103z" />
<glyph unicode="k" horiz-adv-x="1097" d="M129 0v1427h244v-833l381 438h282l-403 -461l446 -571h-278l-326 416l-102 -115v-301h-244z" />
<glyph unicode="l" horiz-adv-x="503" d="M129 0v1427h246v-1427h-246z" />
<glyph unicode="m" horiz-adv-x="1755" d="M129 0v1032h244v-147q33 76 106.5 122t171.5 46q212 0 289 -181q88 181 338 181q169 0 263.5 -111t94.5 -303v-639h-245v604q0 106 -48.5 168t-136.5 62q-90 0 -147.5 -67.5t-57.5 -172.5v-594h-243v604q0 106 -48.5 168t-136.5 62q-87 0 -143.5 -67.5t-56.5 -172.5v-594 h-244z" />
<glyph unicode="n" horiz-adv-x="1196" d="M129 0v1032h244v-147q36 75 119.5 121.5t193.5 46.5q185 0 288 -111t103 -303v-639h-246v604q0 106 -58 168t-161 62q-104 0 -171.5 -67t-67.5 -173v-594h-244z" />
<glyph unicode="o" horiz-adv-x="1294" d="M84 516q0 152 75 278t204.5 197.5t283.5 71.5t283 -71.5t204.5 -197.5t75.5 -278t-75.5 -278t-204.5 -197.5t-283 -71.5t-283.5 71.5t-204.5 197.5t-75 278zM328 516q0 -137 91.5 -230t227.5 -93q135 0 227.5 93.5t92.5 229.5q0 137 -92.5 230.5t-227.5 93.5 q-136 0 -227.5 -93.5t-91.5 -230.5z" />
<glyph unicode="p" horiz-adv-x="1302" d="M129 -395v1427h246v-149q27 75 115.5 123.5t214.5 48.5q143 0 261.5 -70.5t186.5 -194.5t68 -274t-68 -274t-186.5 -194.5t-261.5 -70.5q-126 0 -214.5 49t-115.5 124v-545h-246zM356 516q0 -135 91 -225t225 -90q131 0 218 90t87 225t-87 225t-218 90q-134 0 -225 -90 t-91 -225z" />
<glyph unicode="q" horiz-adv-x="1296" d="M84 516q0 150 68 274t186.5 194.5t261.5 70.5q126 0 214.5 -48.5t115.5 -123.5v149h246v-1427h-246v545q-27 -75 -115.5 -124t-214.5 -49q-143 0 -261.5 70.5t-186.5 194.5t-68 274zM328 516q0 -135 87 -225t218 -90q134 0 224.5 90t90.5 225t-90.5 225t-224.5 90 q-131 0 -218 -90t-87 -225z" />
<glyph unicode="r" horiz-adv-x="839" d="M129 0v1032h244v-153q37 81 117.5 127.5t189.5 46.5q44 0 74 -6v-238q-48 10 -103 10q-128 0 -203 -74.5t-75 -201.5v-543h-244z" />
<glyph unicode="s" horiz-adv-x="962" d="M49 182l158 133q34 -56 105.5 -92.5t166.5 -36.5q97 0 141 33.5t44 79.5q0 18 -6.5 33t-22 27.5t-32 22t-44.5 20.5t-51 18.5t-61.5 20t-65.5 22.5q-124 45 -189 112t-65 179q0 96 50.5 167.5t132.5 106.5t182 35q216 0 333 -152l-137 -145q-68 86 -201 86 q-58 0 -91.5 -25t-33.5 -67q0 -17 4.5 -29.5t17 -24t25.5 -19t39 -18t47 -17.5t59.5 -20t68.5 -24q144 -52 210 -124t66 -183q0 -143 -107 -235.5t-317 -92.5q-156 0 -266.5 56.5t-159.5 152.5z" />
<glyph unicode="t" horiz-adv-x="659" d="M125 432v995h246v-395h227v-223h-227v-360q0 -114 57 -168t158 -54h12v-231h-49q-56 0 -110 11.5t-112.5 42t-102 77.5t-71.5 126t-28 179z" />
<glyph unicode="u" horiz-adv-x="1179" d="M117 410v622h248v-602q0 -116 61.5 -173.5t163.5 -57.5t163.5 57.5t61.5 175.5v600h248v-616q0 -109 -37.5 -195t-103.5 -139.5t-151 -81t-183 -27.5t-182 27.5t-149 80t-102.5 137.5t-37.5 192z" />
<glyph unicode="v" horiz-adv-x="1161" d="M27 1032h256l299 -614l299 614h254l-553 -1098z" />
<glyph unicode="w" horiz-adv-x="1572" d="M37 1032h242l219 -581l288 608l287 -608l219 581h242l-424 -1098l-324 670l-325 -670z" />
<glyph unicode="x" horiz-adv-x="1142" d="M45 0l391 545l-356 487h266l225 -309l224 309h268l-356 -485l391 -547h-264l-263 365l-262 -365h-264z" />
<glyph unicode="y" horiz-adv-x="1169" d="M43 1032h248l303 -778l285 778h247l-462 -1200q-49 -131 -113 -192q-84 -78 -246 -78h-49v215h43q56 0 90 22q35 21 60 88l26 74z" />
<glyph unicode="z" horiz-adv-x="1105" d="M6 0l619 813h-512v219h942l-615 -813h586v-219h-1020z" />
<glyph unicode="{" horiz-adv-x="753" d="M72 463v127q47 1 92 24q82 43 82 166v385q0 114 69.5 188t176.5 74h163v-196h-73q-55 0 -81 -36t-26 -85v-313q0 -151 -82 -215q-45 -39 -98 -58q53 -16 98 -55q82 -64 82 -215v-313q0 -49 26 -85t81 -36h73v-197h-163q-107 0 -176.5 74t-69.5 188v385q0 123 -82 166 q-20 11 -43 18t-36 8z" />
<glyph unicode="|" horiz-adv-x="589" d="M176 -53v1534h236v-1534h-236z" />
<glyph unicode="}" horiz-adv-x="753" d="M98 -180h74q55 0 81 36t26 85v313q0 152 81 215q44 38 97 55q-53 20 -97 58q-81 63 -81 215v313q0 49 -26 85t-81 36h-74v196h164q107 0 176.5 -74t69.5 -188v-385q0 -123 82 -166q20 -10 43 -16t36 -7l13 -1v-127q-47 -2 -92 -27q-82 -43 -82 -166v-385 q0 -114 -69.5 -188t-176.5 -74h-164v197z" />
<glyph unicode="~" horiz-adv-x="958" d="M74 606q16 113 80 182.5t165 69.5q60 0 118.5 -21t109.5 -42t92 -21q78 0 104 84l142 -16q-33 -267 -250 -267q-61 0 -119.5 21t-109.5 42t-93 21q-80 0 -96 -71z" />
<glyph unicode="&#xa1;" horiz-adv-x="593" d="M147 -406l43 1068h211l43 -1068h-297zM156 907q0 59 41.5 100.5t99.5 41.5t99.5 -41.5t41.5 -100.5q0 -58 -41.5 -98.5t-99.5 -40.5t-99.5 40.5t-41.5 98.5z" />
<glyph unicode="&#xa2;" horiz-adv-x="1136" d="M86 721q0 105 34 195.5t90 154t129 109t151.5 67t156.5 21.5h19l30 159h156l-37 -184q144 -40 248 -147l-150 -152q-57 59 -141 84l-129 -633q1 0 11 -2t18 -2q142 8 241 107l150 -154q-167 -170 -416 -170q-29 0 -45 4l-37 -178h-155l43 207q-164 57 -265.5 194.5 t-101.5 319.5zM322 721q0 -99 48 -178t130 -117l125 621h-2q-130 -7 -215.5 -99.5t-85.5 -226.5z" />
<glyph unicode="&#xa3;" horiz-adv-x="1255" d="M90 0v188h19q79 0 141 16.5t98.5 42.5t60 62.5t32 71t8.5 72.5q0 55 -43 139h-224v184h121q-86 154 -86 258q0 175 131.5 299.5t317.5 124.5q183 0 310.5 -126t127.5 -306h-225q0 81 -61.5 141t-149.5 60q-85 0 -145 -61.5t-60 -147.5q0 -85 100 -242h328v-184h-229 q34 -76 34 -139q0 -86 -29 -147.5t-73 -90.5h571v-215h-1075z" />
<glyph unicode="&#xa4;" horiz-adv-x="1388" d="M127 270l170 152q-86 116 -86 260q0 145 86 264l-170 150l152 151l153 -176q120 74 264 74q142 0 262 -74l156 176l152 -151l-170 -150q86 -123 86 -264q0 -140 -86 -260l170 -152l-152 -149l-156 174q-120 -74 -262 -74q-144 0 -264 74l-153 -174zM424 682 q0 -116 79 -196t193 -80t193.5 80.5t79.5 195.5q0 116 -79.5 197.5t-193.5 81.5t-193 -81.5t-79 -197.5z" />
<glyph unicode="&#xa5;" horiz-adv-x="1400" d="M57 1427h277l366 -628l367 628h276l-313 -530h223v-211h-346l-78 -133h424v-211h-424v-342h-258v342h-424v211h424l-77 133h-347v211h222z" />
<glyph unicode="&#xa6;" horiz-adv-x="589" d="M176 0v602h236v-602h-236zM176 850v577h236v-577h-236z" />
<glyph unicode="&#xa7;" horiz-adv-x="1148" d="M80 582q0 184 162 284q-88 88 -88 224q0 163 119.5 265.5t291.5 102.5q197 0 306.5 -115.5t109.5 -289.5h-242q-9 192 -172 192q-68 0 -118 -39t-50 -110q0 -64 34.5 -100.5t115.5 -80.5q39 -23 141 -73.5t141 -73.5q108 -62 166 -138t58 -179q0 -98 -44 -170t-116 -115 q88 -88 88 -223q0 -165 -121 -267t-291 -102q-196 0 -305.5 114.5t-109.5 291.5h241q9 -193 172 -193q68 0 117 39.5t49 110.5q0 60 -33.5 95.5t-113.5 82.5q-43 27 -144.5 76.5t-138.5 72.5q-225 122 -225 318zM317 616q0 -17 4.5 -33.5t16 -32t22 -28.5t32.5 -29t37.5 -27 t47 -28.5t50 -28t57 -31t59.5 -32.5q56 -29 76 -43q94 33 94 127q0 17 -4.5 33.5t-16 32t-22 28.5t-32.5 29t-37.5 27t-47 28.5t-50 28t-57 31t-59.5 32.5q-55 29 -75 43q-95 -36 -95 -127z" />
<glyph unicode="&#xa8;" horiz-adv-x="1202" d="M258 1288q0 53 38 90t91 37q54 0 92.5 -36.5t38.5 -90.5t-38.5 -90.5t-92.5 -36.5q-53 0 -91 37t-38 90zM682 1288q0 53 39 90t92 37t92 -37t39 -90t-39 -90t-92 -37t-92 37t-39 90z" />
<glyph unicode="&#xa9;" horiz-adv-x="1699" d="M96 713q0 148 58 285t157.5 239.5t240.5 163.5t298 61q149 0 287.5 -58t241 -157t164 -239t61.5 -295q0 -148 -59 -286t-158.5 -240t-240.5 -163t-296 -61q-148 0 -286 58t-241 156.5t-165 239t-62 296.5zM258 713q0 -160 79.5 -296.5t216 -216t296.5 -79.5t296 79.5 t215 216t79 296.5t-79 296t-215 215t-296 79t-296.5 -79t-216 -215t-79.5 -296zM444 719q0 173 121.5 289t296.5 116q185 0 318 -141l-136 -135q-79 76 -182 76q-87 0 -146 -59t-59 -146q0 -90 59 -149.5t146 -59.5q107 0 182 78l136 -137q-132 -140 -318 -140 q-175 0 -296.5 116.5t-121.5 291.5z" />
<glyph unicode="&#xaa;" horiz-adv-x="980" d="M113 868q0 225 325 248q90 7 125 22.5t35 59.5t-36 62t-85 18q-121 0 -205 -100l-120 102q116 162 323 162q146 0 228.5 -66t82.5 -180v-348q0 -32 19 -45q12 -8 47 -8v-127q-41 -21 -84 -21q-64 0 -94 27q-18 16 -35 55q-71 -88 -250 -88q-124 0 -200 61.5t-76 165.5z M303 889q0 -37 30 -58.5t85 -21.5q84 0 131 34.5t47 98.5v72q-30 -24 -156 -33q-137 -10 -137 -92z" />
<glyph unicode="&#xab;" horiz-adv-x="1081" d="M88 518l238 373h254l-242 -373l242 -373h-254zM504 518l237 373h254l-241 -373l241 -373h-254z" />
<glyph unicode="&#xac;" horiz-adv-x="1284" d="M111 788v216h1060v-603h-237v387h-823z" />
<glyph unicode="&#xad;" horiz-adv-x="892" d="M102 446v226h686v-226h-686z" />
<glyph unicode="&#xae;" horiz-adv-x="872" d="M82 1114q0 146 103 245t251 99t252.5 -99.5t104.5 -244.5q0 -146 -105 -246t-252 -100t-250.5 99.5t-103.5 246.5zM184 1114q0 -107 72.5 -177.5t179.5 -70.5q106 0 178 70.5t72 177.5q0 108 -71.5 178t-178.5 70t-179.5 -70t-72.5 -178zM311 948v342h140q51 0 83.5 -32 t32.5 -80q0 -69 -53 -99l80 -131h-100l-66 113h-31v-113h-86zM397 1128h47q19 0 30 13t11 33q0 17 -11 28.5t-28 11.5h-49v-86z" />
<glyph unicode="&#xaf;" horiz-adv-x="1218" d="M293 1227v174h631v-174h-631z" />
<glyph unicode="&#xb0;" horiz-adv-x="849" d="M106 1126q0 128 93.5 219t226.5 91q130 0 223.5 -91t93.5 -219q0 -129 -93 -220t-224 -91q-133 0 -226.5 91t-93.5 220zM297 1126q0 -56 37.5 -95.5t91.5 -39.5q52 0 89.5 39.5t37.5 95.5q0 54 -37.5 92.5t-89.5 38.5q-54 0 -91.5 -38.5t-37.5 -92.5z" />
<glyph unicode="&#xb1;" horiz-adv-x="1009" d="M111 0v215h788v-215h-788zM111 686v215h274v297h240v-297h274v-215h-274v-293h-240v293h-274z" />
<glyph unicode="&#xb2;" horiz-adv-x="718" d="M55 672l359 436q41 51 41 88q0 38 -25.5 65t-62.5 27q-38 0 -65.5 -33t-27.5 -77h-163q0 110 75 187t181 77q105 0 179.5 -69.5t74.5 -170.5q0 -90 -66 -166l-172 -200h258v-164h-586z" />
<glyph unicode="&#xb3;" horiz-adv-x="739" d="M53 821l140 84q48 -86 145 -86q58 0 96.5 31.5t38.5 81.5q0 53 -39 84t-108 31q-81 0 -142 -17l183 236h-246v161h532l-211 -260q13 0 41 -8q74 -22 120 -85t46 -142q0 -118 -85.5 -196.5t-223.5 -78.5q-96 0 -172.5 45t-114.5 119z" />
<glyph unicode="&#xb4;" horiz-adv-x="1118" d="M426 1130l104 297h279l-199 -297h-184z" />
<glyph unicode="&#xb5;" horiz-adv-x="1177" d="M121 -444v1476h235v-596q0 -118 65 -183t173 -65q109 0 170 63.5t61 182.5v598h236v-616q0 -210 -114 -325.5t-308 -115.5q-178 0 -283 123v-542h-235z" />
<glyph unicode="&#xb6;" horiz-adv-x="1363" d="M66 954q0 196 139.5 334.5t337.5 138.5h778v-231h-139v-1196h-250v1196h-158v-1196h-254v485q-191 9 -322.5 144.5t-131.5 324.5z" />
<glyph unicode="&#xb7;" horiz-adv-x="458" d="M86 518q0 58 42.5 98.5t100.5 40.5t100 -40.5t42 -98.5q0 -61 -42 -102t-100 -41t-100.5 41.5t-42.5 101.5z" />
<glyph unicode="&#xb8;" horiz-adv-x="1107" d="M342 -379l53 109q54 -31 103 -31q34 0 57 19t23 49q0 45 -32.5 61t-99.5 16l66 156h147l-43 -94q57 0 96.5 -41.5t39.5 -108.5q0 -93 -62.5 -139.5t-171.5 -46.5q-49 0 -98 15t-78 36z" />
<glyph unicode="&#xb9;" horiz-adv-x="518" d="M86 1266v161h287v-755h-170v594h-117z" />
<glyph unicode="&#xba;" horiz-adv-x="989" d="M80 1047q0 166 122 283.5t292 117.5q171 0 293 -118t122 -283t-122 -282.5t-293 -117.5t-292.5 117.5t-121.5 282.5zM297 1047q0 -80 58 -138.5t139 -58.5t138.5 58.5t57.5 138.5q0 79 -57.5 137.5t-138.5 58.5t-139 -58.5t-58 -137.5z" />
<glyph unicode="&#xbb;" horiz-adv-x="1081" d="M86 145l242 373l-242 373h254l238 -373l-238 -373h-254zM502 145l241 373l-241 373h254l237 -373l-237 -373h-254z" />
<glyph unicode="&#xbc;" horiz-adv-x="1497" d="M111 1266v161h286v-755h-170v594h-116zM147 0l881 1427h225l-878 -1427h-228zM764 137l278 621h175l-216 -471h205v151h164v-438h-164v137h-442z" />
<glyph unicode="&#xbd;" horiz-adv-x="1517" d="M111 1266v161h286v-755h-170v594h-116zM131 0l881 1427h225l-879 -1427h-227zM829 0l359 436q41 51 41 88q0 38 -25.5 65t-62.5 27q-38 0 -65 -32.5t-27 -77.5h-164q0 110 75 187t181 77q105 0 179.5 -69.5t74.5 -170.5q0 -89 -66 -165l-172 -201h258v-164h-586z" />
<glyph unicode="&#xbe;" horiz-adv-x="1626" d="M63 821l142 84q45 -86 145 -86q58 0 95.5 31.5t37.5 81.5q0 53 -38.5 84t-106.5 31q-82 0 -143 -17l182 236h-244v161h533l-211 -260q13 0 41 -8q74 -22 120 -85t46 -142q0 -118 -86 -196.5t-226 -78.5q-96 0 -172 45t-115 119zM285 0l880 1427h228l-881 -1427h-227z M893 137l278 621h175l-216 -471h205v151h166v-438h-166v137h-442z" />
<glyph unicode="&#xbf;" horiz-adv-x="903" d="M86 -125q0 133 58 211t210 170q64 38 95.5 67.5t31.5 69.5q0 80 -98 80q-91 0 -152 -39v205q78 37 185 37q138 0 222.5 -77.5t84.5 -203.5q0 -170 -203 -299q-9 -6 -41.5 -27t-41 -27t-31.5 -23t-30 -27t-19 -26.5t-15.5 -33t-3.5 -36.5q0 -8 2.5 -18.5t11.5 -26.5 t23.5 -29t42 -22t63.5 -9q160 0 305 141v-266q-136 -104 -315 -104q-96 0 -172.5 28t-121.5 74.5t-68 100t-23 110.5zM319 911q0 58 41 98t99 40q57 0 98 -40t41 -98t-40.5 -97.5t-98.5 -39.5t-99 39.5t-41 97.5z" />
<glyph unicode="&#xc0;" horiz-adv-x="1533" d="M61 0l707 1497l705 -1497h-273l-127 276h-614l-127 -276h-271zM522 1823h281l104 -297h-186zM555 498h422l-211 465z" />
<glyph unicode="&#xc1;" horiz-adv-x="1533" d="M61 0l707 1497l705 -1497h-273l-127 276h-614l-127 -276h-271zM555 498h422l-211 465zM645 1526l105 297h280l-201 -297h-184z" />
<glyph unicode="&#xc2;" horiz-adv-x="1533" d="M61 0l707 1497l705 -1497h-273l-127 276h-614l-127 -276h-271zM399 1565l369 309l367 -309h-238l-129 127l-131 -127h-238zM555 498h422l-211 465z" />
<glyph unicode="&#xc3;" horiz-adv-x="1533" d="M61 0l707 1497l705 -1497h-273l-127 276h-614l-127 -276h-271zM391 1559q14 105 76.5 170t159.5 65q52 0 102.5 -20.5t94.5 -41t81 -20.5t59.5 19.5t32.5 64.5l142 -18q-29 -248 -238 -248q-53 0 -104 21t-95 42t-81 21q-72 0 -86 -72zM555 498h422l-211 465z" />
<glyph unicode="&#xc4;" horiz-adv-x="1533" d="M61 0l707 1497l705 -1497h-273l-127 276h-614l-127 -276h-271zM389 1602q0 52 39 88t92 36q54 0 92.5 -35.5t38.5 -88.5t-39 -90t-92 -37t-92 37t-39 90zM555 498h422l-211 465zM883 1602q0 52 38 88t91 36q55 0 92 -35t37 -89t-37.5 -90.5t-91.5 -36.5q-53 0 -91 37 t-38 90z" />
<glyph unicode="&#xc5;" horiz-adv-x="1533" d="M61 0l621 1325q-64 25 -104.5 81.5t-40.5 125.5q0 91 68 156t163 65q94 0 160.5 -65t66.5 -156q0 -71 -40 -127t-105 -80l623 -1325h-273l-127 276h-614l-127 -276h-271zM555 498h422l-211 471zM682 1532q0 -34 25.5 -60t60.5 -26t59.5 26t24.5 60q0 35 -24.5 59.5 t-59.5 24.5t-60.5 -24.5t-25.5 -59.5z" />
<glyph unicode="&#xc6;" horiz-adv-x="1923" d="M-37 0l1127 1427h698v-231h-510v-340h471v-231h-471v-394h524v-231h-774v285h-545l-223 -285h-297zM649 496h379v489z" />
<glyph unicode="&#xc7;" horiz-adv-x="1499" d="M102 713q0 209 101.5 379t275 265t381.5 95q167 0 313 -67.5t252 -188.5l-174 -149q-73 83 -173.5 128.5t-217.5 45.5q-216 0 -360 -145t-144 -363t144 -362t360 -144q118 0 220.5 46.5t174.5 131.5l172 -149q-104 -123 -251.5 -192t-315.5 -69h-4l-31 -69 q57 0 96.5 -41.5t39.5 -108.5q0 -93 -62.5 -139.5t-171.5 -46.5q-49 0 -98 15t-78 36l53 109q54 -31 103 -31q34 0 56.5 19t22.5 49q0 45 -32 61t-99 16l60 144q-130 23 -243 86.5t-195 157t-128.5 218t-46.5 263.5z" />
<glyph unicode="&#xc8;" horiz-adv-x="1189" d="M166 455v972h887v-231h-631v-338h590v-231h-590v-181q0 -62 20.5 -107t53.5 -67t65.5 -31.5t65.5 -9.5h440v-231h-453q-224 0 -336 117t-112 338zM383 1823h262l109 -297h-181z" />
<glyph unicode="&#xc9;" horiz-adv-x="1189" d="M166 455v972h887v-231h-631v-338h590v-231h-590v-181q0 -62 20.5 -107t53.5 -67t65.5 -31.5t65.5 -9.5h440v-231h-453q-224 0 -336 117t-112 338zM510 1526l104 297h281l-201 -297h-184z" />
<glyph unicode="&#xca;" horiz-adv-x="1189" d="M166 455v972h887v-231h-631v-338h590v-231h-590v-181q0 -62 20.5 -107t53.5 -67t65.5 -31.5t65.5 -9.5h440v-231h-453q-224 0 -336 117t-112 338zM252 1565l369 309l368 -309h-237l-131 127l-132 -127h-237z" />
<glyph unicode="&#xcb;" horiz-adv-x="1189" d="M166 455v972h887v-231h-631v-338h590v-231h-590v-181q0 -62 20.5 -107t53.5 -67t65.5 -31.5t65.5 -9.5h440v-231h-453q-224 0 -336 117t-112 338zM281 1663q0 54 38.5 91.5t92.5 37.5q53 0 91 -37t38 -92q0 -52 -38 -88.5t-91 -36.5q-54 0 -92.5 36.5t-38.5 88.5z M707 1663q0 54 38 91.5t91 37.5t92 -37t39 -92q0 -52 -39 -88.5t-92 -36.5t-91 36.5t-38 88.5z" />
<glyph unicode="&#xcc;" horiz-adv-x="630" d="M43 1823h279l106 -297h-186zM186 0v1427h256v-1427h-256z" />
<glyph unicode="&#xcd;" horiz-adv-x="630" d="M186 0v1427h256v-1427h-256zM201 1526l104 297h281l-199 -297h-186z" />
<glyph unicode="&#xce;" horiz-adv-x="630" d="M-53 1554l366 320l371 -320h-238l-133 136l-129 -136h-237zM186 0v1427h256v-1427h-256z" />
<glyph unicode="&#xcf;" horiz-adv-x="630" d="M-16 1663q0 53 39 91t92 38t92 -37t39 -92q0 -52 -39 -88.5t-92 -36.5t-92 36.5t-39 88.5zM186 0v1427h256v-1427h-256zM385 1663q0 54 38 91.5t91 37.5q55 0 93 -37t38 -92q0 -52 -38.5 -88.5t-92.5 -36.5q-53 0 -91 36.5t-38 88.5z" />
<glyph unicode="&#xd0;" horiz-adv-x="1550" d="M66 610v232h112v585h510q178 0 320.5 -53t236 -148.5t143.5 -226.5t50 -288q0 -158 -49.5 -288.5t-143 -224.5t-235.5 -146t-320 -52h-512v610h-112zM434 231h238q110 0 197 24t145 66.5t96 103.5t55 131.5t17 154.5q0 108 -27.5 194t-86.5 152.5t-159.5 102.5t-238.5 36 h-236v-354h295v-232h-295v-379z" />
<glyph unicode="&#xd1;" horiz-adv-x="1585" d="M178 0v1481l973 -955v901h256v-1480l-973 950v-897h-256zM418 1559q14 105 75 170t158 65q52 0 103.5 -20.5t95.5 -41t80 -20.5q37 0 59.5 19.5t32.5 64.5l143 -18q-33 -248 -239 -248q-53 0 -104.5 21t-95.5 42t-81 21q-70 0 -86 -72z" />
<glyph unicode="&#xd2;" d="M102 711q0 206 101 376.5t274 267.5t379 97q207 0 380.5 -97t274.5 -267.5t101 -376.5t-101 -376.5t-274.5 -267t-380.5 -96.5q-206 0 -379 96.5t-274 267t-101 376.5zM354 711q0 -142 65.5 -258.5t180.5 -183t256 -66.5q105 0 198.5 39.5t160 107t105 161.5t38.5 200 q0 141 -65.5 258t-181 184.5t-255.5 67.5q-213 0 -357.5 -147t-144.5 -363zM575 1823h279l107 -297h-189z" />
<glyph unicode="&#xd3;" d="M102 711q0 206 101 376.5t274 267.5t379 97q207 0 380.5 -97t274.5 -267.5t101 -376.5t-101 -376.5t-274.5 -267t-380.5 -96.5q-206 0 -379 96.5t-274 267t-101 376.5zM354 711q0 -142 65.5 -258.5t180.5 -183t256 -66.5q105 0 198.5 39.5t160 107t105 161.5t38.5 200 q0 141 -65.5 258t-181 184.5t-255.5 67.5q-213 0 -357.5 -147t-144.5 -363zM754 1526l104 297h279l-199 -297h-184z" />
<glyph unicode="&#xd4;" d="M102 711q0 206 101 376.5t274 267.5t379 97q207 0 380.5 -97t274.5 -267.5t101 -376.5t-101 -376.5t-274.5 -267t-380.5 -96.5q-206 0 -379 96.5t-274 267t-101 376.5zM354 711q0 -142 65.5 -258.5t180.5 -183t256 -66.5q105 0 198.5 39.5t160 107t105 161.5t38.5 200 q0 141 -65.5 258t-181 184.5t-255.5 67.5q-213 0 -357.5 -147t-144.5 -363zM492 1554l368 320l369 -320h-238l-131 136l-131 -136h-237z" />
<glyph unicode="&#xd5;" d="M102 711q0 206 101 376.5t274 267.5t379 97q207 0 380.5 -97t274.5 -267.5t101 -376.5t-101 -376.5t-274.5 -267t-380.5 -96.5q-206 0 -379 96.5t-274 267t-101 376.5zM354 711q0 -142 65.5 -258.5t180.5 -183t256 -66.5q105 0 198.5 39.5t160 107t105 161.5t38.5 200 q0 141 -65.5 258t-181 184.5t-255.5 67.5q-213 0 -357.5 -147t-144.5 -363zM492 1559q12 104 74 169.5t159 65.5q52 0 103 -20.5t95 -41t81 -20.5t59.5 19.5t32.5 64.5l141 -18q-29 -248 -236 -248q-54 0 -105.5 21t-96 42t-80.5 21q-72 0 -86 -72z" />
<glyph unicode="&#xd6;" d="M102 711q0 206 101 376.5t274 267.5t379 97q207 0 380.5 -97t274.5 -267.5t101 -376.5t-101 -376.5t-274.5 -267t-380.5 -96.5q-206 0 -379 96.5t-274 267t-101 376.5zM354 711q0 -142 65.5 -258.5t180.5 -183t256 -66.5q105 0 198.5 39.5t160 107t105 161.5t38.5 200 q0 141 -65.5 258t-181 184.5t-255.5 67.5q-213 0 -357.5 -147t-144.5 -363zM522 1640q0 53 38 90t91 37q54 0 92.5 -36.5t38.5 -90.5q0 -52 -38.5 -88t-92.5 -36q-53 0 -91 36t-38 88zM946 1640q0 53 39 90t92 37t91 -37t38 -90q0 -52 -38 -88t-91 -36t-92 36t-39 88z" />
<glyph unicode="&#xd7;" horiz-adv-x="929" d="M98 465l217 219l-217 217l148 148l219 -220l219 220l147 -148l-217 -217l217 -219l-147 -150l-219 220l-219 -220z" />
<glyph unicode="&#xd8;" d="M102 711q0 206 101 376.5t274 267.5t379 97q194 0 375 -96l125 164l174 -131l-125 -164q98 -103 152.5 -234t54.5 -280q0 -206 -101 -376.5t-274.5 -267t-380.5 -96.5q-183 0 -350 82l-121 -159l-170 133l115 151q-108 100 -168 238t-60 295zM354 711q0 -200 127 -340 l604 794q-112 56 -229 56q-213 0 -357.5 -147t-144.5 -363zM653 246q90 -43 203 -43q105 0 198.5 39.5t160 107t105 161.5t38.5 200q0 180 -109 315z" />
<glyph unicode="&#xd9;" horiz-adv-x="1490" d="M166 547v880h256v-854q0 -184 85.5 -274t237.5 -90q151 0 236.5 90t85.5 274v854h256v-880q0 -139 -45 -249t-123.5 -179.5t-183 -105.5t-226.5 -36q-123 0 -227.5 36t-183.5 105.5t-123.5 179.5t-44.5 249zM475 1823h279l106 -297h-186z" />
<glyph unicode="&#xda;" horiz-adv-x="1490" d="M166 547v880h256v-854q0 -184 85.5 -274t237.5 -90q151 0 236.5 90t85.5 274v854h256v-880q0 -139 -45 -249t-123.5 -179.5t-183 -105.5t-226.5 -36q-123 0 -227.5 36t-183.5 105.5t-123.5 179.5t-44.5 249zM645 1526l105 297h278l-199 -297h-184z" />
<glyph unicode="&#xdb;" horiz-adv-x="1490" d="M166 547v880h256v-854q0 -184 85.5 -274t237.5 -90q151 0 236.5 90t85.5 274v854h256v-880q0 -139 -45 -249t-123.5 -179.5t-183 -105.5t-226.5 -36q-123 0 -227.5 36t-183.5 105.5t-123.5 179.5t-44.5 249zM377 1554l368 320l369 -320h-237l-132 136l-129 -136h-239z " />
<glyph unicode="&#xdc;" horiz-adv-x="1490" d="M166 547v880h256v-854q0 -184 85.5 -274t237.5 -90q151 0 236.5 90t85.5 274v854h256v-880q0 -139 -45 -249t-123.5 -179.5t-183 -105.5t-226.5 -36q-123 0 -227.5 36t-183.5 105.5t-123.5 179.5t-44.5 249zM403 1640q0 53 38 90t91 37t92.5 -37t39.5 -90 q0 -52 -39.5 -88t-92.5 -36t-91 36t-38 88zM827 1640q0 54 38.5 90.5t92.5 36.5q53 0 91 -37t38 -90q0 -52 -38 -88t-91 -36q-54 0 -92.5 36t-38.5 88z" />
<glyph unicode="&#xdd;" horiz-adv-x="1396" d="M57 1427h277l366 -628l365 628h274l-514 -874v-553h-254v553zM596 1526l104 297h281l-201 -297h-184z" />
<glyph unicode="&#xde;" horiz-adv-x="1122" d="M178 0v1427h256v-274h129q212 0 341.5 -127t129.5 -319q0 -189 -127.5 -314t-335.5 -125h-137v-268h-256zM434 500h129q103 0 161 58t58 153q0 94 -58.5 152.5t-162.5 58.5h-127v-422z" />
<glyph unicode="&#xdf;" horiz-adv-x="1228" d="M127 0v1087q0 156 113 263.5t278 107.5q161 0 274 -106t113 -258q0 -108 -67 -181q128 -39 220.5 -154.5t92.5 -281.5q0 -141 -65.5 -256.5t-183.5 -182.5t-265 -67q-49 0 -121 11v231q44 -16 105 -16q117 0 200.5 81.5t83.5 198.5q0 112 -83.5 192.5t-200.5 80.5 q-49 0 -105 -17v180q74 11 115 53.5t41 110.5q0 63 -43.5 109.5t-104.5 46.5q-63 0 -106 -47t-43 -113v-1073h-248z" />
<glyph unicode="&#xe0;" horiz-adv-x="1300" d="M84 516q0 150 68 274t186.5 194.5t261.5 70.5q126 0 214.5 -48.5t115.5 -123.5v149h246v-1032h-246v150q-27 -75 -115.5 -124t-214.5 -49q-143 0 -261.5 70.5t-186.5 194.5t-68 274zM328 516q0 -135 87 -225t218 -90q134 0 224.5 90t90.5 225t-90.5 225t-224.5 90 q-131 0 -218 -90t-87 -225zM387 1427h281l104 -297h-186z" />
<glyph unicode="&#xe1;" horiz-adv-x="1300" d="M84 516q0 150 68 274t186.5 194.5t261.5 70.5q126 0 214.5 -48.5t115.5 -123.5v149h246v-1032h-246v150q-27 -75 -115.5 -124t-214.5 -49q-143 0 -261.5 70.5t-186.5 194.5t-68 274zM328 516q0 -135 87 -225t218 -90q134 0 224.5 90t90.5 225t-90.5 225t-224.5 90 q-131 0 -218 -90t-87 -225zM559 1130l105 297h280l-201 -297h-184z" />
<glyph unicode="&#xe2;" horiz-adv-x="1300" d="M84 516q0 150 68 274t186.5 194.5t261.5 70.5q126 0 214.5 -48.5t115.5 -123.5v149h246v-1032h-246v150q-27 -75 -115.5 -124t-214.5 -49q-143 0 -261.5 70.5t-186.5 194.5t-68 274zM311 1159l369 311l371 -311h-240l-131 129l-129 -129h-240zM328 516q0 -135 87 -225 t218 -90q134 0 224.5 90t90.5 225t-90.5 225t-224.5 90q-131 0 -218 -90t-87 -225z" />
<glyph unicode="&#xe3;" horiz-adv-x="1300" d="M84 516q0 150 68 274t186.5 194.5t261.5 70.5q126 0 214.5 -48.5t115.5 -123.5v149h246v-1032h-246v150q-27 -75 -115.5 -124t-214.5 -49q-143 0 -261.5 70.5t-186.5 194.5t-68 274zM293 1204q12 102 74 167t159 65q52 0 103.5 -21.5t96 -43t81.5 -21.5q70 0 90 86 l143 -19q-14 -116 -72.5 -181t-164.5 -65q-54 0 -105.5 21.5t-96.5 43t-81 21.5q-71 0 -84 -71zM328 516q0 -135 87 -225t218 -90q134 0 224.5 90t90.5 225t-90.5 225t-224.5 90q-131 0 -218 -90t-87 -225z" />
<glyph unicode="&#xe4;" horiz-adv-x="1300" d="M84 516q0 150 68 274t186.5 194.5t261.5 70.5q126 0 214.5 -48.5t115.5 -123.5v149h246v-1032h-246v150q-27 -75 -115.5 -124t-214.5 -49q-143 0 -261.5 70.5t-186.5 194.5t-68 274zM328 516q0 -135 87 -225t218 -90q134 0 224.5 90t90.5 225t-90.5 225t-224.5 90 q-131 0 -218 -90t-87 -225zM330 1288q0 53 39 90t92 37t92 -37t39 -90t-39 -90t-92 -37t-92 37t-39 90zM756 1288q0 53 39 90t92 37t92 -37t39 -90t-39 -90t-92 -37t-92 37t-39 90z" />
<glyph unicode="&#xe5;" horiz-adv-x="1300" d="M84 516q0 150 68 274t186.5 194.5t261.5 70.5q126 0 214.5 -48.5t115.5 -123.5v149h246v-1032h-246v150q-27 -75 -115.5 -124t-214.5 -49q-143 0 -261.5 70.5t-186.5 194.5t-68 274zM328 516q0 -135 87 -225t218 -90q134 0 224.5 90t90.5 225t-90.5 225t-224.5 90 q-131 0 -218 -90t-87 -225zM446 1350q0 92 67.5 156.5t162.5 64.5t162 -64.5t67 -156.5t-67 -157t-162 -65t-162.5 65t-67.5 157zM590 1350q0 -34 26 -59t60 -25q35 0 59.5 25t24.5 59q0 35 -24.5 60.5t-59.5 25.5q-34 0 -60 -25.5t-26 -60.5z" />
<glyph unicode="&#xe6;" horiz-adv-x="1839" d="M86 289q0 154 104 244t304 90h102q101 0 138.5 26t37.5 76q0 39 -19 65.5t-51.5 39t-63 17.5t-65.5 5q-166 0 -276 -133l-147 125q72 105 180 160t241 55q125 0 219 -44.5t128 -119.5q66 78 156.5 121t197.5 43q209 0 349 -154.5t140 -384.5q0 -34 -4 -65h-768 q6 -124 86 -197.5t213 -73.5q86 0 146 29t120 90l150 -143q-95 -102 -197 -144.5t-223 -42.5q-248 0 -385 170q-125 -172 -428 -172q-181 0 -283 87t-102 231zM324 311q0 -66 43.5 -95.5t132.5 -29.5q127 0 199.5 50.5t72.5 134.5v94q-35 -18 -104 -21l-123 -4 q-51 -3 -87 -9t-68.5 -19.5t-49 -38.5t-16.5 -62zM997 631h516q-14 99 -81 162t-160 63q-105 0 -181.5 -63.5t-93.5 -161.5z" />
<glyph unicode="&#xe7;" horiz-adv-x="1120" d="M84 518q0 154 75 280t203.5 196.5t282.5 70.5q247 0 414 -178l-152 -158q-110 113 -262 113q-135 0 -226 -92.5t-91 -231.5t91 -231t226 -92q153 0 262 112l152 -157q-158 -169 -393 -179l-29 -65q57 0 96 -41.5t39 -108.5q0 -93 -62 -139.5t-171 -46.5q-49 0 -98.5 15 t-78.5 36l54 109q54 -31 102 -31q34 0 57 19t23 49q0 45 -32 61t-99 16l57 140q-192 37 -316 184.5t-124 349.5z" />
<glyph unicode="&#xe8;" horiz-adv-x="1210" d="M84 508v8q0 245 153 395t388 150q113 0 209 -40.5t161.5 -111t102.5 -165.5t37 -203q-1 -45 -5 -86h-802q6 -123 90.5 -197t220.5 -74q90 0 153.5 28.5t125.5 90.5l147 -143q-95 -100 -202 -142.5t-232 -42.5q-245 0 -396 145.5t-151 387.5zM334 627h551 q0 92 -76.5 158.5t-183.5 66.5q-115 0 -199 -65.5t-92 -159.5zM360 1427h279l104 -297h-186z" />
<glyph unicode="&#xe9;" horiz-adv-x="1210" d="M84 508v8q0 245 153 395t388 150q113 0 209 -40.5t161.5 -111t102.5 -165.5t37 -203q-1 -45 -5 -86h-802q6 -123 90.5 -197t220.5 -74q90 0 153.5 28.5t125.5 90.5l147 -143q-95 -100 -202 -142.5t-232 -42.5q-245 0 -396 145.5t-151 387.5zM334 627h551 q0 92 -76.5 158.5t-183.5 66.5q-115 0 -199 -65.5t-92 -159.5zM516 1130l105 297h278l-199 -297h-184z" />
<glyph unicode="&#xea;" horiz-adv-x="1210" d="M84 508v8q0 245 153 395t388 150q113 0 209 -40.5t161.5 -111t102.5 -165.5t37 -203q-1 -45 -5 -86h-802q6 -123 90.5 -197t220.5 -74q90 0 153.5 28.5t125.5 90.5l147 -143q-95 -100 -202 -142.5t-232 -42.5q-245 0 -396 145.5t-151 387.5zM260 1159l369 311l368 -311 h-237l-131 129l-131 -129h-238zM334 627h551q0 92 -76.5 158.5t-183.5 66.5q-115 0 -199 -65.5t-92 -159.5z" />
<glyph unicode="&#xeb;" horiz-adv-x="1210" d="M84 508v8q0 245 153 395t388 150q113 0 209 -40.5t161.5 -111t102.5 -165.5t37 -203q-1 -45 -5 -86h-802q6 -123 90.5 -197t220.5 -74q90 0 153.5 28.5t125.5 90.5l147 -143q-95 -100 -202 -142.5t-232 -42.5q-245 0 -396 145.5t-151 387.5zM283 1288q0 53 39 90t92 37 t92 -37t39 -90t-39 -90t-92 -37t-92 37t-39 90zM334 627h551q0 92 -76.5 158.5t-183.5 66.5q-115 0 -199 -65.5t-92 -159.5zM709 1288q0 53 38.5 90t90.5 37q54 0 92.5 -36.5t38.5 -90.5t-38.5 -90.5t-92.5 -36.5q-52 0 -90.5 37t-38.5 90z" />
<glyph unicode="&#xec;" horiz-adv-x="503" d="M-18 1427h278l100 -297h-184zM131 0v1032h244v-1032h-244z" />
<glyph unicode="&#xed;" horiz-adv-x="503" d="M131 0v1032h244v-1032h-244zM135 1130l101 297h278l-195 -297h-184z" />
<glyph unicode="&#xee;" horiz-adv-x="559" d="M-45 1130l324 312l323 -312h-231l-92 130l-89 -130h-235zM156 0v1032h247v-1032h-247z" />
<glyph unicode="&#xef;" horiz-adv-x="546" d="M-20 1290q0 52 38 88.5t91 36.5q52 0 89.5 -36.5t37.5 -88.5t-37.5 -87.5t-89.5 -35.5q-53 0 -91 35.5t-38 87.5zM152 0v1032h245v-1032h-245zM311 1290q0 52 37.5 88.5t89.5 36.5t89.5 -36.5t37.5 -88.5t-37.5 -87.5t-89.5 -35.5t-89.5 35.5t-37.5 87.5z" />
<glyph unicode="&#xf0;" horiz-adv-x="1146" d="M84 449q0 196 136 331t325 135q86 0 157 -30t109 -82q-31 82 -91 160t-124 124l-133 -133l-146 136l111 114q-108 59 -225 82l59 205q166 -36 318 -127l153 154l146 -138l-136 -135q225 -199 291 -471q31 -127 31 -237q0 -259 -134.5 -411.5t-365.5 -152.5 q-200 0 -340.5 138t-140.5 338zM326 449q0 -105 71 -176.5t176 -71.5t176.5 71.5t71.5 176.5q0 106 -71 177.5t-177 71.5t-176.5 -71.5t-70.5 -177.5z" />
<glyph unicode="&#xf1;" horiz-adv-x="1196" d="M129 0v1032h244v-147q36 75 119.5 121.5t193.5 46.5q185 0 288 -111t103 -303v-639h-246v604q0 106 -58 168t-161 62q-104 0 -171.5 -67t-67.5 -173v-594h-244zM242 1204q12 102 74 167t159 65q52 0 103 -21.5t95 -43t81 -21.5t59.5 20.5t32.5 65.5l141 -19 q-30 -246 -235 -246q-54 0 -105.5 21.5t-96.5 43t-81 21.5q-73 0 -86 -71z" />
<glyph unicode="&#xf2;" horiz-adv-x="1294" d="M84 516q0 152 75 278t204.5 197.5t283.5 71.5t283 -71.5t204.5 -197.5t75.5 -278t-75.5 -278t-204.5 -197.5t-283 -71.5t-283.5 71.5t-204.5 197.5t-75 278zM328 516q0 -137 91.5 -230t227.5 -93q135 0 227.5 93.5t92.5 229.5q0 137 -92.5 230.5t-227.5 93.5 q-136 0 -227.5 -93.5t-91.5 -230.5zM365 1427h280l105 -297h-187z" />
<glyph unicode="&#xf3;" horiz-adv-x="1294" d="M84 516q0 152 75 278t204.5 197.5t283.5 71.5t283 -71.5t204.5 -197.5t75.5 -278t-75.5 -278t-204.5 -197.5t-283 -71.5t-283.5 71.5t-204.5 197.5t-75 278zM328 516q0 -137 91.5 -230t227.5 -93q135 0 227.5 93.5t92.5 229.5q0 137 -92.5 230.5t-227.5 93.5 q-136 0 -227.5 -93.5t-91.5 -230.5zM551 1130l104 297h279l-199 -297h-184z" />
<glyph unicode="&#xf4;" horiz-adv-x="1294" d="M84 516q0 152 75 278t204.5 197.5t283.5 71.5t283 -71.5t204.5 -197.5t75.5 -278t-75.5 -278t-204.5 -197.5t-283 -71.5t-283.5 71.5t-204.5 197.5t-75 278zM279 1159l368 311l369 -311h-238l-131 129l-129 -129h-239zM328 516q0 -137 91.5 -230t227.5 -93 q135 0 227.5 93.5t92.5 229.5q0 137 -92.5 230.5t-227.5 93.5q-136 0 -227.5 -93.5t-91.5 -230.5z" />
<glyph unicode="&#xf5;" horiz-adv-x="1294" d="M84 516q0 152 75 278t204.5 197.5t283.5 71.5t283 -71.5t204.5 -197.5t75.5 -278t-75.5 -278t-204.5 -197.5t-283 -71.5t-283.5 71.5t-204.5 197.5t-75 278zM270 1204q14 102 76 167t158 65q52 0 103 -21.5t95.5 -43t81.5 -21.5q70 0 90 86l144 -19q-14 -115 -73 -180.5 t-165 -65.5q-54 0 -105.5 21.5t-96 43t-80.5 21.5q-71 0 -84 -71zM328 516q0 -137 91.5 -230t227.5 -93q135 0 227.5 93.5t92.5 229.5q0 137 -92.5 230.5t-227.5 93.5q-136 0 -227.5 -93.5t-91.5 -230.5z" />
<glyph unicode="&#xf6;" horiz-adv-x="1294" d="M84 516q0 152 75 278t204.5 197.5t283.5 71.5t283 -71.5t204.5 -197.5t75.5 -278t-75.5 -278t-204.5 -197.5t-283 -71.5t-283.5 71.5t-204.5 197.5t-75 278zM303 1288q0 54 38.5 90.5t92.5 36.5q53 0 91 -37t38 -90t-38 -90t-91 -37q-54 0 -92.5 36.5t-38.5 90.5z M328 516q0 -137 91.5 -230t227.5 -93q135 0 227.5 93.5t92.5 229.5q0 137 -92.5 230.5t-227.5 93.5q-136 0 -227.5 -93.5t-91.5 -230.5zM729 1288q0 53 38 90t91 37q54 0 92.5 -36.5t38.5 -90.5t-38.5 -90.5t-92.5 -36.5q-53 0 -91 37t-38 90z" />
<glyph unicode="&#xf7;" horiz-adv-x="1050" d="M109 604v217h835v-217h-835zM383 375q0 58 42.5 98.5t100.5 40.5t100 -40.5t42 -98.5q0 -59 -42 -100.5t-100 -41.5t-100.5 41.5t-42.5 100.5zM383 1053q0 58 42.5 98.5t100.5 40.5t100 -40.5t42 -98.5q0 -59 -42 -100.5t-100 -41.5t-100.5 41.5t-42.5 100.5z" />
<glyph unicode="&#xf8;" horiz-adv-x="1294" d="M84 516q0 152 75 278t204.5 197.5t283.5 71.5q136 0 250 -57l82 110l149 -108l-81 -105q163 -157 163 -387q0 -152 -75.5 -278t-204.5 -197.5t-283 -71.5q-132 0 -250 56l-90 -121l-147 108l86 115q-162 159 -162 389zM326 516q0 -115 69 -197l361 492q-52 27 -109 27 q-137 0 -229 -93t-92 -229zM539 219q47 -24 108 -24q137 0 229.5 92.5t92.5 228.5q0 111 -68 195z" />
<glyph unicode="&#xf9;" horiz-adv-x="1179" d="M117 410v622h248v-602q0 -116 61.5 -173.5t163.5 -57.5t163.5 57.5t61.5 175.5v600h248v-616q0 -109 -37.5 -195t-103.5 -139.5t-151 -81t-183 -27.5t-182 27.5t-149 80t-102.5 137.5t-37.5 192zM313 1427h281l104 -297h-184z" />
<glyph unicode="&#xfa;" horiz-adv-x="1179" d="M117 410v622h248v-602q0 -116 61.5 -173.5t163.5 -57.5t163.5 57.5t61.5 175.5v600h248v-616q0 -109 -37.5 -195t-103.5 -139.5t-151 -81t-183 -27.5t-182 27.5t-149 80t-102.5 137.5t-37.5 192zM475 1130l107 297h278l-198 -297h-187z" />
<glyph unicode="&#xfb;" horiz-adv-x="1179" d="M117 410v622h248v-602q0 -116 61.5 -173.5t163.5 -57.5t163.5 57.5t61.5 175.5v600h248v-616q0 -109 -37.5 -195t-103.5 -139.5t-151 -81t-183 -27.5t-182 27.5t-149 80t-102.5 137.5t-37.5 192zM223 1159l369 311l369 -311h-240l-129 129l-131 -129h-238z" />
<glyph unicode="&#xfc;" horiz-adv-x="1179" d="M117 410v622h248v-602q0 -116 61.5 -173.5t163.5 -57.5t163.5 57.5t61.5 175.5v600h248v-616q0 -109 -37.5 -195t-103.5 -139.5t-151 -81t-183 -27.5t-182 27.5t-149 80t-102.5 137.5t-37.5 192zM248 1288q0 53 39 90t92 37t91 -37t38 -90t-38 -90t-91 -37t-92 37t-39 90 zM674 1288q0 53 38 90t91 37q54 0 92.5 -36.5t38.5 -90.5t-38.5 -90.5t-92.5 -36.5q-53 0 -91 37t-38 90z" />
<glyph unicode="&#xfd;" horiz-adv-x="1167" d="M43 1032h248l303 -778l285 778h247l-462 -1200q-49 -131 -113 -192q-84 -78 -246 -78h-49v215h43q56 0 90 22q35 21 60 88l26 74zM481 1130l105 297h280l-200 -297h-185z" />
<glyph unicode="&#xfe;" horiz-adv-x="1302" d="M129 -395v1822h246v-544q27 75 115.5 123.5t214.5 48.5q143 0 261.5 -70.5t186.5 -194.5t68 -274t-68 -274t-186.5 -194.5t-261.5 -70.5q-126 0 -214.5 49t-115.5 124v-545h-246zM356 516q0 -135 91 -225t225 -90q131 0 218 90t87 225t-87 225t-218 90q-134 0 -225 -90 t-91 -225z" />
<glyph unicode="&#xff;" horiz-adv-x="1167" d="M43 1032h248l303 -778l285 778h247l-462 -1200q-49 -131 -113 -192q-84 -78 -246 -78h-49v215h43q56 0 90 22q35 21 60 88l26 74zM254 1288q0 53 38.5 90t90.5 37q54 0 92.5 -36.5t38.5 -90.5t-38.5 -90.5t-92.5 -36.5q-52 0 -90.5 37t-38.5 90zM680 1288q0 53 38 90 t91 37q54 0 92.5 -36.5t38.5 -90.5t-38.5 -90.5t-92.5 -36.5q-53 0 -91 37t-38 90z" />
<glyph unicode="&#x152;" horiz-adv-x="2242" d="M102 713q0 155 59.5 292.5t160.5 235t239.5 154.5t292.5 57q158 0 283.5 -59t208.5 -168v202h761v-231h-510v-340h471v-231h-471v-394h525v-231h-776v205q-80 -111 -206.5 -170.5t-285.5 -59.5q-154 0 -292.5 56.5t-239.5 154.5t-160.5 235t-59.5 292zM358 713 q0 -216 146 -362t360 -146t360 146.5t146 361.5q0 105 -39 199t-106 162t-161 107.5t-200 39.5q-215 0 -360.5 -146.5t-145.5 -361.5z" />
<glyph unicode="&#x153;" horiz-adv-x="2078" d="M84 516q0 152 75 278t204.5 197.5t283.5 71.5q135 0 246 -58.5t180 -160.5q67 101 177 160t249 59q222 0 371 -156t149 -387q0 -34 -2 -67h-825q6 -123 90.5 -194t224.5 -71q187 0 297 113l150 -149q-183 -183 -457 -183q-145 0 -254 54t-172 157q-70 -100 -179.5 -155.5 t-244.5 -55.5q-154 0 -283.5 71.5t-204.5 197.5t-75 278zM328 516q0 -137 91.5 -230t227.5 -93q135 0 227.5 93.5t92.5 229.5q0 137 -92.5 230.5t-227.5 93.5q-136 0 -227.5 -93.5t-91.5 -230.5zM1200 627h569q-17 100 -95.5 164.5t-186.5 64.5q-109 0 -188.5 -64 t-98.5 -165z" />
<glyph unicode="&#x178;" horiz-adv-x="1396" d="M57 1427h277l366 -628l365 628h274l-514 -874v-553h-254v553zM354 1640q0 52 38.5 89.5t92.5 37.5q53 0 91 -37t38 -90t-38 -90t-91 -37q-54 0 -92.5 36.5t-38.5 90.5zM780 1640q0 52 38 89.5t91 37.5t92 -37t39 -90t-39 -90t-92 -37t-91 37t-38 90z" />
<glyph unicode="&#x2c6;" horiz-adv-x="1206" d="M236 1159l366 311l371 -311h-240l-131 129l-129 -129h-237z" />
<glyph unicode="&#x2dc;" horiz-adv-x="1171" d="M213 1231q12 102 74 166.5t159 64.5q52 0 103 -21.5t95 -43t81 -21.5t59.5 20.5t32.5 65.5l141 -18q-29 -244 -235 -244q-54 0 -105.5 21t-96.5 42t-81 21q-70 0 -86 -72z" />
<glyph unicode="&#x2000;" horiz-adv-x="937" />
<glyph unicode="&#x2001;" horiz-adv-x="1874" />
<glyph unicode="&#x2002;" horiz-adv-x="937" />
<glyph unicode="&#x2003;" horiz-adv-x="1874" />
<glyph unicode="&#x2004;" horiz-adv-x="624" />
<glyph unicode="&#x2005;" horiz-adv-x="468" />
<glyph unicode="&#x2006;" horiz-adv-x="312" />
<glyph unicode="&#x2007;" horiz-adv-x="312" />
<glyph unicode="&#x2008;" horiz-adv-x="234" />
<glyph unicode="&#x2009;" horiz-adv-x="374" />
<glyph unicode="&#x200a;" horiz-adv-x="104" />
<glyph unicode="&#x2010;" horiz-adv-x="892" d="M102 446v226h686v-226h-686z" />
<glyph unicode="&#x2011;" horiz-adv-x="892" d="M102 446v226h686v-226h-686z" />
<glyph unicode="&#x2012;" horiz-adv-x="892" d="M102 446v226h686v-226h-686z" />
<glyph unicode="&#x2013;" horiz-adv-x="1085" d="M100 446v226h885v-226h-885z" />
<glyph unicode="&#x2014;" horiz-adv-x="1529" d="M100 446v226h1330v-226h-1330z" />
<glyph unicode="&#x2018;" horiz-adv-x="505" d="M43 922l264 505h189l-189 -505h-264z" />
<glyph unicode="&#x2019;" horiz-adv-x="516" d="M35 922l186 505h264l-264 -505h-186z" />
<glyph unicode="&#x201a;" horiz-adv-x="491" d="M-43 -262l182 489h264l-258 -489h-188z" />
<glyph unicode="&#x201c;" horiz-adv-x="868" d="M43 922l264 505h189l-189 -505h-264zM408 922l262 505h188l-188 -505h-262z" />
<glyph unicode="&#x201d;" horiz-adv-x="878" d="M35 922l186 505h264l-264 -505h-186zM397 922l189 505h262l-264 -505h-187z" />
<glyph unicode="&#x201e;" horiz-adv-x="845" d="M-43 -262l182 489h264l-258 -489h-188zM319 -262l183 489h264l-258 -489h-189z" />
<glyph unicode="&#x2022;" horiz-adv-x="698" d="M135 518q0 90 64 151.5t151 61.5q86 0 149.5 -62t63.5 -151q0 -91 -62 -153t-151 -62q-87 0 -151 62.5t-64 152.5z" />
<glyph unicode="&#x2026;" horiz-adv-x="1286" d="M86 125q0 58 42.5 98.5t100.5 40.5t100 -40.5t42 -98.5q0 -59 -42 -100t-100 -41t-100.5 41t-42.5 100zM500 125q0 58 42.5 98.5t100.5 40.5t99.5 -40.5t41.5 -98.5q0 -59 -41.5 -100t-99.5 -41t-100.5 41t-42.5 100zM913 125q0 58 42.5 98.5t101.5 40.5q58 0 99.5 -40.5 t41.5 -98.5q0 -59 -41.5 -100t-99.5 -41q-59 0 -101.5 41t-42.5 100z" />
<glyph unicode="&#x202f;" horiz-adv-x="374" />
<glyph unicode="&#x2039;" horiz-adv-x="665" d="M88 518l238 373h254l-242 -373l242 -373h-254z" />
<glyph unicode="&#x203a;" horiz-adv-x="665" d="M86 145l242 373l-242 373h254l238 -373l-238 -373h-254z" />
<glyph unicode="&#x205f;" horiz-adv-x="468" />
<glyph unicode="&#x20ac;" horiz-adv-x="1587" d="M33 502l67 147h154q-2 20 -2 64q0 28 4 86h-182l65 147h137q69 227 253.5 366.5t416.5 139.5q153 0 288 -64.5t234 -177.5l-176 -151q-64 76 -153.5 119t-192.5 43q-133 0 -240.5 -74.5t-162.5 -200.5h520l-66 -147h-485q-8 -39 -8 -86q0 -44 6 -64h426l-68 -147h-338 q52 -135 163.5 -216t252.5 -81q107 0 199 44t158 122l176 -150q-99 -117 -237 -181.5t-296 -64.5q-240 0 -427.5 145.5t-250.5 381.5h-235z" />
<glyph unicode="&#x2122;" horiz-adv-x="1845" d="M68 1210v217h686v-217h-226v-542h-231v542h-229zM852 668v759h106l336 -360l336 360h103v-759h-220v362l-219 -244l-223 244v-362h-219z" />
<glyph unicode="&#x25fc;" horiz-adv-x="1034" d="M0 0v1034h1034v-1034h-1034z" />
</font>
</defs>
</svg>
