<?xml version="1.0" standalone="no"?>
<!DOCTYPE svg PUBLIC "-//W3C//DTD SVG 1.1//EN" "http://www.w3.org/Graphics/SVG/1.1/DTD/svg11.dtd" >
<svg xmlns="http://www.w3.org/2000/svg" width="100%" height="100%">
<metadata>
Created by FontXChange 20110222 at Tue Feb 24 22:48:36 2015
 By Diego Rocha
Copyright (c) 2014 by Toni Hurme. All rights reserved.
</metadata>
<defs>
<font id="ElectroluxSans-Regular" horiz-adv-x="576" >
  <font-face 
    font-family="Electrolux Sans Regular"
    font-weight="400"
    font-stretch="normal"
    units-per-em="1000"
    panose-1="2 11 5 0 2 0 0 0 0 0"
    ascent="807"
    descent="-193"
    x-height="504"
    cap-height="697"
    bbox="-73 -220 1119 1052"
    underline-thickness="50"
    underline-position="-140"
    stemh="72"
    stemv="78"
    unicode-range="U+000D-FB04"
  />
<missing-glyph horiz-adv-x="749" 
d="M-3 0v697h712v-697h-712zM57 60h592v577h-592v-577zM128 163l185 185l-185 185l40 40l185 -185l185 185l40 -40l-185 -185l185 -185l-40 -40l-185 185l-185 -185z" />
    <glyph glyph-name="ff" unicode="ff" horiz-adv-x="529" 
d="M55 0v531c0 74 16 110 49 137c34 27 78 29 113 29h29v-66h-37c-51 0 -80 -24 -80 -87v-40h160v27c0 74 16 110 49 137c34 27 78 29 113 29h29v-66h-37c-51 0 -80 -24 -80 -87v-40h95v-69h-95v-435h-74v435h-160v-435h-74z" />
    <glyph glyph-name="fi" unicode="fi" horiz-adv-x="461" 
d="M55 0v531c0 74 16 110 49 137c34 27 78 29 113 29h59v-66h-67c-51 0 -80 -24 -80 -87v-40h234v-504h-74v435h-160v-435h-74z" />
    <glyph glyph-name="fj" unicode="fj" horiz-adv-x="460" 
d="M55 0v531c0 74 16 110 49 137c34 27 78 29 113 29h29v-66h-37c-51 0 -80 -24 -80 -87v-40h234v-554c0 -137 -81 -158 -152 -158h-27v69h24c56 0 81 24 81 91v483h-160v-435h-74z" />
    <glyph glyph-name="ffj" unicode="ffj" horiz-adv-x="694" 
d="M55 0v531c0 74 16 110 49 137c34 27 78 29 113 29h29v-66h-37c-51 0 -80 -24 -80 -87v-40h160v27c0 74 16 110 49 137c34 27 78 29 113 29h59v-66h-67c-51 0 -80 -24 -80 -87v-40h234v-554c0 -137 -81 -158 -152 -158h-27v69h24c56 0 81 24 81 91v483h-160v-435h-74v435
h-160v-435h-74z" />
    <glyph glyph-name="ffi" unicode="ffi" horiz-adv-x="695" 
d="M55 0v531c0 74 16 110 49 137c34 27 78 29 113 29h29v-66h-37c-51 0 -80 -24 -80 -87v-40h160v27c0 74 16 110 49 137c34 27 78 29 113 29h59v-66h-67c-51 0 -80 -24 -80 -87v-40h234v-504h-74v435h-160v-435h-74v435h-160v-435h-74z" />
    <glyph glyph-name="fl" unicode="fl" horiz-adv-x="486" 
d="M55 0v531c0 74 16 110 49 137c34 27 78 29 113 29h29v-66h-37c-51 0 -80 -24 -80 -87v-40h95v-69h-95v-435h-74zM314 0v697h74v-697h-74z" />
    <glyph glyph-name="ffl" unicode="ffl" horiz-adv-x="710" 
d="M538 0v697h74v-697h-74zM55 0v531c0 74 16 110 49 137c34 27 78 29 113 29h29v-66h-37c-51 0 -80 -24 -80 -87v-40h160v27c0 74 16 110 49 137c34 27 78 29 113 29h29v-66h-37c-51 0 -80 -24 -80 -87v-40h95v-69h-95v-435h-74v435h-160v-435h-74z" />
    <glyph glyph-name=".notdef" horiz-adv-x="749" 
d="M-3 0v697h712v-697h-712zM57 60h592v577h-592v-577zM128 163l185 185l-185 185l40 40l185 -185l185 185l40 -40l-185 -185l185 -185l-40 -40l-185 185l-185 -185z" />
    <glyph glyph-name=".null" horiz-adv-x="0" 
 />
    <glyph glyph-name=".null" horiz-adv-x="0" 
 />
    <glyph glyph-name="CR" unicode="&#xd;" horiz-adv-x="0" 
 />
    <glyph glyph-name="space" unicode=" " horiz-adv-x="300" 
 />
    <glyph glyph-name="space.frac" horiz-adv-x="30" 
 />
    <glyph glyph-name="A" unicode="A" horiz-adv-x="738" 
d="M32 0l315 722l316 -722h-85l-75 172h-314l-75 -172h-82zM220 244h252l-126 296z" />
    <glyph glyph-name="B" unicode="B" horiz-adv-x="629" 
d="M89 0v697h213c105 0 187 -75 187 -178c0 -67 -33 -118 -89 -140c92 -19 140 -86 140 -173c0 -118 -90 -206 -212 -206h-239zM167 406h130c66 0 114 47 114 110c0 62 -47 109 -113 109h-131v-219zM167 72h156c80 0 139 57 139 134c0 74 -58 130 -140 130h-155v-264z" />
    <glyph glyph-name="C" unicode="C" horiz-adv-x="748" 
d="M44 348c0 209 162 362 363 362c107 0 200 -44 266 -118l-53 -48c-51 59 -125 94 -213 94c-164 0 -285 -124 -285 -290s121 -290 285 -290c88 0 165 36 216 98l53 -48c-66 -77 -162 -122 -269 -122c-201 0 -363 153 -363 362z" />
    <glyph glyph-name="D" unicode="D" horiz-adv-x="763" 
d="M89 0v697h224c226 0 360 -143 360 -349s-133 -348 -359 -348h-225zM167 72h141c194 0 287 114 287 276c0 163 -93 277 -288 277h-140v-553z" />
    <glyph glyph-name="E" unicode="E" horiz-adv-x="581" 
d="M84 194v503h394v-72h-316v-221h297v-72h-297v-142c0 -93 68 -118 113 -118h210v-72h-217c-124 0 -184 70 -184 194z" />
    <glyph glyph-name="F" unicode="F" horiz-adv-x="543" 
d="M89 0v697h364v-72h-286v-225h261v-72h-261v-328h-78z" />
    <glyph glyph-name="G" unicode="G" horiz-adv-x="777" 
d="M44 348c0 209 162 362 363 362c94 0 177 -32 241 -91l-49 -54c-50 46 -116 73 -192 73c-164 0 -285 -125 -285 -290c0 -166 121 -290 285 -290c75 0 141 26 191 70v180h-213v72h291v-279c-67 -72 -162 -115 -269 -115c-201 0 -363 153 -363 362z" />
    <glyph glyph-name="H" unicode="H" horiz-adv-x="764" 
d="M89 0v697h78v-291h387v291h78v-697h-78v334h-387v-334h-78z" />
    <glyph glyph-name="I" unicode="I" horiz-adv-x="307" 
d="M93 0v697h78v-697h-78z" />
    <glyph glyph-name="J" unicode="J" horiz-adv-x="347" 
d="M11 0v72h33c85 0 98 51 98 110v515h78v-511c0 -92 -12 -186 -171 -186h-38z" />
    <glyph glyph-name="K" unicode="K" horiz-adv-x="675" 
d="M89 0v697h78v-370l335 370h96l-278 -304l286 -393h-94l-244 336l-101 -110v-226h-78z" />
    <glyph glyph-name="L" unicode="L" horiz-adv-x="533" 
d="M89 0v697h78v-625h287v-72h-365z" />
    <glyph glyph-name="M" unicode="M" horiz-adv-x="896" 
d="M89 0v718l337 -479l338 479v-718h-78v489l-260 -372l-259 372v-489h-78z" />
    <glyph glyph-name="N" unicode="N" horiz-adv-x="788" 
d="M89 0v722l489 -552v527h78v-722l-489 552v-527h-78z" />
    <glyph glyph-name="O" unicode="O" horiz-adv-x="857" 
d="M44 348c0 209 162 362 363 362s363 -153 363 -362s-162 -362 -363 -362s-363 153 -363 362zM121 348c0 -166 122 -290 286 -290s285 124 285 290s-121 290 -285 290s-286 -124 -286 -290z" />
    <glyph glyph-name="P" unicode="P" horiz-adv-x="610" 
d="M89 0v697h223c117 0 213 -90 213 -212c0 -123 -96 -212 -213 -212h-145v-273h-78zM167 345h142c79 0 138 60 138 140s-59 140 -138 140h-142v-280z" />
    <glyph glyph-name="Q" unicode="Q" horiz-adv-x="857" 
d="M44 348c0 209 162 362 363 362s363 -153 363 -362c0 -103 -39 -192 -102 -256l74 -91l-55 -45l-74 91c-58 -39 -130 -61 -206 -61c-201 0 -363 153 -363 362zM121 348c0 -166 122 -290 286 -290c60 0 114 17 159 46l-114 140l55 45l113 -139c45 51 72 120 72 198
c0 166 -121 290 -285 290s-286 -124 -286 -290z" />
    <glyph glyph-name="R" unicode="R" horiz-adv-x="643" 
d="M89 0v697h238c115 0 209 -88 209 -208c0 -93 -55 -168 -133 -198l168 -291h-89l-157 276h-1h-157v-276h-78zM167 348h152c80 0 139 60 139 141c0 77 -57 136 -134 136h-157v-277z" />
    <glyph glyph-name="S" unicode="S" horiz-adv-x="587" 
d="M38 153l67 31c31 -75 86 -126 175 -126c127 0 140 87 140 123c0 83 -58 112 -156 155c-106 47 -183 88 -183 201c0 100 81 173 191 173c89 0 149 -39 188 -111l-67 -34c-26 49 -62 73 -122 73c-61 0 -112 -41 -112 -99c0 -75 58 -99 142 -137c128 -57 197 -103 197 -220
c0 -111 -76 -196 -219 -196c-107 0 -199 52 -241 167z" />
    <glyph glyph-name="T" unicode="T" horiz-adv-x="555" 
d="M217 0v625h-190v72h458v-72h-190v-625h-78z" />
    <glyph glyph-name="U" unicode="U" horiz-adv-x="733" 
d="M84 244v453h78v-445c0 -128 72 -192 183 -192s183 64 183 192v445h78v-453c0 -169 -111 -256 -261 -256s-261 87 -261 256z" />
    <glyph glyph-name="V" unicode="V" horiz-adv-x="707" 
d="M332 -25l-300 722h84l216 -524l216 524h84z" />
    <glyph glyph-name="W" unicode="W" horiz-adv-x="984" 
d="M252 -25l-228 722h82l156 -492l211 516l202 -514l159 490h82l-233 -724l-212 537z" />
    <glyph glyph-name="X" unicode="X" horiz-adv-x="690" 
d="M39 0l234 361l-220 336h87l184 -283l183 283h84l-219 -337l236 -360h-88l-200 306l-198 -306h-83z" />
    <glyph glyph-name="Y" unicode="Y" horiz-adv-x="659" 
d="M270 0v286l-245 411h86l199 -334l197 334h84l-243 -411v-286h-78z" />
    <glyph glyph-name="Z" unicode="Z" horiz-adv-x="676" 
d="M29 0l436 625h-358v72h500l-436 -625h422v-72h-564z" />
    <glyph glyph-name="Agrave" unicode="&#xc0;" horiz-adv-x="738" 
d="M344 745l-93 145h99l53 -145h-59zM32 0l315 722l316 -722h-85l-75 172h-314l-75 -172h-82zM220 244h252l-126 296z" />
    <glyph glyph-name="Aacute" unicode="&#xc1;" horiz-adv-x="738" 
d="M318 745l53 145h99l-93 -145h-59zM32 0l315 722l316 -722h-85l-75 172h-314l-75 -172h-82zM220 244h252l-126 296z" />
    <glyph glyph-name="Acircumflex" unicode="&#xc2;" horiz-adv-x="738" 
d="M183 769l164 146l164 -146h-89l-75 75l-75 -75h-89zM32 0l315 722l316 -722h-85l-75 172h-314l-75 -172h-82zM220 244h252l-126 296z" />
    <glyph glyph-name="Atilde" unicode="&#xc3;" horiz-adv-x="738" 
d="M196 762c6 52 39 92 90 92s80 -39 117 -39c25 0 39 12 46 41l49 -4c-7 -60 -34 -98 -92 -98c-53 0 -80 39 -118 39c-20 0 -37 -10 -43 -35zM32 0l315 722l316 -722h-85l-75 172h-314l-75 -172h-82zM220 244h252l-126 296z" />
    <glyph glyph-name="Adieresis" unicode="&#xc4;" horiz-adv-x="738" 
d="M449 744c-26 0 -50 21 -50 50s24 50 50 50s50 -21 50 -50s-24 -50 -50 -50zM243 744c-26 0 -50 21 -50 50s24 50 50 50s50 -21 50 -50s-24 -50 -50 -50zM32 0l315 722l316 -722h-85l-75 172h-314l-75 -172h-82zM220 244h252l-126 296z" />
    <glyph glyph-name="Amacron" unicode="&#x100;" horiz-adv-x="738" 
d="M200 769v69h294v-69h-294zM32 0l315 722l316 -722h-85l-75 172h-314l-75 -172h-82zM220 244h252l-126 296z" />
    <glyph glyph-name="Abreve" unicode="&#x102;" horiz-adv-x="738" 
d="M347 751c-78 0 -145 54 -156 139h69c15 -47 43 -73 87 -73s72 26 87 73h69c-11 -85 -78 -139 -156 -139zM32 0l315 722l316 -722h-85l-75 172h-314l-75 -172h-82zM220 244h252l-126 296z" />
    <glyph glyph-name="Aring" unicode="&#xc5;" horiz-adv-x="738" 
d="M32 0l290 665c-41 11 -72 49 -72 94c0 53 44 97 98 97c53 0 97 -44 97 -97c0 -46 -31 -84 -73 -95l291 -664h-85l-75 172h-314l-75 -172h-82zM348 712c25 0 46 22 46 47s-21 46 -46 46s-47 -21 -47 -46s22 -47 47 -47zM220 244h252l-126 296z" />
    <glyph glyph-name="Aringacute" unicode="&#x1fa;" horiz-adv-x="738" 
d="M326 907l53 145h99l-93 -145h-59zM32 0l290 665c-41 11 -72 49 -72 94c0 53 44 97 98 97c53 0 97 -44 97 -97c0 -46 -31 -84 -73 -95l291 -664h-85l-75 172h-314l-75 -172h-82zM348 712c25 0 46 22 46 47s-21 46 -46 46s-47 -21 -47 -46s22 -47 47 -47zM220 244h252
l-126 296z" />
    <glyph glyph-name="Aogonek" unicode="&#x104;" horiz-adv-x="738" 
d="M32 0l315 722l316 -722c-36 -13 -82 -55 -82 -95c0 -31 24 -45 50 -45c21 0 40 5 58 15l-13 -59c-18 -9 -37 -14 -57 -14c-51 0 -101 33 -101 89c0 44 29 77 62 100l1 1l-78 180h-314l-75 -172h-82zM220 244h252l-126 296z" />
    <glyph glyph-name="AE" unicode="&#xc6;" horiz-adv-x="927" 
d="M-19 0l534 697h310v-72h-252v-221h233v-72h-233v-260h259v-72h-337v172h-284l-132 -172h-98zM266 244h229v305z" />
    <glyph glyph-name="AEacute" unicode="&#x1fc;" horiz-adv-x="927" 
d="M474 745l53 145h99l-93 -145h-59zM-19 0l534 697h310v-72h-252v-221h233v-72h-233v-260h259v-72h-337v172h-284l-132 -172h-98zM266 244h229v305z" />
    <glyph glyph-name="Cacute" unicode="&#x106;" horiz-adv-x="748" 
d="M373 745l53 145h99l-93 -145h-59zM44 348c0 209 162 362 363 362c107 0 200 -44 266 -118l-53 -48c-51 59 -125 94 -213 94c-164 0 -285 -124 -285 -290s121 -290 285 -290c88 0 165 36 216 98l53 -48c-66 -77 -162 -122 -269 -122c-201 0 -363 153 -363 362z" />
    <glyph glyph-name="Ccircumflex" unicode="&#x108;" horiz-adv-x="748" 
d="M245 769l164 146l164 -146h-89l-75 75l-75 -75h-89zM44 348c0 209 162 362 363 362c107 0 200 -44 266 -118l-53 -48c-51 59 -125 94 -213 94c-164 0 -285 -124 -285 -290s121 -290 285 -290c88 0 165 36 216 98l53 -48c-66 -77 -162 -122 -269 -122
c-201 0 -363 153 -363 362z" />
    <glyph glyph-name="Ccaron" unicode="&#x10c;" horiz-adv-x="748" 
d="M408 744l-164 146h89l75 -75l75 75h89zM44 348c0 209 162 362 363 362c107 0 200 -44 266 -118l-53 -48c-51 59 -125 94 -213 94c-164 0 -285 -124 -285 -290s121 -290 285 -290c88 0 165 36 216 98l53 -48c-66 -77 -162 -122 -269 -122c-201 0 -363 153 -363 362z" />
    <glyph glyph-name="Cdotaccent" unicode="&#x10a;" horiz-adv-x="748" 
d="M402 763c-26 0 -50 21 -50 50s24 50 50 50s50 -21 50 -50s-24 -50 -50 -50zM44 348c0 209 162 362 363 362c107 0 200 -44 266 -118l-53 -48c-51 59 -125 94 -213 94c-164 0 -285 -124 -285 -290s121 -290 285 -290c88 0 165 36 216 98l53 -48
c-66 -77 -162 -122 -269 -122c-201 0 -363 153 -363 362z" />
    <glyph glyph-name="Ccedilla" unicode="&#xc7;" horiz-adv-x="748" 
d="M44 348c0 209 162 362 363 362c107 0 200 -44 266 -118l-53 -48c-51 59 -125 94 -213 94c-164 0 -285 -124 -285 -290s121 -290 285 -290c88 0 165 36 216 98l53 -48c-66 -77 -162 -122 -269 -122c-9 0 -17 0 -26 1l-15 -33c36 0 66 -27 66 -71c0 -58 -41 -81 -103 -81
c-29 0 -60 12 -74 23l19 39c18 -11 31 -17 54 -17c25 0 44 14 44 36c0 34 -27 41 -73 41l29 70c-163 34 -284 173 -284 354z" />
    <glyph glyph-name="Dcaron" unicode="&#x10e;" horiz-adv-x="763" 
d="M324 744l-164 146h89l75 -75l75 75h89zM89 0v697h224c226 0 360 -143 360 -349s-133 -348 -359 -348h-225zM167 72h141c194 0 287 114 287 276c0 163 -93 277 -288 277h-140v-553z" />
    <glyph glyph-name="Dcroat" unicode="&#x110;" horiz-adv-x="759" 
d="M89 0v322h-65v72h65v303h224c226 0 360 -143 360 -349s-133 -348 -359 -348h-225zM167 72h141c194 0 287 114 287 276c0 163 -93 277 -288 277h-140v-231h145v-72h-145v-250z" />
    <glyph glyph-name="Egrave" unicode="&#xc8;" horiz-adv-x="581" 
d="M269 745l-93 145h99l53 -145h-59zM84 194v503h394v-72h-316v-221h297v-72h-297v-142c0 -93 68 -118 113 -118h210v-72h-217c-124 0 -184 70 -184 194z" />
    <glyph glyph-name="Eacute" unicode="&#xc9;" horiz-adv-x="581" 
d="M241 745l53 145h99l-93 -145h-59zM84 194v503h394v-72h-316v-221h297v-72h-297v-142c0 -93 68 -118 113 -118h210v-72h-217c-124 0 -184 70 -184 194z" />
    <glyph glyph-name="Ecircumflex" unicode="&#xca;" horiz-adv-x="581" 
d="M114 769l164 146l164 -146h-89l-75 75l-75 -75h-89zM84 194v503h394v-72h-316v-221h297v-72h-297v-142c0 -93 68 -118 113 -118h210v-72h-217c-124 0 -184 70 -184 194z" />
    <glyph glyph-name="Ecaron" unicode="&#x11a;" horiz-adv-x="581" 
d="M283 744l-164 146h89l75 -75l75 75h89zM84 194v503h394v-72h-316v-221h297v-72h-297v-142c0 -93 68 -118 113 -118h210v-72h-217c-124 0 -184 70 -184 194z" />
    <glyph glyph-name="Edieresis" unicode="&#xcb;" horiz-adv-x="581" 
d="M385 763c-26 0 -50 21 -50 50s24 50 50 50s50 -21 50 -50s-24 -50 -50 -50zM179 763c-26 0 -50 21 -50 50s24 50 50 50s50 -21 50 -50s-24 -50 -50 -50zM84 194v503h394v-72h-316v-221h297v-72h-297v-142c0 -93 68 -118 113 -118h210v-72h-217c-124 0 -184 70 -184 194z
" />
    <glyph glyph-name="Emacron" unicode="&#x112;" horiz-adv-x="581" 
d="M132 769v69h294v-69h-294zM84 194v503h394v-72h-316v-221h297v-72h-297v-142c0 -93 68 -118 113 -118h210v-72h-217c-124 0 -184 70 -184 194z" />
    <glyph glyph-name="Ebreve" unicode="&#x114;" horiz-adv-x="581" 
d="M284 751c-78 0 -145 54 -156 139h69c15 -47 43 -73 87 -73s72 26 87 73h69c-11 -85 -78 -139 -156 -139zM84 194v503h394v-72h-316v-221h297v-72h-297v-142c0 -93 68 -118 113 -118h210v-72h-217c-124 0 -184 70 -184 194z" />
    <glyph glyph-name="Edotaccent" unicode="&#x116;" horiz-adv-x="581" 
d="M285 763c-26 0 -50 21 -50 50s24 50 50 50s50 -21 50 -50s-24 -50 -50 -50zM84 194v503h394v-72h-316v-221h297v-72h-297v-142c0 -93 68 -118 113 -118h210v-72h-217c-124 0 -184 70 -184 194z" />
    <glyph glyph-name="Eogonek" unicode="&#x118;" horiz-adv-x="581" 
d="M84 194v503h394v-72h-316v-221h297v-72h-297v-142c0 -93 68 -118 113 -118h210v-72c-30 -19 -76 -55 -76 -95c0 -31 24 -45 50 -45c21 0 40 5 58 15l-13 -59c-18 -9 -37 -14 -57 -14c-51 0 -101 33 -101 89c0 49 38 86 75 109h-153c-124 0 -184 70 -184 194z" />
    <glyph glyph-name="Gcircumflex" unicode="&#x11c;" horiz-adv-x="777" 
d="M246 769l164 146l164 -146h-89l-75 75l-75 -75h-89zM44 348c0 209 162 362 363 362c94 0 177 -32 241 -91l-49 -54c-50 46 -116 73 -192 73c-164 0 -285 -125 -285 -290c0 -166 121 -290 285 -290c75 0 141 26 191 70v180h-213v72h291v-279c-67 -72 -162 -115 -269 -115
c-201 0 -363 153 -363 362z" />
    <glyph glyph-name="Gbreve" unicode="&#x11e;" horiz-adv-x="777" 
d="M404 751c-78 0 -145 54 -156 139h69c15 -47 43 -73 87 -73s72 26 87 73h69c-11 -85 -78 -139 -156 -139zM44 348c0 209 162 362 363 362c94 0 177 -32 241 -91l-49 -54c-50 46 -116 73 -192 73c-164 0 -285 -125 -285 -290c0 -166 121 -290 285 -290c75 0 141 26 191 70
v180h-213v72h291v-279c-67 -72 -162 -115 -269 -115c-201 0 -363 153 -363 362z" />
    <glyph glyph-name="Gdotaccent" unicode="&#x120;" horiz-adv-x="777" 
d="M408 763c-26 0 -50 21 -50 50s24 50 50 50s50 -21 50 -50s-24 -50 -50 -50zM44 348c0 209 162 362 363 362c94 0 177 -32 241 -91l-49 -54c-50 46 -116 73 -192 73c-164 0 -285 -125 -285 -290c0 -166 121 -290 285 -290c75 0 141 26 191 70v180h-213v72h291v-279
c-67 -72 -162 -115 -269 -115c-201 0 -363 153 -363 362z" />
    <glyph glyph-name="Gcommaaccent" unicode="&#x122;" horiz-adv-x="777" 
d="M44 348c0 209 162 362 363 362c94 0 177 -32 241 -91l-49 -54c-50 46 -116 73 -192 73c-164 0 -285 -125 -285 -290c0 -166 121 -290 285 -290c75 0 141 26 191 70v180h-213v72h291v-279c-67 -72 -162 -115 -269 -115c-201 0 -363 153 -363 362zM306 -193l53 145h99
l-93 -145h-59z" />
    <glyph glyph-name="Hcircumflex" unicode="&#x124;" horiz-adv-x="764" 
d="M196 769l164 146l164 -146h-89l-75 75l-75 -75h-89zM89 0v697h78v-291h387v291h78v-697h-78v334h-387v-334h-78z" />
    <glyph glyph-name="Hbar" unicode="&#x126;" horiz-adv-x="764" 
d="M89 0v504h-59v69h59v124h78v-124h387v124h78v-124h59v-69h-59v-504h-78v334h-387v-334h-78zM167 406h387v98h-387v-98z" />
    <glyph glyph-name="Igrave" unicode="&#xcc;" horiz-adv-x="307" 
d="M103 745l-93 145h99l53 -145h-59zM93 0v697h78v-697h-78z" />
    <glyph glyph-name="Iacute" unicode="&#xcd;" horiz-adv-x="307" 
d="M101 745l53 145h99l-93 -145h-59zM93 0v697h78v-697h-78z" />
    <glyph glyph-name="Icircumflex" unicode="&#xce;" horiz-adv-x="307" 
d="M-32 769l164 146l164 -146h-89l-75 75l-75 -75h-89zM93 0v697h78v-697h-78z" />
    <glyph glyph-name="Itilde" unicode="&#x128;" horiz-adv-x="307" 
d="M30 758l-49 4c6 52 39 92 90 92s80 -39 117 -39c25 0 39 12 46 41l49 -4c-7 -60 -34 -98 -92 -98c-53 0 -80 39 -118 39c-20 0 -37 -10 -43 -35zM93 0v697h78v-697h-78z" />
    <glyph glyph-name="Idieresis" unicode="&#xcf;" horiz-adv-x="307" 
d="M225 763c-26 0 -50 21 -50 50s24 50 50 50s50 -21 50 -50s-24 -50 -50 -50zM39 763c-26 0 -50 21 -50 50s24 50 50 50s50 -21 50 -50s-24 -50 -50 -50zM93 0v697h78v-697h-78z" />
    <glyph glyph-name="Imacron" unicode="&#x12a;" horiz-adv-x="307" 
d="M-5 769v69h274v-69h-274zM93 0v697h78v-697h-78z" />
    <glyph glyph-name="Ibreve" unicode="&#x12c;" horiz-adv-x="307" 
d="M132 751c-78 0 -145 54 -156 139h69c15 -47 43 -73 87 -73s72 26 87 73h69c-11 -85 -78 -139 -156 -139zM93 0v697h78v-697h-78z" />
    <glyph glyph-name="Idotaccent" unicode="&#x130;" horiz-adv-x="307" 
d="M132 763c-26 0 -50 21 -50 50s24 50 50 50s50 -21 50 -50s-24 -50 -50 -50zM93 0v697h78v-697h-78z" />
    <glyph glyph-name="Iogonek" unicode="&#x12e;" horiz-adv-x="307" 
d="M93 -6v703h78v-697c-31 -12 -80 -55 -80 -95c0 -31 24 -45 50 -45c21 0 40 5 58 15l-13 -59c-18 -9 -37 -14 -57 -14c-51 0 -101 33 -101 89c0 45 31 79 65 102v1z" />
    <glyph glyph-name="IJ" unicode="&#x132;" horiz-adv-x="512" 
d="M93 141v556h78v-556h-78zM93 0v72h116c85 0 98 51 98 110v515h78v-511c0 -92 -12 -186 -171 -186h-121z" />
    <glyph glyph-name="Jcircumflex" unicode="&#x134;" horiz-adv-x="347" 
d="M14 769l164 146l164 -146h-89l-75 75l-75 -75h-89zM11 0v72h33c85 0 98 51 98 110v515h78v-511c0 -92 -12 -186 -171 -186h-38z" />
    <glyph glyph-name="Kcommaaccent" unicode="&#x136;" horiz-adv-x="675" 
d="M89 0v697h78v-370l335 370h96l-278 -304l286 -393h-94l-244 336l-101 -110v-226h-78zM217 -193l53 145h99l-93 -145h-59z" />
    <glyph glyph-name="Lacute" unicode="&#x139;" horiz-adv-x="533" 
d="M107 745l53 145h99l-93 -145h-59zM89 0v697h78v-625h287v-72h-365z" />
    <glyph glyph-name="Lcaron" unicode="&#x13d;" horiz-adv-x="533" 
d="M89 0v697h78v-625h287v-72h-365zM249 552l53 145h99l-93 -145h-59z" />
    <glyph glyph-name="Lcommaaccent" unicode="&#x13b;" horiz-adv-x="533" 
d="M89 0v697h78v-625h287v-72h-365zM233 -48h99l-93 -145h-59z" />
    <glyph glyph-name="Ldot" unicode="&#x13f;" horiz-adv-x="533" 
d="M89 0v697h78v-625h287v-72h-365zM318 321c-26 0 -50 21 -50 50s24 50 50 50s50 -21 50 -50s-24 -50 -50 -50z" />
    <glyph glyph-name="Lslash" unicode="&#x141;" horiz-adv-x="532" 
d="M89 0v282l-67 -37v76l67 37v339h78v-296l140 79v-76l-140 -78v-254h287v-72h-365z" />
    <glyph glyph-name="Nacute" unicode="&#x143;" horiz-adv-x="788" 
d="M330 745l53 145h99l-93 -145h-59zM89 0v722l489 -552v527h78v-722l-489 552v-527h-78z" />
    <glyph glyph-name="Ncaron" unicode="&#x147;" horiz-adv-x="788" 
d="M372 744l-164 146h89l75 -75l75 75h89zM89 0v722l489 -552v527h78v-722l-489 552v-527h-78z" />
    <glyph glyph-name="Ntilde" unicode="&#xd1;" horiz-adv-x="788" 
d="M221 762c6 52 39 92 90 92s80 -39 117 -39c25 0 39 12 46 41l49 -4c-7 -60 -34 -98 -92 -98c-53 0 -80 39 -118 39c-20 0 -37 -10 -43 -35zM89 0v722l489 -552v527h78v-722l-489 552v-527h-78z" />
    <glyph glyph-name="Ncommaaccent" unicode="&#x145;" horiz-adv-x="788" 
d="M89 0v722l489 -552v527h78v-722l-489 552v-527h-78zM289 -193l53 145h99l-93 -145h-59z" />
    <glyph glyph-name="Ograve" unicode="&#xd2;" horiz-adv-x="857" 
d="M382 745l-93 145h99l53 -145h-59zM44 348c0 209 162 362 363 362s363 -153 363 -362s-162 -362 -363 -362s-363 153 -363 362zM121 348c0 -166 122 -290 286 -290s285 124 285 290s-121 290 -285 290s-286 -124 -286 -290z" />
    <glyph glyph-name="Oacute" unicode="&#xd3;" horiz-adv-x="857" 
d="M363 745l53 145h99l-93 -145h-59zM44 348c0 209 162 362 363 362s363 -153 363 -362s-162 -362 -363 -362s-363 153 -363 362zM121 348c0 -166 122 -290 286 -290s285 124 285 290s-121 290 -285 290s-286 -124 -286 -290z" />
    <glyph glyph-name="Ocircumflex" unicode="&#xd4;" horiz-adv-x="857" 
d="M239 769l164 146l164 -146h-89l-75 75l-75 -75h-89zM44 348c0 209 162 362 363 362s363 -153 363 -362s-162 -362 -363 -362s-363 153 -363 362zM121 348c0 -166 122 -290 286 -290s285 124 285 290s-121 290 -285 290s-286 -124 -286 -290z" />
    <glyph glyph-name="Otilde" unicode="&#xd5;" horiz-adv-x="857" 
d="M256 762c6 52 39 92 90 92s80 -39 117 -39c25 0 39 12 46 41l49 -4c-7 -60 -34 -98 -92 -98c-53 0 -80 39 -118 39c-20 0 -37 -10 -43 -35zM44 348c0 209 162 362 363 362s363 -153 363 -362s-162 -362 -363 -362s-363 153 -363 362zM121 348c0 -166 122 -290 286 -290
s285 124 285 290s-121 290 -285 290s-286 -124 -286 -290z" />
    <glyph glyph-name="Odieresis" unicode="&#xd6;" horiz-adv-x="857" 
d="M510 744c-26 0 -50 21 -50 50s24 50 50 50s50 -21 50 -50s-24 -50 -50 -50zM304 744c-26 0 -50 21 -50 50s24 50 50 50s50 -21 50 -50s-24 -50 -50 -50zM44 348c0 209 162 362 363 362s363 -153 363 -362s-162 -362 -363 -362s-363 153 -363 362zM121 348
c0 -166 122 -290 286 -290s285 124 285 290s-121 290 -285 290s-286 -124 -286 -290z" />
    <glyph glyph-name="Omacron" unicode="&#x14c;" horiz-adv-x="857" 
d="M260 770v69h294v-69h-294zM44 348c0 209 162 362 363 362s363 -153 363 -362s-162 -362 -363 -362s-363 153 -363 362zM121 348c0 -166 122 -290 286 -290s285 124 285 290s-121 290 -285 290s-286 -124 -286 -290z" />
    <glyph glyph-name="Obreve" unicode="&#x14e;" horiz-adv-x="857" 
d="M407 751c-78 0 -145 54 -156 139h69c15 -47 43 -73 87 -73s72 26 87 73h69c-11 -85 -78 -139 -156 -139zM44 348c0 209 162 362 363 362s363 -153 363 -362s-162 -362 -363 -362s-363 153 -363 362zM121 348c0 -166 122 -290 286 -290s285 124 285 290s-121 290 -285 290
s-286 -124 -286 -290z" />
    <glyph glyph-name="Ohungarumlaut" unicode="&#x150;" horiz-adv-x="857" 
d="M456 745l63 145h95l-103 -145h-55zM302 745l63 145h95l-103 -145h-55zM44 348c0 209 162 362 363 362s363 -153 363 -362s-162 -362 -363 -362s-363 153 -363 362zM121 348c0 -166 122 -290 286 -290s285 124 285 290s-121 290 -285 290s-286 -124 -286 -290z" />
    <glyph glyph-name="Oslash" unicode="&#xd8;" horiz-adv-x="857" 
d="M111 0l55 74c-75 65 -122 161 -122 274c0 209 162 362 363 362c72 0 138 -20 194 -54l58 78l57 -43l-58 -78c69 -65 112 -157 112 -265c0 -209 -162 -362 -363 -362c-67 0 -129 17 -183 47l-56 -75zM210 133l348 464c-43 26 -95 41 -151 41c-164 0 -286 -124 -286 -290
c0 -87 33 -163 89 -215zM268 92c41 -22 88 -34 139 -34c164 0 285 124 285 290c0 82 -29 153 -79 205z" />
    <glyph glyph-name="Oslashacute" unicode="&#x1fe;" horiz-adv-x="857" 
d="M382 745l53 145h99l-93 -145h-59zM111 0l55 74c-75 65 -122 161 -122 274c0 209 162 362 363 362c72 0 138 -20 194 -54l58 78l57 -43l-58 -78c69 -65 112 -157 112 -265c0 -209 -162 -362 -363 -362c-67 0 -129 17 -183 47l-56 -75zM210 133l348 464
c-43 26 -95 41 -151 41c-164 0 -286 -124 -286 -290c0 -87 33 -163 89 -215zM268 92c41 -22 88 -34 139 -34c164 0 285 124 285 290c0 82 -29 153 -79 205z" />
    <glyph glyph-name="OE" unicode="&#x152;" horiz-adv-x="1121" 
d="M44 348c0 209 162 362 363 362c126 0 220 -53 281 -147v134h330v-72h-252v-221h233v-72h-233v-260h259v-72h-337v137c-59 -97 -153 -151 -281 -151c-201 0 -363 153 -363 362zM121 348c0 -166 122 -290 286 -290s285 124 285 290s-121 290 -285 290s-286 -124 -286 -290z
" />
    <glyph glyph-name="Racute" unicode="&#x154;" horiz-adv-x="643" 
d="M245 745l53 145h99l-93 -145h-59zM89 0v697h238c115 0 209 -88 209 -208c0 -93 -55 -168 -133 -198l168 -291h-89l-157 276h-1h-157v-276h-78zM167 348h152c80 0 139 60 139 141c0 77 -57 136 -134 136h-157v-277z" />
    <glyph glyph-name="Rcaron" unicode="&#x158;" horiz-adv-x="643" 
d="M289 744l-164 146h89l75 -75l75 75h89zM89 0v697h238c115 0 209 -88 209 -208c0 -93 -55 -168 -133 -198l168 -291h-89l-157 276h-1h-157v-276h-78zM167 348h152c80 0 139 60 139 141c0 77 -57 136 -134 136h-157v-277z" />
    <glyph glyph-name="Rcommaaccent" unicode="&#x156;" horiz-adv-x="643" 
d="M89 0v697h238c115 0 209 -88 209 -208c0 -93 -55 -168 -133 -198l168 -291h-89l-157 276h-1h-157v-276h-78zM167 348h152c80 0 139 60 139 141c0 77 -57 136 -134 136h-157v-277zM277 -48h99l-93 -145h-59z" />
    <glyph glyph-name="Sacute" unicode="&#x15a;" horiz-adv-x="587" 
d="M236 745l53 145h99l-93 -145h-59zM38 153l67 31c31 -75 86 -126 175 -126c127 0 140 87 140 123c0 83 -58 112 -156 155c-106 47 -183 88 -183 201c0 100 81 173 191 173c89 0 149 -39 188 -111l-67 -34c-26 49 -62 73 -122 73c-61 0 -112 -41 -112 -99
c0 -75 58 -99 142 -137c128 -57 197 -103 197 -220c0 -111 -76 -196 -219 -196c-107 0 -199 52 -241 167z" />
    <glyph glyph-name="Scircumflex" unicode="&#x15c;" horiz-adv-x="587" 
d="M112 769l164 146l164 -146h-89l-75 75l-75 -75h-89zM38 153l67 31c31 -75 86 -126 175 -126c127 0 140 87 140 123c0 83 -58 112 -156 155c-106 47 -183 88 -183 201c0 100 81 173 191 173c89 0 149 -39 188 -111l-67 -34c-26 49 -62 73 -122 73c-61 0 -112 -41 -112 -99
c0 -75 58 -99 142 -137c128 -57 197 -103 197 -220c0 -111 -76 -196 -219 -196c-107 0 -199 52 -241 167z" />
    <glyph glyph-name="Scaron" unicode="&#x160;" horiz-adv-x="587" 
d="M285 744l-164 146h89l75 -75l75 75h89zM38 153l67 31c31 -75 86 -126 175 -126c127 0 140 87 140 123c0 83 -58 112 -156 155c-106 47 -183 88 -183 201c0 100 81 173 191 173c89 0 149 -39 188 -111l-67 -34c-26 49 -62 73 -122 73c-61 0 -112 -41 -112 -99
c0 -75 58 -99 142 -137c128 -57 197 -103 197 -220c0 -111 -76 -196 -219 -196c-107 0 -199 52 -241 167z" />
    <glyph glyph-name="Scommaaccent" unicode="&#x218;" horiz-adv-x="587" 
d="M38 153l67 31c31 -75 86 -126 175 -126c127 0 140 87 140 123c0 83 -58 112 -156 155c-106 47 -183 88 -183 201c0 100 81 173 191 173c89 0 149 -39 188 -111l-67 -34c-26 49 -62 73 -122 73c-61 0 -112 -41 -112 -99c0 -75 58 -99 142 -137c128 -57 197 -103 197 -220
c0 -111 -76 -196 -219 -196c-107 0 -199 52 -241 167zM168 -193l53 145h99l-93 -145h-59z" />
    <glyph glyph-name="Scedilla" unicode="&#x15e;" horiz-adv-x="587" 
d="M38 153l67 31c31 -75 86 -126 175 -126c127 0 140 87 140 123c0 83 -58 112 -156 155c-106 47 -183 88 -183 201c0 100 81 173 191 173c89 0 149 -39 188 -111l-67 -34c-26 49 -62 73 -122 73c-61 0 -112 -41 -112 -99c0 -75 58 -99 142 -137c128 -57 197 -103 197 -220
c0 -110 -74 -194 -214 -196l-15 -34c36 0 66 -27 66 -71c0 -58 -41 -81 -103 -81c-29 0 -60 12 -74 23l19 39c18 -11 31 -17 54 -17c25 0 44 14 44 36c0 34 -27 41 -73 41l28 68c-85 14 -157 66 -192 163z" />
    <glyph glyph-name="Tcaron" unicode="&#x164;" horiz-adv-x="555" 
d="M255 744l-164 146h89l75 -75l75 75h89zM217 0v625h-190v72h458v-72h-190v-625h-78z" />
    <glyph glyph-name="Tcommaaccent" unicode="&#x162;" horiz-adv-x="555" 
d="M217 0v625h-190v72h458v-72h-190v-625h-78zM208 -48h99l-93 -145h-59z" />
    <glyph glyph-name="Tbar" unicode="&#x166;" horiz-adv-x="555" 
d="M217 0v361h-108v69h108v195h-190v72h458v-72h-190v-195h108v-69h-108v-361h-78z" />
    <glyph glyph-name="Ugrave" unicode="&#xd9;" horiz-adv-x="733" 
d="M322 745l-93 145h99l53 -145h-59zM84 244v453h78v-445c0 -128 72 -192 183 -192s183 64 183 192v445h78v-453c0 -169 -111 -256 -261 -256s-261 87 -261 256z" />
    <glyph glyph-name="Uacute" unicode="&#xda;" horiz-adv-x="733" 
d="M312 745l53 145h99l-93 -145h-59zM84 244v453h78v-445c0 -128 72 -192 183 -192s183 64 183 192v445h78v-453c0 -169 -111 -256 -261 -256s-261 87 -261 256z" />
    <glyph glyph-name="Ucircumflex" unicode="&#xdb;" horiz-adv-x="733" 
d="M181 769l164 146l164 -146h-89l-75 75l-75 -75h-89zM84 244v453h78v-445c0 -128 72 -192 183 -192s183 64 183 192v445h78v-453c0 -169 -111 -256 -261 -256s-261 87 -261 256z" />
    <glyph glyph-name="Utilde" unicode="&#x168;" horiz-adv-x="733" 
d="M196 762c6 52 39 92 90 92s80 -39 117 -39c25 0 39 12 46 41l49 -4c-7 -60 -34 -98 -92 -98c-53 0 -80 39 -118 39c-20 0 -37 -10 -43 -35zM84 244v453h78v-445c0 -128 72 -192 183 -192s183 64 183 192v445h78v-453c0 -169 -111 -256 -261 -256s-261 87 -261 256z" />
    <glyph glyph-name="Udieresis" unicode="&#xdc;" horiz-adv-x="733" 
d="M448 744c-26 0 -50 21 -50 50s24 50 50 50s50 -21 50 -50s-24 -50 -50 -50zM242 744c-26 0 -50 21 -50 50s24 50 50 50s50 -21 50 -50s-24 -50 -50 -50zM84 244v453h78v-445c0 -128 72 -192 183 -192s183 64 183 192v445h78v-453c0 -169 -111 -256 -261 -256
s-261 87 -261 256z" />
    <glyph glyph-name="Umacron" unicode="&#x16a;" horiz-adv-x="733" 
d="M198 770v69h294v-69h-294zM84 244v453h78v-445c0 -128 72 -192 183 -192s183 64 183 192v445h78v-453c0 -169 -111 -256 -261 -256s-261 87 -261 256z" />
    <glyph glyph-name="Ubreve" unicode="&#x16c;" horiz-adv-x="733" 
d="M345 751c-78 0 -145 54 -156 139h69c15 -47 43 -73 87 -73s72 26 87 73h69c-11 -85 -78 -139 -156 -139zM84 244v453h78v-445c0 -128 72 -192 183 -192s183 64 183 192v445h78v-453c0 -169 -111 -256 -261 -256s-261 87 -261 256z" />
    <glyph glyph-name="Uring" unicode="&#x16e;" horiz-adv-x="733" 
d="M346 710c-54 0 -98 44 -98 98c0 53 44 97 98 97c53 0 97 -44 97 -97c0 -54 -43 -98 -97 -98zM346 761c25 0 46 22 46 47s-21 46 -46 46s-47 -21 -47 -46s22 -47 47 -47zM84 244v453h78v-445c0 -128 72 -192 183 -192s183 64 183 192v445h78v-453
c0 -169 -111 -256 -261 -256s-261 87 -261 256z" />
    <glyph glyph-name="Uhungarumlaut" unicode="&#x170;" horiz-adv-x="733" 
d="M391 745l63 145h95l-103 -145h-55zM237 745l63 145h95l-103 -145h-55zM84 244v453h78v-445c0 -128 72 -192 183 -192s183 64 183 192v445h78v-453c0 -169 -111 -256 -261 -256s-261 87 -261 256z" />
    <glyph glyph-name="Uogonek" unicode="&#x172;" horiz-adv-x="733" 
d="M84 244v453h78v-445c0 -128 72 -192 183 -192s183 64 183 192v445h78v-451c0 -100 -36 -166 -96 -209c-23 -17 -131 -67 -131 -132c0 -31 24 -45 50 -45c21 0 40 5 58 15l-13 -59c-18 -9 -37 -14 -57 -14c-51 0 -101 33 -101 89c0 44 29 76 61 99c-12 -1 -24 -2 -36 -2
c-147 0 -257 87 -257 256z" />
    <glyph glyph-name="Wgrave" unicode="&#x1e80;" horiz-adv-x="984" 
d="M465 745l-93 145h99l53 -145h-59zM252 -25l-228 722h82l156 -492l211 516l202 -514l159 490h82l-233 -724l-212 537z" />
    <glyph glyph-name="Wacute" unicode="&#x1e82;" horiz-adv-x="984" 
d="M434 745l53 145h99l-93 -145h-59zM252 -25l-228 722h82l156 -492l211 516l202 -514l159 490h82l-233 -724l-212 537z" />
    <glyph glyph-name="Wcircumflex" unicode="&#x174;" horiz-adv-x="984" 
d="M306 769l164 146l164 -146h-89l-75 75l-75 -75h-89zM252 -25l-228 722h82l156 -492l211 516l202 -514l159 490h82l-233 -724l-212 537z" />
    <glyph glyph-name="Wdieresis" unicode="&#x1e84;" horiz-adv-x="984" 
d="M573 744c-26 0 -50 21 -50 50s24 50 50 50s50 -21 50 -50s-24 -50 -50 -50zM367 744c-26 0 -50 21 -50 50s24 50 50 50s50 -21 50 -50s-24 -50 -50 -50zM252 -25l-228 722h82l156 -492l211 516l202 -514l159 490h82l-233 -724l-212 537z" />
    <glyph glyph-name="Ygrave" unicode="&#x1ef2;" horiz-adv-x="659" 
d="M297 745l-93 145h99l53 -145h-59zM270 0v286l-245 411h86l199 -334l197 334h84l-243 -411v-286h-78z" />
    <glyph glyph-name="Yacute" unicode="&#xdd;" horiz-adv-x="659" 
d="M276 745l53 145h99l-93 -145h-59zM270 0v286l-245 411h86l199 -334l197 334h84l-243 -411v-286h-78z" />
    <glyph glyph-name="Ycircumflex" unicode="&#x176;" horiz-adv-x="659" 
d="M144 769l164 146l164 -146h-89l-75 75l-75 -75h-89zM270 0v286l-245 411h86l199 -334l197 334h84l-243 -411v-286h-78z" />
    <glyph glyph-name="Ydieresis" unicode="&#x178;" horiz-adv-x="659" 
d="M411 743c-26 0 -50 21 -50 50s24 50 50 50s50 -21 50 -50s-24 -50 -50 -50zM205 743c-26 0 -50 21 -50 50s24 50 50 50s50 -21 50 -50s-24 -50 -50 -50zM270 0v286l-245 411h86l199 -334l197 334h84l-243 -411v-286h-78z" />
    <glyph glyph-name="Zacute" unicode="&#x179;" horiz-adv-x="676" 
d="M308 745l53 145h99l-93 -145h-59zM29 0l436 625h-358v72h500l-436 -625h422v-72h-564z" />
    <glyph glyph-name="Zcaron" unicode="&#x17d;" horiz-adv-x="676" 
d="M358 744l-164 146h89l75 -75l75 75h89zM29 0l436 625h-358v72h500l-436 -625h422v-72h-564z" />
    <glyph glyph-name="Zdotaccent" unicode="&#x17b;" horiz-adv-x="676" 
d="M359 763c-26 0 -50 21 -50 50s24 50 50 50s50 -21 50 -50s-24 -50 -50 -50zM29 0l436 625h-358v72h500l-436 -625h422v-72h-564z" />
    <glyph glyph-name="Eng" unicode="&#x14a;" horiz-adv-x="788" 
d="M89 0v722l489 -604v579h78v-708c0 -92 -12 -186 -171 -186h-38v72h33c85 0 98 51 98 110v16l-411 504v-505h-78z" />
    <glyph glyph-name="Eth" unicode="&#xd0;" horiz-adv-x="759" 
d="M89 0v322h-65v72h65v303h224c226 0 360 -143 360 -349s-133 -348 -359 -348h-225zM167 72h141c194 0 287 114 287 276c0 163 -93 277 -288 277h-140v-231h145v-72h-145v-250z" />
    <glyph glyph-name="Thorn" unicode="&#xde;" horiz-adv-x="527" 
d="M89 0v697h78v-149h65c141 0 214 -88 214 -205c0 -113 -70 -198 -207 -198h-72v-145h-78zM167 218h65c90 0 136 50 136 128c0 79 -46 129 -137 129h-64v-257z" />
    <glyph glyph-name="a.alt" 
d="M38 136c0 104 72 153 210 163c96 7 134 15 134 74c0 35 -28 77 -108 77c-60 0 -104 -29 -136 -71l-51 42c44 64 109 98 187 98c109 0 182 -60 182 -157v-269c0 -38 21 -39 42 -39h9v-53c-14 -9 -35 -11 -51 -11c-29 0 -47 17 -53 27s-9 19 -11 32
c-38 -45 -102 -64 -172 -64c-107 0 -182 59 -182 151zM112 138c0 -53 44 -84 116 -84c100 0 154 46 154 116v90c-18 -19 -60 -25 -131 -31c-83 -7 -139 -25 -139 -91z" />
    <glyph glyph-name="b" unicode="b" horiz-adv-x="637" 
d="M54 0v697h74v-268c25 43 80 90 179 90c141 0 255 -113 255 -267s-114 -267 -255 -267c-99 0 -154 47 -179 90v-75h-74zM119 252c0 -113 80 -198 188 -198c104 0 181 85 181 198s-77 198 -181 198c-108 0 -188 -85 -188 -198z" />
    <glyph glyph-name="c" unicode="c" horiz-adv-x="554" 
d="M32 252c0 154 120 267 268 267c76 0 142 -26 191 -76l-45 -52c-38 39 -89 59 -146 59c-112 0 -194 -85 -194 -198s82 -198 194 -198c57 0 108 20 146 59l45 -52c-49 -50 -115 -76 -191 -76c-148 0 -268 113 -268 267z" />
    <glyph glyph-name="d" unicode="d" horiz-adv-x="637" 
d="M32 252c0 154 114 267 255 267c99 0 154 -47 179 -90v268h74v-697h-74v75c-25 -43 -80 -90 -179 -90c-141 0 -255 113 -255 267zM106 252c0 -113 77 -198 181 -198c108 0 188 85 188 198s-80 198 -188 198c-104 0 -181 -85 -181 -198z" />
    <glyph glyph-name="e" unicode="e" horiz-adv-x="588" 
d="M32 246v4c0 163 108 269 252 269c140 0 232 -112 232 -251c0 0 0 -17 -1 -32h-409c4 -111 74 -182 180 -182c73 0 113 26 155 70l49 -48c-63 -70 -131 -89 -204 -89c-150 0 -254 102 -254 259zM111 301h326c0 81 -68 149 -153 149c-92 0 -168 -67 -173 -149z" />
    <glyph glyph-name="f" unicode="f" horiz-adv-x="296" 
d="M55 0v531c0 74 16 110 49 137c34 27 78 29 113 29h29v-66h-37c-51 0 -80 -24 -80 -87v-40h95v-69h-95v-435h-74z" />
    <glyph glyph-name="g" unicode="g" horiz-adv-x="637" 
d="M32 256c0 152 114 263 255 263c99 0 154 -47 179 -90v75h74v-464c0 -167 -71 -260 -247 -260c-111 0 -195 52 -229 123l63 35c27 -54 85 -89 165 -89c126 0 174 64 174 181v54c-25 -43 -80 -90 -179 -90c-141 0 -255 110 -255 262zM106 256c0 -111 77 -193 181 -193
c108 0 188 82 188 193s-80 194 -188 194c-104 0 -181 -83 -181 -194z" />
    <glyph glyph-name="h" unicode="h" horiz-adv-x="561" 
d="M54 0v697h74v-278c25 54 79 93 155 93c112 0 181 -77 181 -190v-322h-74v306c0 84 -47 137 -125 137c-80 0 -137 -57 -137 -142v-301h-74z" />
    <glyph glyph-name="i" unicode="i" horiz-adv-x="227" 
d="M92 588c-26 0 -50 21 -50 50s24 50 50 50s50 -21 50 -50s-24 -50 -50 -50zM55 0v504h74v-504h-74z" />
    <glyph glyph-name="j" unicode="j" horiz-adv-x="225" 
d="M91 586c-26 0 -50 21 -50 50s24 50 50 50s50 -21 50 -50s-24 -50 -50 -50zM54 -48v552h74v-554c0 -137 -81 -158 -152 -158h-27v69h24c56 0 81 24 81 91z" />
    <glyph glyph-name="k" unicode="k" horiz-adv-x="503" 
d="M54 0v697h74v-442l216 249h85l-191 -221l218 -283h-88l-177 230l-63 -73v-157h-74z" />
    <glyph glyph-name="l.alt" horiz-adv-x="297" 
d="M55 127v570h74v-565c0 -53 22 -78 63 -78h36v-69h-41c-52 0 -132 12 -132 142z" />
    <glyph glyph-name="m" unicode="m" horiz-adv-x="839" 
d="M54 0v504h74v-85c23 54 72 93 142 93c72 0 123 -38 148 -100c29 62 85 100 161 100c104 0 168 -77 168 -190v-322h-74v306c0 84 -42 137 -114 137c-71 0 -124 -57 -124 -142v-301h-74v306c0 84 -41 137 -112 137c-69 0 -121 -57 -121 -142v-301h-74z" />
    <glyph glyph-name="n" unicode="n" horiz-adv-x="569" 
d="M54 0v504h74v-85c26 54 83 93 162 93c116 0 187 -77 187 -190v-322h-74v306c0 84 -50 137 -132 137c-84 0 -143 -57 -143 -142v-301h-74z" />
    <glyph glyph-name="o" unicode="o" horiz-adv-x="643" 
d="M32 252c0 154 120 267 268 267s268 -113 268 -267s-120 -267 -268 -267s-268 113 -268 267zM106 252c0 -113 82 -198 194 -198s194 85 194 198s-82 198 -194 198s-194 -85 -194 -198z" />
    <glyph glyph-name="p" unicode="p" horiz-adv-x="637" 
d="M54 -193v697h74v-75c25 43 80 90 179 90c141 0 255 -113 255 -267s-114 -267 -255 -267c-99 0 -154 47 -179 90v-268h-74zM119 252c0 -113 80 -198 188 -198c104 0 181 85 181 198s-77 198 -181 198c-108 0 -188 -85 -188 -198z" />
    <glyph glyph-name="q" unicode="q" horiz-adv-x="637" 
d="M32 252c0 154 114 267 255 267c99 0 154 -47 179 -90v75h74v-697h-74v268c-25 -43 -80 -90 -179 -90c-141 0 -255 113 -255 267zM106 252c0 -113 77 -198 181 -198c108 0 188 85 188 198s-80 198 -188 198c-104 0 -181 -85 -181 -198z" />
    <glyph glyph-name="r" unicode="r" horiz-adv-x="348" 
d="M54 0v504h74v-85c25 54 79 93 155 93c11 0 24 -1 31 -2v-80c-12 3 -29 5 -50 5c-78 0 -136 -57 -136 -142v-293h-74z" />
    <glyph glyph-name="s" unicode="s" horiz-adv-x="451" 
d="M15 109l63 24c12 -38 52 -76 127 -76c93 0 111 48 111 77c0 55 -47 74 -126 105c-80 32 -137 67 -137 147c0 78 63 133 152 133c68 0 117 -30 146 -87l-60 -31c-18 33 -43 50 -85 50c-45 0 -79 -23 -79 -65c0 -45 44 -66 110 -91c97 -37 153 -80 153 -161
c0 -72 -57 -146 -185 -146c-93 0 -169 42 -190 121z" />
    <glyph glyph-name="t" unicode="t" horiz-adv-x="314" 
d="M55 173v524h74v-193h117v-69h-117v-259c0 -77 38 -107 102 -107h15v-69h-19c-72 0 -172 18 -172 173z" />
    <glyph glyph-name="u" unicode="u" horiz-adv-x="562" 
d="M48 195v309h74v-302c0 -96 54 -145 137 -145c84 0 138 49 138 146v301h74v-302c0 -141 -92 -214 -215 -214c-119 0 -208 70 -208 207z" />
    <glyph glyph-name="v" unicode="v" horiz-adv-x="549" 
d="M253 -35l-241 539h77l164 -370l165 370h76z" />
    <glyph glyph-name="w" unicode="w" horiz-adv-x="784" 
d="M219 -35l-207 539h71l136 -356l151 391l151 -391l136 356h71l-207 -539l-151 391z" />
    <glyph glyph-name="x" unicode="x" horiz-adv-x="550" 
d="M22 0l192 268l-176 236h82l133 -179l133 179h82l-175 -235l192 -269h-81l-150 211l-151 -211h-81z" />
    <glyph glyph-name="y" unicode="y" horiz-adv-x="541" 
d="M61 -209v65h47s33 3 48 14c14 11 25 29 38 62l22 57l-204 515h74l166 -425l160 425h74l-228 -590c-12 -31 -27 -61 -49 -85c-26 -27 -60 -38 -98 -38h-50z" />
    <glyph glyph-name="z" unicode="z" horiz-adv-x="538" 
d="M-7 0l336 435h-282v69h420l-337 -435h323v-69h-460z" />
    <glyph glyph-name="agrave.alt" 
d="M238 552l-93 145h99l53 -145h-59zM38 136c0 104 72 153 210 163c96 7 134 15 134 74c0 35 -28 77 -108 77c-60 0 -104 -29 -136 -71l-51 42c44 64 109 98 187 98c109 0 182 -60 182 -157v-269c0 -38 21 -39 42 -39h9v-53c-14 -9 -35 -11 -51 -11c-29 0 -47 17 -53 27
s-9 19 -11 32c-38 -45 -102 -64 -172 -64c-107 0 -182 59 -182 151zM112 138c0 -53 44 -84 116 -84c100 0 154 46 154 116v90c-18 -19 -60 -25 -131 -31c-83 -7 -139 -25 -139 -91z" />
    <glyph glyph-name="aacute.alt" 
d="M225 552l53 145h99l-93 -145h-59zM38 136c0 104 72 153 210 163c96 7 134 15 134 74c0 35 -28 77 -108 77c-60 0 -104 -29 -136 -71l-51 42c44 64 109 98 187 98c109 0 182 -60 182 -157v-269c0 -38 21 -39 42 -39h9v-53c-14 -9 -35 -11 -51 -11c-29 0 -47 17 -53 27
s-9 19 -11 32c-38 -45 -102 -64 -172 -64c-107 0 -182 59 -182 151zM112 138c0 -53 44 -84 116 -84c100 0 154 46 154 116v90c-18 -19 -60 -25 -131 -31c-83 -7 -139 -25 -139 -91z" />
    <glyph glyph-name="acircumflex.alt" 
d="M99 576l164 146l164 -146h-89l-75 75l-75 -75h-89zM38 136c0 104 72 153 210 163c96 7 134 15 134 74c0 35 -28 77 -108 77c-60 0 -104 -29 -136 -71l-51 42c44 64 109 98 187 98c109 0 182 -60 182 -157v-269c0 -38 21 -39 42 -39h9v-53c-14 -9 -35 -11 -51 -11
c-29 0 -47 17 -53 27s-9 19 -11 32c-38 -45 -102 -64 -172 -64c-107 0 -182 59 -182 151zM112 138c0 -53 44 -84 116 -84c100 0 154 46 154 116v90c-18 -19 -60 -25 -131 -31c-83 -7 -139 -25 -139 -91z" />
    <glyph glyph-name="atilde.alt" 
d="M113 598c6 52 39 92 90 92s80 -39 117 -39c25 0 39 12 46 41l49 -4c-7 -60 -34 -98 -92 -98c-53 0 -80 39 -118 39c-20 0 -37 -10 -43 -35zM38 136c0 104 72 153 210 163c96 7 134 15 134 74c0 35 -28 77 -108 77c-60 0 -104 -29 -136 -71l-51 42c44 64 109 98 187 98
c109 0 182 -60 182 -157v-269c0 -38 21 -39 42 -39h9v-53c-14 -9 -35 -11 -51 -11c-29 0 -47 17 -53 27s-9 19 -11 32c-38 -45 -102 -64 -172 -64c-107 0 -182 59 -182 151zM112 138c0 -53 44 -84 116 -84c100 0 154 46 154 116v90c-18 -19 -60 -25 -131 -31
c-83 -7 -139 -25 -139 -91z" />
    <glyph glyph-name="adieresis.alt" 
d="M372 586c-26 0 -50 21 -50 50s24 50 50 50s50 -21 50 -50s-24 -50 -50 -50zM166 586c-26 0 -50 21 -50 50s24 50 50 50s50 -21 50 -50s-24 -50 -50 -50zM38 136c0 104 72 153 210 163c96 7 134 15 134 74c0 35 -28 77 -108 77c-60 0 -104 -29 -136 -71l-51 42
c44 64 109 98 187 98c109 0 182 -60 182 -157v-269c0 -38 21 -39 42 -39h9v-53c-14 -9 -35 -11 -51 -11c-29 0 -47 17 -53 27s-9 19 -11 32c-38 -45 -102 -64 -172 -64c-107 0 -182 59 -182 151zM112 138c0 -53 44 -84 116 -84c100 0 154 46 154 116v90
c-18 -19 -60 -25 -131 -31c-83 -7 -139 -25 -139 -91z" />
    <glyph glyph-name="amacron.alt" 
d="M121 601v69h294v-69h-294zM38 136c0 104 72 153 210 163c96 7 134 15 134 74c0 35 -28 77 -108 77c-60 0 -104 -29 -136 -71l-51 42c44 64 109 98 187 98c109 0 182 -60 182 -157v-269c0 -38 21 -39 42 -39h9v-53c-14 -9 -35 -11 -51 -11c-29 0 -47 17 -53 27
s-9 19 -11 32c-38 -45 -102 -64 -172 -64c-107 0 -182 59 -182 151zM112 138c0 -53 44 -84 116 -84c100 0 154 46 154 116v90c-18 -19 -60 -25 -131 -31c-83 -7 -139 -25 -139 -91z" />
    <glyph glyph-name="abreve.alt" 
d="M263 558c-78 0 -145 54 -156 139h69c15 -47 43 -73 87 -73s72 26 87 73h69c-11 -85 -78 -139 -156 -139zM38 136c0 104 72 153 210 163c96 7 134 15 134 74c0 35 -28 77 -108 77c-60 0 -104 -29 -136 -71l-51 42c44 64 109 98 187 98c109 0 182 -60 182 -157v-269
c0 -38 21 -39 42 -39h9v-53c-14 -9 -35 -11 -51 -11c-29 0 -47 17 -53 27s-9 19 -11 32c-38 -45 -102 -64 -172 -64c-107 0 -182 59 -182 151zM112 138c0 -53 44 -84 116 -84c100 0 154 46 154 116v90c-18 -19 -60 -25 -131 -31c-83 -7 -139 -25 -139 -91z" />
    <glyph glyph-name="aring.alt" 
d="M265 556c-54 0 -98 44 -98 98c0 53 44 97 98 97c53 0 97 -44 97 -97c0 -54 -43 -98 -97 -98zM265 607c25 0 46 22 46 47s-21 46 -46 46s-47 -21 -47 -46s22 -47 47 -47zM38 136c0 104 72 153 210 163c96 7 134 15 134 74c0 35 -28 77 -108 77c-60 0 -104 -29 -136 -71
l-51 42c44 64 109 98 187 98c109 0 182 -60 182 -157v-269c0 -38 21 -39 42 -39h9v-53c-14 -9 -35 -11 -51 -11c-29 0 -47 17 -53 27s-9 19 -11 32c-38 -45 -102 -64 -172 -64c-107 0 -182 59 -182 151zM112 138c0 -53 44 -84 116 -84c100 0 154 46 154 116v90
c-18 -19 -60 -25 -131 -31c-83 -7 -139 -25 -139 -91z" />
    <glyph glyph-name="aringacute.alt" 
d="M234 788l53 145h99l-93 -145h-59zM266 556c-54 0 -98 44 -98 98c0 53 44 97 98 97c53 0 97 -44 97 -97c0 -54 -43 -98 -97 -98zM266 607c25 0 46 22 46 47s-21 46 -46 46s-47 -21 -47 -46s22 -47 47 -47zM38 136c0 104 72 153 210 163c96 7 134 15 134 74
c0 35 -28 77 -108 77c-60 0 -104 -29 -136 -71l-51 42c44 64 109 98 187 98c109 0 182 -60 182 -157v-269c0 -38 21 -39 42 -39h9v-53c-14 -9 -35 -11 -51 -11c-29 0 -47 17 -53 27s-9 19 -11 32c-38 -45 -102 -64 -172 -64c-107 0 -182 59 -182 151zM112 138
c0 -53 44 -84 116 -84c100 0 154 46 154 116v90c-18 -19 -60 -25 -131 -31c-83 -7 -139 -25 -139 -91z" />
    <glyph glyph-name="aogonek.alt" 
d="M456 362v-269c0 -38 21 -39 42 -39h9v-53c-30 -19 -78 -53 -78 -96c0 -31 24 -45 50 -45c21 0 40 5 58 15l-13 -59c-18 -9 -37 -14 -57 -14c-51 0 -101 33 -101 89c0 49 34 79 67 101c-13 4 -23 13 -30 24c-6 10 -9 20 -11 33c-38 -45 -102 -64 -172 -64
c-107 0 -182 59 -182 151c0 104 72 153 210 163c96 7 134 15 134 74c0 35 -28 77 -108 77c-60 0 -104 -29 -136 -71l-51 42c44 64 109 98 187 98c109 0 182 -60 182 -157zM112 138c0 -53 44 -84 116 -84c100 0 154 46 154 116v90c-18 -19 -60 -25 -131 -31
c-83 -7 -139 -25 -139 -91z" />
    <glyph glyph-name="ae" unicode="&#xe6;" horiz-adv-x="927" 
d="M853 252c0 0 0 -8 -1 -16h-409c4 -110 71 -182 175 -182c76 0 114 26 160 70l49 -48c-66 -72 -133 -91 -209 -91c-87 0 -154 36 -196 98c-38 -64 -112 -98 -215 -98c-112 0 -174 65 -174 154c0 93 70 154 176 154h85c72 0 80 33 80 68c0 79 -76 89 -109 89
c-64 0 -112 -33 -146 -81l-51 42c46 70 115 108 197 108s141 -37 166 -95c43 59 108 95 185 95c130 0 237 -113 237 -267zM374 170v65c-21 -11 -49 -16 -80 -16h-85c-63 0 -102 -25 -102 -80c0 -61 39 -80 111 -80c103 0 156 50 156 111zM448 301h326
c-16 88 -79 149 -158 149c-84 0 -151 -61 -168 -149z" />
    <glyph glyph-name="aeacute" unicode="&#x1fd;" horiz-adv-x="927" 
d="M405 552l53 145h99l-93 -145h-59zM853 252c0 0 0 -8 -1 -16h-409c4 -110 71 -182 175 -182c76 0 114 26 160 70l49 -48c-66 -72 -133 -91 -209 -91c-87 0 -154 36 -196 98c-38 -64 -112 -98 -215 -98c-112 0 -174 65 -174 154c0 93 70 154 176 154h85c72 0 80 33 80 68
c0 79 -76 89 -109 89c-64 0 -112 -33 -146 -81l-51 42c46 70 115 108 197 108s141 -37 166 -95c43 59 108 95 185 95c130 0 237 -113 237 -267zM374 170v65c-21 -11 -49 -16 -80 -16h-85c-63 0 -102 -25 -102 -80c0 -61 39 -80 111 -80c103 0 156 50 156 111zM448 301h326
c-16 88 -79 149 -158 149c-84 0 -151 -61 -168 -149z" />
    <glyph glyph-name="cacute" unicode="&#x107;" horiz-adv-x="554" 
d="M267 552l53 145h99l-93 -145h-59zM32 252c0 154 120 267 268 267c76 0 142 -26 191 -76l-45 -52c-38 39 -89 59 -146 59c-112 0 -194 -85 -194 -198s82 -198 194 -198c57 0 108 20 146 59l45 -52c-49 -50 -115 -76 -191 -76c-148 0 -268 113 -268 267z" />
    <glyph glyph-name="ccircumflex" unicode="&#x109;" horiz-adv-x="554" 
d="M139 576l164 146l164 -146h-89l-75 75l-75 -75h-89zM32 252c0 154 120 267 268 267c76 0 142 -26 191 -76l-45 -52c-38 39 -89 59 -146 59c-112 0 -194 -85 -194 -198s82 -198 194 -198c57 0 108 20 146 59l45 -52c-49 -50 -115 -76 -191 -76c-148 0 -268 113 -268 267z
" />
    <glyph glyph-name="ccaron" unicode="&#x10d;" horiz-adv-x="554" 
d="M297 551l-164 146h89l75 -75l75 75h89zM32 252c0 154 120 267 268 267c76 0 142 -26 191 -76l-45 -52c-38 39 -89 59 -146 59c-112 0 -194 -85 -194 -198s82 -198 194 -198c57 0 108 20 146 59l45 -52c-49 -50 -115 -76 -191 -76c-148 0 -268 113 -268 267z" />
    <glyph glyph-name="cdotaccent" unicode="&#x10b;" horiz-adv-x="554" 
d="M297 576c-26 0 -50 21 -50 50s24 50 50 50s50 -21 50 -50s-24 -50 -50 -50zM32 252c0 154 120 267 268 267c76 0 142 -26 191 -76l-45 -52c-38 39 -89 59 -146 59c-112 0 -194 -85 -194 -198s82 -198 194 -198c57 0 108 20 146 59l45 -52c-49 -50 -115 -76 -191 -76
c-148 0 -268 113 -268 267z" />
    <glyph glyph-name="ccedilla" unicode="&#xe7;" horiz-adv-x="554" 
d="M32 252c0 154 120 267 268 267c76 0 142 -26 191 -76l-45 -52c-38 39 -89 59 -146 59c-112 0 -194 -85 -194 -198s82 -198 194 -198c57 0 108 20 146 59l45 -52c-49 -50 -115 -76 -191 -76h-9l-14 -31c36 0 66 -27 66 -71c0 -58 -41 -81 -103 -81c-29 0 -60 12 -74 23
l19 39c18 -11 31 -17 54 -17c25 0 44 14 44 36c0 34 -27 41 -73 41l28 68c-118 26 -206 128 -206 260z" />
    <glyph glyph-name="dcaron" unicode="&#x10f;" horiz-adv-x="814" 
d="M575 552l53 145h99l-93 -145h-59zM32 252c0 154 114 267 255 267c99 0 154 -47 179 -90v268h74v-697h-74v75c-25 -43 -80 -90 -179 -90c-141 0 -255 113 -255 267zM106 252c0 -113 77 -198 181 -198c108 0 188 85 188 198s-80 198 -188 198c-104 0 -181 -85 -181 -198z
" />
    <glyph glyph-name="dcroat" unicode="&#x111;" horiz-adv-x="637" 
d="M32 252c0 154 114 267 255 267c99 0 154 -47 179 -90v146h-198v60h198v62h74v-62h57v-60h-57v-575h-74v75c-25 -43 -80 -90 -179 -90c-141 0 -255 113 -255 267zM106 252c0 -113 77 -198 181 -198c108 0 188 85 188 198s-80 198 -188 198c-104 0 -181 -85 -181 -198z" />
    <glyph glyph-name="egrave" unicode="&#xe8;" horiz-adv-x="588" 
d="M269 552l-93 145h99l53 -145h-59zM32 246v4c0 163 108 269 252 269c140 0 232 -112 232 -251c0 0 0 -17 -1 -32h-409c4 -111 74 -182 180 -182c73 0 113 26 155 70l49 -48c-63 -70 -131 -89 -204 -89c-150 0 -254 102 -254 259zM111 301h326c0 81 -68 149 -153 149
c-92 0 -168 -67 -173 -149z" />
    <glyph glyph-name="eacute" unicode="&#xe9;" horiz-adv-x="588" 
d="M255 552l53 145h99l-93 -145h-59zM32 246v4c0 163 108 269 252 269c140 0 232 -112 232 -251c0 0 0 -17 -1 -32h-409c4 -111 74 -182 180 -182c73 0 113 26 155 70l49 -48c-63 -70 -131 -89 -204 -89c-150 0 -254 102 -254 259zM111 301h326c0 81 -68 149 -153 149
c-92 0 -168 -67 -173 -149z" />
    <glyph glyph-name="ecircumflex" unicode="&#xea;" horiz-adv-x="588" 
d="M122 576l164 146l164 -146h-89l-75 75l-75 -75h-89zM32 246v4c0 163 108 269 252 269c140 0 232 -112 232 -251c0 0 0 -17 -1 -32h-409c4 -111 74 -182 180 -182c73 0 113 26 155 70l49 -48c-63 -70 -131 -89 -204 -89c-150 0 -254 102 -254 259zM111 301h326
c0 81 -68 149 -153 149c-92 0 -168 -67 -173 -149z" />
    <glyph glyph-name="ecaron" unicode="&#x11b;" horiz-adv-x="588" 
d="M284 551l-164 146h89l75 -75l75 75h89zM32 246v4c0 163 108 269 252 269c140 0 232 -112 232 -251c0 0 0 -17 -1 -32h-409c4 -111 74 -182 180 -182c73 0 113 26 155 70l49 -48c-63 -70 -131 -89 -204 -89c-150 0 -254 102 -254 259zM111 301h326c0 81 -68 149 -153 149
c-92 0 -168 -67 -173 -149z" />
    <glyph glyph-name="edieresis" unicode="&#xeb;" horiz-adv-x="588" 
d="M388 586c-26 0 -50 21 -50 50s24 50 50 50s50 -21 50 -50s-24 -50 -50 -50zM182 586c-26 0 -50 21 -50 50s24 50 50 50s50 -21 50 -50s-24 -50 -50 -50zM32 246v4c0 163 108 269 252 269c140 0 232 -112 232 -251c0 0 0 -17 -1 -32h-409c4 -111 74 -182 180 -182
c73 0 113 26 155 70l49 -48c-63 -70 -131 -89 -204 -89c-150 0 -254 102 -254 259zM111 301h326c0 81 -68 149 -153 149c-92 0 -168 -67 -173 -149z" />
    <glyph glyph-name="emacron" unicode="&#x113;" horiz-adv-x="588" 
d="M139 601v69h294v-69h-294zM32 246v4c0 163 108 269 252 269c140 0 232 -112 232 -251c0 0 0 -17 -1 -32h-409c4 -111 74 -182 180 -182c73 0 113 26 155 70l49 -48c-63 -70 -131 -89 -204 -89c-150 0 -254 102 -254 259zM111 301h326c0 81 -68 149 -153 149
c-92 0 -168 -67 -173 -149z" />
    <glyph glyph-name="ebreve" unicode="&#x115;" horiz-adv-x="588" 
d="M285 558c-78 0 -145 54 -156 139h69c15 -47 43 -73 87 -73s72 26 87 73h69c-11 -85 -78 -139 -156 -139zM32 246v4c0 163 108 269 252 269c140 0 232 -112 232 -251c0 0 0 -17 -1 -32h-409c4 -111 74 -182 180 -182c73 0 113 26 155 70l49 -48c-63 -70 -131 -89 -204 -89
c-150 0 -254 102 -254 259zM111 301h326c0 81 -68 149 -153 149c-92 0 -168 -67 -173 -149z" />
    <glyph glyph-name="edotaccent" unicode="&#x117;" horiz-adv-x="588" 
d="M285 586c-26 0 -50 21 -50 50s24 50 50 50s50 -21 50 -50s-24 -50 -50 -50zM32 246v4c0 163 108 269 252 269c140 0 232 -112 232 -251c0 0 0 -17 -1 -32h-409c4 -111 74 -182 180 -182c73 0 113 26 155 70l49 -48c-63 -70 -131 -89 -204 -89c-150 0 -254 102 -254 259z
M111 301h326c0 81 -68 149 -153 149c-92 0 -168 -67 -173 -149z" />
    <glyph glyph-name="eogonek" unicode="&#x119;" horiz-adv-x="588" 
d="M32 246v4c0 163 108 269 252 269c140 0 232 -112 232 -251c0 0 0 -17 -1 -32h-409c4 -111 74 -182 180 -182c73 0 113 26 155 70l49 -48c-19 -20 -48 -42 -79 -62c-40 -26 -93 -51 -93 -105c0 -31 23 -45 48 -45c20 0 38 5 56 15l-13 -59c-18 -9 -35 -14 -55 -14
c-49 0 -99 33 -99 89c0 39 23 70 51 92h-1c-164 0 -273 88 -273 259zM111 301h326c0 81 -68 149 -153 149c-92 0 -168 -67 -173 -149z" />
    <glyph glyph-name="gcircumflex" unicode="&#x11d;" horiz-adv-x="637" 
d="M133 576l164 146l164 -146h-89l-75 75l-75 -75h-89zM32 256c0 152 114 263 255 263c99 0 154 -47 179 -90v75h74v-464c0 -167 -71 -260 -247 -260c-111 0 -195 52 -229 123l63 35c27 -54 85 -89 165 -89c126 0 174 64 174 181v54c-25 -43 -80 -90 -179 -90
c-141 0 -255 110 -255 262zM106 256c0 -111 77 -193 181 -193c108 0 188 82 188 193s-80 194 -188 194c-104 0 -181 -83 -181 -194z" />
    <glyph glyph-name="gbreve" unicode="&#x11f;" horiz-adv-x="637" 
d="M290 558c-78 0 -145 54 -156 139h69c15 -47 43 -73 87 -73s72 26 87 73h69c-11 -85 -78 -139 -156 -139zM32 256c0 152 114 263 255 263c99 0 154 -47 179 -90v75h74v-464c0 -167 -71 -260 -247 -260c-111 0 -195 52 -229 123l63 35c27 -54 85 -89 165 -89
c126 0 174 64 174 181v54c-25 -43 -80 -90 -179 -90c-141 0 -255 110 -255 262zM106 256c0 -111 77 -193 181 -193c108 0 188 82 188 193s-80 194 -188 194c-104 0 -181 -83 -181 -194z" />
    <glyph glyph-name="gdotaccent" unicode="&#x121;" horiz-adv-x="637" 
d="M297 586c-26 0 -50 21 -50 50s24 50 50 50s50 -21 50 -50s-24 -50 -50 -50zM32 256c0 152 114 263 255 263c99 0 154 -47 179 -90v75h74v-464c0 -167 -71 -260 -247 -260c-111 0 -195 52 -229 123l63 35c27 -54 85 -89 165 -89c126 0 174 64 174 181v54
c-25 -43 -80 -90 -179 -90c-141 0 -255 110 -255 262zM106 256c0 -111 77 -193 181 -193c108 0 188 82 188 193s-80 194 -188 194c-104 0 -181 -83 -181 -194z" />
    <glyph glyph-name="gcommaaccent" unicode="&#x123;" horiz-adv-x="637" 
d="M252 552l53 145h99l-93 -145h-59zM32 256c0 152 114 263 255 263c99 0 154 -47 179 -90v75h74v-464c0 -167 -71 -260 -247 -260c-111 0 -195 52 -229 123l63 35c27 -54 85 -89 165 -89c126 0 174 64 174 181v54c-25 -43 -80 -90 -179 -90c-141 0 -255 110 -255 262z
M106 256c0 -111 77 -193 181 -193c108 0 188 82 188 193s-80 194 -188 194c-104 0 -181 -83 -181 -194z" />
    <glyph glyph-name="hcircumflex" unicode="&#x125;" horiz-adv-x="561" 
d="M16 721h-89l164 146l164 -146h-89l-75 75zM54 0v697h74v-278c25 54 79 93 155 93c112 0 181 -77 181 -190v-322h-74v306c0 84 -47 137 -125 137c-80 0 -137 -57 -137 -142v-301h-74z" />
    <glyph glyph-name="hbar" unicode="&#x127;" horiz-adv-x="561" 
d="M54 0v573h-57v60h57v64h74v-64h198v-60h-198v-154c25 54 79 93 155 93c112 0 181 -77 181 -190v-322h-74v306c0 84 -46 137 -126 137c-78 0 -136 -57 -136 -142v-301h-74z" />
    <glyph glyph-name="igrave" unicode="&#xec;" horiz-adv-x="227" 
d="M69 552l-93 145h99l53 -145h-59zM55 0v504h74v-504h-74z" />
    <glyph glyph-name="iacute" unicode="&#xed;" horiz-adv-x="227" 
d="M57 552l53 145h99l-93 -145h-59zM55 0v504h74v-504h-74z" />
    <glyph glyph-name="icircumflex" unicode="&#xee;" horiz-adv-x="227" 
d="M42 576h-84l134 146l134 -146h-84l-50 72zM55 0v504h74v-504h-74z" />
    <glyph glyph-name="itilde" unicode="&#x129;" horiz-adv-x="227" 
d="M10 596l-48 4c6 51 33 90 78 90c37 0 73 -39 96 -39c20 0 31 12 37 41l47 -4c-6 -59 -28 -96 -79 -96c-37 0 -72 39 -97 39c-17 0 -30 -10 -34 -35zM55 0v504h74v-504h-74z" />
    <glyph glyph-name="idieresis" unicode="&#xef;" horiz-adv-x="227" 
d="M164 586c-26 0 -50 21 -50 50s24 50 50 50s50 -21 50 -50s-24 -50 -50 -50zM20 586c-26 0 -50 21 -50 50s24 50 50 50s50 -21 50 -50s-24 -50 -50 -50zM55 0v504h74v-504h-74z" />
    <glyph glyph-name="imacron" unicode="&#x12b;" horiz-adv-x="227" 
d="M-27 601v69h238v-69h-238zM55 0v504h74v-504h-74z" />
    <glyph glyph-name="ibreve" unicode="&#x12d;" horiz-adv-x="227" 
d="M92 564c-74 0 -125 51 -128 133h69c2 -39 21 -67 59 -67s57 28 59 67h69c-3 -82 -54 -133 -128 -133zM55 0v504h74v-504h-74z" />
    <glyph glyph-name="iogonek" unicode="&#x12f;" horiz-adv-x="227" 
d="M92 586c-26 0 -50 21 -50 50s24 50 50 50s50 -21 50 -50s-24 -50 -50 -50zM55 -4v508h74v-503c-32 -20 -78 -56 -78 -96c0 -31 24 -45 50 -45c21 0 40 5 58 15l-13 -59c-18 -9 -37 -14 -57 -14c-51 0 -101 33 -101 89c0 45 33 81 67 104v1z" />
    <glyph glyph-name="ij" unicode="&#x133;" horiz-adv-x="402" 
d="M267 586c-26 0 -50 21 -50 50s24 50 50 50s50 -21 50 -50s-24 -50 -50 -50zM92 586c-26 0 -50 21 -50 50s24 50 50 50s50 -21 50 -50s-24 -50 -50 -50zM55 0v69h94c56 0 81 24 81 91v344h74v-346c0 -137 -81 -158 -152 -158h-97zM55 138v366h74v-366h-74z" />
    <glyph glyph-name="dotlessi" unicode="&#x131;" horiz-adv-x="227" 
d="M55 0v504h74v-504h-74z" />
    <glyph glyph-name="jcircumflex" unicode="&#x135;" horiz-adv-x="245" 
d="M-34 576l136 146l136 -146h-89l-47 72l-47 -72h-89zM64 -48v552h74v-554c0 -137 -81 -158 -152 -158h-27v69h24c56 0 81 24 81 91z" />
    <glyph glyph-name="kcommaaccent" unicode="&#x137;" horiz-adv-x="503" 
d="M54 0v697h74v-442l216 249h85l-191 -221l218 -283h-88l-177 230l-63 -73v-157h-74zM187 -48h99l-93 -145h-59z" />
    <glyph glyph-name="lacute.alt" horiz-adv-x="297" 
d="M56 722l53 145h99l-93 -145h-59zM55 127v570h74v-565c0 -55 16 -78 63 -78c12 0 25 1 36 4v-69c-12 -3 -24 -4 -36 -4c-54 0 -137 12 -137 142z" />
    <glyph glyph-name="lcaron.alt" horiz-adv-x="352" 
d="M55 127v570h74v-565c0 -55 16 -78 63 -78c12 0 25 1 36 4v-69c-12 -3 -24 -4 -36 -4c-54 0 -137 12 -137 142zM168 552l53 145h99l-93 -145h-59z" />
    <glyph glyph-name="lcommaaccent.alt" horiz-adv-x="297" 
d="M55 127v570h74v-565c0 -55 16 -78 63 -78c12 0 25 1 36 4v-69c-12 -3 -24 -4 -36 -4c-54 0 -137 12 -137 142zM53 -48h99l-93 -145h-59z" />
    <glyph glyph-name="ldot.alt" horiz-adv-x="352" 
d="M55 127v570h74v-565c0 -55 16 -78 63 -78c12 0 25 1 36 4v-69c-12 -3 -24 -4 -36 -4c-54 0 -137 12 -137 142zM232 318c-26 0 -50 21 -50 50s24 50 50 50s50 -21 50 -50s-24 -50 -50 -50z" />
    <glyph glyph-name="lslash.alt" horiz-adv-x="311" 
d="M69 127v183l-68 -40v77l68 40v310h74v-266l85 51v-77l-85 -51v-222c0 -55 16 -78 63 -78c12 0 25 1 36 4v-69c-12 -3 -24 -4 -36 -4c-54 0 -137 12 -137 142z" />
    <glyph glyph-name="nacute" unicode="&#x144;" horiz-adv-x="569" 
d="M254 552l53 145h99l-93 -145h-59zM54 0v504h74v-85c26 54 83 93 162 93c116 0 187 -77 187 -190v-322h-74v306c0 84 -50 137 -132 137c-84 0 -143 -57 -143 -142v-301h-74z" />
    <glyph glyph-name="ncaron" unicode="&#x148;" horiz-adv-x="569" 
d="M285 551l-164 146h89l75 -75l75 75h89zM54 0v504h74v-85c26 54 83 93 162 93c116 0 187 -77 187 -190v-322h-74v306c0 84 -50 137 -132 137c-84 0 -143 -57 -143 -142v-301h-74z" />
    <glyph glyph-name="ntilde" unicode="&#xf1;" horiz-adv-x="569" 
d="M125 598c6 52 39 92 90 92s80 -39 117 -39c25 0 39 12 46 41l49 -4c-7 -60 -34 -98 -92 -98c-53 0 -80 39 -118 39c-20 0 -37 -10 -43 -35zM54 0v504h74v-85c26 54 83 93 162 93c116 0 187 -77 187 -190v-322h-74v306c0 84 -50 137 -132 137c-84 0 -143 -57 -143 -142
v-301h-74z" />
    <glyph glyph-name="ncommaaccent" unicode="&#x146;" horiz-adv-x="569" 
d="M54 0v504h74v-85c26 54 83 93 162 93c116 0 187 -77 187 -190v-322h-74v306c0 84 -50 137 -132 137c-84 0 -143 -57 -143 -142v-301h-74zM223 -48h99l-93 -145h-59z" />
    <glyph glyph-name="ograve" unicode="&#xf2;" horiz-adv-x="643" 
d="M269 552l-93 145h99l53 -145h-59zM32 252c0 154 120 267 268 267s268 -113 268 -267s-120 -267 -268 -267s-268 113 -268 267zM106 252c0 -113 82 -198 194 -198s194 85 194 198s-82 198 -194 198s-194 -85 -194 -198z" />
    <glyph glyph-name="oacute" unicode="&#xf3;" horiz-adv-x="643" 
d="M272 552l53 145h99l-93 -145h-59zM32 252c0 154 120 267 268 267s268 -113 268 -267s-120 -267 -268 -267s-268 113 -268 267zM106 252c0 -113 82 -198 194 -198s194 85 194 198s-82 198 -194 198s-194 -85 -194 -198z" />
    <glyph glyph-name="ocircumflex" unicode="&#xf4;" horiz-adv-x="643" 
d="M136 576l164 146l164 -146h-89l-75 75l-75 -75h-89zM32 252c0 154 120 267 268 267s268 -113 268 -267s-120 -267 -268 -267s-268 113 -268 267zM106 252c0 -113 82 -198 194 -198s194 85 194 198s-82 198 -194 198s-194 -85 -194 -198z" />
    <glyph glyph-name="otilde" unicode="&#xf5;" horiz-adv-x="643" 
d="M148 598c6 52 39 92 90 92s80 -39 117 -39c25 0 39 12 46 41l49 -4c-7 -60 -34 -98 -92 -98c-53 0 -80 39 -118 39c-20 0 -37 -10 -43 -35zM32 252c0 154 120 267 268 267s268 -113 268 -267s-120 -267 -268 -267s-268 113 -268 267zM106 252c0 -113 82 -198 194 -198
s194 85 194 198s-82 198 -194 198s-194 -85 -194 -198z" />
    <glyph glyph-name="odieresis" unicode="&#xf6;" horiz-adv-x="643" 
d="M403 586c-26 0 -50 21 -50 50s24 50 50 50s50 -21 50 -50s-24 -50 -50 -50zM197 586c-26 0 -50 21 -50 50s24 50 50 50s50 -21 50 -50s-24 -50 -50 -50zM32 252c0 154 120 267 268 267s268 -113 268 -267s-120 -267 -268 -267s-268 113 -268 267zM106 252
c0 -113 82 -198 194 -198s194 85 194 198s-82 198 -194 198s-194 -85 -194 -198z" />
    <glyph glyph-name="omacron" unicode="&#x14d;" horiz-adv-x="643" 
d="M155 601v69h294v-69h-294zM32 252c0 154 120 267 268 267s268 -113 268 -267s-120 -267 -268 -267s-268 113 -268 267zM106 252c0 -113 82 -198 194 -198s194 85 194 198s-82 198 -194 198s-194 -85 -194 -198z" />
    <glyph glyph-name="obreve" unicode="&#x14f;" horiz-adv-x="643" 
d="M300 558c-78 0 -145 54 -156 139h69c15 -47 43 -73 87 -73s72 26 87 73h69c-11 -85 -78 -139 -156 -139zM32 252c0 154 120 267 268 267s268 -113 268 -267s-120 -267 -268 -267s-268 113 -268 267zM106 252c0 -113 82 -198 194 -198s194 85 194 198s-82 198 -194 198
s-194 -85 -194 -198z" />
    <glyph glyph-name="ohungarumlaut" unicode="&#x151;" horiz-adv-x="643" 
d="M347 552l63 145h95l-103 -145h-55zM193 552l63 145h95l-103 -145h-55zM32 252c0 154 120 267 268 267s268 -113 268 -267s-120 -267 -268 -267s-268 113 -268 267zM106 252c0 -113 82 -198 194 -198s194 85 194 198s-82 198 -194 198s-194 -85 -194 -198z" />
    <glyph glyph-name="oslash" unicode="&#xf8;" horiz-adv-x="643" 
d="M76 1l40 54c-52 48 -84 117 -84 197c0 154 120 267 268 267c48 0 93 -12 132 -33l37 51l54 -39l-38 -50c51 -48 83 -117 83 -196c0 -154 -120 -267 -268 -267c-47 0 -92 12 -130 32l-41 -56zM159 113l231 316c-26 13 -57 21 -90 21c-112 0 -194 -85 -194 -198
c0 -55 20 -104 53 -139zM212 74c26 -13 56 -20 88 -20c112 0 194 85 194 198c0 54 -19 102 -51 137z" />
    <glyph glyph-name="oslashacute" unicode="&#x1ff;" horiz-adv-x="643" 
d="M280 552l53 145h99l-93 -145h-59zM76 1l40 54c-52 48 -84 117 -84 197c0 154 120 267 268 267c48 0 93 -12 132 -33l37 51l54 -39l-38 -50c51 -48 83 -117 83 -196c0 -154 -120 -267 -268 -267c-47 0 -92 12 -130 32l-41 -56zM159 113l231 316c-26 13 -57 21 -90 21
c-112 0 -194 -85 -194 -198c0 -55 20 -104 53 -139zM212 74c26 -13 56 -20 88 -20c112 0 194 85 194 198c0 54 -19 102 -51 137z" />
    <glyph glyph-name="oe" unicode="&#x153;" horiz-adv-x="1054" 
d="M32 252c0 154 120 267 268 267c100 0 183 -50 228 -131c43 80 121 131 215 131c139 0 252 -113 252 -267c0 0 0 -8 -1 -16h-429c4 -110 75 -177 185 -177c73 0 134 25 173 67l50 -54c-56 -56 -135 -87 -223 -87c-105 0 -183 46 -224 127c-45 -79 -127 -127 -226 -127
c-148 0 -268 113 -268 267zM570 301h346c-18 88 -86 149 -173 149s-155 -61 -173 -149zM106 252c0 -113 82 -198 194 -198s194 85 194 198s-82 198 -194 198s-194 -85 -194 -198z" />
    <glyph glyph-name="racute" unicode="&#x155;" horiz-adv-x="348" 
d="M126 552l53 145h99l-93 -145h-59zM54 0v504h74v-85c25 54 79 93 155 93c11 0 24 -1 31 -2v-80c-12 3 -29 5 -50 5c-78 0 -136 -57 -136 -142v-293h-74z" />
    <glyph glyph-name="rcommaaccent" unicode="&#x157;" horiz-adv-x="348" 
d="M54 -48h99l-93 -145h-59zM54 0v504h74v-85c25 54 79 93 155 93c11 0 24 -1 31 -2v-80c-12 3 -29 5 -50 5c-78 0 -136 -57 -136 -142v-293h-74z" />
    <glyph glyph-name="rcaron" unicode="&#x159;" horiz-adv-x="348" 
d="M175 551l-164 146h89l75 -75l75 75h89zM54 0v504h74v-85c25 54 79 93 155 93c11 0 24 -1 31 -2v-80c-12 3 -29 5 -50 5c-78 0 -136 -57 -136 -142v-293h-74z" />
    <glyph glyph-name="sacute" unicode="&#x15b;" horiz-adv-x="451" 
d="M157 552l53 145h99l-93 -145h-59zM15 109l63 24c12 -38 52 -76 127 -76c93 0 111 48 111 77c0 55 -47 74 -126 105c-80 32 -137 67 -137 147c0 78 63 133 152 133c68 0 117 -30 146 -87l-60 -31c-18 33 -43 50 -85 50c-45 0 -79 -23 -79 -65c0 -45 44 -66 110 -91
c97 -37 153 -80 153 -161c0 -72 -57 -146 -185 -146c-93 0 -169 42 -190 121z" />
    <glyph glyph-name="scircumflex" unicode="&#x15d;" horiz-adv-x="451" 
d="M39 576l164 146l164 -146h-89l-75 75l-75 -75h-89zM15 109l63 24c12 -38 52 -76 127 -76c93 0 111 48 111 77c0 55 -47 74 -126 105c-80 32 -137 67 -137 147c0 78 63 133 152 133c68 0 117 -30 146 -87l-60 -31c-18 33 -43 50 -85 50c-45 0 -79 -23 -79 -65
c0 -45 44 -66 110 -91c97 -37 153 -80 153 -161c0 -72 -57 -146 -185 -146c-93 0 -169 42 -190 121z" />
    <glyph glyph-name="scaron" unicode="&#x161;" horiz-adv-x="451" 
d="M206 551l-164 146h89l75 -75l75 75h89zM15 109l63 24c12 -38 52 -76 127 -76c93 0 111 48 111 77c0 55 -47 74 -126 105c-80 32 -137 67 -137 147c0 78 63 133 152 133c68 0 117 -30 146 -87l-60 -31c-18 33 -43 50 -85 50c-45 0 -79 -23 -79 -65c0 -45 44 -66 110 -91
c97 -37 153 -80 153 -161c0 -72 -57 -146 -185 -146c-93 0 -169 42 -190 121z" />
    <glyph glyph-name="scommaaccent" unicode="&#x219;" horiz-adv-x="451" 
d="M15 109l63 24c12 -38 52 -76 127 -76c93 0 111 48 111 77c0 55 -47 74 -126 105c-80 32 -137 67 -137 147c0 78 63 133 152 133c68 0 117 -30 146 -87l-60 -31c-18 33 -43 50 -85 50c-45 0 -79 -23 -79 -65c0 -45 44 -66 110 -91c97 -37 153 -80 153 -161
c0 -72 -57 -146 -185 -146c-93 0 -169 42 -190 121zM139 -48h99l-93 -145h-59z" />
    <glyph glyph-name="scedilla" unicode="&#x15f;" horiz-adv-x="451" 
d="M15 109l63 24c12 -38 52 -76 127 -76c93 0 111 48 111 77c0 55 -47 74 -126 105c-80 32 -137 67 -137 147c0 78 63 133 152 133c68 0 117 -30 146 -87l-60 -31c-18 33 -43 50 -85 50c-45 0 -79 -23 -79 -65c0 -45 44 -66 110 -91c97 -37 153 -80 153 -161
c0 -69 -52 -138 -167 -145l-19 -35c40 0 72 -27 72 -71c0 -58 -43 -81 -106 -81c-31 0 -63 12 -79 23l20 39c19 -11 33 -17 58 -17c26 0 47 14 47 36c0 34 -29 41 -79 41l31 67c-76 9 -135 50 -153 118z" />
    <glyph glyph-name="germandbls" unicode="&#xdf;" horiz-adv-x="587" 
d="M53 0v540c0 96 75 172 172 172c95 0 171 -76 171 -171c0 -44 -13 -78 -45 -110c73 -14 166 -84 166 -213c0 -131 -101 -233 -242 -233c-17 0 -34 2 -51 5v76c16 -6 34 -9 51 -9c90 0 164 72 164 161c0 88 -74 159 -164 159c-18 0 -35 -3 -51 -9v70c59 11 94 45 94 102
c0 55 -42 100 -93 100c-53 0 -94 -44 -94 -100v-540h-78z" />
    <glyph glyph-name="tcaron" unicode="&#x165;" horiz-adv-x="341" 
d="M187 552l53 145h99l-93 -145h-59zM55 173v524h74v-193h117v-69h-117v-259c0 -77 38 -107 102 -107h15v-69h-19c-72 0 -172 18 -172 173z" />
    <glyph glyph-name="tcommaaccent" unicode="&#x163;" horiz-adv-x="314" 
d="M90 -48h99l-93 -145h-59zM55 173v524h74v-193h117v-69h-117v-259c0 -77 38 -107 102 -107h15v-69h-19c-72 0 -172 18 -172 173z" />
    <glyph glyph-name="tbar" unicode="&#x167;" horiz-adv-x="314" 
d="M55 173v524h74v-193h117v-69h-117v-72h117v-69h-117v-118c0 -77 38 -107 102 -107h15v-69h-19c-72 0 -172 18 -172 173z" />
    <glyph glyph-name="ugrave" unicode="&#xf9;" horiz-adv-x="562" 
d="M234 552l-93 145h99l53 -145h-59zM48 195v309h74v-302c0 -96 54 -145 137 -145c84 0 138 49 138 146v301h74v-302c0 -141 -92 -214 -215 -214c-119 0 -208 70 -208 207z" />
    <glyph glyph-name="uacute" unicode="&#xfa;" horiz-adv-x="562" 
d="M225 552l53 145h99l-93 -145h-59zM48 195v309h74v-302c0 -96 54 -145 137 -145c84 0 138 49 138 146v301h74v-302c0 -141 -92 -214 -215 -214c-119 0 -208 70 -208 207z" />
    <glyph glyph-name="ucircumflex" unicode="&#xfb;" horiz-adv-x="562" 
d="M96 576l164 146l164 -146h-89l-75 75l-75 -75h-89zM48 195v309h74v-302c0 -96 54 -145 137 -145c84 0 138 49 138 146v301h74v-302c0 -141 -92 -214 -215 -214c-119 0 -208 70 -208 207z" />
    <glyph glyph-name="utilde" unicode="&#x169;" horiz-adv-x="562" 
d="M109 598c6 52 39 92 90 92s80 -39 117 -39c25 0 39 12 46 41l49 -4c-7 -60 -34 -98 -92 -98c-53 0 -80 39 -118 39c-20 0 -37 -10 -43 -35zM48 195v309h74v-302c0 -96 54 -145 137 -145c84 0 138 49 138 146v301h74v-302c0 -141 -92 -214 -215 -214
c-119 0 -208 70 -208 207z" />
    <glyph glyph-name="udieresis" unicode="&#xfc;" horiz-adv-x="562" 
d="M363 586c-26 0 -50 21 -50 50s24 50 50 50s50 -21 50 -50s-24 -50 -50 -50zM157 586c-26 0 -50 21 -50 50s24 50 50 50s50 -21 50 -50s-24 -50 -50 -50zM48 195v309h74v-302c0 -96 54 -145 137 -145c84 0 138 49 138 146v301h74v-302c0 -141 -92 -214 -215 -214
c-119 0 -208 70 -208 207z" />
    <glyph glyph-name="umacron" unicode="&#x16b;" horiz-adv-x="562" 
d="M113 601v69h294v-69h-294zM48 195v309h74v-302c0 -96 54 -145 137 -145c84 0 138 49 138 146v301h74v-302c0 -141 -92 -214 -215 -214c-119 0 -208 70 -208 207z" />
    <glyph glyph-name="ubreve" unicode="&#x16d;" horiz-adv-x="562" 
d="M260 558c-78 0 -145 54 -156 139h69c15 -47 43 -73 87 -73s72 26 87 73h69c-11 -85 -78 -139 -156 -139zM48 195v309h74v-302c0 -96 54 -145 137 -145c84 0 138 49 138 146v301h74v-302c0 -141 -92 -214 -215 -214c-119 0 -208 70 -208 207z" />
    <glyph glyph-name="uring" unicode="&#x16f;" horiz-adv-x="562" 
d="M260 517c-54 0 -98 44 -98 98c0 53 44 97 98 97c53 0 97 -44 97 -97c0 -54 -43 -98 -97 -98zM260 568c25 0 46 22 46 47s-21 46 -46 46s-47 -21 -47 -46s22 -47 47 -47zM48 195v309h74v-302c0 -96 54 -145 137 -145c84 0 138 49 138 146v301h74v-302
c0 -141 -92 -214 -215 -214c-119 0 -208 70 -208 207z" />
    <glyph glyph-name="uhungarumlaut" unicode="&#x171;" horiz-adv-x="562" 
d="M304 552l63 145h95l-103 -145h-55zM150 552l63 145h95l-103 -145h-55zM48 195v309h74v-302c0 -96 54 -145 137 -145c84 0 138 49 138 146v301h74v-302c0 -141 -92 -214 -215 -214c-119 0 -208 70 -208 207z" />
    <glyph glyph-name="uogonek" unicode="&#x173;" horiz-adv-x="562" 
d="M48 195v309h74v-302c0 -96 54 -145 137 -145c84 0 138 49 138 146v301h74v-302c0 -94 -42 -154 -115 -202c-30 -20 -76 -54 -76 -95c0 -31 24 -45 50 -45c21 0 40 5 58 15l-13 -59c-18 -9 -37 -14 -57 -14c-51 0 -101 33 -101 89c0 42 28 75 59 98c-12 -1 -18 -1 -20 -1
c-119 0 -208 70 -208 207z" />
    <glyph glyph-name="wgrave" unicode="&#x1e81;" horiz-adv-x="784" 
d="M370 552l-93 145h99l53 -145h-59zM219 -35l-207 539h71l136 -356l151 391l151 -391l136 356h71l-207 -539l-151 391z" />
    <glyph glyph-name="wacute" unicode="&#x1e83;" horiz-adv-x="784" 
d="M332 552l53 145h99l-93 -145h-59zM219 -35l-207 539h71l136 -356l151 391l151 -391l136 356h71l-207 -539l-151 391z" />
    <glyph glyph-name="wcircumflex" unicode="&#x175;" horiz-adv-x="784" 
d="M204 576l164 146l164 -146h-89l-75 75l-75 -75h-89zM219 -35l-207 539h71l136 -356l151 391l151 -391l136 356h71l-207 -539l-151 391z" />
    <glyph glyph-name="wdieresis" unicode="&#x1e85;" horiz-adv-x="784" 
d="M473 586c-26 0 -50 21 -50 50s24 50 50 50s50 -21 50 -50s-24 -50 -50 -50zM267 586c-26 0 -50 21 -50 50s24 50 50 50s50 -21 50 -50s-24 -50 -50 -50zM219 -35l-207 539h71l136 -356l151 391l151 -391l136 356h71l-207 -539l-151 391z" />
    <glyph glyph-name="ygrave" unicode="&#x1ef3;" horiz-adv-x="539" 
d="M239 552l-93 145h99l53 -145h-59zM61 -209v65h47s33 3 48 14c14 11 25 29 38 62l22 57l-204 515h74l166 -425l160 425h74l-228 -590c-12 -31 -27 -61 -49 -85c-26 -27 -60 -38 -98 -38h-50z" />
    <glyph glyph-name="yacute" unicode="&#xfd;" horiz-adv-x="539" 
d="M220 552l53 145h99l-93 -145h-59zM61 -209v65h47s33 3 48 14c14 11 25 29 38 62l22 57l-204 515h74l166 -425l160 425h74l-228 -590c-12 -31 -27 -61 -49 -85c-26 -27 -60 -38 -98 -38h-50z" />
    <glyph glyph-name="ycircumflex" unicode="&#x177;" horiz-adv-x="539" 
d="M91 576l164 146l164 -146h-89l-75 75l-75 -75h-89zM61 -209v65h47s33 3 48 14c14 11 25 29 38 62l22 57l-204 515h74l166 -425l160 425h74l-228 -590c-12 -31 -27 -61 -49 -85c-26 -27 -60 -38 -98 -38h-50z" />
    <glyph glyph-name="ydieresis" unicode="&#xff;" horiz-adv-x="539" 
d="M358 586c-26 0 -50 21 -50 50s24 50 50 50s50 -21 50 -50s-24 -50 -50 -50zM152 586c-26 0 -50 21 -50 50s24 50 50 50s50 -21 50 -50s-24 -50 -50 -50zM61 -209v65h47s33 3 48 14c14 11 25 29 38 62l22 57l-204 515h74l166 -425l160 425h74l-228 -590
c-12 -31 -27 -61 -49 -85c-26 -27 -60 -38 -98 -38h-50z" />
    <glyph glyph-name="zacute" unicode="&#x17a;" horiz-adv-x="538" 
d="M207 552l53 145h99l-93 -145h-59zM-7 0l336 435h-282v69h420l-337 -435h323v-69h-460z" />
    <glyph glyph-name="zcaron" unicode="&#x17e;" horiz-adv-x="538" 
d="M248 551l-164 146h89l75 -75l75 75h89zM-7 0l336 435h-282v69h420l-337 -435h323v-69h-460z" />
    <glyph glyph-name="zdotaccent" unicode="&#x17c;" horiz-adv-x="538" 
d="M261 586c-26 0 -50 21 -50 50s24 50 50 50s50 -21 50 -50s-24 -50 -50 -50zM-7 0l336 435h-282v69h420l-337 -435h323v-69h-460z" />
    <glyph glyph-name="eng" unicode="&#x14b;" horiz-adv-x="556" 
d="M54 0v504h74v-85c25 54 79 93 155 93c112 0 181 -77 181 -190v-372c0 -137 -81 -158 -152 -158h-27v69h24c56 0 81 24 81 91v354c0 84 -46 137 -126 137c-78 0 -136 -57 -136 -142v-301h-74z" />
    <glyph glyph-name="eth" unicode="&#xf0;" horiz-adv-x="573" 
d="M32 217c0 134 106 232 223 232c64 0 125 -27 156 -70c-23 71 -83 140 -131 177l-78 -74l-48 51l67 64c-38 22 -77 38 -119 46l14 70c50 -9 106 -31 160 -64l85 80l48 -51l-75 -71c74 -62 134 -149 155 -262c8 -47 9 -79 9 -101c0 -153 -83 -259 -233 -259
c-129 0 -233 98 -233 232zM110 217c0 -91 66 -160 155 -160s155 69 155 160s-66 160 -155 160s-155 -69 -155 -160z" />
    <glyph glyph-name="thorn" unicode="&#xfe;" horiz-adv-x="637" 
d="M54 -193v890h74v-268c25 43 80 90 179 90c141 0 255 -113 255 -267s-114 -267 -255 -267c-99 0 -154 47 -179 90v-268h-74zM119 252c0 -113 80 -198 188 -198c104 0 181 85 181 198s-77 198 -181 198c-108 0 -188 -85 -188 -198z" />
    <glyph glyph-name="C.alt" horiz-adv-x="738" 
d="M44 348c0 209 162 362 363 362c87 0 165 -28 219 -74v-90c-55 57 -132 92 -219 92c-164 0 -285 -124 -285 -290s121 -290 285 -290c87 0 164 34 219 92v-90c-54 -46 -132 -74 -219 -74c-201 0 -363 153 -363 362z" />
    <glyph glyph-name="G.alt" horiz-adv-x="777" 
d="M44 348c0 209 162 362 363 362c82 0 155 -25 209 -66v-88c-54 51 -127 82 -209 82c-164 0 -285 -124 -285 -290s121 -290 285 -290c75 0 141 26 191 71v179h-213v72h291v-279c-66 -72 -162 -115 -269 -115c-201 0 -363 153 -363 362z" />
    <glyph glyph-name="K.alt" horiz-adv-x="651" 
d="M89 0v697h78v-322l308 322h98l-325 -337l335 -360h-101l-315 338v-338h-78z" />
    <glyph glyph-name="M.alt" horiz-adv-x="875" 
d="M24 0l114 727l278 -588l278 588l114 -727h-79l-70 470l-243 -494l-242 494l-71 -470h-79z" />
    <glyph glyph-name="Q.alt" horiz-adv-x="857" 
d="M44 348c0 209 162 362 363 362s363 -153 363 -362c0 -106 -41 -197 -108 -261l72 -87h-93l-35 43c-57 -36 -126 -57 -199 -57c-201 0 -363 153 -363 362zM121 348c0 -166 122 -290 286 -290c57 0 109 15 152 41l-167 201h92l130 -156c49 52 78 123 78 204
c0 166 -121 290 -285 290s-286 -124 -286 -290z" />
    <glyph glyph-name="S.alt" 
d="M43 69v96c57 -68 133 -107 212 -107c105 0 151 61 151 110c0 85 -50 114 -155 169c-100 52 -179 98 -179 202c0 100 79 171 209 171c51 0 103 -15 141 -48v-88c-43 43 -90 64 -142 64c-82 0 -130 -40 -130 -99c0 -63 52 -92 135 -135c115 -59 199 -114 199 -236
c0 -92 -83 -182 -223 -182c-91 0 -165 32 -218 83z" />
    <glyph glyph-name="W.alt" horiz-adv-x="983" 
d="M316 -25l-292 722h82l210 -524l111 273l-103 251h82l64 -164l65 164h82l-103 -251l111 -273l210 524h82l-292 -722l-155 385z" />
    <glyph glyph-name="Cacute.alt" horiz-adv-x="738" 
d="M373 745l53 145h99l-93 -145h-59zM44 348c0 209 162 362 363 362c87 0 165 -28 219 -74v-90c-55 57 -132 92 -219 92c-164 0 -285 -124 -285 -290s121 -290 285 -290c87 0 164 34 219 92v-90c-54 -46 -132 -74 -219 -74c-201 0 -363 153 -363 362z" />
    <glyph glyph-name="Ccircumflex.alt" horiz-adv-x="738" 
d="M245 769l164 146l164 -146h-89l-75 75l-75 -75h-89zM44 348c0 209 162 362 363 362c87 0 165 -28 219 -74v-90c-55 57 -132 92 -219 92c-164 0 -285 -124 -285 -290s121 -290 285 -290c87 0 164 34 219 92v-90c-54 -46 -132 -74 -219 -74c-201 0 -363 153 -363 362z" />
    <glyph glyph-name="Ccaron.alt" horiz-adv-x="738" 
d="M408 744l-164 146h89l75 -75l75 75h89zM44 348c0 209 162 362 363 362c87 0 165 -28 219 -74v-90c-55 57 -132 92 -219 92c-164 0 -285 -124 -285 -290s121 -290 285 -290c87 0 164 34 219 92v-90c-54 -46 -132 -74 -219 -74c-201 0 -363 153 -363 362z" />
    <glyph glyph-name="Cdotaccent.alt" horiz-adv-x="738" 
d="M402 763c-26 0 -50 21 -50 50s24 50 50 50s50 -21 50 -50s-24 -50 -50 -50zM44 348c0 209 162 362 363 362c87 0 165 -28 219 -74v-90c-55 57 -132 92 -219 92c-164 0 -285 -124 -285 -290s121 -290 285 -290c87 0 164 34 219 92v-90c-54 -46 -132 -74 -219 -74
c-201 0 -363 153 -363 362z" />
    <glyph glyph-name="Ccedilla.alt" horiz-adv-x="738" 
d="M44 348c0 209 162 362 363 362c87 0 165 -28 219 -74v-90c-55 57 -132 92 -219 92c-164 0 -285 -124 -285 -290s121 -290 285 -290c87 0 164 34 219 92v-90c-54 -46 -132 -74 -219 -74c-9 0 -17 0 -26 1l-15 -33c36 0 66 -27 66 -71c0 -58 -41 -81 -103 -81
c-29 0 -60 12 -74 23l19 39c18 -11 31 -17 54 -17c25 0 44 14 44 36c0 34 -27 41 -73 41l29 70c-163 34 -284 173 -284 354z" />
    <glyph glyph-name="Gcircumflex.alt" horiz-adv-x="777" 
d="M246 769l164 146l164 -146h-89l-75 75l-75 -75h-89zM44 348c0 209 162 362 363 362c82 0 155 -25 209 -66v-88c-54 51 -127 82 -209 82c-164 0 -285 -124 -285 -290s121 -290 285 -290c75 0 141 26 191 71v179h-213v72h291v-279c-66 -72 -162 -115 -269 -115
c-201 0 -363 153 -363 362z" />
    <glyph glyph-name="Gbreve.alt" horiz-adv-x="777" 
d="M404 751c-78 0 -145 54 -156 139h69c15 -47 43 -73 87 -73s72 26 87 73h69c-11 -85 -78 -139 -156 -139zM44 348c0 209 162 362 363 362c82 0 155 -25 209 -66v-88c-54 51 -127 82 -209 82c-164 0 -285 -124 -285 -290s121 -290 285 -290c75 0 141 26 191 71v179h-213v72
h291v-279c-66 -72 -162 -115 -269 -115c-201 0 -363 153 -363 362z" />
    <glyph glyph-name="Gdotaccent.alt" horiz-adv-x="777" 
d="M408 763c-26 0 -50 21 -50 50s24 50 50 50s50 -21 50 -50s-24 -50 -50 -50zM44 348c0 209 162 362 363 362c82 0 155 -25 209 -66v-88c-54 51 -127 82 -209 82c-164 0 -285 -124 -285 -290s121 -290 285 -290c75 0 141 26 191 71v179h-213v72h291v-279
c-66 -72 -162 -115 -269 -115c-201 0 -363 153 -363 362z" />
    <glyph glyph-name="Gcommaaccent.alt" horiz-adv-x="777" 
d="M44 348c0 209 162 362 363 362c82 0 155 -25 209 -66v-88c-54 51 -127 82 -209 82c-164 0 -285 -124 -285 -290s121 -290 285 -290c75 0 141 26 191 71v179h-213v72h291v-279c-66 -72 -162 -115 -269 -115c-201 0 -363 153 -363 362zM306 -193l53 145h99l-93 -145h-59z
" />
    <glyph glyph-name="Kcommaaccent.alt" horiz-adv-x="636" 
d="M89 0v697h78v-322l308 322h98l-325 -337l335 -360h-101l-315 338v-338h-78zM270 -48h99l-93 -145h-59z" />
    <glyph glyph-name="Sacute.alt" 
d="M236 745l53 145h99l-93 -145h-59zM43 69v96c57 -68 133 -107 212 -107c105 0 151 61 151 110c0 85 -50 114 -155 169c-100 52 -179 98 -179 202c0 100 79 171 209 171c51 0 103 -15 141 -48v-88c-43 43 -90 64 -142 64c-82 0 -130 -40 -130 -99c0 -63 52 -92 135 -135
c115 -59 199 -114 199 -236c0 -92 -83 -182 -223 -182c-91 0 -165 32 -218 83z" />
    <glyph glyph-name="Scircumflex.alt" 
d="M112 769l164 146l164 -146h-89l-75 75l-75 -75h-89zM43 69v96c57 -68 133 -107 212 -107c105 0 151 61 151 110c0 85 -50 114 -155 169c-100 52 -179 98 -179 202c0 100 79 171 209 171c51 0 103 -15 141 -48v-88c-43 43 -90 64 -142 64c-82 0 -130 -40 -130 -99
c0 -63 52 -92 135 -135c115 -59 199 -114 199 -236c0 -92 -83 -182 -223 -182c-91 0 -165 32 -218 83z" />
    <glyph glyph-name="Scaron.alt" 
d="M285 744l-164 146h89l75 -75l75 75h89zM43 69v96c57 -68 133 -107 212 -107c105 0 151 61 151 110c0 85 -50 114 -155 169c-100 52 -179 98 -179 202c0 100 79 171 209 171c51 0 103 -15 141 -48v-88c-43 43 -90 64 -142 64c-82 0 -130 -40 -130 -99
c0 -63 52 -92 135 -135c115 -59 199 -114 199 -236c0 -92 -83 -182 -223 -182c-91 0 -165 32 -218 83z" />
    <glyph glyph-name="Scommaaccent.alt" 
d="M43 69v96c57 -68 133 -107 212 -107c105 0 151 61 151 110c0 85 -50 114 -155 169c-100 52 -179 98 -179 202c0 100 79 171 209 171c51 0 103 -15 141 -48v-88c-43 43 -90 64 -142 64c-82 0 -130 -40 -130 -99c0 -63 52 -92 135 -135c115 -59 199 -114 199 -236
c0 -92 -83 -182 -223 -182c-91 0 -165 32 -218 83zM221 -48h99l-93 -145h-59z" />
    <glyph glyph-name="Scedilla.alt" 
d="M43 69v96c57 -68 133 -107 212 -107c105 0 151 61 151 110c0 85 -50 114 -155 169c-100 52 -179 98 -179 202c0 100 79 171 209 171c51 0 103 -15 141 -48v-88c-43 43 -90 64 -142 64c-82 0 -130 -40 -130 -99c0 -63 52 -92 135 -135c115 -59 199 -114 199 -236
c0 -87 -74 -171 -199 -181l-16 -35c36 0 66 -27 66 -71c0 -58 -41 -81 -103 -81c-29 0 -60 12 -74 23l19 39c18 -11 31 -17 54 -17c25 0 44 14 44 36c0 34 -27 41 -73 41l27 66c-77 6 -140 36 -186 81z" />
    <glyph glyph-name="Wgrave.alt" horiz-adv-x="983" 
d="M443 745l-93 145h99l53 -145h-59zM316 -25l-292 722h82l210 -524l111 273l-103 251h82l64 -164l65 164h82l-103 -251l111 -273l210 524h82l-292 -722l-155 385z" />
    <glyph glyph-name="Wacute.alt" horiz-adv-x="983" 
d="M439 745l53 145h99l-93 -145h-59zM316 -25l-292 722h82l210 -524l111 273l-103 251h82l64 -164l65 164h82l-103 -251l111 -273l210 524h82l-292 -722l-155 385z" />
    <glyph glyph-name="Wcircumflex.alt" horiz-adv-x="983" 
d="M306 769l164 146l164 -146h-89l-75 75l-75 -75h-89zM316 -25l-292 722h82l210 -524l111 273l-103 251h82l64 -164l65 164h82l-103 -251l111 -273l210 524h82l-292 -722l-155 385z" />
    <glyph glyph-name="Wdieresis.alt" horiz-adv-x="983" 
d="M580 744c-26 0 -50 21 -50 50s24 50 50 50s50 -21 50 -50s-24 -50 -50 -50zM357 744c-26 0 -50 21 -50 50s24 50 50 50s50 -21 50 -50s-24 -50 -50 -50zM316 -25l-292 722h82l210 -524l111 273l-103 251h82l64 -164l65 164h82l-103 -251l111 -273l210 524h82l-292 -722
l-155 385z" />
    <glyph glyph-name="a" unicode="a" horiz-adv-x="636" 
d="M32 252c0 154 114 267 255 267c99 0 154 -47 179 -90v75h74v-504h-74v75c-25 -43 -80 -90 -179 -90c-141 0 -255 113 -255 267zM106 252c0 -113 77 -198 181 -198c108 0 188 85 188 198s-80 198 -188 198c-104 0 -181 -85 -181 -198z" />
    <glyph glyph-name="c.alt" horiz-adv-x="544" 
d="M32 252c0 154 120 267 268 267c68 0 129 -23 169 -57v-85c-46 47 -105 73 -169 73c-112 0 -194 -85 -194 -198s82 -198 194 -198c64 0 123 25 169 73v-85c-40 -35 -101 -57 -169 -57c-148 0 -268 113 -268 267z" />
    <glyph glyph-name="e.alt" horiz-adv-x="591" 
d="M32 245v5c0 162 108 267 252 267c140 0 232 -111 232 -249c0 0 0 -17 -1 -32h-409c4 -112 73 -184 181 -184c100 0 159 41 185 72v-84c-47 -36 -98 -57 -185 -57c-152 0 -255 103 -255 262zM111 301h326c0 80 -68 147 -153 147c-92 0 -168 -66 -173 -147z" />
    <glyph glyph-name="g.alt" horiz-adv-x="637" 
d="M70 -74c47 -56 134 -77 213 -77c52 0 98 12 129 37c48 38 54 101 54 156v42c-25 -43 -80 -90 -179 -90c-141 0 -255 110 -255 262s114 263 255 263c99 0 154 -47 179 -90v75h74v-420c0 -109 -5 -192 -82 -251c-44 -34 -107 -53 -175 -53c-77 0 -162 18 -213 62v84z
M106 256c0 -111 77 -193 181 -193c108 0 188 82 188 193s-80 194 -188 194c-104 0 -181 -83 -181 -194z" />
    <glyph glyph-name="j.alt" horiz-adv-x="225" 
d="M91 586c-26 0 -50 21 -50 50s24 50 50 50s50 -21 50 -50s-24 -50 -50 -50zM54 -193v697h74v-697h-74z" />
    <glyph glyph-name="k.alt" horiz-adv-x="486" 
d="M54 0v697h74v-414l201 221h87l-215 -237l238 -267h-93l-218 245v-245h-74z" />
    <glyph glyph-name="l" unicode="l" horiz-adv-x="227" 
d="M55 0v697h74v-697h-74z" />
    <glyph glyph-name="r.alt" horiz-adv-x="381" 
d="M54 0v363c0 130 88 156 174 156c22 0 45 -2 67 -7v-70c-21 6 -46 8 -68 8c-51 0 -99 -7 -99 -98v-352h-74z" />
    <glyph glyph-name="s.alt" horiz-adv-x="437" 
d="M26 49v86c47 -53 104 -78 174 -78c68 0 102 31 102 70c0 56 -42 76 -114 112c-82 41 -137 72 -137 150s60 130 156 130c51 0 91 -14 115 -32v-76c-29 23 -67 39 -108 39c-59 0 -89 -21 -89 -61c0 -36 24 -51 61 -71c95 -52 190 -82 190 -191c0 -48 -39 -139 -176 -139
c-71 0 -130 20 -174 61z" />
    <glyph glyph-name="t.alt" horiz-adv-x="345" 
d="M91 0v435h-64v69h64v193h74v-193h112v-69h-112v-435h-74z" />
    <glyph glyph-name="u.alt" horiz-adv-x="549" 
d="M48 182v322h74v-306c0 -84 47 -137 125 -137c80 0 137 57 137 142v301h74v-504h-74v85c-25 -54 -79 -93 -155 -93c-112 0 -181 77 -181 190z" />
    <glyph glyph-name="w.alt" horiz-adv-x="783" 
d="M244 -35l-232 539h73l159 -370l84 174l-92 196h76l58 -127l59 127h76l-92 -196l84 -174l159 370h73l-232 -539l-127 272z" />
    <glyph glyph-name="y.alt" horiz-adv-x="557" 
d="M213 -3l-201 507h75l165 -418l174 418h76l-296 -697h-74z" />
    <glyph glyph-name="agrave" unicode="&#xe0;" horiz-adv-x="636" 
d="M263 552l-93 145h99l53 -145h-59zM32 252c0 154 114 267 255 267c99 0 154 -47 179 -90v75h74v-504h-74v75c-25 -43 -80 -90 -179 -90c-141 0 -255 113 -255 267zM106 252c0 -113 77 -198 181 -198c108 0 188 85 188 198s-80 198 -188 198c-104 0 -181 -85 -181 -198z
" />
    <glyph glyph-name="aacute" unicode="&#xe1;" horiz-adv-x="636" 
d="M258 552l53 145h99l-93 -145h-59zM32 252c0 154 114 267 255 267c99 0 154 -47 179 -90v75h74v-504h-74v75c-25 -43 -80 -90 -179 -90c-141 0 -255 113 -255 267zM106 252c0 -113 77 -198 181 -198c108 0 188 85 188 198s-80 198 -188 198c-104 0 -181 -85 -181 -198z
" />
    <glyph glyph-name="acircumflex" unicode="&#xe2;" horiz-adv-x="636" 
d="M140 576l164 146l164 -146h-89l-75 75l-75 -75h-89zM32 252c0 154 114 267 255 267c99 0 154 -47 179 -90v75h74v-504h-74v75c-25 -43 -80 -90 -179 -90c-141 0 -255 113 -255 267zM106 252c0 -113 77 -198 181 -198c108 0 188 85 188 198s-80 198 -188 198
c-104 0 -181 -85 -181 -198z" />
    <glyph glyph-name="atilde" unicode="&#xe3;" horiz-adv-x="636" 
d="M150 598c6 52 39 92 90 92s80 -39 117 -39c25 0 39 12 46 41l49 -4c-7 -60 -34 -98 -92 -98c-53 0 -80 39 -118 39c-20 0 -37 -10 -43 -35zM32 252c0 154 114 267 255 267c99 0 154 -47 179 -90v75h74v-504h-74v75c-25 -43 -80 -90 -179 -90c-141 0 -255 113 -255 267z
M106 252c0 -113 77 -198 181 -198c108 0 188 85 188 198s-80 198 -188 198c-104 0 -181 -85 -181 -198z" />
    <glyph glyph-name="adieresis" unicode="&#xe4;" horiz-adv-x="636" 
d="M402 586c-26 0 -50 21 -50 50s24 50 50 50s50 -21 50 -50s-24 -50 -50 -50zM196 586c-26 0 -50 21 -50 50s24 50 50 50s50 -21 50 -50s-24 -50 -50 -50zM32 252c0 154 114 267 255 267c99 0 154 -47 179 -90v75h74v-504h-74v75c-25 -43 -80 -90 -179 -90
c-141 0 -255 113 -255 267zM106 252c0 -113 77 -198 181 -198c108 0 188 85 188 198s-80 198 -188 198c-104 0 -181 -85 -181 -198z" />
    <glyph glyph-name="amacron" unicode="&#x101;" horiz-adv-x="636" 
d="M157 601v69h294v-69h-294zM32 252c0 154 114 267 255 267c99 0 154 -47 179 -90v75h74v-504h-74v75c-25 -43 -80 -90 -179 -90c-141 0 -255 113 -255 267zM106 252c0 -113 77 -198 181 -198c108 0 188 85 188 198s-80 198 -188 198c-104 0 -181 -85 -181 -198z" />
    <glyph glyph-name="abreve" unicode="&#x103;" horiz-adv-x="636" 
d="M288 558c-78 0 -145 54 -156 139h69c15 -47 43 -73 87 -73s72 26 87 73h69c-11 -85 -78 -139 -156 -139zM32 252c0 154 114 267 255 267c99 0 154 -47 179 -90v75h74v-504h-74v75c-25 -43 -80 -90 -179 -90c-141 0 -255 113 -255 267zM106 252c0 -113 77 -198 181 -198
c108 0 188 85 188 198s-80 198 -188 198c-104 0 -181 -85 -181 -198z" />
    <glyph glyph-name="aring" unicode="&#xe5;" horiz-adv-x="636" 
d="M302 556c-54 0 -98 44 -98 98c0 53 44 97 98 97c53 0 97 -44 97 -97c0 -54 -43 -98 -97 -98zM302 607c25 0 46 22 46 47s-21 46 -46 46s-47 -21 -47 -46s22 -47 47 -47zM32 252c0 154 114 267 255 267c99 0 154 -47 179 -90v75h74v-504h-74v75c-25 -43 -80 -90 -179 -90
c-141 0 -255 113 -255 267zM106 252c0 -113 77 -198 181 -198c108 0 188 85 188 198s-80 198 -188 198c-104 0 -181 -85 -181 -198z" />
    <glyph glyph-name="aringacute" unicode="&#x1fb;" horiz-adv-x="636" 
d="M265 788l53 145h99l-93 -145h-59zM297 556c-54 0 -98 44 -98 98c0 53 44 97 98 97c53 0 97 -44 97 -97c0 -54 -43 -98 -97 -98zM297 607c25 0 46 22 46 47s-21 46 -46 46s-47 -21 -47 -46s22 -47 47 -47zM32 252c0 154 114 267 255 267c99 0 154 -47 179 -90v75h74v-504
h-74v75c-25 -43 -80 -90 -179 -90c-141 0 -255 113 -255 267zM106 252c0 -113 77 -198 181 -198c108 0 188 85 188 198s-80 198 -188 198c-104 0 -181 -85 -181 -198z" />
    <glyph glyph-name="aogonek" unicode="&#x105;" horiz-adv-x="636" 
d="M32 252c0 154 114 267 255 267c99 0 154 -47 179 -90v75h74v-500c-30 -19 -82 -56 -82 -99c0 -31 24 -45 50 -45c21 0 40 5 58 15l-13 -59c-18 -9 -37 -14 -57 -14c-51 0 -101 33 -101 89c0 47 35 83 71 106v78c-25 -43 -80 -90 -179 -90c-141 0 -255 113 -255 267z
M106 252c0 -113 77 -198 181 -198c108 0 188 85 188 198s-80 198 -188 198c-104 0 -181 -85 -181 -198z" />
    <glyph glyph-name="cacute.alt" horiz-adv-x="544" 
d="M269 552l53 145h99l-93 -145h-59zM32 252c0 154 120 267 268 267c68 0 129 -23 169 -57v-85c-46 47 -105 73 -169 73c-112 0 -194 -85 -194 -198s82 -198 194 -198c64 0 123 25 169 73v-85c-40 -35 -101 -57 -169 -57c-148 0 -268 113 -268 267z" />
    <glyph glyph-name="ccircumflex.alt" horiz-adv-x="544" 
d="M139 576l164 146l164 -146h-89l-75 75l-75 -75h-89zM32 252c0 154 120 267 268 267c68 0 129 -23 169 -57v-85c-46 47 -105 73 -169 73c-112 0 -194 -85 -194 -198s82 -198 194 -198c64 0 123 25 169 73v-85c-40 -35 -101 -57 -169 -57c-148 0 -268 113 -268 267z" />
    <glyph glyph-name="ccaron.alt" horiz-adv-x="544" 
d="M297 551l-164 146h89l75 -75l75 75h89zM32 252c0 154 120 267 268 267c68 0 129 -23 169 -57v-85c-46 47 -105 73 -169 73c-112 0 -194 -85 -194 -198s82 -198 194 -198c64 0 123 25 169 73v-85c-40 -35 -101 -57 -169 -57c-148 0 -268 113 -268 267z" />
    <glyph glyph-name="cdotaccent.alt" horiz-adv-x="544" 
d="M297 586c-26 0 -50 21 -50 50s24 50 50 50s50 -21 50 -50s-24 -50 -50 -50zM32 252c0 154 120 267 268 267c68 0 129 -23 169 -57v-85c-46 47 -105 73 -169 73c-112 0 -194 -85 -194 -198s82 -198 194 -198c64 0 123 25 169 73v-85c-40 -35 -101 -57 -169 -57
c-148 0 -268 113 -268 267z" />
    <glyph glyph-name="ccedilla.alt" horiz-adv-x="544" 
d="M32 252c0 154 120 267 268 267c68 0 129 -23 169 -57v-85c-46 47 -105 73 -169 73c-112 0 -194 -85 -194 -198s82 -198 194 -198c64 0 123 25 169 73v-85c-40 -35 -101 -57 -169 -57h-9l-14 -31c36 0 66 -27 66 -71c0 -58 -41 -81 -103 -81c-29 0 -60 12 -74 23l19 39
c18 -11 31 -17 54 -17c25 0 44 14 44 36c0 34 -27 41 -73 41l28 68c-118 26 -206 128 -206 260z" />
    <glyph glyph-name="egrave.alt" horiz-adv-x="591" 
d="M265 552l-93 145h99l53 -145h-59zM32 245v5c0 162 108 267 252 267c140 0 232 -111 232 -249c0 0 0 -17 -1 -32h-409c4 -112 73 -184 181 -184c100 0 159 41 185 72v-84c-47 -36 -98 -57 -185 -57c-152 0 -255 103 -255 262zM111 301h326c0 80 -68 147 -153 147
c-92 0 -168 -66 -173 -147z" />
    <glyph glyph-name="eacute.alt" horiz-adv-x="591" 
d="M250 552l53 145h99l-93 -145h-59zM32 245v5c0 162 108 267 252 267c140 0 232 -111 232 -249c0 0 0 -17 -1 -32h-409c4 -112 73 -184 181 -184c100 0 159 41 185 72v-84c-47 -36 -98 -57 -185 -57c-152 0 -255 103 -255 262zM111 301h326c0 80 -68 147 -153 147
c-92 0 -168 -66 -173 -147z" />
    <glyph glyph-name="ecircumflex.alt" horiz-adv-x="591" 
d="M119 576l164 146l164 -146h-89l-75 75l-75 -75h-89zM32 245v5c0 162 108 267 252 267c140 0 232 -111 232 -249c0 0 0 -17 -1 -32h-409c4 -112 73 -184 181 -184c100 0 159 41 185 72v-84c-47 -36 -98 -57 -185 -57c-152 0 -255 103 -255 262zM111 301h326
c0 80 -68 147 -153 147c-92 0 -168 -66 -173 -147z" />
    <glyph glyph-name="ecaron.alt" horiz-adv-x="591" 
d="M285 551l-164 146h89l75 -75l75 75h89zM32 245v5c0 162 108 267 252 267c140 0 232 -111 232 -249c0 0 0 -17 -1 -32h-409c4 -112 73 -184 181 -184c100 0 159 41 185 72v-84c-47 -36 -98 -57 -185 -57c-152 0 -255 103 -255 262zM111 301h326c0 80 -68 147 -153 147
c-92 0 -168 -66 -173 -147z" />
    <glyph glyph-name="edieresis.alt" horiz-adv-x="591" 
d="M387 586c-26 0 -50 21 -50 50s24 50 50 50s50 -21 50 -50s-24 -50 -50 -50zM181 586c-26 0 -50 21 -50 50s24 50 50 50s50 -21 50 -50s-24 -50 -50 -50zM32 245v5c0 162 108 267 252 267c140 0 232 -111 232 -249c0 0 0 -17 -1 -32h-409c4 -112 73 -184 181 -184
c100 0 159 41 185 72v-84c-47 -36 -98 -57 -185 -57c-152 0 -255 103 -255 262zM111 301h326c0 80 -68 147 -153 147c-92 0 -168 -66 -173 -147z" />
    <glyph glyph-name="emacron.alt" horiz-adv-x="591" 
d="M134 601v69h294v-69h-294zM32 245v5c0 162 108 267 252 267c140 0 232 -111 232 -249c0 0 0 -17 -1 -32h-409c4 -112 73 -184 181 -184c100 0 159 41 185 72v-84c-47 -36 -98 -57 -185 -57c-152 0 -255 103 -255 262zM111 301h326c0 80 -68 147 -153 147
c-92 0 -168 -66 -173 -147z" />
    <glyph glyph-name="ebreve.alt" horiz-adv-x="591" 
d="M286 558c-78 0 -145 54 -156 139h69c15 -47 43 -73 87 -73s72 26 87 73h69c-11 -85 -78 -139 -156 -139zM32 245v5c0 162 108 267 252 267c140 0 232 -111 232 -249c0 0 0 -17 -1 -32h-409c4 -112 73 -184 181 -184c100 0 159 41 185 72v-84c-47 -36 -98 -57 -185 -57
c-152 0 -255 103 -255 262zM111 301h326c0 80 -68 147 -153 147c-92 0 -168 -66 -173 -147z" />
    <glyph glyph-name="edotaccent.alt" horiz-adv-x="591" 
d="M284 586c-26 0 -50 21 -50 50s24 50 50 50s50 -21 50 -50s-24 -50 -50 -50zM32 245v5c0 162 108 267 252 267c140 0 232 -111 232 -249c0 0 0 -17 -1 -32h-409c4 -112 73 -184 181 -184c100 0 159 41 185 72v-84c-47 -36 -98 -57 -185 -57c-152 0 -255 103 -255 262z
M111 301h326c0 80 -68 147 -153 147c-92 0 -168 -66 -173 -147z" />
    <glyph glyph-name="eogonek.alt" horiz-adv-x="591" 
d="M32 246v4c0 163 108 269 252 269c140 0 232 -112 232 -251c0 0 0 -17 -1 -32h-409c4 -111 74 -182 180 -182c98 0 158 44 182 78v-81c-4 -5 -20 -16 -33 -24c-26 -16 -115 -55 -115 -118c0 -31 23 -45 47 -45c20 0 38 5 55 15l-13 -59c-17 -9 -36 -14 -54 -14
c-49 0 -98 33 -98 89c0 40 23 71 52 94c-11 -2 -16 -2 -23 -2c-150 0 -254 102 -254 259zM111 301h326c0 81 -68 149 -153 149c-92 0 -168 -67 -173 -149z" />
    <glyph glyph-name="gcircumflex.alt" horiz-adv-x="637" 
d="M133 576l164 146l164 -146h-89l-75 75l-75 -75h-89zM70 -74c47 -56 134 -77 213 -77c52 0 98 12 129 37c48 38 54 101 54 156v42c-25 -43 -80 -90 -179 -90c-141 0 -255 110 -255 262s114 263 255 263c99 0 154 -47 179 -90v75h74v-420c0 -109 -5 -192 -82 -251
c-44 -34 -107 -53 -175 -53c-77 0 -162 18 -213 62v84zM106 256c0 -111 77 -193 181 -193c108 0 188 82 188 193s-80 194 -188 194c-104 0 -181 -83 -181 -194z" />
    <glyph glyph-name="gbreve.alt" horiz-adv-x="637" 
d="M290 558c-78 0 -145 54 -156 139h69c15 -47 43 -73 87 -73s72 26 87 73h69c-11 -85 -78 -139 -156 -139zM70 -74c47 -56 134 -77 213 -77c52 0 98 12 129 37c48 38 54 101 54 156v42c-25 -43 -80 -90 -179 -90c-141 0 -255 110 -255 262s114 263 255 263
c99 0 154 -47 179 -90v75h74v-420c0 -109 -5 -192 -82 -251c-44 -34 -107 -53 -175 -53c-77 0 -162 18 -213 62v84zM106 256c0 -111 77 -193 181 -193c108 0 188 82 188 193s-80 194 -188 194c-104 0 -181 -83 -181 -194z" />
    <glyph glyph-name="gdotaccent.alt" horiz-adv-x="637" 
d="M297 586c-26 0 -50 21 -50 50s24 50 50 50s50 -21 50 -50s-24 -50 -50 -50zM70 -74c47 -56 134 -77 213 -77c52 0 98 12 129 37c48 38 54 101 54 156v42c-25 -43 -80 -90 -179 -90c-141 0 -255 110 -255 262s114 263 255 263c99 0 154 -47 179 -90v75h74v-420
c0 -109 -5 -192 -82 -251c-44 -34 -107 -53 -175 -53c-77 0 -162 18 -213 62v84zM106 256c0 -111 77 -193 181 -193c108 0 188 82 188 193s-80 194 -188 194c-104 0 -181 -83 -181 -194z" />
    <glyph glyph-name="gcommaaccent.alt" horiz-adv-x="637" 
d="M252 552l53 145h99l-93 -145h-59zM70 -74c47 -56 134 -77 213 -77c52 0 98 12 129 37c48 38 54 101 54 156v42c-25 -43 -80 -90 -179 -90c-141 0 -255 110 -255 262s114 263 255 263c99 0 154 -47 179 -90v75h74v-420c0 -109 -5 -192 -82 -251c-44 -34 -107 -53 -175 -53
c-77 0 -162 18 -213 62v84zM106 256c0 -111 77 -193 181 -193c108 0 188 82 188 193s-80 194 -188 194c-104 0 -181 -83 -181 -194z" />
    <glyph glyph-name="jcircumflex.alt" horiz-adv-x="245" 
d="M-34 576l136 146l136 -146h-89l-47 72l-47 -72h-89zM64 -193v697h74v-697h-74z" />
    <glyph glyph-name="kcommaaccent.alt" horiz-adv-x="486" 
d="M54 0v697h74v-414l201 221h87l-215 -237l238 -267h-93l-218 245v-245h-74zM187 -48h99l-93 -145h-59z" />
    <glyph glyph-name="lacute" unicode="&#x13a;" horiz-adv-x="227" 
d="M56 722l53 145h99l-93 -145h-59zM55 0v697h74v-697h-74z" />
    <glyph glyph-name="lcaron" unicode="&#x13e;" horiz-adv-x="341" 
d="M168 552l53 145h99l-93 -145h-59zM55 0v697h74v-697h-74z" />
    <glyph glyph-name="lcommaaccent" unicode="&#x13c;" horiz-adv-x="227" 
d="M55 0v697h74v-697h-74zM53 -48h99l-93 -145h-59z" />
    <glyph glyph-name="ldot" unicode="&#x140;" horiz-adv-x="351" 
d="M55 0v697h74v-697h-74zM218 318c-26 0 -50 21 -50 50s24 50 50 50s50 -21 50 -50s-24 -50 -50 -50z" />
    <glyph glyph-name="lslash" unicode="&#x142;" horiz-adv-x="255" 
d="M69 0v310l-68 -40v77l68 40v310h74v-266l85 51v-77l-85 -51v-354h-74z" />
    <glyph glyph-name="racute.alt" horiz-adv-x="381" 
d="M126 552l53 145h99l-93 -145h-59zM54 0v363c0 130 88 156 174 156c22 0 45 -2 67 -7v-70c-21 6 -46 8 -68 8c-51 0 -99 -7 -99 -98v-352h-74z" />
    <glyph glyph-name="rcommaaccent.alt" horiz-adv-x="381" 
d="M54 0v363c0 130 88 156 174 156c22 0 45 -2 67 -7v-70c-21 6 -46 8 -68 8c-51 0 -99 -7 -99 -98v-352h-74zM54 -48h99l-93 -145h-59z" />
    <glyph glyph-name="rcaron.alt" horiz-adv-x="381" 
d="M175 551l-164 146h89l75 -75l75 75h89zM54 0v363c0 130 88 156 174 156c22 0 45 -2 67 -7v-70c-21 6 -46 8 -68 8c-51 0 -99 -7 -99 -98v-352h-74z" />
    <glyph glyph-name="sacute.alt" horiz-adv-x="437" 
d="M157 552l53 145h99l-93 -145h-59zM26 49v86c47 -53 104 -78 174 -78c68 0 102 31 102 70c0 56 -42 76 -114 112c-82 41 -137 72 -137 150s60 130 156 130c51 0 91 -14 115 -32v-76c-29 23 -67 39 -108 39c-59 0 -89 -21 -89 -61c0 -36 24 -51 61 -71
c95 -52 190 -82 190 -191c0 -48 -39 -139 -176 -139c-71 0 -130 20 -174 61z" />
    <glyph glyph-name="scircumflex.alt" horiz-adv-x="437" 
d="M45 576l164 146l164 -146h-89l-75 75l-75 -75h-89zM26 49v86c47 -53 104 -78 174 -78c68 0 102 31 102 70c0 56 -42 76 -114 112c-82 41 -137 72 -137 150s60 130 156 130c51 0 91 -14 115 -32v-76c-29 23 -67 39 -108 39c-59 0 -89 -21 -89 -61c0 -36 24 -51 61 -71
c95 -52 190 -82 190 -191c0 -48 -39 -139 -176 -139c-71 0 -130 20 -174 61z" />
    <glyph glyph-name="scaron.alt" horiz-adv-x="437" 
d="M211 551l-164 146h89l75 -75l75 75h89zM26 49v86c47 -53 104 -78 174 -78c68 0 102 31 102 70c0 56 -42 76 -114 112c-82 41 -137 72 -137 150s60 130 156 130c51 0 91 -14 115 -32v-76c-29 23 -67 39 -108 39c-59 0 -89 -21 -89 -61c0 -36 24 -51 61 -71
c95 -52 190 -82 190 -191c0 -48 -39 -139 -176 -139c-71 0 -130 20 -174 61z" />
    <glyph glyph-name="scommaaccent.alt" horiz-adv-x="437" 
d="M26 49v86c47 -53 104 -78 174 -78c68 0 102 31 102 70c0 56 -42 76 -114 112c-82 41 -137 72 -137 150s60 130 156 130c51 0 91 -14 115 -32v-76c-29 23 -67 39 -108 39c-59 0 -89 -21 -89 -61c0 -36 24 -51 61 -71c95 -52 190 -82 190 -191c0 -48 -39 -139 -176 -139
c-71 0 -130 20 -174 61zM139 -48h99l-93 -145h-59z" />
    <glyph glyph-name="scedilla.alt" horiz-adv-x="437" 
d="M26 49v86c47 -53 104 -78 174 -78c68 0 102 31 102 70c0 56 -42 76 -114 112c-82 41 -137 72 -137 150s60 130 156 130c51 0 91 -14 115 -32v-76c-29 23 -67 39 -108 39c-59 0 -89 -21 -89 -61c0 -36 24 -51 61 -71c95 -52 190 -82 190 -191c0 -45 -33 -129 -155 -138
l-18 -35c39 0 72 -27 72 -71c0 -58 -45 -81 -109 -81c-30 0 -61 12 -76 23l19 39c19 -11 33 -17 58 -17c27 0 47 14 47 36c0 34 -29 41 -79 41l31 66c-57 6 -102 24 -140 59z" />
    <glyph glyph-name="germandbls.alt" horiz-adv-x="587" 
d="M53 0v540c0 96 75 172 172 172c95 0 171 -76 171 -171c0 -44 -13 -78 -45 -110c73 -14 166 -84 166 -213c0 -131 -101 -233 -242 -233c-17 0 -34 2 -51 5v76c16 -6 34 -9 51 -9c90 0 164 72 164 161c0 88 -74 159 -164 159c-18 0 -35 -3 -51 -9v70c59 11 94 45 94 102
c0 55 -42 100 -93 100c-53 0 -94 -44 -94 -100v-540h-78z" />
    <glyph glyph-name="tcaron.alt" horiz-adv-x="367" 
d="M210 552l52 145h92l-85 -145h-59zM91 0v435h-64v69h64v193h74v-193h112v-69h-112v-435h-74z" />
    <glyph glyph-name="tcommaaccent.alt" horiz-adv-x="345" 
d="M91 0v435h-64v69h64v193h74v-193h112v-69h-112v-435h-74zM91 -48h99l-93 -145h-59z" />
    <glyph glyph-name="tbar.alt" horiz-adv-x="345" 
d="M91 0v294h-64v69h64v72h-64v69h64v193h74v-193h112v-69h-112v-72h112v-69h-112v-294h-74z" />
    <glyph glyph-name="ugrave.alt" horiz-adv-x="549" 
d="M234 552l-93 145h99l53 -145h-59zM48 182v322h74v-306c0 -84 47 -137 125 -137c80 0 137 57 137 142v301h74v-504h-74v85c-25 -54 -79 -93 -155 -93c-112 0 -181 77 -181 190z" />
    <glyph glyph-name="uacute.alt" horiz-adv-x="549" 
d="M225 552l53 145h99l-93 -145h-59zM48 182v322h74v-306c0 -84 47 -137 125 -137c80 0 137 57 137 142v301h74v-504h-74v85c-25 -54 -79 -93 -155 -93c-112 0 -181 77 -181 190z" />
    <glyph glyph-name="ucircumflex.alt" horiz-adv-x="549" 
d="M96 576l164 146l164 -146h-89l-75 75l-75 -75h-89zM48 182v322h74v-306c0 -84 47 -137 125 -137c80 0 137 57 137 142v301h74v-504h-74v85c-25 -54 -79 -93 -155 -93c-112 0 -181 77 -181 190z" />
    <glyph glyph-name="utilde.alt" horiz-adv-x="549" 
d="M109 598c6 52 39 92 90 92s80 -39 117 -39c25 0 39 12 46 41l49 -4c-7 -60 -34 -98 -92 -98c-53 0 -80 39 -118 39c-20 0 -37 -10 -43 -35zM48 182v322h74v-306c0 -84 47 -137 125 -137c80 0 137 57 137 142v301h74v-504h-74v85c-25 -54 -79 -93 -155 -93
c-112 0 -181 77 -181 190z" />
    <glyph glyph-name="udieresis.alt" horiz-adv-x="549" 
d="M363 586c-26 0 -50 21 -50 50s24 50 50 50s50 -21 50 -50s-24 -50 -50 -50zM157 586c-26 0 -50 21 -50 50s24 50 50 50s50 -21 50 -50s-24 -50 -50 -50zM48 182v322h74v-306c0 -84 47 -137 125 -137c80 0 137 57 137 142v301h74v-504h-74v85c-25 -54 -79 -93 -155 -93
c-112 0 -181 77 -181 190z" />
    <glyph glyph-name="umacron.alt" horiz-adv-x="549" 
d="M113 601v69h294v-69h-294zM48 182v322h74v-306c0 -84 47 -137 125 -137c80 0 137 57 137 142v301h74v-504h-74v85c-25 -54 -79 -93 -155 -93c-112 0 -181 77 -181 190z" />
    <glyph glyph-name="ubreve.alt" horiz-adv-x="549" 
d="M260 558c-78 0 -145 54 -156 139h69c15 -47 43 -73 87 -73s72 26 87 73h69c-11 -85 -78 -139 -156 -139zM48 182v322h74v-306c0 -84 47 -137 125 -137c80 0 137 57 137 142v301h74v-504h-74v85c-25 -54 -79 -93 -155 -93c-112 0 -181 77 -181 190z" />
    <glyph glyph-name="uring.alt" horiz-adv-x="549" 
d="M260 517c-54 0 -98 44 -98 98c0 53 44 97 98 97c53 0 97 -44 97 -97c0 -54 -43 -98 -97 -98zM260 568c25 0 46 22 46 47s-21 46 -46 46s-47 -21 -47 -46s22 -47 47 -47zM48 182v322h74v-306c0 -84 47 -137 125 -137c80 0 137 57 137 142v301h74v-504h-74v85
c-25 -54 -79 -93 -155 -93c-112 0 -181 77 -181 190z" />
    <glyph glyph-name="uhungarumlaut.alt" horiz-adv-x="549" 
d="M304 552l63 145h95l-103 -145h-55zM150 552l63 145h95l-103 -145h-55zM48 182v322h74v-306c0 -84 47 -137 125 -137c80 0 137 57 137 142v301h74v-504h-74v85c-25 -54 -79 -93 -155 -93c-112 0 -181 77 -181 190z" />
    <glyph glyph-name="uogonek.alt" horiz-adv-x="562" 
d="M48 182v322h74v-306c0 -84 48 -137 132 -137c82 0 143 57 143 142v301h74v-500c-30 -19 -82 -56 -82 -99c0 -31 24 -45 50 -45c21 0 40 5 58 15l-13 -59c-18 -9 -37 -14 -57 -14c-51 0 -101 33 -101 89c0 47 35 83 71 106v88c-26 -54 -83 -93 -162 -93
c-116 0 -187 77 -187 190z" />
    <glyph glyph-name="wgrave.alt" horiz-adv-x="783" 
d="M342 552l-93 145h99l53 -145h-59zM244 -35l-232 539h73l159 -370l84 174l-92 196h76l58 -127l59 127h76l-92 -196l84 -174l159 370h73l-232 -539l-127 272z" />
    <glyph glyph-name="wacute.alt" horiz-adv-x="783" 
d="M339 552l53 145h99l-93 -145h-59zM244 -35l-232 539h73l159 -370l84 174l-92 196h76l58 -127l59 127h76l-92 -196l84 -174l159 370h73l-232 -539l-127 272z" />
    <glyph glyph-name="wcircumflex.alt" horiz-adv-x="783" 
d="M206 576l164 146l164 -146h-89l-75 75l-75 -75h-89zM244 -35l-232 539h73l159 -370l84 174l-92 196h76l58 -127l59 127h76l-92 -196l84 -174l159 370h73l-232 -539l-127 272z" />
    <glyph glyph-name="wdieresis.alt" horiz-adv-x="783" 
d="M481 586c-26 0 -50 21 -50 50s24 50 50 50s50 -21 50 -50s-24 -50 -50 -50zM259 586c-26 0 -50 21 -50 50s24 50 50 50s50 -21 50 -50s-24 -50 -50 -50zM244 -35l-232 539h73l159 -370l84 174l-92 196h76l58 -127l59 127h76l-92 -196l84 -174l159 370h73l-232 -539
l-127 272z" />
    <glyph glyph-name="ygrave.alt" horiz-adv-x="553" 
d="M239 552l-93 145h99l53 -145h-59zM213 -3l-201 507h75l164 -420l175 420h72l-294 -697h-72z" />
    <glyph glyph-name="yacute.alt" horiz-adv-x="553" 
d="M220 552l53 145h99l-93 -145h-59zM213 -3l-201 507h75l164 -420l175 420h72l-294 -697h-72z" />
    <glyph glyph-name="ycircumflex.alt" horiz-adv-x="553" 
d="M91 576l164 146l164 -146h-89l-75 75l-75 -75h-89zM213 -3l-201 507h75l164 -420l175 420h72l-294 -697h-72z" />
    <glyph glyph-name="ydieresis.alt" horiz-adv-x="553" 
d="M358 586c-26 0 -50 21 -50 50s24 50 50 50s50 -21 50 -50s-24 -50 -50 -50zM152 586c-26 0 -50 21 -50 50s24 50 50 50s50 -21 50 -50s-24 -50 -50 -50zM213 -3l-201 507h75l164 -420l175 420h72l-294 -697h-72z" />
    <glyph glyph-name="fl.alt" horiz-adv-x="561" 
d="M314 127v570h74v-565c0 -55 16 -78 63 -78c12 0 25 1 36 4v-69c-12 -3 -24 -4 -36 -4c-54 0 -137 12 -137 142zM55 0v531c0 74 16 110 49 137c34 27 78 29 113 29h29v-66h-37c-51 0 -80 -24 -80 -87v-40h95v-69h-95v-435h-74z" />
    <glyph glyph-name="ffl.alt" horiz-adv-x="839" 
d="M109 0v435h-81v69h81v42c0 146 84 166 152 166c14 0 31 -2 39 -4v-70c-15 4 -32 5 -47 5c-48 0 -70 -23 -70 -87v-52h160v42c0 146 84 166 152 166c14 0 31 -2 39 -4v-70c-15 4 -32 5 -47 5c-48 0 -70 -23 -70 -87v-52h95v-69h-95v-435h-74v435h-160v-435h-74zM592 127
v570h74v-565c0 -55 16 -78 63 -78c12 0 25 1 36 4v-69c-12 -3 -24 -4 -36 -4c-54 0 -137 12 -137 142z" />
    <glyph glyph-name="fj.alt" horiz-adv-x="460" 
d="M55 0v531c0 74 16 110 49 137c34 27 78 29 113 29h29v-66h-37c-51 0 -80 -24 -80 -87v-40h234v-697h-74v628h-160v-435h-74z" />
    <glyph glyph-name="ffj.alt" horiz-adv-x="748" 
d="M109 0v435h-81v69h81v42c0 146 84 166 152 166c14 0 31 -2 39 -4v-70c-15 4 -32 5 -47 5c-48 0 -70 -23 -70 -87v-52h160v42c0 74 16 110 49 137c37 27 85 29 123 29c16 0 39 -2 49 -4v-70c-18 4 -39 5 -57 5c-62 0 -90 -23 -90 -87v-52h234v-697h-74v628h-160v-435h-74
v435h-160v-435h-74z" />
    <glyph glyph-name="one" unicode="1" horiz-adv-x="338" 
d="M131 0v625h-96v72h174v-697h-78z" />
    <glyph glyph-name="two" unicode="2" horiz-adv-x="539" 
d="M-10 0l328 401c31 37 51 74 51 114c0 68 -56 123 -124 123s-123 -56 -123 -124h-77c0 109 90 198 201 198s201 -89 201 -198c0 -40 -4 -84 -63 -157l-234 -285h314v-72h-474z" />
    <glyph glyph-name="three" unicode="3" horiz-adv-x="598" 
d="M8 135l69 26c24 -63 94 -102 183 -102c108 0 183 67 183 162c0 94 -77 166 -183 166c-52 0 -92 -6 -129 -20l221 258h-279v72h438l-215 -248h1c120 0 220 -101 220 -228c0 -139 -109 -236 -257 -236c-120 0 -217 58 -252 150z" />
    <glyph glyph-name="four" unicode="4" horiz-adv-x="608" 
d="M32 155l260 542h84l-222 -470h260v152h78v-379h-78v155h-382z" />
    <glyph glyph-name="five" unicode="5" horiz-adv-x="587" 
d="M25 127l67 32c29 -61 93 -100 163 -100c98 0 177 78 177 173s-79 173 -177 173c-71 0 -138 -24 -180 -67l64 359h323v-72h-257l-28 -158c25 8 51 12 78 12c141 0 251 -113 251 -247c0 -139 -114 -247 -251 -247c-100 0 -189 57 -230 142z" />
    <glyph glyph-name="six" unicode="6" horiz-adv-x="600" 
d="M37 230c0 73 41 135 95 215c6 8 11 16 167 252h93l-160 -238c18 4 38 6 57 6c122 0 233 -102 233 -234c0 -139 -109 -246 -242 -246s-243 108 -243 245zM116 227c0 -97 72 -168 164 -168s168 76 168 168s-76 167 -168 167c-95 0 -164 -71 -164 -167z" />
    <glyph glyph-name="seven" unicode="7" horiz-adv-x="585" 
d="M108 0l301 625h-376v72h497l-336 -697h-86z" />
    <glyph glyph-name="eight" unicode="8" horiz-adv-x="579" 
d="M35 211c0 100 58 165 124 192c-42 29 -71 75 -71 129c0 99 81 180 180 180s180 -81 180 -180c0 -54 -29 -100 -71 -129c66 -27 124 -92 124 -192c0 -124 -103 -226 -233 -226s-233 102 -233 226zM268 426c57 0 103 48 103 106s-46 106 -103 106s-103 -48 -103 -106
s46 -106 103 -106zM113 211c0 -84 70 -152 155 -152s155 68 155 152s-70 152 -155 152s-155 -68 -155 -152z" />
    <glyph glyph-name="nine" unicode="9" horiz-adv-x="589" 
d="M155 0l171 252c-17 -5 -39 -9 -60 -9c-115 0 -230 92 -230 228s108 241 237 241c140 0 237 -108 237 -237c0 -80 -44 -146 -102 -233c-3 -5 -7 -10 -160 -242h-93zM273 312c104 0 163 73 163 163s-73 163 -163 163s-163 -73 -163 -163s73 -163 163 -163z" />
    <glyph glyph-name="zero" unicode="0" horiz-adv-x="591" 
d="M40 199c-3 33 -3 66 -3 150s0 116 3 149c12 122 113 214 234 214s222 -92 234 -214c3 -33 3 -65 3 -149s0 -117 -3 -150c-12 -122 -113 -214 -234 -214s-222 92 -234 214zM114 204c8 -84 77 -145 160 -145s152 61 160 145c3 29 3 63 3 145s0 115 -3 144
c-8 84 -77 145 -160 145s-152 -61 -160 -145c-3 -29 -3 -62 -3 -144s0 -116 3 -145z" />
    <glyph glyph-name="zero.onum" horiz-adv-x="589" 
d="M38 201c-1 14 -1 32 -1 52c0 19 0 37 1 51c13 122 113 215 235 215c121 0 222 -93 234 -215c1 -14 2 -32 2 -51c0 -20 -1 -38 -2 -52c-12 -122 -113 -215 -234 -215c-122 0 -222 93 -235 215zM113 207c8 -84 77 -147 160 -147s152 63 160 147c1 13 2 29 2 46
c0 15 -1 32 -2 45c-8 84 -77 147 -160 147s-152 -63 -160 -147c-2 -13 -2 -30 -2 -45c0 -17 0 -33 2 -46z" />
    <glyph glyph-name="one.onum" horiz-adv-x="391" 
d="M184 0v402l-122 -62l-33 65l233 117v-522h-78z" />
    <glyph glyph-name="two.onum" horiz-adv-x="518" 
d="M5 0l282 245c65 56 65 86 65 114c0 49 -47 86 -109 86c-69 0 -124 -56 -124 -124h-74c0 109 89 198 198 198c106 0 183 -71 183 -160c0 -53 -14 -103 -90 -169l-136 -118h253v-72h-448z" />
    <glyph glyph-name="three.onum" horiz-adv-x="546" 
d="M11 11l70 27c20 -53 79 -86 155 -86c91 0 155 56 155 136c0 79 -65 136 -155 136c-32 0 -84 -1 -117 -13l186 221h-239v72h402l-187 -215h1c98 -7 183 -91 183 -201c0 -120 -97 -210 -229 -210c-107 0 -193 51 -225 133z" />
    <glyph glyph-name="four.onum" horiz-adv-x="592" 
d="M22 0l231 504h84l-197 -432h264v152h78v-417h-78v193h-382z" />
    <glyph glyph-name="five.onum" horiz-adv-x="554" 
d="M30 4l66 33c26 -52 82 -85 144 -85c96 0 159 57 159 145c0 87 -64 146 -159 146c-67 0 -130 -25 -170 -67l59 328h317v-72h-251l-22 -125c21 6 44 10 67 10c133 0 233 -87 233 -220c0 -137 -102 -219 -233 -219c-88 0 -172 48 -210 126z" />
    <glyph glyph-name="six.onum" horiz-adv-x="567" 
d="M37 209c0 84 53 153 118 252l159 236h92l-182 -268c11 3 30 5 48 5c114 0 214 -102 214 -225s-103 -224 -225 -224s-224 102 -224 224zM111 209c0 -83 67 -150 150 -150s151 67 151 150s-68 151 -151 151s-150 -68 -150 -151z" />
    <glyph glyph-name="seven.onum" horiz-adv-x="531" 
d="M92 -193l268 625h-332v72h449l-303 -697h-82z" />
    <glyph glyph-name="eight.onum" horiz-adv-x="579" 
d="M35 211c0 100 58 165 124 192c-42 29 -71 75 -71 129c0 99 81 180 180 180s180 -81 180 -180c0 -54 -29 -100 -71 -129c66 -27 124 -92 124 -192c0 -124 -103 -226 -233 -226s-233 102 -233 226zM268 426c57 0 103 48 103 106s-46 106 -103 106s-103 -48 -103 -106
s46 -106 103 -106zM113 211c0 -84 70 -152 155 -152s155 68 155 152s-70 152 -155 152s-155 -68 -155 -152z" />
    <glyph glyph-name="nine.onum" horiz-adv-x="566" 
d="M117 0l182 268c-11 -3 -30 -5 -48 -5c-114 0 -214 102 -214 225s103 224 225 224s224 -102 224 -224c0 -78 -44 -143 -103 -230c-5 -7 -10 -15 -174 -258h-92zM262 337c83 0 150 68 150 151s-67 150 -150 150s-151 -67 -151 -150s68 -151 151 -151z" />
    <glyph glyph-name="zero.tnum" horiz-adv-x="565" 
d="M40 193c-3 34 -3 68 -3 156s0 121 3 155c12 118 107 208 221 208s209 -90 221 -208c3 -34 3 -67 3 -155s0 -122 -3 -156c-12 -118 -107 -208 -221 -208s-209 90 -221 208zM114 198c8 -80 71 -139 147 -139s139 59 147 139c3 30 3 65 3 151s0 120 -3 150
c-8 80 -71 139 -147 139s-139 -59 -147 -139c-3 -30 -3 -64 -3 -150s0 -121 3 -151z" />
    <glyph glyph-name="one.tnum" horiz-adv-x="565" 
d="M300 0v593l-202 -116l-33 65l313 180v-722h-78z" />
    <glyph glyph-name="two.tnum" horiz-adv-x="565" 
d="M9 0l328 401c31 37 51 74 51 114c0 68 -56 123 -124 123s-123 -56 -123 -124h-77c0 109 90 198 201 198s201 -89 201 -198c0 -40 -4 -84 -63 -157l-234 -285h314v-72h-474z" />
    <glyph glyph-name="three.tnum" horiz-adv-x="565" 
d="M19 123l70 26c20 -56 80 -90 155 -90c99 0 167 67 167 162c0 94 -70 166 -167 166c-52 0 -89 -6 -126 -20l205 258h-253v72h409l-199 -248h1c111 0 204 -101 204 -228c0 -139 -102 -236 -241 -236c-106 0 -193 53 -225 138z" />
    <glyph glyph-name="four.tnum" horiz-adv-x="565" 
d="M13 155l260 542h84l-222 -470h260v152h78v-379h-78v155h-382z" />
    <glyph glyph-name="five.tnum" horiz-adv-x="565" 
d="M17 127l67 32c27 -61 87 -100 152 -100c92 0 166 78 166 173s-74 173 -166 173c-67 0 -129 -24 -169 -67l64 359h301v-72h-235l-28 -158c21 8 44 12 67 12c135 0 240 -113 240 -247c0 -139 -109 -247 -240 -247c-95 0 -180 57 -219 142z" />
    <glyph glyph-name="six.tnum" horiz-adv-x="567" 
d="M37 213c0 76 52 148 107 241l143 243h87l-163 -277c17 9 47 11 61 11c112 0 215 -95 215 -217c0 -129 -101 -229 -224 -229s-226 101 -226 228zM116 210c0 -87 65 -151 147 -151s150 69 150 151s-68 150 -150 150c-85 0 -147 -64 -147 -150z" />
    <glyph glyph-name="seven.tnum" horiz-adv-x="565" 
d="M120 0l293 625h-388v72h508l-327 -697h-86z" />
    <glyph glyph-name="eight.tnum" horiz-adv-x="565" 
d="M35 211c0 100 58 165 124 192c-42 29 -71 75 -71 129c0 99 78 180 173 180s173 -81 173 -180c0 -54 -29 -100 -71 -129c66 -27 124 -92 124 -192c0 -124 -100 -226 -226 -226s-226 102 -226 226zM261 426c53 0 96 48 96 106s-43 106 -96 106s-96 -48 -96 -106
s43 -106 96 -106zM113 211c0 -84 67 -152 148 -152s148 68 148 152s-67 152 -148 152s-148 -68 -148 -152z" />
    <glyph glyph-name="nine.tnum" horiz-adv-x="565" 
d="M150 0l163 277c-17 -9 -47 -11 -61 -11c-112 0 -215 95 -215 217c0 129 101 229 224 229s226 -101 226 -228c0 -76 -52 -148 -107 -241l-143 -243h-87zM261 337c85 0 147 64 147 150c0 87 -65 151 -147 151s-150 -69 -150 -151s68 -150 150 -150z" />
    <glyph glyph-name="onesuperior" unicode="&#xb9;" horiz-adv-x="259" 
d="M85 328v316h-48v53h105v-369h-57z" />
    <glyph glyph-name="twosuperior" unicode="&#xb2;" horiz-adv-x="362" 
d="M21 328l173 217c15 19 24 34 24 52c0 30 -25 54 -54 54c-30 0 -54 -29 -54 -63h-56c0 65 49 117 110 117s111 -48 111 -108c0 -22 -1 -47 -34 -86l-109 -129h152v-54h-263z" />
    <glyph glyph-name="threesuperior" unicode="&#xb3;" horiz-adv-x="383" 
d="M161 320c-65 0 -118 36 -138 91l50 19c13 -34 46 -55 88 -55c50 0 84 30 84 73s-35 76 -88 76c-26 0 -51 -2 -72 -11l106 131h-133v53h243l-110 -126c8 0 19 -2 30 -6c46 -17 79 -63 79 -117c0 -75 -59 -128 -139 -128z" />
    <glyph glyph-name="foursuperior" unicode="&#x2074;" horiz-adv-x="386" 
d="M231 328v73h-218l142 296h59l-116 -242h133v74h57v-201h-57z" />
    <glyph glyph-name="fivesuperior" unicode="&#x2075;" horiz-adv-x="369" 
d="M149 320c-55 0 -103 34 -129 85l50 24c16 -33 47 -54 79 -54c44 0 80 36 80 79c0 45 -37 78 -85 78c-38 0 -71 -10 -96 -25l34 190h180v-53h-131l-12 -64c6 3 20 6 34 6c73 0 131 -60 131 -132c0 -75 -61 -134 -135 -134z" />
    <glyph glyph-name="sixsuperior" unicode="&#x2076;" horiz-adv-x="390" 
d="M174 320c-72 0 -132 59 -132 133c0 39 19 68 45 107c2 3 4 6 92 137h68l-82 -117s6 1 16 1c64 0 124 -56 124 -128c0 -75 -59 -133 -131 -133zM174 375c42 0 76 35 76 76c0 42 -34 76 -76 76c-43 0 -74 -32 -74 -76s32 -76 74 -76z" />
    <glyph glyph-name="sevensuperior" unicode="&#x2077;" horiz-adv-x="378" 
d="M80 328l153 316h-185v53h273l-178 -369h-63z" />
    <glyph glyph-name="eightsuperior" unicode="&#x2078;" horiz-adv-x="393" 
d="M176 320c-72 0 -128 56 -128 123c0 48 30 87 62 99c-20 13 -35 39 -35 64c0 55 45 99 101 99c54 0 99 -44 99 -99c0 -25 -15 -51 -35 -64c32 -12 62 -51 62 -99c0 -67 -56 -123 -126 -123zM176 557c24 0 43 22 43 48c0 24 -19 46 -43 46c-26 0 -45 -22 -45 -46
c0 -26 19 -48 45 -48zM176 375c37 0 69 31 69 68c0 38 -32 68 -69 68c-39 0 -71 -30 -71 -68c0 -37 32 -68 71 -68z" />
    <glyph glyph-name="ninesuperior" unicode="&#x2079;" horiz-adv-x="395" 
d="M100 328l89 126s-8 -2 -19 -2c-61 0 -122 51 -122 123s58 130 128 130s128 -56 128 -128c0 -43 -21 -76 -49 -118l-88 -131h-67zM176 503c47 0 74 33 74 74c0 40 -33 74 -74 74s-73 -34 -73 -74c0 -41 32 -74 73 -74z" />
    <glyph glyph-name="zerosuperior" unicode="&#x2070;" horiz-adv-x="396" 
d="M176 320c-63 0 -118 53 -126 117c-2 15 -2 34 -2 76c0 41 0 61 2 76c8 64 63 116 126 116c67 0 122 -49 128 -116c1 -16 1 -34 1 -76c0 -43 0 -60 -1 -76c-6 -67 -61 -117 -128 -117zM176 375c38 0 70 28 73 66c2 14 2 31 2 72c0 40 0 57 -2 72c-3 38 -35 66 -73 66
c-36 0 -66 -29 -72 -66c-1 -14 -1 -35 -1 -72c0 -42 0 -58 1 -72c6 -37 36 -66 72 -66z" />
    <glyph glyph-name="one.inferior" unicode="&#x2081;" horiz-adv-x="259" 
d="M85 0v316h-48v53h105v-369h-57z" />
    <glyph glyph-name="two.inferior" unicode="&#x2082;" horiz-adv-x="362" 
d="M21 0l173 217c15 19 24 34 24 52c0 30 -25 54 -54 54c-30 0 -54 -29 -54 -63h-56c0 65 49 117 110 117s111 -48 111 -108c0 -22 -2 -47 -34 -86l-109 -129h152v-54h-263z" />
    <glyph glyph-name="three.inferior" unicode="&#x2083;" horiz-adv-x="383" 
d="M23 83l50 19c13 -34 46 -55 88 -55c50 0 84 30 84 73s-35 76 -88 76c-26 0 -51 -2 -72 -11l106 131h-133v53h243l-110 -126c8 0 19 -2 30 -6c46 -17 79 -63 79 -117c0 -75 -59 -128 -139 -128c-65 0 -118 36 -138 91z" />
    <glyph glyph-name="four.inferior" unicode="&#x2084;" horiz-adv-x="386" 
d="M13 73l142 296h59l-116 -242h133v74h57v-201h-57v73h-218z" />
    <glyph glyph-name="five.inferior" unicode="&#x2085;" horiz-adv-x="369" 
d="M20 77l50 24c16 -33 47 -54 79 -54c44 0 80 36 80 79c0 45 -37 78 -85 78c-38 0 -71 -10 -96 -25l34 190h180v-53h-131l-12 -64c6 3 20 6 34 6c73 0 131 -60 131 -132c0 -75 -61 -134 -135 -134c-55 0 -103 34 -129 85z" />
    <glyph glyph-name="six.inferior" unicode="&#x2086;" horiz-adv-x="390" 
d="M174 -8c-72 0 -132 59 -132 133c0 39 19 68 45 107c2 3 4 6 92 137h68l-82 -117s6 1 16 1c64 0 124 -56 124 -128c0 -75 -59 -133 -131 -133zM174 47c42 0 76 35 76 76c0 42 -34 76 -76 76c-43 0 -74 -32 -74 -76s32 -76 74 -76z" />
    <glyph glyph-name="seven.inferior" unicode="&#x2087;" horiz-adv-x="378" 
d="M80 0l153 316h-185v53h273l-178 -369h-63z" />
    <glyph glyph-name="eight.inferior" unicode="&#x2088;" horiz-adv-x="393" 
d="M48 115c0 48 30 87 62 99c-20 13 -35 39 -35 64c0 55 45 99 101 99c54 0 99 -44 99 -99c0 -25 -15 -51 -35 -64c32 -12 62 -51 62 -99c0 -67 -56 -123 -126 -123c-72 0 -128 56 -128 123zM176 229c24 0 43 22 43 48c0 24 -19 46 -43 46c-26 0 -45 -22 -45 -46
c0 -26 19 -48 45 -48zM105 115c0 -37 32 -68 71 -68c37 0 69 31 69 68c0 38 -32 68 -69 68c-39 0 -71 -30 -71 -68z" />
    <glyph glyph-name="nine.inferior" unicode="&#x2089;" horiz-adv-x="383" 
d="M94 0l89 126s-8 -2 -19 -2c-61 0 -122 51 -122 123s58 130 128 130s128 -56 128 -128c0 -43 -21 -76 -49 -118l-88 -131h-67zM170 175c47 0 74 33 74 74c0 40 -33 74 -74 74s-73 -34 -73 -74c0 -41 32 -74 73 -74z" />
    <glyph glyph-name="zero.inferior" unicode="&#x2080;" horiz-adv-x="396" 
d="M50 109c-2 15 -2 34 -2 76c0 41 0 61 2 76c8 64 63 116 126 116c67 0 122 -49 128 -116c1 -16 1 -34 1 -76c0 -43 0 -60 -1 -76c-6 -67 -61 -117 -128 -117c-63 0 -118 53 -126 117zM104 113c6 -37 36 -66 72 -66c38 0 70 28 73 66c2 14 2 31 2 72c0 40 0 57 -2 72
c-3 38 -35 66 -73 66c-36 0 -66 -29 -72 -66c-1 -14 -1 -35 -1 -72c0 -42 0 -58 1 -72z" />
    <glyph glyph-name="onehalf" unicode="&#xbd;" horiz-adv-x="741" 
d="M75 0l390 697h74l-390 -697h-74zM105 328v316h-48v53h105v-369h-57zM380 0l173 217c15 19 24 34 24 52c0 30 -25 54 -54 54c-30 0 -54 -29 -54 -63h-56c0 65 49 117 110 117s111 -48 111 -108c0 -22 -1 -47 -34 -86l-109 -129h152v-54h-263z" />
    <glyph glyph-name="onethird" unicode="&#x2153;" horiz-adv-x="782" 
d="M75 0l390 697h74l-390 -697h-74zM105 328v316h-48v53h105v-369h-57zM411 83l50 19c13 -34 46 -55 88 -55c50 0 84 30 84 73s-35 76 -88 76c-26 0 -51 -2 -72 -11l106 131h-133v53h243l-110 -126c8 0 19 -2 30 -6c46 -17 79 -63 79 -117c0 -75 -59 -128 -139 -128
c-65 0 -118 36 -138 91z" />
    <glyph glyph-name="twothirds" unicode="&#x2154;" horiz-adv-x="845" 
d="M41 328l173 217c15 19 24 34 24 52c0 30 -25 54 -54 54c-30 0 -54 -29 -54 -63h-56c0 65 49 117 110 117s111 -48 111 -108c0 -22 -1 -47 -34 -86l-109 -129h152v-54h-263zM173 0l390 697h74l-390 -697h-74zM474 83l50 19c13 -34 46 -55 88 -55c50 0 84 30 84 73
s-35 76 -88 76c-26 0 -51 -2 -72 -11l106 131h-133v53h243l-110 -126c8 0 19 -2 30 -6c46 -17 79 -63 79 -117c0 -75 -59 -128 -139 -128c-65 0 -118 36 -138 91z" />
    <glyph glyph-name="onequarter" unicode="&#xbc;" horiz-adv-x="709" 
d="M75 0l390 697h74l-390 -697h-74zM105 328v316h-48v53h105v-369h-57zM326 73l142 296h59l-116 -242h133v74h57v-201h-57v73h-218z" />
    <glyph glyph-name="threequarters" unicode="&#xbe;" horiz-adv-x="807" 
d="M173 0l390 697h74l-390 -697h-74zM171 320c-65 0 -118 36 -138 91l50 19c13 -34 46 -55 88 -55c50 0 84 30 84 73s-35 76 -88 76c-26 0 -51 -2 -72 -11l106 131h-133v53h243l-110 -126c8 0 19 -2 30 -6c46 -17 79 -63 79 -117c0 -75 -59 -128 -139 -128zM424 73l142 296
h59l-116 -242h133v74h57v-201h-57v73h-218z" />
    <glyph glyph-name="four.alt" horiz-adv-x="602" 
d="M-7 124l450 608v-536h85v-72h-85v-124h-78v124h-371h-1zM136 196h229v308z" />
    <glyph glyph-name="four.onum.alt" horiz-adv-x="564" 
d="M-7 0h-1l413 529v-457h78v-72h-78v-193h-78v193h-334zM143 72h184v234z" />
    <glyph glyph-name="four.tnum.alt" horiz-adv-x="565" 
d="M-7 124l413 608v-536h72v-72h-72v-124h-78v124h-334h-1zM131 196h197v295z" />
    <glyph glyph-name="foursuperior.alt" horiz-adv-x="401" 
d="M19 390l253 333v-279h44v-54h-44v-62h-57v62h-195h-1zM125 444h90v123c-30 -40 -59 -80 -90 -123z" />
    <glyph glyph-name="four.inferior.alt" horiz-adv-x="401" 
d="M19 62l253 333v-279h44v-54h-44v-62h-57v62h-195h-1zM125 116h90v123c-30 -40 -59 -80 -90 -123z" />
    <glyph glyph-name="onequarter.alt" horiz-adv-x="711" 
d="M75 0l390 697h74l-390 -697h-74zM105 328v316h-48v53h105v-369h-57zM319 62l253 333v-279h44v-54h-44v-62h-57v62h-195h-1zM425 116h90v123c-30 -40 -59 -80 -90 -123z" />
    <glyph glyph-name="threequarters.alt" horiz-adv-x="809" 
d="M173 0l390 697h74l-390 -697h-74zM171 320c-65 0 -118 36 -138 91l50 19c13 -34 46 -55 88 -55c50 0 84 30 84 73s-35 76 -88 76c-26 0 -51 -2 -72 -11l106 131h-133v53h243l-110 -126c8 0 19 -2 30 -6c46 -17 79 -63 79 -117c0 -75 -59 -128 -139 -128zM417 62l253 333
v-279h44v-54h-44v-62h-57v62h-195h-1zM523 116h90v123c-30 -40 -59 -80 -90 -123z" />
    <glyph glyph-name="period" unicode="." horiz-adv-x="225" 
d="M41 43c0 29 24 50 50 50s50 -21 50 -50s-24 -50 -50 -50s-50 21 -50 50z" />
    <glyph glyph-name="comma" unicode="," horiz-adv-x="229" 
d="M51 111h99l-126 -239h-63z" />
    <glyph glyph-name="colon" unicode=":" horiz-adv-x="225" 
d="M91 340c-26 0 -50 21 -50 50s24 50 50 50s50 -21 50 -50s-24 -50 -50 -50zM91 64c-26 0 -50 21 -50 50s24 50 50 50s50 -21 50 -50s-24 -50 -50 -50z" />
    <glyph glyph-name="semicolon" unicode=";" horiz-adv-x="265" 
d="M111 340c-26 0 -50 21 -50 50s24 50 50 50s50 -21 50 -50s-24 -50 -50 -50zM-18 -112l84 223h99l-117 -223h-66z" />
    <glyph glyph-name="bullet" unicode="&#x2022;" horiz-adv-x="299" 
d="M128 172c-43 0 -82 34 -82 82s39 82 82 82s82 -34 82 -82s-39 -82 -82 -82z" />
    <glyph glyph-name="periodcentered" unicode="&#xb7;" horiz-adv-x="225" 
d="M91 202c-26 0 -50 21 -50 50s24 50 50 50s50 -21 50 -50s-24 -50 -50 -50z" />
    <glyph glyph-name="ellipsis" unicode="&#x2026;" horiz-adv-x="581" 
d="M397 43c0 29 24 50 50 50s50 -21 50 -50s-24 -50 -50 -50s-50 21 -50 50zM219 43c0 29 24 50 50 50s50 -21 50 -50s-24 -50 -50 -50s-50 21 -50 50zM41 43c0 29 24 50 50 50s50 -21 50 -50s-24 -50 -50 -50s-50 21 -50 50z" />
    <glyph glyph-name="quotesinglbase" unicode="&#x201a;" horiz-adv-x="224" 
d="M51 111h99l-126 -239h-63z" />
    <glyph glyph-name="quotedblbase" unicode="&#x201e;" horiz-adv-x="378" 
d="M127 -128l90 239h99l-126 -239h-63zM51 111h99l-126 -239h-63z" />
    <glyph glyph-name="quotedblright" unicode="&#x201d;" horiz-adv-x="390" 
d="M159 445l95 252h99l-131 -252h-63zM-7 445l95 252h99l-131 -252h-63z" />
    <glyph glyph-name="quotedbl" unicode="&#x22;" horiz-adv-x="326" 
d="M179 445l-12 252h75l-12 -252h-51zM53 445l-12 252h75l-12 -252h-51z" />
    <glyph glyph-name="quoteright" unicode="&#x2019;" horiz-adv-x="224" 
d="M-7 445l95 252h99l-131 -252h-63z" />
    <glyph glyph-name="quoteleft" unicode="&#x2018;" horiz-adv-x="216" 
d="M1 445l131 252h63l-95 -252h-99z" />
    <glyph glyph-name="quotedblleft" unicode="&#x201c;" horiz-adv-x="382" 
d="M167 445l131 252h63l-95 -252h-99zM1 445l131 252h63l-95 -252h-99z" />
    <glyph glyph-name="quotesingle" unicode="'" horiz-adv-x="200" 
d="M53 445l-12 252h75l-12 -252h-51z" />
    <glyph glyph-name="asterisk" unicode="*" horiz-adv-x="425" 
d="M123 415l-46 36l75 86l-110 34l21 56l104 -44l-5 114h59l-6 -114l105 44l20 -56l-110 -34l76 -86l-47 -36l-68 94z" />
    <glyph glyph-name="dagger" unicode="&#x2020;" horiz-adv-x="325" 
d="M106 301l5 239l-81 -3v65l79 -3l-3 98h70l-3 -98l79 3v-65l-81 3l5 -239h-70z" />
    <glyph glyph-name="daggerdbl" unicode="&#x2021;" horiz-adv-x="325" 
d="M106 301l3 98l-79 -3v65l81 -3v82l-81 -3v65l79 -3l-3 98h70l-3 -98l79 3v-65l-81 3v-82l81 3v-65l-79 3l3 -98h-70z" />
    <glyph glyph-name="hyphen" unicode="-" horiz-adv-x="421" 
d="M39 229v69h300v-69h-300z" />
    <glyph glyph-name="endash" unicode="&#x2013;" horiz-adv-x="493" 
d="M38 229v69h374v-69h-374z" />
    <glyph glyph-name="emdash" unicode="&#x2014;" horiz-adv-x="757" 
d="M38 229v69h638v-69h-638z" />
    <glyph glyph-name="underscore" unicode="_" horiz-adv-x="333" 
d="M-5 -124h300v-69h-300v69z" />
    <glyph glyph-name="bar" unicode="|" horiz-adv-x="285" 
d="M84 -25v747h74v-747h-74z" />
    <glyph glyph-name="brokenbar" unicode="&#xa6;" horiz-adv-x="285" 
d="M84 415v282h74v-282h-74zM84 0v294h74v-294h-74z" />
    <glyph glyph-name="plus" unicode="+" horiz-adv-x="421" 
d="M151 190v123h-112v69h112v124h76v-124h112v-69h-112v-123h-76z" />
    <glyph glyph-name="minus" unicode="&#x2212;" horiz-adv-x="421" 
d="M39 313v69h300v-69h-300z" />
    <glyph glyph-name="plusminus" unicode="&#xb1;" horiz-adv-x="421" 
d="M151 190v123h-112v69h112v124h76v-124h112v-69h-112v-123h-76zM39 0v69h300v-69h-300z" />
    <glyph glyph-name="multiply" unicode="&#xd7;" horiz-adv-x="421" 
d="M80 178l-45 47l108 108l-108 108l45 46l109 -109l108 109l46 -46l-108 -108l108 -108l-46 -47l-108 109z" />
    <glyph glyph-name="divide" unicode="&#xf7;" horiz-adv-x="463" 
d="M210 436c-26 0 -50 21 -50 50s24 50 50 50s50 -21 50 -50s-24 -50 -50 -50zM39 313v69h342v-69h-342zM210 159c-26 0 -50 21 -50 50s24 50 50 50s50 -21 50 -50s-24 -50 -50 -50z" />
    <glyph glyph-name="equal" unicode="=" horiz-adv-x="463" 
d="M39 402v69h342v-69h-342zM39 238v69h342v-69h-342z" />
    <glyph glyph-name="notequal" unicode="&#x2260;" horiz-adv-x="463" 
d="M61 153l50 85h-72v69h112l56 95h-168v69h209l63 107l49 -29l-46 -78h67v-69h-108l-56 -95h164v-69h-204l-67 -114z" />
    <glyph glyph-name="numbersign" unicode="#" horiz-adv-x="584" 
d="M84 116l28 108h-88v62h104l30 118h-89v62h105l27 107h69l-28 -107h118l28 107h68l-27 -107h88v-62h-104l-30 -118h90v-62h-105l-28 -108h-69l28 108h-118l-28 -108h-69zM196 286h118l31 118h-119z" />
    <glyph glyph-name="currency" unicode="&#xa4;" horiz-adv-x="682" 
d="M50 104l87 81c-34 41 -52 93 -52 148c0 54 18 106 52 148l-87 82l51 50l79 -91c40 30 89 47 140 47c52 0 100 -17 141 -47l79 91l51 -50l-88 -81c34 -42 53 -94 53 -149s-19 -107 -53 -148c34 -32 88 -82 88 -82l-51 -49s-50 54 -80 89c-40 -30 -89 -45 -140 -45
c-52 0 -101 16 -141 47c-29 -34 -78 -91 -78 -91zM320 163c91 0 166 76 166 170s-75 171 -166 171s-165 -77 -165 -171s74 -170 165 -170z" />
    <glyph glyph-name="logicalnot" unicode="&#xac;" horiz-adv-x="605" 
d="M39 382v69h484v-270h-76v201h-408z" />
    <glyph glyph-name="less" unicode="&#x3c;" horiz-adv-x="451" 
d="M8 356l351 223v-78l-228 -145l228 -144v-78z" />
    <glyph glyph-name="greater" unicode="&#x3e;" horiz-adv-x="450" 
d="M49 134v78l227 145l-227 145v77l350 -222z" />
    <glyph glyph-name="lessequal" unicode="&#x2264;" horiz-adv-x="451" 
d="M8 356l351 223v-78l-228 -145l228 -144v-78zM17 0v69h342v-69h-342z" />
    <glyph glyph-name="greaterequal" unicode="&#x2265;" horiz-adv-x="451" 
d="M49 134v78l228 144l-228 145v78l351 -223zM49 0v69h342v-69h-342z" />
    <glyph glyph-name="asciicircum" unicode="^" horiz-adv-x="557" 
d="M20 350l237 373l237 -373h-79l-158 250l-159 -250h-78z" />
    <glyph glyph-name="asciitilde" unicode="~" horiz-adv-x="455" 
d="M25 303c7 52 43 92 100 92c68 0 107 -39 157 -39c28 0 46 12 56 41l49 -4c-8 -60 -38 -98 -102 -98c-71 0 -107 39 -158 39c-25 0 -46 -10 -53 -35z" />
    <glyph glyph-name="approxequal" unicode="&#x2248;" horiz-adv-x="461" 
d="M25 378c7 52 43 92 100 92c68 0 107 -39 157 -39c28 0 46 12 56 41l49 -4c-8 -60 -38 -98 -102 -98c-71 0 -107 39 -158 39c-25 0 -46 -10 -53 -35zM31 243c7 52 43 92 100 92c68 0 107 -39 157 -39c28 0 46 12 56 41l49 -4c-8 -60 -38 -98 -102 -98
c-71 0 -107 39 -158 39c-25 0 -46 -10 -53 -35z" />
    <glyph glyph-name="guilsinglleft" unicode="&#x2039;" horiz-adv-x="295" 
d="M142 78l-110 175l110 175h78l-110 -175l110 -175h-78z" />
    <glyph glyph-name="guilsinglright" unicode="&#x203a;" horiz-adv-x="295" 
d="M32 78l110 175l-110 175h78l110 -175l-110 -175h-78z" />
    <glyph glyph-name="guillemotleft" unicode="&#xab;" horiz-adv-x="451" 
d="M298 78l-110 175l110 175h78l-110 -175l110 -175h-78zM142 78l-110 175l110 175h78l-110 -175l110 -175h-78z" />
    <glyph glyph-name="guillemotright" unicode="&#xbb;" horiz-adv-x="451" 
d="M188 78l110 175l-110 175h78l110 -175l-110 -175h-78zM32 78l110 175l-110 175h78l110 -175l-110 -175h-78z" />
    <glyph glyph-name="slash" unicode="/" horiz-adv-x="459" 
d="M-2 -136l312 859h71l-314 -859h-69z" />
    <glyph glyph-name="backslash" unicode="\" horiz-adv-x="459" 
d="M337 -136l-314 859h69l314 -859h-69z" />
    <glyph glyph-name="parenleft" unicode="(" horiz-adv-x="331" 
d="M44 309c0 184 77 349 226 480l37 -40c-123 -121 -189 -260 -189 -440s66 -319 189 -440l-37 -40c-149 131 -226 296 -226 480z" />
    <glyph glyph-name="parenright" unicode=")" horiz-adv-x="331" 
d="M-19 -131c123 121 189 260 189 440s-66 319 -189 440l37 40c149 -131 226 -296 226 -480s-77 -349 -226 -480z" />
    <glyph glyph-name="bracketleft" unicode="[" horiz-adv-x="344" 
d="M159 -121h147v-72h-225v890h225v-72h-147v-746z" />
    <glyph glyph-name="bracketright" unicode="]" horiz-adv-x="344" 
d="M-5 -121h147v746h-147v72h225v-890h-225v72z" />
    <glyph glyph-name="braceleft" unicode="{" horiz-adv-x="355" 
d="M110 -65v190c0 43 -13 73 -40 89c-22 13 -45 14 -45 14v48s23 1 45 14c27 16 40 46 40 89v190c0 74 50 128 120 128h45v-59h-37c-40 0 -54 -36 -54 -69v-179c0 -39 -6 -82 -34 -110c-12 -12 -25 -21 -40 -28c15 -7 28 -16 40 -28c28 -28 34 -71 34 -110v-179
c0 -33 14 -69 54 -69h37v-59h-45c-70 0 -120 54 -120 128z" />
    <glyph glyph-name="braceright" unicode="}" horiz-adv-x="355" 
d="M37 -134h37c40 0 54 36 54 69v179c0 39 6 82 34 110c12 12 25 21 40 28c-15 7 -28 16 -40 28c-28 28 -34 71 -34 110v179c0 33 -14 69 -54 69h-37v59h45c70 0 120 -54 120 -128v-190c0 -43 13 -73 40 -89c22 -13 45 -14 45 -14v-48s-23 -1 -45 -14
c-27 -16 -40 -46 -40 -89v-190c0 -74 -50 -128 -120 -128h-45v59z" />
    <glyph glyph-name="fraction" unicode="&#x2044;" horiz-adv-x="523" 
d="M-24 0l451 697h77l-451 -697h-77z" />
    <glyph glyph-name="percent" unicode="%" horiz-adv-x="770" 
d="M189 400c-86 0 -156 70 -156 156s70 156 156 156s156 -70 156 -156s-70 -156 -156 -156zM101 0l451 697h77l-451 -697h-77zM189 461c49 0 90 42 90 95c0 52 -41 95 -90 95c-50 0 -90 -43 -90 -95c0 -53 40 -95 90 -95zM382 141c0 86 70 156 156 156s156 -70 156 -156
s-70 -156 -156 -156s-156 70 -156 156zM448 141c0 -53 40 -95 90 -95c49 0 90 42 90 95c0 52 -41 95 -90 95c-50 0 -90 -43 -90 -95z" />
    <glyph glyph-name="perthousand" unicode="&#x2030;" horiz-adv-x="1150" 
d="M189 400c-86 0 -156 70 -156 156s70 156 156 156s156 -70 156 -156s-70 -156 -156 -156zM101 0l451 697h77l-451 -697h-77zM189 461c49 0 90 42 90 95c0 52 -41 95 -90 95c-50 0 -90 -43 -90 -95c0 -53 40 -95 90 -95zM762 141c0 86 70 156 156 156s156 -70 156 -156
s-70 -156 -156 -156s-156 70 -156 156zM382 141c0 86 70 156 156 156s156 -70 156 -156s-70 -156 -156 -156s-156 70 -156 156zM828 141c0 -53 40 -95 90 -95c49 0 90 42 90 95c0 52 -41 95 -90 95c-50 0 -90 -43 -90 -95zM448 141c0 -53 40 -95 90 -95c49 0 90 42 90 95
c0 52 -41 95 -90 95c-50 0 -90 -43 -90 -95z" />
    <glyph glyph-name="degree" unicode="&#xb0;" horiz-adv-x="397" 
d="M177 436c-73 0 -132 59 -132 132s59 132 132 132s132 -59 132 -132s-59 -132 -132 -132zM177 502c33 0 61 30 61 66s-28 66 -61 66s-61 -30 -61 -66s28 -66 61 -66z" />
    <glyph glyph-name="acute" unicode="&#xb4;" horiz-adv-x="575" 
d="M228 552l53 145h99l-93 -145h-59z" />
    <glyph glyph-name="grave" unicode="`" horiz-adv-x="575" 
d="M246 552l-93 145h99l53 -145h-59z" />
    <glyph glyph-name="circumflex" unicode="&#x2c6;" horiz-adv-x="647" 
d="M138 576l164 146l164 -146h-89l-75 75l-75 -75h-89z" />
    <glyph glyph-name="caron" unicode="&#x2c7;" horiz-adv-x="647" 
d="M302 551l-164 146h89l75 -75l75 75h89z" />
    <glyph glyph-name="tilde" unicode="&#x2dc;" horiz-adv-x="619" 
d="M137 620c6 52 39 92 90 92s80 -39 117 -39c25 0 39 12 46 41l49 -4c-7 -60 -34 -98 -92 -98c-53 0 -80 39 -118 39c-20 0 -37 -10 -43 -35z" />
    <glyph glyph-name="dieresis" unicode="&#xa8;" horiz-adv-x="643" 
d="M403 586c-26 0 -50 21 -50 50s24 50 50 50s50 -21 50 -50s-24 -50 -50 -50zM197 586c-26 0 -50 21 -50 50s24 50 50 50s50 -21 50 -50s-24 -50 -50 -50z" />
    <glyph glyph-name="macron" unicode="&#xaf;" horiz-adv-x="657" 
d="M160 628v69h294v-69h-294z" />
    <glyph glyph-name="breve" unicode="&#x2d8;" horiz-adv-x="643" 
d="M300 558c-78 0 -145 54 -156 139h69c15 -47 43 -73 87 -73s72 26 87 73h69c-11 -85 -78 -139 -156 -139z" />
    <glyph glyph-name="ring" unicode="&#x2da;" horiz-adv-x="276" 
d="M117 517c-54 0 -98 44 -98 98c0 53 44 97 98 97c53 0 97 -44 97 -97c0 -54 -43 -98 -97 -98zM117 568c25 0 46 22 46 47s-21 46 -46 46s-47 -21 -47 -46s22 -47 47 -47z" />
    <glyph glyph-name="hungarumlaut" unicode="&#x2dd;" horiz-adv-x="622" 
d="M312 552l63 145h95l-103 -145h-55zM158 552l63 145h95l-103 -145h-55z" />
    <glyph glyph-name="dotaccent" unicode="&#x2d9;" horiz-adv-x="562" 
d="M260 586c-26 0 -50 21 -50 50s24 50 50 50s50 -21 50 -50s-24 -50 -50 -50z" />
    <glyph glyph-name="ogonek" unicode="&#x2db;" horiz-adv-x="563" 
d="M154 -109c0 49 38 86 75 109h64c-30 -19 -76 -55 -76 -95c0 -31 24 -45 50 -45c21 0 40 5 58 15l-13 -59c-18 -9 -37 -14 -57 -14c-51 0 -101 33 -101 89z" />
    <glyph glyph-name="cedilla" unicode="&#xb8;" horiz-adv-x="566" 
d="M217 -76l32 76h56l-21 -46c36 0 66 -27 66 -71c0 -58 -41 -81 -103 -81c-29 0 -60 12 -74 23l19 39c18 -11 31 -17 54 -17c25 0 44 14 44 36c0 34 -27 41 -73 41z" />
    <glyph glyph-name="question" unicode="?" horiz-adv-x="433" 
d="M212 156c-81 0 -134 49 -134 123c0 50 28 94 89 138c73 51 113 78 113 148c0 8 -2 75 -92 75c-59 0 -104 -28 -142 -65v88c40 32 88 49 142 49c134 0 170 -94 170 -144c0 -102 -47 -134 -138 -202c-34 -25 -64 -52 -64 -87c0 -33 18 -51 56 -51c31 0 54 8 71 18v-77
c-21 -9 -45 -13 -71 -13zM139 35c0 29 24 50 50 50s50 -21 50 -50s-24 -50 -50 -50s-50 21 -50 50z" />
    <glyph glyph-name="questiondown" unicode="&#xbf;" horiz-adv-x="433" 
d="M201 411c-26 0 -50 21 -50 50s24 50 50 50s50 -21 50 -50s-24 -50 -50 -50zM32 -72c0 102 47 134 138 202c34 25 64 52 64 87c0 33 -18 51 -56 51c-31 0 -54 -8 -71 -18v77c21 9 45 13 71 13c81 0 134 -49 134 -123c0 -50 -28 -94 -89 -138c-73 -51 -113 -78 -113 -148
c0 -8 2 -75 92 -75c59 0 104 28 142 65v-88c-40 -32 -88 -49 -142 -49c-134 0 -170 94 -170 144z" />
    <glyph glyph-name="ampersand" unicode="&#x26;" horiz-adv-x="776" 
d="M39 223c0 95 49 167 139 210c-17 31 -29 67 -29 106c0 98 70 171 177 171c102 0 171 -70 171 -158c0 -34 -12 -66 -33 -87h244v-72h-135v-38c0 -89 -13 -165 -39 -222l120 -133h-100l-61 68c-53 -59 -117 -83 -199 -83c-153 0 -255 97 -255 238zM317 372l159 -175
c13 43 19 96 19 158v38h-149v48c45 10 77 50 77 102c0 55 -42 95 -99 95c-44 0 -97 -31 -97 -99c0 -63 43 -114 90 -167zM117 223c0 -102 68 -166 177 -166c60 0 111 17 147 68c-212 234 -176 189 -221 246c-69 -31 -103 -80 -103 -148z" />
    <glyph glyph-name="exclam" unicode="!" horiz-adv-x="277" 
d="M86 155l-16 542h94l-16 -542h-62zM67 35c0 29 24 50 50 50s50 -21 50 -50s-24 -50 -50 -50s-50 21 -50 50z" />
    <glyph glyph-name="exclamdown" unicode="&#xa1;" horiz-adv-x="277" 
d="M117 411c-26 0 -50 21 -50 50s24 50 50 50s50 -21 50 -50s-24 -50 -50 -50zM70 -201l16 542h62l16 -542h-94z" />
    <glyph glyph-name="at" unicode="@" horiz-adv-x="840" 
d="M35 292c0 186 149 364 363 364c192 0 364 -148 364 -347c0 -137 -58 -211 -152 -211c-51 0 -88 24 -105 67c-28 -34 -67 -53 -110 -53c-96 0 -172 75 -172 175s76 175 172 175c43 0 73 -13 100 -44v35h68v-229c0 -63 33 -63 47 -63c26 0 84 4 84 148
c0 157 -133 284 -296 284c-162 0 -295 -135 -295 -301c0 -165 133 -300 295 -300c48 0 96 14 138 39l32 -60c-52 -28 -111 -42 -170 -42c-185 0 -363 150 -363 363zM290 287c0 -62 44 -109 105 -109c59 0 105 47 105 109c0 64 -46 110 -105 110c-61 0 -105 -46 -105 -110z
" />
    <glyph glyph-name="ordfeminine" unicode="&#xaa;" horiz-adv-x="484" 
d="M357 370h21v-41c-12 -8 -22 -10 -37 -10c-14 0 -27 5 -33 12c-9 10 -12 19 -14 27c-26 -30 -71 -43 -119 -43c-77 0 -131 43 -131 110s52 113 151 116c65 2 90 10 90 50c0 50 -50 57 -73 57c-44 0 -78 -22 -103 -53l-43 36c34 49 85 75 146 75c79 0 129 -46 129 -115
v-197c0 -17 8 -24 16 -24zM285 448v59c-13 -11 -41 -18 -90 -19c-56 -2 -94 -18 -94 -61c0 -35 30 -56 79 -56c68 0 105 31 105 77z" />
    <glyph glyph-name="ordmasculine" unicode="&#xba;" horiz-adv-x="493" 
d="M225 318c-107 0 -195 85 -195 194s88 194 195 194s195 -85 195 -194s-88 -194 -195 -194zM225 379c72 0 129 61 129 133s-57 133 -129 133s-129 -61 -129 -133s57 -133 129 -133z" />
    <glyph glyph-name="uni2116" unicode="&#x2116;" horiz-adv-x="1211" 
d="M89 0v722l447 -539v514h78v-722l-447 539v-514h-78zM723 482c0 112 89 197 198 197s198 -85 198 -197s-89 -197 -198 -197s-198 85 -198 197zM797 482c0 -71 54 -128 124 -128s124 57 124 128s-54 128 -124 128s-124 -57 -124 -128zM736 145v69h375v-69h-375z" />
    <glyph glyph-name="trademark" unicode="&#x2122;" horiz-adv-x="879" 
d="M376 326v372h7l195 -199l195 199h7v-372h-75v204l-127 -140l-127 140v-204h-75zM137 326v299h-118v72h311v-72h-118v-299h-75z" />
    <glyph glyph-name="copyright" unicode="&#xa9;" horiz-adv-x="849" 
d="M39 348c0 200 164 363 364 363s364 -163 364 -363s-164 -364 -364 -364s-364 164 -364 364zM83 348c0 -178 144 -323 320 -323s320 145 320 323s-144 322 -320 322s-320 -144 -320 -322zM206 353c0 116 90 201 203 201c57 0 110 -21 152 -62l-46 -50
c-29 27 -68 44 -106 44c-75 0 -130 -58 -130 -133c0 -76 55 -133 130 -133c38 0 77 16 106 45l46 -53c-41 -41 -95 -61 -152 -61c-113 0 -203 86 -203 202z" />
    <glyph glyph-name="registered" unicode="&#xae;" horiz-adv-x="431" 
d="M193 394c-89 0 -161 66 -161 159s72 159 161 159c90 0 163 -66 163 -159s-73 -159 -163 -159zM193 424c74 0 130 53 130 129c0 78 -56 131 -130 131s-129 -53 -129 -131c0 -76 55 -129 129 -129zM134 465v183h65c35 0 59 -24 59 -57c0 -23 -11 -42 -30 -53l44 -73h-40
l-40 67h-24v-67h-34zM168 560h30c15 0 26 13 26 29c0 15 -11 27 -26 27h-30v-56z" />
    <glyph glyph-name="published" horiz-adv-x="849" 
d="M39 348c0 200 164 363 364 363s364 -163 364 -363s-164 -364 -364 -364s-364 164 -364 364zM83 348c0 -178 144 -323 320 -323s320 145 320 323s-144 322 -320 322s-320 -144 -320 -322zM288 119v439h143c77 0 138 -60 138 -138c0 -80 -61 -138 -138 -138h-75v-163h-68z
M356 347h74c42 0 71 30 71 73c0 42 -29 72 -71 72h-74v-145z" />
    <glyph glyph-name="uni2113" unicode="&#x2113;" horiz-adv-x="507" 
d="M27 118l-26 50c27 19 55 39 81 59v265c0 157 69 220 158 220c82 0 133 -61 133 -154c0 -126 -77 -238 -215 -359v-10c1 -101 45 -136 106 -136c65 0 110 54 134 95l43 -42c-46 -82 -112 -121 -198 -121c-101 0 -159 75 -159 172c-19 -14 -38 -27 -57 -39zM156 282
c89 89 144 181 144 274c0 63 -28 87 -65 87c-41 0 -79 -39 -79 -134v-227z" />
    <glyph glyph-name="estimated" unicode="&#x212e;" horiz-adv-x="946" 
d="M197 102c67 -57 156 -93 255 -93c117 0 222 50 290 127h30c-73 -89 -190 -148 -321 -148c-226 0 -410 171 -410 382s184 382 410 382s411 -171 411 -382v-11h-665v-257zM197 380h508v259c-67 56 -155 91 -253 91c-99 0 -188 -36 -255 -93v-257z" />
    <glyph glyph-name="dollar" unicode="$" horiz-adv-x="581" 
d="M42 155l73 34c23 -63 65 -110 128 -125v284c-96 44 -164 88 -164 195c0 91 68 159 164 168v96h64v-98c66 -10 116 -46 148 -106l-66 -34c-19 36 -45 57 -82 66v-234c127 -57 195 -103 195 -221c0 -103 -68 -183 -195 -191v-96h-64v98c-89 12 -163 65 -201 164zM243 430
v209c-50 -7 -86 -40 -86 -96c0 -58 33 -86 86 -113zM307 61c105 9 117 85 117 119c0 73 -43 104 -117 139v-258z" />
    <glyph glyph-name="cent" unicode="&#xa2;" horiz-adv-x="570" 
d="M185 0l22 102c-101 36 -172 130 -172 249c0 194 164 267 269 267h10l16 79h68l-19 -88c45 -11 85 -32 117 -63l-45 -52c-23 23 -52 39 -86 47l-80 -387c2 0 10 -2 23 -2c33 0 93 8 142 56l46 -53c-62 -59 -145 -71 -194 -71c-13 0 -24 1 -31 2l-18 -86h-68zM221 170
l79 379h-1c-110 -2 -190 -86 -190 -198c0 -83 44 -151 112 -181z" />
    <glyph glyph-name="Euro" unicode="&#x20ac;" horiz-adv-x="782" 
d="M5 240l30 69h81c-1 13 -2 26 -2 39c0 16 1 32 3 47h-91l30 69h74c44 147 169 246 317 246c97 0 183 -40 244 -106l-55 -49c-46 52 -112 83 -189 83c-111 0 -199 -70 -236 -174h272l-30 -69h-258c-2 -15 -3 -31 -3 -47c0 -13 1 -26 2 -39h225l-30 -69h-181
c35 -109 125 -182 239 -182c81 0 150 32 197 87l56 -50c-63 -69 -152 -109 -253 -109c-150 0 -278 102 -319 254h-123z" />
    <glyph glyph-name="sterling" unicode="&#xa3;" horiz-adv-x="623" 
d="M37 0v67h9c138 0 170 85 170 150c0 23 -11 52 -25 80h-103v72h63c-26 45 -48 91 -48 138c0 113 92 205 205 205s205 -92 205 -205h-77c0 71 -56 133 -127 133s-128 -60 -128 -133c0 -39 28 -93 56 -138h153v-72h-115c11 -26 19 -53 19 -80c0 -75 -29 -124 -59 -145h304
v-72h-502z" />
    <glyph glyph-name="yen" unicode="&#xa5;" horiz-adv-x="651" 
d="M266 0v211h-212v72h214l-53 88h-161v72h119l-152 254h86l199 -334l197 334h84l-150 -254h119v-72h-162l-52 -88h214v-72h-212v-211h-78z" />
    <glyph glyph-name="florin" unicode="&#x192;" horiz-adv-x="412" 
d="M21 -101l101 475h-76l13 63h76l23 107c33 152 117 168 188 168c16 0 30 -1 46 -4l-14 -68c-23 3 -41 3 -51 3c-55 0 -80 -30 -93 -90l-25 -116h100l-13 -63h-100l-101 -475h-74z" />
    <glyph glyph-name="section" unicode="&#xa7;" horiz-adv-x="554" 
d="M79 -23h78c0 -42 13 -113 97 -113c48 0 96 28 96 89s-48 86 -114 120c-51 26 -112 59 -143 86c-44 39 -65 84 -65 137c0 79 47 122 89 143c-29 30 -43 67 -43 112c0 94 75 161 174 161c116 0 175 -83 175 -185h-78c0 42 -13 113 -97 113c-48 0 -96 -28 -96 -89
c0 -59 36 -79 96 -110c53 -27 122 -63 161 -96c44 -39 65 -84 65 -137c0 -75 -43 -120 -89 -143c29 -30 43 -67 43 -112c0 -96 -77 -161 -174 -161c-112 0 -175 79 -175 185zM260 143c0 0 23 -11 49 -26c87 20 87 73 87 91c0 67 -56 100 -154 153c0 0 -23 11 -49 26
c-87 -20 -87 -73 -87 -91c0 -67 56 -100 154 -153z" />
    <glyph glyph-name="paragraph" unicode="&#xb6;" 
d="M229 0v267c-114 6 -204 100 -204 215c0 119 96 215 215 215h285v-72h-66v-625h-78v625h-74v-625h-78z" />
    <glyph glyph-name="Delta" unicode="&#x2206;" horiz-adv-x="660" 
d="M21 0l288 712l287 -712h-575zM127 72h363l-181 465z" />
    <glyph glyph-name="Omega" unicode="&#x2126;" horiz-adv-x="817" 
d="M58 0v72h113c-78 65 -127 167 -127 286c0 203 155 352 343 352s343 -149 343 -352c0 -119 -49 -221 -127 -286h113v-72h-282c86 55 219 160 219 343c0 168 -113 295 -266 295s-266 -127 -266 -295c0 -183 133 -288 219 -343h-282z" />
    <glyph glyph-name="mu" unicode="&#xb5;" horiz-adv-x="562" 
d="M122 37v-230h-74v697h74v-302c0 -96 54 -145 137 -145c84 0 138 49 138 146v301h74v-302c0 -141 -92 -214 -215 -214c-48 0 -100 19 -134 49z" />
    <glyph glyph-name="pi" unicode="&#x3c0;" horiz-adv-x="622" 
d="M171 0h-80c54 118 78 263 79 435h-3c-38 0 -77 -18 -97 -54l-60 35c30 56 96 87 156 87h399l-16 -68h-73v-315c0 -43 26 -48 45 -48v-74h-1c-71 0 -118 49 -118 122v315h-158c-1 -151 -26 -324 -73 -435z" />
    <glyph glyph-name="infinity" unicode="&#x221e;" horiz-adv-x="827" 
d="M205 174c-94 0 -160 65 -160 153c0 84 71 157 169 157c76 0 128 -55 175 -105c50 54 110 105 190 105c93 0 160 -64 160 -157c0 -81 -72 -153 -170 -153c-73 0 -122 50 -172 102c-51 -53 -111 -102 -192 -102zM442 325c38 -40 81 -81 129 -81c52 0 90 38 90 83
c0 52 -36 88 -88 88c-50 0 -93 -48 -131 -90zM212 244c49 0 97 47 136 86c-41 44 -88 85 -134 85c-53 0 -91 -39 -91 -88c0 -48 36 -83 89 -83z" />
    <glyph glyph-name="partialdiff" unicode="&#x2202;" horiz-adv-x="544" 
d="M33 208c0 119 88 234 214 234c51 0 109 -23 139 -73v1c0 101 -26 272 -159 272c-58 0 -82 -25 -97 -44l-53 47c19 20 62 67 150 67c84 0 149 -42 188 -122c34 -70 42 -153 42 -210c0 -103 -9 -227 -75 -311c-38 -49 -96 -84 -159 -84c-125 0 -190 107 -190 223zM107 195
c0 -69 37 -139 116 -139c55 0 102 40 126 94c12 27 18 60 18 90c0 76 -48 134 -120 134c-67 0 -140 -64 -140 -179z" />
    <glyph glyph-name="product" unicode="&#x220f;" horiz-adv-x="692" 
d="M131 0v628h-103v69h593v-69h-103v-628h-74v628h-239v-628h-74z" />
    <glyph glyph-name="lozenge" unicode="&#x25ca;" horiz-adv-x="569" 
d="M263 -35l-231 384l231 373l231 -373zM263 98l149 250l-149 246l-149 -246z" />
    <glyph glyph-name="summation" unicode="&#x2211;" horiz-adv-x="609" 
d="M22 0l266 370l-253 327h471v-72h-338l204 -264l-211 -289h356v-72h-495z" />
    <glyph glyph-name="radical" unicode="&#x221a;" horiz-adv-x="749" 
d="M54 308l-22 52l152 64l171 -400l247 776h72l-311 -964l-218 510z" />
    <glyph glyph-name="integral" unicode="&#x222b;" horiz-adv-x="353" 
d="M17 -30c11 -4 24 -7 42 -7c63 0 69 68 69 173c0 99 -13 279 -13 417c0 177 60 236 141 236c14 0 28 -2 37 -4v-63c-7 3 -17 5 -31 5c-64 0 -72 -89 -72 -180c0 -120 14 -325 14 -424c0 -171 -52 -225 -137 -225c-17 0 -36 4 -50 9v63z" />
    <glyph glyph-name="colon.case" horiz-adv-x="225" 
d="M91 430c-26 0 -50 21 -50 50s24 50 50 50s50 -21 50 -50s-24 -50 -50 -50zM91 154c-26 0 -50 21 -50 50s24 50 50 50s50 -21 50 -50s-24 -50 -50 -50z" />
    <glyph glyph-name="semicolon.case" horiz-adv-x="275" 
d="M121 430c-26 0 -50 21 -50 50s24 50 50 50s50 -21 50 -50s-24 -50 -50 -50zM-8 0l84 223h99l-117 -223h-66z" />
    <glyph glyph-name="bullet.case" horiz-adv-x="299" 
d="M128 266c-43 0 -82 34 -82 82s39 82 82 82s82 -34 82 -82s-39 -82 -82 -82z" />
    <glyph glyph-name="periodcentered.case" horiz-adv-x="225" 
d="M91 297c-26 0 -50 21 -50 50s24 50 50 50s50 -21 50 -50s-24 -50 -50 -50z" />
    <glyph glyph-name="guilsinglleft.case" horiz-adv-x="295" 
d="M142 174l-110 175l110 175h78l-110 -175l110 -175h-78z" />
    <glyph glyph-name="guilsinglright.case" horiz-adv-x="295" 
d="M32 174l110 175l-110 175h78l110 -175l-110 -175h-78z" />
    <glyph glyph-name="guillemotleft.case" horiz-adv-x="451" 
d="M298 174l-110 175l110 175h78l-110 -175l110 -175h-78zM142 174l-110 175l110 175h78l-110 -175l110 -175h-78z" />
    <glyph glyph-name="guillemotright.case" horiz-adv-x="451" 
d="M188 174l110 175l-110 175h78l110 -175l-110 -175h-78zM32 174l110 175l-110 175h78l110 -175l-110 -175h-78z" />
    <glyph glyph-name="slash.case" horiz-adv-x="459" 
d="M18 -81l315 859h68l-314 -859h-69z" />
    <glyph glyph-name="backslash.case" horiz-adv-x="459" 
d="M332 -81l-314 859h68l315 -859h-69z" />
    <glyph glyph-name="hyphen.case" horiz-adv-x="421" 
d="M39 314v69h300v-69h-300z" />
    <glyph glyph-name="endash.case" horiz-adv-x="493" 
d="M38 314v69h374v-69h-374z" />
    <glyph glyph-name="emdash.case" horiz-adv-x="757" 
d="M38 314v69h638v-69h-638z" />
    <glyph glyph-name="parenleft.case" horiz-adv-x="331" 
d="M270 -138c-149 131 -226 296 -226 480s77 349 226 480l37 -40c-123 -121 -189 -260 -189 -440s66 -319 189 -440z" />
    <glyph glyph-name="parenright.case" horiz-adv-x="331" 
d="M-19 -98c123 121 189 260 189 440s-66 319 -189 440l37 40c149 -131 226 -296 226 -480s-77 -349 -226 -480z" />
    <glyph glyph-name="bracketleft.case" horiz-adv-x="344" 
d="M81 -96v890h225v-72h-147v-746h147v-72h-225z" />
    <glyph glyph-name="bracketright.case" horiz-adv-x="344" 
d="M-5 -24h147v746h-147v72h225v-890h-225v72z" />
    <glyph glyph-name="braceleft.case" horiz-adv-x="355" 
d="M110 33v190c0 43 -13 73 -40 89c-22 13 -45 14 -45 14v48s23 1 45 14c27 16 40 46 40 89v190c0 74 50 128 120 128h45v-59h-37c-40 0 -54 -36 -54 -69v-179c0 -39 -6 -82 -34 -110c-12 -12 -25 -21 -40 -28c15 -7 28 -16 40 -28c28 -28 34 -71 34 -110v-179
c0 -33 14 -69 54 -69h37v-59h-45c-70 0 -120 54 -120 128z" />
    <glyph glyph-name="braceright.case" horiz-adv-x="355" 
d="M37 -36h37c40 0 54 36 54 69v179c0 39 6 82 34 110c12 12 25 21 40 28c-15 7 -28 16 -40 28c-28 28 -34 71 -34 110v179c0 33 -14 69 -54 69h-37v59h45c70 0 120 -54 120 -128v-190c0 -43 13 -73 40 -89c22 -13 45 -14 45 -14v-48s-23 -1 -45 -14
c-27 -16 -40 -46 -40 -89v-190c0 -74 -50 -128 -120 -128h-45v59z" />
    <glyph glyph-name="exclamdown.case" horiz-adv-x="277" 
d="M117 612c-26 0 -50 21 -50 50s24 50 50 50s50 -21 50 -50s-24 -50 -50 -50zM70 0l16 542h62l16 -542h-94z" />
    <glyph glyph-name="questiondown.case" horiz-adv-x="433" 
d="M201 612c-26 0 -50 21 -50 50s24 50 50 50s50 -21 50 -50s-24 -50 -50 -50zM32 129c0 102 47 134 138 202c34 25 64 52 64 87c0 33 -18 51 -56 51c-31 0 -54 -8 -71 -18v77c21 9 45 13 71 13c81 0 134 -49 134 -123c0 -50 -28 -94 -89 -138c-73 -51 -113 -78 -113 -148
c0 -8 2 -75 92 -75c59 0 104 28 142 65v-88c-40 -32 -88 -49 -142 -49c-134 0 -170 94 -170 144z" />
    <glyph glyph-name="at.case" horiz-adv-x="840" 
d="M35 348c0 186 149 364 363 364c192 0 364 -148 364 -347c0 -137 -58 -211 -152 -211c-51 0 -88 24 -105 67c-28 -34 -67 -53 -110 -53c-96 0 -172 75 -172 175s76 175 172 175c43 0 73 -13 100 -44v35h68v-229c0 -63 33 -63 47 -63c26 0 84 4 84 148
c0 157 -133 284 -296 284c-162 0 -295 -135 -295 -301c0 -165 133 -300 295 -300c48 0 96 14 138 39l32 -60c-52 -28 -111 -42 -170 -42c-185 0 -363 150 -363 363zM290 343c0 -62 44 -109 105 -109c59 0 105 47 105 109c0 64 -46 110 -105 110c-61 0 -105 -46 -105 -110z
" />
    <glyph glyph-name="Agrave.alt1" horiz-adv-x="717" 
d="M303 600l-77 97h109l34 -97h-66zM17 0l286 583h67l287 -583h-87l-85 172h-297l-84 -172h-87zM224 244h226l-113 239z" />
    <glyph glyph-name="Aacute.alt1" horiz-adv-x="717" 
d="M305 600l34 97h109l-77 -97h-66zM17 0l286 583h67l287 -583h-87l-85 172h-297l-84 -172h-87zM224 244h226l-113 239z" />
    <glyph glyph-name="Acircumflex.alt1" horiz-adv-x="717" 
d="M207 600l129 112l129 -112h-85l-44 53l-44 -53h-85zM17 0l287 583h67l286 -583h-87l-84 172h-297l-85 -172h-87zM224 244h226l-113 239z" />
    <glyph glyph-name="Atilde.alt1" horiz-adv-x="717" 
d="M186 612c6 52 39 92 90 92s80 -39 117 -39c25 0 39 12 46 41l49 -4c-7 -60 -34 -98 -92 -98c-53 0 -80 39 -118 39c-20 0 -37 -10 -43 -35zM17 0l286 583h67l287 -583h-87l-85 172h-297l-84 -172h-87zM224 244h226l-113 239z" />
    <glyph glyph-name="Adieresis.alt1" horiz-adv-x="738" 
d="M32 0l315 722l316 -722h-85l-75 172h-314l-75 -172h-82zM495 629c-26 0 -50 21 -50 50s24 50 50 50s50 -21 50 -50s-24 -50 -50 -50zM202 629c-26 0 -50 21 -50 50s24 50 50 50s50 -21 50 -50s-24 -50 -50 -50zM220 244h252l-126 296z" />
    <glyph glyph-name="Amacron.alt1" horiz-adv-x="717" 
d="M190 635v62h294v-62h-294zM17 0l286 611h68l286 -611h-87l-80 172h-306l-81 -172h-86zM218 244h238l-119 263z" />
    <glyph glyph-name="Abreve.alt1" horiz-adv-x="717" 
d="M337 603c-63 0 -117 35 -126 94h64c10 -22 31 -33 62 -33s52 11 62 33h64c-9 -59 -63 -94 -126 -94zM17 0l286 583h67l287 -583h-87l-85 172h-297l-84 -172h-87zM224 244h226l-113 239z" />
    <glyph glyph-name="Aring.alt1" horiz-adv-x="716" 
d="M17 0l253 541c-19 18 -31 44 -31 72c0 53 44 97 98 97c53 0 97 -44 97 -97c0 -28 -12 -54 -31 -72l253 -541h-86l-80 172h-306l-81 -172h-86zM337 566c25 0 46 22 46 47s-21 46 -46 46s-47 -21 -47 -46s22 -47 47 -47zM217 244h239l-119 264z" />
    <glyph glyph-name="Aringacute.alt1" horiz-adv-x="680" 
d="M17 0l242 489c-17 17 -27 39 -27 64c0 48 39 87 87 87h6l20 57h109l-69 -87c14 -15 22 -35 22 -57c0 -25 -11 -48 -29 -65l242 -488h-87l-85 172h-259l-85 -172h-87zM319 516c20 0 37 17 37 37s-17 36 -37 36s-36 -16 -36 -36s16 -37 36 -37zM225 244h187l-93 190z" />
    <glyph glyph-name="Aogonek.alt1" horiz-adv-x="672" 
d="M17 0l315 722l249 -568c-38 -11 -87 -47 -87 -82c0 -20 19 -28 40 -28s40 5 58 15l-13 -59c-18 -11 -37 -14 -57 -14c-46 0 -91 26 -91 72c0 39 32 68 68 88l-11 26h-314l-75 -172h-82zM205 244h252l-126 296z" />
    <glyph glyph-name="AEacute.alt1" horiz-adv-x="1000" 
d="M543 600l34 97h109l-77 -97h-66zM5 0l534 583h373v-72h-315v-167h296v-72h-296v-200h322v-72h-400v172h-257l-159 -172h-98zM323 244h196v218z" />
    <glyph glyph-name="Cacute.alt1" horiz-adv-x="664" 
d="M319 600l34 97h109l-77 -97h-66zM44 283c0 170 142 297 313 297c69 0 165 -30 233 -114l-53 -47c-45 56 -111 89 -180 89c-134 0 -235 -98 -235 -225s101 -225 235 -225c74 0 139 37 182 96l54 -47c-45 -59 -135 -121 -236 -121c-171 0 -313 127 -313 297z" />
    <glyph glyph-name="Ccircumflex.alt1" horiz-adv-x="664" 
d="M221 600l129 112l129 -112h-85l-44 53l-44 -53h-85zM44 283c0 170 142 297 313 297c69 0 165 -30 233 -114l-53 -47c-45 56 -111 89 -180 89c-134 0 -235 -98 -235 -225s101 -225 235 -225c74 0 139 37 182 96l54 -47c-45 -59 -135 -121 -236 -121
c-171 0 -313 127 -313 297z" />
    <glyph glyph-name="Ccaron.alt1" horiz-adv-x="664" 
d="M350 594l-129 103h85l44 -44l44 44h85zM44 283c0 170 142 297 313 297c69 0 165 -30 233 -114l-53 -47c-45 56 -111 89 -180 89c-134 0 -235 -98 -235 -225s101 -225 235 -225c74 0 139 37 182 96l54 -47c-45 -59 -135 -121 -236 -121c-171 0 -313 127 -313 297z" />
    <glyph glyph-name="Cdotaccent.alt1" horiz-adv-x="664" 
d="M351 629c-26 0 -50 21 -50 50s24 50 50 50s50 -21 50 -50s-24 -50 -50 -50zM44 283c0 170 142 297 313 297c69 0 165 -30 233 -114l-53 -47c-45 56 -111 89 -180 89c-134 0 -235 -98 -235 -225s101 -225 235 -225c74 0 139 37 182 96l54 -47c-45 -59 -135 -121 -236 -121
c-171 0 -313 127 -313 297z" />
    <glyph glyph-name="Ccedilla.alt1" horiz-adv-x="664" 
d="M44 413c0 170 142 297 313 297c69 0 165 -30 233 -114l-53 -47c-45 56 -111 89 -180 89c-134 0 -235 -98 -235 -225s101 -225 235 -225c74 0 139 37 182 96l54 -47c-42 -56 -124 -114 -218 -121h-1l-10 -23c36 0 66 -19 66 -55c0 -41 -31 -65 -83 -65
c-29 0 -60 12 -74 23l19 39c18 -11 31 -17 54 -17c20 0 30 8 30 22c0 19 -27 23 -73 23l23 54c-157 15 -282 136 -282 296z" />
    <glyph glyph-name="Dcaron.alt1" horiz-adv-x="723" 
d="M342 594l-129 103h85l44 -44l44 44h85zM89 0v583h224c202 0 320 -121 320 -292c0 -172 -117 -291 -319 -291h-225zM167 72h141c166 0 247 90 247 219s-81 220 -248 220h-140v-439z" />
    <glyph glyph-name="Egrave.alt1" horiz-adv-x="585" 
d="M273 600l-77 97h109l34 -97h-66zM89 0v583h393v-72h-315v-167h296v-72h-296v-200h322v-72h-400z" />
    <glyph glyph-name="Eacute.alt1" horiz-adv-x="585" 
d="M245 600l34 97h109l-77 -97h-66zM89 0v583h393v-72h-315v-167h296v-72h-296v-200h322v-72h-400z" />
    <glyph glyph-name="Ecircumflex.alt1" horiz-adv-x="585" 
d="M158 600l129 112l129 -112h-85l-44 53l-44 -53h-85zM89 0v583h393v-72h-315v-167h296v-72h-296v-200h322v-72h-400z" />
    <glyph glyph-name="Ecaron.alt1" horiz-adv-x="585" 
d="M286 594l-129 103h85l44 -44l44 44h85zM89 0v583h393v-72h-315v-167h296v-72h-296v-200h322v-72h-400z" />
    <glyph glyph-name="Edieresis.alt1" horiz-adv-x="585" 
d="M388 629c-26 0 -50 21 -50 50s24 50 50 50s50 -21 50 -50s-24 -50 -50 -50zM182 629c-26 0 -50 21 -50 50s24 50 50 50s50 -21 50 -50s-24 -50 -50 -50zM89 0v583h393v-72h-315v-167h296v-72h-296v-200h322v-72h-400z" />
    <glyph glyph-name="Emacron.alt1" horiz-adv-x="585" 
d="M136 635v62h294v-62h-294zM89 0v583h393v-72h-315v-167h296v-72h-296v-200h322v-72h-400z" />
    <glyph glyph-name="Ebreve.alt1" horiz-adv-x="585" 
d="M286 603c-63 0 -117 35 -126 94h64c10 -22 31 -33 62 -33s52 11 62 33h64c-9 -59 -63 -94 -126 -94zM89 0v583h393v-72h-315v-167h296v-72h-296v-200h322v-72h-400z" />
    <glyph glyph-name="Edotaccent.alt1" horiz-adv-x="585" 
d="M290 629c-26 0 -50 21 -50 50s24 50 50 50s50 -21 50 -50s-24 -50 -50 -50zM89 0v583h393v-72h-315v-167h296v-72h-296v-200h322v-72h-400z" />
    <glyph glyph-name="Eogonek.alt1" horiz-adv-x="585" 
d="M89 114v583h393v-72h-315v-167h296v-72h-296v-200h322v-72c-25 -8 -62 -34 -62 -60c0 -14 13 -19 28 -19c16 0 35 5 48 13l-13 -50c-13 -8 -37 -12 -51 -12c-43 0 -70 18 -70 53c0 33 42 68 71 75h-351z" />
    <glyph glyph-name="Gcircumflex.alt1" horiz-adv-x="712" 
d="M217 600l129 112l129 -112h-85l-44 53l-44 -53h-85zM44 283c0 171 141 297 313 297c69 0 163 -29 233 -113l-53 -48c-45 56 -111 89 -180 89c-134 0 -235 -96 -235 -225s101 -225 235 -225c69 0 130 26 176 71v114h-198v72h276v-214c-63 -72 -153 -115 -254 -115
c-172 0 -313 126 -313 297z" />
    <glyph glyph-name="Gbreve.alt1" horiz-adv-x="712" 
d="M352 603c-63 0 -117 35 -126 94h64c10 -22 31 -33 62 -33s52 11 62 33h64c-9 -59 -63 -94 -126 -94zM44 283c0 171 141 297 313 297c69 0 163 -29 233 -113l-53 -48c-45 56 -111 89 -180 89c-134 0 -235 -96 -235 -225s101 -225 235 -225c69 0 130 26 176 71v114h-198v72
h276v-214c-63 -72 -153 -115 -254 -115c-172 0 -313 126 -313 297z" />
    <glyph glyph-name="Gdotaccent.alt1" horiz-adv-x="712" 
d="M352 629c-26 0 -50 21 -50 50s24 50 50 50s50 -21 50 -50s-24 -50 -50 -50zM44 283c0 171 141 297 313 297c69 0 163 -29 233 -113l-53 -48c-45 56 -111 89 -180 89c-134 0 -235 -96 -235 -225s101 -225 235 -225c69 0 130 26 176 71v114h-198v72h276v-214
c-63 -72 -153 -115 -254 -115c-172 0 -313 126 -313 297z" />
    <glyph glyph-name="Gcommaaccent.alt1" horiz-adv-x="712" 
d="M357 116c-172 0 -313 126 -313 297s141 297 313 297c69 0 163 -29 233 -113l-53 -48c-45 56 -111 89 -180 89c-134 0 -235 -96 -235 -225s101 -225 235 -225c69 0 130 26 176 71v114h-198v72h276v-214c-63 -72 -153 -115 -254 -115zM257 0l34 97h109l-77 -97h-66z" />
    <glyph glyph-name="Hcircumflex.alt1" horiz-adv-x="764" 
d="M232 600l129 112l129 -112h-85l-44 53l-44 -53h-85zM89 0v697h78v-291h387v291h78v-697h-78v334h-387v-334h-78z" />
    <glyph glyph-name="Igrave.alt1" horiz-adv-x="307" 
d="M102 600l-77 97h109l34 -97h-66zM93 0v583h78v-583h-78z" />
    <glyph glyph-name="Iacute.alt1" horiz-adv-x="307" 
d="M95 600l34 97h109l-77 -97h-66zM93 0v583h78v-583h-78z" />
    <glyph glyph-name="Icircumflex.alt1" horiz-adv-x="307" 
d="M3 600l129 112l129 -112h-85l-44 53l-44 -53h-85zM93 0v583h78v-583h-78z" />
    <glyph glyph-name="Itilde.alt1" horiz-adv-x="307" 
d="M32 608l-49 4c6 52 39 92 90 92s80 -39 117 -39c25 0 39 12 46 41l49 -4c-7 -60 -34 -98 -92 -98c-53 0 -80 39 -118 39c-20 0 -37 -10 -43 -35zM93 0v583h78v-583h-78z" />
    <glyph glyph-name="Idieresis.alt1" horiz-adv-x="307" 
d="M214 629c-26 0 -50 21 -50 50s24 50 50 50s50 -21 50 -50s-24 -50 -50 -50zM50 629c-26 0 -50 21 -50 50s24 50 50 50s50 -21 50 -50s-24 -50 -50 -50zM93 0v583h78v-583h-78z" />
    <glyph glyph-name="Imacron.alt1" horiz-adv-x="307" 
d="M-5 635v62h274v-62h-274zM93 0v583h78v-583h-78z" />
    <glyph glyph-name="Ibreve.alt1" horiz-adv-x="307" 
d="M132 603c-63 0 -117 35 -126 94h64c10 -22 31 -33 62 -33s52 11 62 33h64c-9 -59 -63 -94 -126 -94zM93 0v583h78v-583h-78z" />
    <glyph glyph-name="Idotaccent.alt1" horiz-adv-x="307" 
d="M132 629c-26 0 -50 21 -50 50s24 50 50 50s50 -21 50 -50s-24 -50 -50 -50zM93 0v583h78v-583h-78z" />
    <glyph glyph-name="Iogonek.alt1" horiz-adv-x="307" 
d="M51 39c0 23 20 46 42 61v1v596h78v-583c-25 -8 -62 -34 -62 -60c0 -14 13 -19 28 -19c16 0 35 5 48 13l-13 -50c-13 -8 -37 -12 -51 -12c-43 0 -70 18 -70 53z" />
    <glyph glyph-name="Jcircumflex.alt1" horiz-adv-x="347" 
d="M51 600l129 112l129 -112h-85l-44 53l-44 -53h-85zM11 -5v76c13 -8 30 -12 53 -12c68 0 78 60 78 130v394h78v-391c0 -102 -11 -206 -156 -206c-19 0 -36 3 -53 9z" />
    <glyph glyph-name="Kcommaaccent.alt1" horiz-adv-x="675" 
d="M89 0v697h78v-370l335 370h96l-278 -304l286 -393h-94l-244 336l-101 -110v-226h-78zM241 0l31 97h103l-68 -97h-66z" />
    <glyph glyph-name="Lacute.alt1" horiz-adv-x="533" 
d="M92 600l34 97h109l-77 -97h-66zM89 0v583h78v-511h287v-72h-365z" />
    <glyph glyph-name="Lcommaaccent.alt1" horiz-adv-x="533" 
d="M89 114v583h78v-511h287v-72h-365zM200 0l31 97h103l-68 -97h-66z" />
    <glyph glyph-name="Nacute.alt1" horiz-adv-x="788" 
d="M89 0v722l489 -552v527h78v-722l-489 552v-527h-78zM318 600l34 97h109l-77 -97h-66z" />
    <glyph glyph-name="Ncaron.alt1" horiz-adv-x="788" 
d="M89 0v722l489 -552v527h78v-722l-489 552v-527h-78zM368 594l-129 103h85l44 -44l44 44h85z" />
    <glyph glyph-name="Ntilde.alt1" horiz-adv-x="788" 
d="M89 0v722l489 -552v527h78v-722l-489 552v-527h-78zM230 612c6 52 38 92 87 92c48 0 76 -39 111 -39c23 0 36 12 43 41l49 -4c-7 -60 -33 -98 -89 -98c-50 0 -76 39 -112 39c-19 0 -34 -10 -40 -35z" />
    <glyph glyph-name="Ncommaaccent.alt1" horiz-adv-x="788" 
d="M89 0v722l489 -552v527h78v-722l-489 552v-527h-78zM301 0l31 97h103l-68 -97h-66z" />
    <glyph glyph-name="Ograve.alt1" horiz-adv-x="757" 
d="M339 600l-77 97h109l34 -97h-66zM44 283c0 171 141 297 313 297s313 -126 313 -297s-141 -297 -313 -297s-313 126 -313 297zM121 283c0 -129 102 -225 236 -225s235 96 235 225s-101 225 -235 225s-236 -96 -236 -225z" />
    <glyph glyph-name="Oacute.alt1" horiz-adv-x="757" 
d="M320 600l34 97h109l-77 -97h-66zM44 283c0 171 141 297 313 297s313 -126 313 -297s-141 -297 -313 -297s-313 126 -313 297zM121 283c0 -129 102 -225 236 -225s235 96 235 225s-101 225 -235 225s-236 -96 -236 -225z" />
    <glyph glyph-name="Ocircumflex.alt1" horiz-adv-x="757" 
d="M231 600l129 112l129 -112h-85l-44 53l-44 -53h-85zM44 283c0 171 141 297 313 297s313 -126 313 -297s-141 -297 -313 -297s-313 126 -313 297zM121 283c0 -129 102 -225 236 -225s235 96 235 225s-101 225 -235 225s-236 -96 -236 -225z" />
    <glyph glyph-name="Otilde.alt1" horiz-adv-x="757" 
d="M200 612c6 52 39 92 90 92s80 -39 117 -39c25 0 39 12 46 41l49 -4c-7 -60 -34 -98 -92 -98c-53 0 -80 39 -118 39c-20 0 -37 -10 -43 -35zM44 283c0 171 141 297 313 297s313 -126 313 -297s-141 -297 -313 -297s-313 126 -313 297zM121 283c0 -129 102 -225 236 -225
s235 96 235 225s-101 225 -235 225s-236 -96 -236 -225z" />
    <glyph glyph-name="Odieresis.alt1" horiz-adv-x="837" 
d="M632 679c0 29 24 50 50 50s50 -21 50 -50s-24 -50 -50 -50s-50 21 -50 50zM112 629c-26 0 -50 21 -50 50s24 50 50 50s50 -21 50 -50s-24 -50 -50 -50zM44 338c0 203 158 352 353 352s353 -149 353 -352s-158 -352 -353 -352s-353 149 -353 352zM121 338
c0 -160 118 -280 276 -280s275 120 275 280s-117 280 -275 280s-276 -120 -276 -280z" />
    <glyph glyph-name="Omacron.alt1" horiz-adv-x="757" 
d="M212 635v62h294v-62h-294zM44 283c0 171 141 297 313 297s313 -126 313 -297s-141 -297 -313 -297s-313 126 -313 297zM121 283c0 -129 102 -225 236 -225s235 96 235 225s-101 225 -235 225s-236 -96 -236 -225z" />
    <glyph glyph-name="Obreve.alt1" horiz-adv-x="757" 
d="M356 603c-63 0 -117 35 -126 94h64c10 -22 31 -33 62 -33s52 11 62 33h64c-9 -59 -63 -94 -126 -94zM44 283c0 171 141 297 313 297s313 -126 313 -297s-141 -297 -313 -297s-313 126 -313 297zM121 283c0 -129 102 -225 236 -225s235 96 235 225s-101 225 -235 225
s-236 -96 -236 -225z" />
    <glyph glyph-name="Ohungarumlaut.alt1" horiz-adv-x="757" 
d="M384 600l53 97h89l-87 -97h-55zM247 600l53 97h89l-87 -97h-55zM44 283c0 171 141 297 313 297s313 -126 313 -297s-141 -297 -313 -297s-313 126 -313 297zM121 283c0 -129 102 -225 236 -225s235 96 235 225s-101 225 -235 225s-236 -96 -236 -225z" />
    <glyph glyph-name="Oslashacute.alt1" horiz-adv-x="757" 
d="M332 600l34 97h109l-77 -97h-66zM96 0l48 64c-62 53 -100 130 -100 220c0 171 141 297 313 297c53 0 104 -12 148 -34l51 68l57 -43l-48 -64c64 -54 105 -132 105 -224c0 -171 -141 -297 -313 -297c-56 0 -109 13 -155 37l-49 -66zM188 123l272 364
c-30 14 -66 22 -103 22c-134 0 -236 -96 -236 -225c0 -65 25 -121 67 -161zM247 83c32 -16 70 -24 110 -24c134 0 235 96 235 225c0 66 -27 124 -72 164z" />
    <glyph glyph-name="Racute.alt1" horiz-adv-x="643" 
d="M236 600l34 97h109l-77 -97h-66zM89 0v583h258c104 0 189 -78 189 -183c0 -81 -55 -147 -133 -173l168 -227h-89l-157 212h-2h-156v-212h-78zM167 284h172c68 0 119 50 119 116c0 62 -49 111 -114 111h-177v-227z" />
    <glyph glyph-name="Rcaron.alt1" horiz-adv-x="643" 
d="M289 594l-129 103h85l44 -44l44 44h85zM89 0v583h258c104 0 189 -78 189 -183c0 -81 -55 -147 -133 -173l168 -227h-89l-157 212h-2h-156v-212h-78zM167 284h172c68 0 119 50 119 116c0 62 -49 111 -114 111h-177v-227z" />
    <glyph glyph-name="Rcommaaccent.alt1" horiz-adv-x="643" 
d="M89 0v697h238c115 0 209 -88 209 -208c0 -93 -55 -168 -133 -198l168 -291h-89l-157 276h-3h-155v-276h-78zM167 348h152c80 0 139 60 139 141c0 77 -57 136 -134 136h-157v-277zM230 0l31 97h103l-68 -97h-66z" />
    <glyph glyph-name="Sacute.alt1" horiz-adv-x="540" 
d="M217 600l34 97h109l-77 -97h-66zM37 125l67 30c21 -51 70 -95 147 -95c110 0 122 67 122 91c0 63 -49 88 -135 121c-87 34 -162 70 -162 158c0 87 74 150 171 150c78 0 136 -35 167 -101l-66 -34c-20 43 -53 63 -103 63s-90 -26 -90 -76s46 -63 121 -94
c113 -45 175 -87 175 -185c0 -95 -73 -165 -202 -165c-95 0 -174 43 -212 137z" />
    <glyph glyph-name="Scircumflex.alt1" horiz-adv-x="543" 
d="M108 600l129 112l129 -112h-85l-44 53l-44 -53h-85zM37 125l67 30c21 -51 70 -95 147 -95c110 0 122 67 122 91c0 63 -49 88 -135 121c-87 34 -162 70 -162 158c0 87 74 150 171 150c78 0 136 -35 167 -101l-66 -34c-20 43 -53 63 -103 63s-90 -26 -90 -76
s46 -63 121 -94c113 -45 175 -87 175 -185c0 -95 -73 -165 -202 -165c-95 0 -174 43 -212 137z" />
    <glyph glyph-name="Scaron.alt1" horiz-adv-x="543" 
d="M246 594l-129 103h85l44 -44l44 44h85zM37 125l67 30c21 -51 70 -95 147 -95c110 0 122 67 122 91c0 63 -49 88 -135 121c-87 34 -162 70 -162 158c0 87 74 150 171 150c78 0 136 -35 167 -101l-66 -34c-20 43 -53 63 -103 63s-90 -26 -90 -76s46 -63 121 -94
c113 -45 175 -87 175 -185c0 -95 -73 -165 -202 -165c-95 0 -174 43 -212 137z" />
    <glyph glyph-name="Scommaaccent.alt1" horiz-adv-x="543" 
d="M37 255l67 30c21 -51 70 -95 147 -95c110 0 122 67 122 91c0 63 -49 88 -135 121c-87 34 -162 70 -162 158c0 87 74 150 171 150c78 0 136 -35 167 -101l-66 -34c-20 43 -53 63 -103 63s-90 -26 -90 -76s46 -63 121 -94c113 -45 175 -87 175 -185
c0 -95 -73 -165 -202 -165c-95 0 -174 43 -212 137zM157 0l34 97h109l-77 -97h-66z" />
    <glyph glyph-name="Scedilla.alt1" horiz-adv-x="543" 
d="M37 255l67 30c21 -51 70 -95 147 -95c110 0 122 67 122 91c0 63 -49 88 -135 121c-87 34 -162 70 -162 158c0 87 74 150 171 150c78 0 136 -35 167 -101l-66 -34c-20 43 -53 63 -103 63s-90 -26 -90 -76s46 -63 121 -94c113 -45 175 -87 175 -185
c0 -90 -66 -158 -183 -165l-12 -25c36 0 66 -19 66 -55c0 -41 -31 -65 -83 -65c-29 0 -60 12 -74 23l19 39c18 -11 31 -17 54 -17c20 0 30 8 30 22c0 19 -27 23 -73 23l24 56c-82 9 -148 52 -182 136z" />
    <glyph glyph-name="Tcaron.alt1" horiz-adv-x="555" 
d="M255 594l-129 103h85l44 -44l44 44h85zM217 0v511h-190v72h458v-72h-190v-511h-78z" />
    <glyph glyph-name="Tcommaaccent.alt1" horiz-adv-x="555" 
d="M217 114v511h-190v72h458v-72h-190v-511h-78zM168 0l39 97h95l-68 -97h-66z" />
    <glyph glyph-name="Ugrave.alt1" horiz-adv-x="733" 
d="M84 244v453h78v-445c0 -128 72 -192 183 -192s183 64 183 192v445h78v-453c0 -169 -111 -256 -261 -256s-261 87 -261 256zM339 600l-77 97h109l34 -97h-66z" />
    <glyph glyph-name="Uacute.alt1" horiz-adv-x="733" 
d="M84 244v453h78v-445c0 -128 72 -192 183 -192s183 64 183 192v445h78v-453c0 -169 -111 -256 -261 -256s-261 87 -261 256zM284 600l34 97h109l-77 -97h-66z" />
    <glyph glyph-name="Ucircumflex.alt1" horiz-adv-x="733" 
d="M215 600l129 112l129 -112h-85l-44 53l-44 -53h-85zM84 244v453h78v-445c0 -128 72 -192 183 -192s183 64 183 192v445h78v-453c0 -169 -111 -256 -261 -256s-261 87 -261 256z" />
    <glyph glyph-name="Utilde.alt1" horiz-adv-x="733" 
d="M193 612c6 52 39 92 90 92s80 -39 117 -39c25 0 39 12 46 41l49 -4c-7 -60 -34 -98 -92 -98c-53 0 -80 39 -118 39c-20 0 -37 -10 -43 -35zM84 244v453h78v-445c0 -128 72 -192 183 -192s183 64 183 192v445h78v-453c0 -169 -111 -256 -261 -256s-261 87 -261 256z" />
    <glyph glyph-name="Udieresis.alt1" horiz-adv-x="733" 
d="M422 629c-26 0 -50 21 -50 50s24 50 50 50s50 -21 50 -50s-24 -50 -50 -50zM268 629c-26 0 -50 21 -50 50s24 50 50 50s50 -21 50 -50s-24 -50 -50 -50zM84 244v453h78v-445c0 -128 72 -192 183 -192s183 64 183 192v445h78v-453c0 -169 -111 -256 -261 -256
s-261 87 -261 256z" />
    <glyph glyph-name="Umacron.alt1" horiz-adv-x="733" 
d="M84 244v453h78v-445c0 -128 72 -192 183 -192s183 64 183 192v445h78v-453c0 -169 -111 -256 -261 -256s-261 87 -261 256zM207 635v62h276v-62h-276z" />
    <glyph glyph-name="Ubreve.alt1" horiz-adv-x="733" 
d="M84 244v453h78v-445c0 -128 72 -192 183 -192s183 64 183 192v445h78v-453c0 -169 -111 -256 -261 -256s-261 87 -261 256zM347 603c-63 0 -117 35 -126 94h64c10 -22 31 -33 62 -33s52 11 62 33h64c-9 -59 -63 -94 -126 -94z" />
    <glyph glyph-name="Uring.alt1" horiz-adv-x="733" 
d="M84 244v453h78v-445c0 -128 72 -192 183 -192s183 64 183 192v445h78v-453c0 -169 -111 -256 -261 -256s-261 87 -261 256zM346 534c-54 0 -98 44 -98 98c0 53 44 97 98 97c53 0 97 -44 97 -97c0 -54 -43 -98 -97 -98zM346 585c25 0 46 22 46 47s-21 46 -46 46
s-47 -21 -47 -46s22 -47 47 -47z" />
    <glyph glyph-name="Uhungarumlaut.alt1" horiz-adv-x="733" 
d="M84 244v453h78v-445c0 -128 72 -192 183 -192s183 64 183 192v445h78v-453c0 -169 -111 -256 -261 -256s-261 87 -261 256zM349 600l53 97h89l-87 -97h-55zM212 600l53 97h89l-87 -97h-55z" />
    <glyph glyph-name="Uogonek.alt1" horiz-adv-x="734" 
d="M345 50c0 27 25 51 57 71c-20 -3 -40 -5 -61 -5c-147 0 -257 87 -257 256v325h78v-317c0 -129 72 -194 183 -194c112 0 184 65 184 195v316h78v-316c0 -104 -41 -179 -105 -221c-25 -16 -96 -51 -96 -90c0 -21 21 -30 44 -30c21 0 40 5 58 15l-13 -55
c-18 -9 -37 -14 -57 -14c-47 0 -93 22 -93 64z" />
    <glyph glyph-name="Wgrave.alt1" horiz-adv-x="987" 
d="M278 -27l-256 724h83l184 -517c56 117 183 387 183 387l183 -388l184 518h83l-257 -724l-193 417zM458 600l-77 97h109l34 -97h-66z" />
    <glyph glyph-name="Wacute.alt1" horiz-adv-x="987" 
d="M278 -27l-256 724h83l184 -517c56 117 183 387 183 387l183 -388l184 518h83l-257 -724l-193 417zM423 600l34 97h109l-77 -97h-66z" />
    <glyph glyph-name="Wcircumflex.alt1" horiz-adv-x="987" 
d="M343 600l129 112l129 -112h-85l-44 53l-44 -53h-85zM278 -27l-256 724h83l184 -517c56 117 183 387 183 387l183 -388l184 518h83l-257 -724l-193 417z" />
    <glyph glyph-name="Wdieresis.alt1" horiz-adv-x="987" 
d="M278 -27l-256 724h83l184 -517c56 117 183 387 183 387l183 -388l184 518h83l-257 -724l-193 417zM575 629c-26 0 -50 21 -50 50s24 50 50 50s50 -21 50 -50s-24 -50 -50 -50zM369 629c-26 0 -50 21 -50 50s24 50 50 50s50 -21 50 -50s-24 -50 -50 -50z" />
    <glyph glyph-name="Ygrave.alt1" horiz-adv-x="667" 
d="M274 0v286l-249 411h86l203 -334l201 334h84l-247 -411v-286h-78zM303 600l-77 97h109l34 -97h-66z" />
    <glyph glyph-name="Yacute.alt1" horiz-adv-x="667" 
d="M274 0v286l-249 411h86l203 -334l201 334h84l-247 -411v-286h-78zM257 600l34 97h109l-77 -97h-66z" />
    <glyph glyph-name="Ycircumflex.alt1" horiz-adv-x="667" 
d="M185 600l129 112l129 -112h-85l-44 53l-44 -53h-85zM274 0v286l-249 411h86l203 -334l201 334h84l-247 -411v-286h-78z" />
    <glyph glyph-name="Ydieresis.alt1" horiz-adv-x="667" 
d="M274 0v286l-249 411h86l203 -334l201 334h84l-247 -411v-286h-78zM392 629c-26 0 -50 21 -50 50s24 50 50 50s50 -21 50 -50s-24 -50 -50 -50zM235 629c-26 0 -50 21 -50 50s24 50 50 50s50 -21 50 -50s-24 -50 -50 -50z" />
    <glyph glyph-name="Zacute.alt1" horiz-adv-x="676" 
d="M302 600l34 97h109l-77 -97h-66zM29 0l426 511h-348v72h500l-425 -511h411v-72h-564z" />
    <glyph glyph-name="Zcaron.alt1" horiz-adv-x="676" 
d="M349 594l-129 103h85l44 -44l44 44h85zM29 0l426 511h-348v72h500l-425 -511h411v-72h-564z" />
    <glyph glyph-name="Zdotaccent.alt1" horiz-adv-x="676" 
d="M349 629c-26 0 -50 21 -50 50s24 50 50 50s50 -21 50 -50s-24 -50 -50 -50zM29 0l426 511h-348v72h500l-425 -511h411v-72h-564z" />
    <glyph glyph-name="Eng.alt1" horiz-adv-x="788" 
d="M89 0v722l481 -597c8 31 8 59 8 92v480h78v-478c0 -116 -15 -233 -202 -233c-31 0 -54 4 -85 11v76c17 -9 48 -14 85 -14c24 0 45 2 61 7l-348 438v-504h-78z" />
    <glyph glyph-name="Cacute.alt2" horiz-adv-x="663" 
d="M319 600l34 97h109l-77 -97h-66zM44 283c0 170 142 297 313 297c82 0 153 -29 204 -75v-92c-55 60 -125 95 -204 95c-134 0 -235 -98 -235 -225s101 -225 235 -225c79 0 149 35 204 94v-91c-51 -46 -122 -75 -204 -75c-171 0 -313 127 -313 297z" />
    <glyph glyph-name="Ccircumflex.alt2" horiz-adv-x="663" 
d="M221 600l129 112l129 -112h-85l-44 53l-44 -53h-85zM44 283c0 170 142 297 313 297c82 0 153 -29 204 -75v-92c-55 60 -125 95 -204 95c-134 0 -235 -98 -235 -225s101 -225 235 -225c79 0 149 35 204 94v-91c-51 -46 -122 -75 -204 -75c-171 0 -313 127 -313 297z" />
    <glyph glyph-name="Ccaron.alt2" horiz-adv-x="663" 
d="M350 594l-129 103h85l44 -44l44 44h85zM44 283c0 170 142 297 313 297c82 0 153 -29 204 -75v-92c-55 60 -125 95 -204 95c-134 0 -235 -98 -235 -225s101 -225 235 -225c79 0 149 35 204 94v-91c-51 -46 -122 -75 -204 -75c-171 0 -313 127 -313 297z" />
    <glyph glyph-name="Cdotaccent.alt2" horiz-adv-x="663" 
d="M351 629c-26 0 -50 21 -50 50s24 50 50 50s50 -21 50 -50s-24 -50 -50 -50zM44 283c0 170 142 297 313 297c82 0 153 -29 204 -75v-92c-55 60 -125 95 -204 95c-134 0 -235 -98 -235 -225s101 -225 235 -225c79 0 149 35 204 94v-91c-51 -46 -122 -75 -204 -75
c-171 0 -313 127 -313 297z" />
    <glyph glyph-name="Ccedilla.alt2" horiz-adv-x="663" 
d="M44 413c0 170 142 297 313 297c82 0 153 -29 204 -75v-92c-55 60 -125 95 -204 95c-134 0 -235 -98 -235 -225s101 -225 235 -225c79 0 149 35 204 94v-91c-47 -43 -111 -71 -186 -75h-1l-10 -23c36 0 66 -19 66 -55c0 -41 -31 -65 -83 -65c-29 0 -60 12 -74 23l19 39
c18 -11 31 -17 54 -17c20 0 30 8 30 22c0 19 -27 23 -73 23l23 54c-157 14 -282 136 -282 296z" />
    <glyph glyph-name="Gcircumflex.alt2" horiz-adv-x="712" 
d="M217 600l129 112l129 -112h-85l-44 53l-44 -53h-85zM44 283c0 171 141 297 313 297c78 0 146 -26 194 -68v-88c-54 53 -120 84 -194 84c-134 0 -235 -96 -235 -225s101 -225 235 -225c69 0 130 26 176 71v114h-198v72h276v-214c-63 -72 -153 -115 -254 -115
c-172 0 -313 126 -313 297z" />
    <glyph glyph-name="Gbreve.alt2" horiz-adv-x="712" 
d="M352 603c-63 0 -117 35 -126 94h64c10 -22 31 -33 62 -33s52 11 62 33h64c-9 -59 -63 -94 -126 -94zM44 283c0 171 141 297 313 297c78 0 146 -26 194 -68v-88c-54 53 -120 84 -194 84c-134 0 -235 -96 -235 -225s101 -225 235 -225c69 0 130 26 176 71v114h-198v72h276
v-214c-63 -72 -153 -115 -254 -115c-172 0 -313 126 -313 297z" />
    <glyph glyph-name="Gdotaccent.alt2" horiz-adv-x="712" 
d="M352 629c-26 0 -50 21 -50 50s24 50 50 50s50 -21 50 -50s-24 -50 -50 -50zM44 283c0 171 141 297 313 297c78 0 146 -26 194 -68v-88c-54 53 -120 84 -194 84c-134 0 -235 -96 -235 -225s101 -225 235 -225c69 0 130 26 176 71v114h-198v72h276v-214
c-63 -72 -153 -115 -254 -115c-172 0 -313 126 -313 297z" />
    <glyph glyph-name="Gcommaaccent.alt2" horiz-adv-x="712" 
d="M357 116c-172 0 -313 126 -313 297s141 297 313 297c78 0 146 -26 194 -68v-88c-54 53 -120 84 -194 84c-134 0 -235 -96 -235 -225s101 -225 235 -225c69 0 130 26 176 71v114h-198v72h276v-214c-63 -72 -153 -115 -254 -115zM257 0l34 97h109l-77 -97h-66z" />
    <glyph glyph-name="Kcommaaccent.alt2" horiz-adv-x="636" 
d="M89 0v697h78v-322l308 322h98l-325 -337l335 -360h-101l-315 338v-338h-78zM209 0l31 97h103l-68 -97h-66z" />
    <glyph glyph-name="Sacute.alt2" horiz-adv-x="542" 
d="M214 600l34 97h109l-77 -97h-66zM43 59v96c36 -50 118 -95 192 -95c94 0 137 47 137 87c0 58 -38 76 -120 116c-110 53 -180 86 -180 169c0 91 71 148 189 148c48 0 97 -15 131 -44v-82c-47 37 -82 54 -142 54c-63 0 -100 -29 -100 -76c0 -40 48 -62 115 -92
c109 -48 185 -93 185 -193c0 -80 -78 -159 -209 -159c-78 0 -155 25 -198 71z" />
    <glyph glyph-name="Scircumflex.alt2" horiz-adv-x="542" 
d="M118 600l129 112l129 -112h-85l-44 53l-44 -53h-85zM43 59v96c36 -50 118 -95 192 -95c94 0 137 47 137 87c0 58 -38 76 -120 116c-110 53 -180 86 -180 169c0 91 71 148 189 148c48 0 97 -15 131 -44v-82c-47 37 -82 54 -142 54c-63 0 -100 -29 -100 -76
c0 -40 48 -62 115 -92c109 -48 185 -93 185 -193c0 -80 -78 -159 -209 -159c-78 0 -155 25 -198 71z" />
    <glyph glyph-name="Scaron.alt2" horiz-adv-x="542" 
d="M246 594l-129 103h85l44 -44l44 44h85zM43 59v96c36 -50 118 -95 192 -95c94 0 137 47 137 87c0 58 -38 76 -120 116c-110 53 -180 86 -180 169c0 91 71 148 189 148c48 0 97 -15 131 -44v-82c-47 37 -82 54 -142 54c-63 0 -100 -29 -100 -76c0 -40 48 -62 115 -92
c109 -48 185 -93 185 -193c0 -80 -78 -159 -209 -159c-78 0 -155 25 -198 71z" />
    <glyph glyph-name="Scommaaccent.alt2" horiz-adv-x="542" 
d="M152 0l34 97h109l-77 -97h-66zM43 189v96c36 -50 118 -95 192 -95c94 0 137 47 137 87c0 58 -38 76 -120 116c-110 53 -180 86 -180 169c0 91 71 148 189 148c48 0 97 -15 131 -44v-82c-47 37 -82 54 -142 54c-63 0 -100 -29 -100 -76c0 -40 48 -62 115 -92
c109 -48 185 -93 185 -193c0 -80 -78 -159 -209 -159c-78 0 -155 25 -198 71z" />
    <glyph glyph-name="Scedilla.alt2" horiz-adv-x="542" 
d="M43 189v96c36 -50 118 -95 192 -95c94 0 137 47 137 87c0 58 -38 76 -120 116c-110 53 -180 86 -180 169c0 91 71 148 189 148c48 0 97 -15 131 -44v-82c-47 37 -82 54 -142 54c-63 0 -100 -29 -100 -76c0 -40 48 -62 115 -92c109 -48 185 -93 185 -193
c0 -75 -68 -148 -182 -158l-12 -26c36 0 66 -19 66 -55c0 -41 -31 -65 -83 -65c-29 0 -60 12 -74 23l19 39c18 -11 31 -17 54 -17c20 0 30 8 30 22c0 19 -27 23 -73 23l23 55c-70 5 -136 29 -175 71z" />
    <glyph glyph-name="Wgrave.alt2" horiz-adv-x="929" 
d="M422 600l-77 97h109l34 -97h-66zM295 -25l-271 608h84l190 -426l99 205l-107 221h84l68 -145l69 145h84l-107 -221l100 -205l190 426h84l-271 -608l-148 313z" />
    <glyph glyph-name="Wacute.alt2" horiz-adv-x="929" 
d="M401 600l34 97h109l-77 -97h-66zM295 -25l-271 608h84l190 -426l99 205l-107 221h84l68 -145l69 145h84l-107 -221l100 -205l190 426h84l-271 -608l-148 313z" />
    <glyph glyph-name="Wcircumflex.alt2" horiz-adv-x="929" 
d="M301 600l141 112l141 -112h-85l-56 53l-56 -53h-85zM295 -25l-271 608h84l190 -426l99 205l-107 221h84l68 -145l69 145h84l-107 -221l100 -205l190 426h84l-271 -608l-148 313z" />
    <glyph glyph-name="Wdieresis.alt2" horiz-adv-x="929" 
d="M546 629c-26 0 -50 21 -50 50s24 50 50 50s50 -21 50 -50s-24 -50 -50 -50zM340 629c-26 0 -50 21 -50 50s24 50 50 50s50 -21 50 -50s-24 -50 -50 -50zM295 -25l-271 608h84l190 -426l99 205l-107 221h84l68 -145l69 145h84l-107 -221l100 -205l190 426h84l-271 -608
l-148 313z" />
    <glyph glyph-name="A.smcp" horiz-adv-x="649" 
d="M29 0l273 581l275 -581h-84l-62 128h-259l-62 -128h-81zM202 198h198l-99 214z" />
    <glyph glyph-name="B.smcp" horiz-adv-x="528" 
d="M76 0v558h180c87 0 152 -62 152 -146c0 -52 -26 -90 -67 -109c72 -16 108 -68 108 -134c0 -98 -75 -169 -177 -169h-196zM153 330h93c49 0 85 34 85 79c0 44 -36 78 -84 78h-94v-157zM153 70h114c61 0 105 42 105 99c0 52 -43 92 -105 92h-114v-191z" />
    <glyph glyph-name="C.smcp" horiz-adv-x="607" 
d="M36 278c0 169 130 291 291 291c85 0 166 -36 214 -95l-52 -46c-39 44 -95 70 -162 70c-124 0 -215 -94 -215 -220s91 -220 215 -220c68 0 126 29 164 74l53 -47c-48 -61 -131 -97 -217 -97c-161 0 -291 122 -291 290z" />
    <glyph glyph-name="D.smcp" horiz-adv-x="661" 
d="M76 -1v560h196c194 0 307 -116 307 -281c0 -164 -112 -279 -306 -279h-197zM155 71h112c162 0 234 87 234 207c0 122 -72 208 -235 208h-111v-415z" />
    <glyph glyph-name="E.smcp" horiz-adv-x="490" 
d="M226 0c-104 0 -154 59 -154 162v396h324v-71h-247v-158h231v-70h-231v-101c0 -70 48 -88 80 -88h173v-70h-176z" />
    <glyph glyph-name="F.smcp" horiz-adv-x="457" 
d="M76 0v558h298v-71h-221v-162h200v-70h-200v-255h-77z" />
    <glyph glyph-name="G.smcp" horiz-adv-x="637" 
d="M36 279c0 168 131 290 292 290c77 0 154 -30 201 -81l-46 -52c-40 39 -94 63 -155 63c-125 0 -216 -95 -216 -220c0 -127 91 -221 216 -221c56 0 107 20 144 53v127h-164v71h239v-224c-54 -60 -131 -97 -219 -97c-161 0 -292 122 -292 291z" />
    <glyph glyph-name="H.smcp" horiz-adv-x="667" 
d="M76 0v558h77v-227h318v227h77v-558h-77v261h-318v-261h-77z" />
    <glyph glyph-name="I.smcp" horiz-adv-x="278" 
d="M79 0v558h77v-558h-77z" />
    <glyph glyph-name="J.smcp" horiz-adv-x="334" 
d="M23 0v70h44c61 0 68 44 68 85v403h77v-400c0 -73 -8 -158 -145 -158h-44z" />
    <glyph glyph-name="K.smcp" horiz-adv-x="590" 
d="M76 0v558h77v-276l268 276h98l-235 -244l242 -314h-93l-201 261l-79 -81v-180h-77z" />
    <glyph glyph-name="L.smcp" horiz-adv-x="465" 
d="M76 0v558h77v-488h238v-70h-315z" />
    <glyph glyph-name="M.smcp" horiz-adv-x="779" 
d="M76 0v577l292 -365l292 365v-577h-77v354l-215 -262l-215 262v-354h-77z" />
    <glyph glyph-name="N.smcp" horiz-adv-x="687" 
d="M76 0v581l416 -419v396h76v-581l-415 419v-396h-77z" />
    <glyph glyph-name="O.smcp" horiz-adv-x="698" 
d="M34 278c0 170 132 292 294 292s293 -122 293 -292c0 -169 -132 -291 -293 -291c-162 0 -294 122 -294 291zM112 278c0 -125 91 -219 216 -219c124 0 214 94 214 219c0 126 -90 219 -214 219c-125 0 -216 -93 -216 -219z" />
    <glyph glyph-name="P.smcp" horiz-adv-x="535" 
d="M76 0v558h198c96 0 182 -71 182 -173c0 -101 -85 -173 -182 -173h-121v-212h-77zM153 283h118c58 0 108 40 108 102s-49 102 -108 102h-118v-204z" />
    <glyph glyph-name="Q.smcp" horiz-adv-x="699" 
d="M36 278c0 169 131 291 292 291s292 -122 292 -291c0 -80 -29 -149 -78 -201l59 -72l-54 -44l-59 72c-46 -29 -102 -45 -160 -45c-161 0 -292 122 -292 290zM111 278c0 -126 92 -220 217 -220c43 0 81 11 114 31l-84 102l54 44l83 -101c30 38 49 88 49 144
c0 127 -91 220 -216 220s-217 -93 -217 -220z" />
    <glyph glyph-name="R.smcp" horiz-adv-x="563" 
d="M76 0v558h208c99 0 180 -74 180 -170c0 -75 -47 -136 -111 -162l142 -226h-88l-131 213h-4h-119v-213h-77zM153 283h123c64 0 111 44 111 105c0 56 -45 99 -106 99h-128v-204z" />
    <glyph glyph-name="S.smcp" horiz-adv-x="506" 
d="M33 123l66 31c25 -55 69 -94 139 -94c110 0 112 74 112 90c0 62 -49 83 -128 115c-90 37 -157 70 -157 162c0 83 70 144 164 144c76 0 129 -33 161 -97l-66 -33c-19 42 -48 59 -96 59c-47 0 -86 -24 -86 -71c0 -52 48 -71 117 -100c109 -46 168 -81 168 -178
c0 -89 -65 -161 -190 -161c-89 0 -168 40 -204 133z" />
    <glyph glyph-name="T.smcp" horiz-adv-x="479" 
d="M180 0v487h-157v71h390v-71h-157v-487h-76z" />
    <glyph glyph-name="U.smcp" horiz-adv-x="642" 
d="M72 201v357h76v-349c0 -103 60 -151 151 -151c92 0 151 48 151 152v348h77v-348c0 -147 -101 -221 -232 -221c-127 0 -223 71 -223 212z" />
    <glyph glyph-name="V.smcp" horiz-adv-x="620" 
d="M288 -23l-260 581h82l178 -388l178 388h83z" />
    <glyph glyph-name="W.smcp" horiz-adv-x="849" 
d="M212 -23l-191 581h80l127 -371l177 392l169 -392l129 371h81l-196 -583l-185 415z" />
    <glyph glyph-name="X.smcp" horiz-adv-x="602" 
d="M33 0l197 289l-184 269h85l149 -218l147 218h83l-183 -270l199 -288h-87l-163 235l-161 -235h-82z" />
    <glyph glyph-name="Y.smcp" horiz-adv-x="580" 
d="M231 0v225l-209 333h85l164 -258l161 258h83l-207 -333v-225h-77z" />
    <glyph glyph-name="Z.smcp" horiz-adv-x="590" 
d="M28 0l356 487h-293v71h433l-356 -488h344v-70h-484z" />
    <glyph glyph-name="Agrave.smcp" horiz-adv-x="649" 
d="M280 596l-82 116h97l42 -116h-57zM29 0l273 581l275 -581h-84l-62 128h-259l-62 -128h-81zM202 198h198l-99 214z" />
    <glyph glyph-name="Aacute.smcp" horiz-adv-x="649" 
d="M266 596l42 116h98l-83 -116h-57zM29 0l273 581l275 -581h-84l-62 128h-259l-62 -128h-81zM202 198h198l-99 214z" />
    <glyph glyph-name="Acircumflex.smcp" horiz-adv-x="649" 
d="M159 615l143 120l144 -120h-88l-56 51l-56 -51h-87zM29 0l273 581l275 -581h-84l-62 128h-259l-62 -128h-81zM202 198h198l-99 214z" />
    <glyph glyph-name="Atilde.smcp" horiz-adv-x="649" 
d="M172 606c5 46 34 81 80 81c42 0 68 -28 96 -28c20 0 31 7 37 29l48 -4c-6 -52 -29 -85 -82 -85c-44 0 -68 29 -97 29c-16 0 -29 -6 -35 -26zM29 0l273 581l275 -581h-84l-62 128h-259l-62 -128h-81zM202 198h198l-99 214z" />
    <glyph glyph-name="Adieresis.smcp" horiz-adv-x="649" 
d="M389 588c-25 0 -48 21 -48 48c0 28 23 48 48 48s48 -20 48 -48c0 -27 -23 -48 -48 -48zM214 588c-25 0 -48 21 -48 48c0 28 23 48 48 48s48 -20 48 -48c0 -27 -23 -48 -48 -48zM29 0l273 581l275 -581h-84l-62 128h-259l-62 -128h-81zM202 198h198l-99 214z" />
    <glyph glyph-name="Amacron.smcp" horiz-adv-x="649" 
d="M177 615v68h250v-68h-250zM29 0l273 581l275 -581h-84l-62 128h-259l-62 -128h-81zM202 198h198l-99 214z" />
    <glyph glyph-name="Abreve.smcp" horiz-adv-x="649" 
d="M302 601c-70 0 -132 48 -141 123h67c14 -38 37 -59 74 -59s60 21 74 59h68c-10 -75 -71 -123 -142 -123zM29 0l273 581l275 -581h-84l-62 128h-259l-62 -128h-81zM202 198h198l-99 214z" />
    <glyph glyph-name="Aring.smcp" horiz-adv-x="649" 
d="M29 0l249 524c-37 11 -64 44 -64 83c0 47 40 86 89 86s89 -39 89 -86c0 -40 -27 -73 -65 -84l250 -523h-84l-62 128h-259l-62 -128h-81zM303 570c22 0 39 17 39 37s-17 37 -39 37c-21 0 -40 -17 -40 -37s19 -37 40 -37zM202 198h198l-99 214z" />
    <glyph glyph-name="Aringacute.smcp" horiz-adv-x="649" 
d="M282 738l42 116h98l-82 -116h-58zM29 0l249 524c-37 11 -64 44 -64 83c0 47 40 86 89 86s89 -39 89 -86c0 -40 -27 -73 -65 -84l250 -523h-84l-62 128h-259l-62 -128h-81zM303 570c22 0 39 17 39 37s-17 37 -39 37c-21 0 -40 -17 -40 -37s19 -37 40 -37zM202 198h198
l-99 214z" />
    <glyph glyph-name="Aogonek.smcp" horiz-adv-x="649" 
d="M29 0l273 581l275 -581c-27 -6 -69 -41 -69 -73c0 -23 20 -33 41 -33c18 0 34 5 49 12l-13 -57c-15 -7 -31 -11 -48 -11c-45 0 -91 27 -91 76c0 35 25 60 49 77l1 1l-65 136h-259l-62 -128h-81zM202 198h198l-99 214z" />
    <glyph glyph-name="AE.smcp" horiz-adv-x="795" 
d="M-12 0l454 558h259v-71h-202v-158h186v-70h-186v-189h208v-70h-285v132h-229l-108 -132h-97zM248 202h174v218z" />
    <glyph glyph-name="AEacute.smcp" horiz-adv-x="795" 
d="M401 596l43 116h97l-82 -116h-58zM-12 0l454 558h259v-71h-202v-158h186v-70h-186v-189h208v-70h-285v132h-229l-108 -132h-97zM248 202h174v218z" />
    <glyph glyph-name="Cacute.smcp" horiz-adv-x="607" 
d="M294 596l39 116h96l-78 -116h-57zM36 278c0 169 130 291 291 291c85 0 166 -36 214 -95l-52 -46c-39 44 -95 70 -162 70c-124 0 -215 -94 -215 -220s91 -220 215 -220c68 0 126 29 164 74l53 -47c-48 -61 -131 -97 -217 -97c-161 0 -291 122 -291 290z" />
    <glyph glyph-name="Ccircumflex.smcp" horiz-adv-x="607" 
d="M193 615l136 120l136 -120h-87l-49 51l-50 -51h-86zM36 278c0 169 130 291 291 291c85 0 166 -36 214 -95l-52 -46c-39 44 -95 70 -162 70c-124 0 -215 -94 -215 -220s91 -220 215 -220c68 0 126 29 164 74l53 -47c-48 -61 -131 -97 -217 -97c-161 0 -291 122 -291 290z
" />
    <glyph glyph-name="Ccaron.smcp" horiz-adv-x="607" 
d="M328 592l-136 120h86l50 -51l49 51h87zM36 278c0 169 130 291 291 291c85 0 166 -36 214 -95l-52 -46c-39 44 -95 70 -162 70c-124 0 -215 -94 -215 -220s91 -220 215 -220c68 0 126 29 164 74l53 -47c-48 -61 -131 -97 -217 -97c-161 0 -291 122 -291 290z" />
    <glyph glyph-name="Cdotaccent.smcp" horiz-adv-x="607" 
d="M322 607c-25 0 -48 20 -48 48s23 48 48 48c24 0 48 -20 48 -48s-24 -48 -48 -48zM36 278c0 169 130 291 291 291c85 0 166 -36 214 -95l-52 -46c-39 44 -95 70 -162 70c-124 0 -215 -94 -215 -220s91 -220 215 -220c68 0 126 29 164 74l53 -47c-48 -61 -131 -97 -217 -97
c-161 0 -291 122 -291 290z" />
    <glyph glyph-name="Ccedilla.smcp" horiz-adv-x="607" 
d="M36 278c0 169 130 291 291 291c85 0 166 -36 214 -95l-52 -46c-39 44 -95 70 -162 70c-124 0 -215 -94 -215 -220s91 -220 215 -220c68 0 126 29 164 74l53 -47c-48 -61 -131 -97 -217 -97c-8 0 -15 0 -21 1l-10 -21c28 -1 52 -25 52 -62c0 -53 -37 -72 -93 -72
c-25 0 -53 10 -63 18l18 38c15 -8 26 -13 44 -13c20 0 36 11 36 29c0 28 -22 32 -58 34l22 55c-126 32 -218 141 -218 283z" />
    <glyph glyph-name="Dcaron.smcp" horiz-adv-x="662" 
d="M278 592l-144 120h88l56 -51l55 51h88zM76 -1v560h197c193 0 307 -116 307 -281c0 -164 -113 -279 -307 -279h-197zM155 71h113c161 0 233 87 233 207c0 122 -72 208 -234 208h-112v-415z" />
    <glyph glyph-name="Dcroat.smcp" horiz-adv-x="656" 
d="M76 0v251h-57v70h57v237h195c194 0 306 -116 306 -280s-112 -278 -305 -278h-196zM153 70h113c162 0 235 88 235 208c0 122 -73 209 -236 209h-112v-166h123v-70h-123v-181z" />
    <glyph glyph-name="Egrave.smcp" horiz-adv-x="490" 
d="M220 596l-82 116h97l42 -116h-57zM226 0c-104 0 -154 59 -154 162v396h324v-71h-247v-158h231v-70h-231v-101c0 -70 48 -88 80 -88h173v-70h-176z" />
    <glyph glyph-name="Eacute.smcp" horiz-adv-x="490" 
d="M199 596l42 116h98l-82 -116h-58zM226 0c-104 0 -154 59 -154 162v396h324v-71h-247v-158h231v-70h-231v-101c0 -70 48 -88 80 -88h173v-70h-176z" />
    <glyph glyph-name="Ecircumflex.smcp" horiz-adv-x="490" 
d="M88 615l143 120l144 -120h-88l-56 51l-56 -51h-87zM226 0c-104 0 -154 59 -154 162v396h324v-71h-247v-158h231v-70h-231v-101c0 -70 48 -88 80 -88h173v-70h-176z" />
    <glyph glyph-name="Ecaron.smcp" horiz-adv-x="490" 
d="M235 592l-143 120h87l56 -51l56 51h87zM226 0c-104 0 -154 59 -154 162v396h324v-71h-247v-158h231v-70h-231v-101c0 -70 48 -88 80 -88h173v-70h-176z" />
    <glyph glyph-name="Edieresis.smcp" horiz-adv-x="490" 
d="M327 607c-25 0 -49 20 -49 48s24 48 49 48s48 -20 48 -48s-23 -48 -48 -48zM152 607c-25 0 -49 20 -49 48s24 48 49 48s48 -20 48 -48s-23 -48 -48 -48zM226 0c-104 0 -154 59 -154 162v396h324v-71h-247v-158h231v-70h-231v-101c0 -70 48 -88 80 -88h173v-70h-176z" />
    <glyph glyph-name="Emacron.smcp" horiz-adv-x="490" 
d="M110 615v68h250v-68h-250zM226 0c-104 0 -154 59 -154 162v396h324v-71h-247v-158h231v-70h-231v-101c0 -70 48 -88 80 -88h173v-70h-176z" />
    <glyph glyph-name="Ebreve.smcp" horiz-adv-x="490" 
d="M233 601c-71 0 -132 48 -142 123h68c14 -38 37 -59 74 -59s60 21 74 59h68c-10 -75 -71 -123 -142 -123zM226 0c-104 0 -154 59 -154 162v396h324v-71h-247v-158h231v-70h-231v-101c0 -70 48 -88 80 -88h173v-70h-176z" />
    <glyph glyph-name="Edotaccent.smcp" horiz-adv-x="490" 
d="M237 607c-25 0 -48 20 -48 48s23 48 48 48s49 -20 49 -48s-24 -48 -49 -48zM226 0c-104 0 -154 59 -154 162v396h324v-71h-247v-158h231v-70h-231v-101c0 -70 48 -88 80 -88h173v-70h-176z" />
    <glyph glyph-name="Eogonek.smcp" horiz-adv-x="490" 
d="M72 162v396h324v-71h-247v-158h231v-70h-231v-101c0 -70 48 -88 80 -88h173v-70c-21 -12 -63 -41 -63 -73c0 -23 21 -33 41 -33c18 0 34 5 49 12l-12 -57c-16 -7 -32 -11 -49 -11c-45 0 -91 27 -91 76c0 40 34 69 63 86h-114c-104 0 -154 59 -154 162z" />
    <glyph glyph-name="Gcircumflex.smcp" horiz-adv-x="636" 
d="M194 615l136 120l136 -120h-86l-50 51l-50 -51h-86zM36 279c0 168 131 290 292 290c77 0 154 -30 201 -81l-46 -52c-40 39 -94 63 -155 63c-125 0 -216 -95 -216 -220c0 -127 91 -221 216 -221c56 0 107 20 144 53v127h-164v71h239v-224c-54 -60 -131 -97 -219 -97
c-161 0 -292 122 -292 291z" />
    <glyph glyph-name="Gbreve.smcp" horiz-adv-x="636" 
d="M325 601c-68 0 -128 48 -137 123h67c14 -38 35 -59 70 -59s56 21 69 59h68c-10 -75 -69 -123 -137 -123zM36 279c0 168 131 290 292 290c77 0 154 -30 201 -81l-46 -52c-40 39 -94 63 -155 63c-125 0 -216 -95 -216 -220c0 -127 91 -221 216 -221c56 0 107 20 144 53v127
h-164v71h239v-224c-54 -60 -131 -97 -219 -97c-161 0 -292 122 -292 291z" />
    <glyph glyph-name="Gdotaccent.smcp" horiz-adv-x="636" 
d="M329 607c-25 0 -48 20 -48 48s23 48 48 48c24 0 47 -20 47 -48s-23 -48 -47 -48zM36 279c0 168 131 290 292 290c77 0 154 -30 201 -81l-46 -52c-40 39 -94 63 -155 63c-125 0 -216 -95 -216 -220c0 -127 91 -221 216 -221c56 0 107 20 144 53v127h-164v71h239v-224
c-54 -60 -131 -97 -219 -97c-161 0 -292 122 -292 291z" />
    <glyph glyph-name="Gcommaaccent.smcp" horiz-adv-x="636" 
d="M36 279c0 168 131 290 292 290c77 0 154 -30 201 -81l-46 -52c-40 39 -94 63 -155 63c-125 0 -216 -95 -216 -220c0 -127 91 -221 216 -221c56 0 107 20 144 53v127h-164v71h239v-224c-54 -60 -131 -97 -219 -97c-161 0 -292 122 -292 291zM242 -154l39 116h97l-78 -116
h-58z" />
    <glyph glyph-name="Hcircumflex.smcp" horiz-adv-x="667" 
d="M168 615l143 120l143 -120h-87l-56 51l-56 -51h-87zM76 0v558h77v-227h318v227h77v-558h-77v261h-318v-261h-77z" />
    <glyph glyph-name="Hbar.smcp" horiz-adv-x="667" 
d="M76 0v399h-50v66h50v93h77v-93h318v93h77v-93h50v-66h-50v-399h-77v261h-318v-261h-77zM153 331h318v68h-318v-68z" />
    <glyph glyph-name="Igrave.smcp" horiz-adv-x="278" 
d="M92 596l-82 116h97l42 -116h-57zM79 0v558h77v-558h-77z" />
    <glyph glyph-name="Iacute.smcp" horiz-adv-x="278" 
d="M84 596l42 116h98l-83 -116h-57zM79 0v558h77v-558h-77z" />
    <glyph glyph-name="Icircumflex.smcp" horiz-adv-x="278" 
d="M-25 615l143 120l143 -120h-87l-56 51l-56 -51h-87zM79 0v558h77v-558h-77z" />
    <glyph glyph-name="Itilde.smcp" horiz-adv-x="278" 
d="M34 602l-48 4c5 46 34 81 80 81c42 0 68 -28 97 -28c20 0 30 7 37 29l48 -4c-7 -52 -30 -85 -82 -85c-44 0 -68 29 -98 29c-15 0 -29 -6 -34 -26zM79 0v558h77v-558h-77z" />
    <glyph glyph-name="Idieresis.smcp" horiz-adv-x="278" 
d="M193 607c-25 0 -48 20 -48 48s23 48 48 48s49 -20 49 -48s-24 -48 -49 -48zM42 607c-25 0 -48 20 -48 48s23 48 48 48s48 -20 48 -48s-23 -48 -48 -48zM79 0v558h77v-558h-77z" />
    <glyph glyph-name="Imacron.smcp" horiz-adv-x="278" 
d="M-7 615v68h250v-68h-250zM79 0v558h77v-558h-77z" />
    <glyph glyph-name="Ibreve.smcp" horiz-adv-x="278" 
d="M118 601c-71 0 -132 48 -142 123h68c14 -38 37 -59 74 -59s60 21 74 59h67c-9 -75 -71 -123 -141 -123zM79 0v558h77v-558h-77z" />
    <glyph glyph-name="Idotaccent.smcp" horiz-adv-x="278" 
d="M118 607c-25 0 -49 20 -49 48s24 48 49 48s48 -20 48 -48s-23 -48 -48 -48zM79 0v558h77v-558h-77z" />
    <glyph glyph-name="Iogonek.smcp" horiz-adv-x="278" 
d="M79 -7v565h77v-558c-22 -5 -66 -41 -66 -73c0 -23 20 -33 40 -33c18 0 34 5 49 12l-12 -57c-16 -7 -32 -11 -48 -11c-45 0 -91 27 -91 76c0 36 26 62 51 78v1z" />
    <glyph glyph-name="IJ.smcp" horiz-adv-x="511" 
d="M93 141v417h77v-417h-77zM93 0v70h146c61 0 68 44 68 85v403h77v-400c0 -73 -8 -158 -145 -158h-146z" />
    <glyph glyph-name="Jcircumflex.smcp" horiz-adv-x="334" 
d="M27 615l143 120l143 -120h-87l-56 51l-56 -51h-87zM23 0v70h44c61 0 68 44 68 85v403h77v-400c0 -73 -8 -158 -145 -158h-44z" />
    <glyph glyph-name="Kcommaaccent.smcp" horiz-adv-x="581" 
d="M76 0v558h77v-276l268 276h98l-235 -244l242 -314h-93l-201 261l-79 -81v-180h-77zM183 -154l43 116h97l-82 -116h-58z" />
    <glyph glyph-name="Lacute.smcp" horiz-adv-x="465" 
d="M93 596l43 116h97l-82 -116h-58zM76 0v558h77v-488h238v-70h-315z" />
    <glyph glyph-name="Lcaron.smcp" horiz-adv-x="465" 
d="M76 0v558h77v-488h238v-70h-315zM211 442l42 116h98l-83 -116h-57z" />
    <glyph glyph-name="Lcommaaccent.smcp" horiz-adv-x="465" 
d="M76 0v558h77v-488h238v-70h-315zM152 -154l42 116h98l-82 -116h-58z" />
    <glyph glyph-name="Ldot.smcp" horiz-adv-x="465" 
d="M76 0v558h77v-488h238v-70h-315zM275 246c-25 0 -48 20 -48 48c0 27 23 47 48 47s48 -20 48 -47c0 -28 -23 -48 -48 -48z" />
    <glyph glyph-name="Lslash.smcp" horiz-adv-x="464" 
d="M76 0v217l-57 -29v74l57 29v267h77v-225l118 61v-74l-118 -60v-190h238v-70h-315z" />
    <glyph glyph-name="Nacute.smcp" horiz-adv-x="687" 
d="M279 596l43 116h97l-82 -116h-58zM76 0v581l416 -414v391h76v-581l-415 414v-391h-77z" />
    <glyph glyph-name="Ncaron.smcp" horiz-adv-x="687" 
d="M322 592l-144 120h88l56 -51l55 51h88zM76 0v581l416 -414v391h76v-581l-415 414v-391h-77z" />
    <glyph glyph-name="Ntilde.smcp" horiz-adv-x="687" 
d="M188 606c5 46 34 81 80 81c42 0 68 -28 96 -28c20 0 31 7 37 29l48 -4c-6 -52 -29 -85 -82 -85c-44 0 -68 29 -97 29c-16 0 -29 -6 -35 -26zM76 0v581l416 -419v396h76v-581l-415 419v-396h-77z" />
    <glyph glyph-name="Ncommaaccent.smcp" horiz-adv-x="687" 
d="M76 0v581l416 -414v391h76v-581l-415 414v-391h-77zM249 -154l42 116h97l-82 -116h-57z" />
    <glyph glyph-name="Ograve.smcp" horiz-adv-x="698" 
d="M302 596l-78 116h97l39 -116h-58zM34 278c0 170 132 292 294 292s293 -122 293 -292c0 -169 -132 -291 -293 -291c-162 0 -294 122 -294 291zM112 278c0 -125 91 -219 216 -219c124 0 214 94 214 219c0 126 -90 219 -214 219c-125 0 -216 -93 -216 -219z" />
    <glyph glyph-name="Oacute.smcp" horiz-adv-x="698" 
d="M287 596l38 116h97l-78 -116h-57zM34 278c0 170 132 292 294 292s293 -122 293 -292c0 -169 -132 -291 -293 -291c-162 0 -294 122 -294 291zM112 278c0 -125 91 -219 216 -219c124 0 214 94 214 219c0 126 -90 219 -214 219c-125 0 -216 -93 -216 -219z" />
    <glyph glyph-name="Ocircumflex.smcp" horiz-adv-x="698" 
d="M187 615l136 120l136 -120h-87l-49 51l-50 -51h-86zM34 278c0 170 132 292 294 292s293 -122 293 -292c0 -169 -132 -291 -293 -291c-162 0 -294 122 -294 291zM112 278c0 -125 91 -219 216 -219c124 0 214 94 214 219c0 126 -90 219 -214 219c-125 0 -216 -93 -216 -219
z" />
    <glyph glyph-name="Otilde.smcp" horiz-adv-x="698" 
d="M204 606c5 46 33 81 77 81c39 0 64 -28 89 -28c19 0 28 7 34 29l48 -4c-6 -52 -28 -85 -79 -85c-41 0 -64 29 -90 29c-14 0 -27 -6 -32 -26zM34 278c0 170 132 292 294 292s293 -122 293 -292c0 -169 -132 -291 -293 -291c-162 0 -294 122 -294 291zM112 278
c0 -125 91 -219 216 -219c124 0 214 94 214 219c0 126 -90 219 -214 219c-125 0 -216 -93 -216 -219z" />
    <glyph glyph-name="Odieresis.smcp" horiz-adv-x="698" 
d="M411 588c-25 0 -48 21 -48 48c0 28 23 48 48 48c24 0 47 -20 47 -48c0 -27 -23 -48 -47 -48zM246 588c-25 0 -48 21 -48 48c0 28 23 48 48 48s48 -20 48 -48c0 -27 -23 -48 -48 -48zM34 278c0 170 132 292 294 292s293 -122 293 -292c0 -169 -132 -291 -293 -291
c-162 0 -294 122 -294 291zM112 278c0 -125 91 -219 216 -219c124 0 214 94 214 219c0 126 -90 219 -214 219c-125 0 -216 -93 -216 -219z" />
    <glyph glyph-name="Omacron.smcp" horiz-adv-x="698" 
d="M210 616v68h235v-68h-235zM34 278c0 170 132 292 294 292s293 -122 293 -292c0 -169 -132 -291 -293 -291c-162 0 -294 122 -294 291zM112 278c0 -125 91 -219 216 -219c124 0 214 94 214 219c0 126 -90 219 -214 219c-125 0 -216 -93 -216 -219z" />
    <glyph glyph-name="Obreve.smcp" horiz-adv-x="698" 
d="M326 601c-70 0 -132 48 -141 123h67c14 -38 37 -59 74 -59s60 21 74 59h68c-10 -75 -71 -123 -142 -123zM34 278c0 170 132 292 294 292s293 -122 293 -292c0 -169 -132 -291 -293 -291c-162 0 -294 122 -294 291zM112 278c0 -125 91 -219 216 -219c124 0 214 94 214 219
c0 126 -90 219 -214 219c-125 0 -216 -93 -216 -219z" />
    <glyph glyph-name="Ohungarumlaut.smcp" horiz-adv-x="698" 
d="M362 596l47 116h93l-87 -116h-53zM239 596l46 116h93l-86 -116h-53zM34 278c0 170 132 292 294 292s293 -122 293 -292c0 -169 -132 -291 -293 -291c-162 0 -294 122 -294 291zM112 278c0 -125 91 -219 216 -219c124 0 214 94 214 219c0 126 -90 219 -214 219
c-125 0 -216 -93 -216 -219z" />
    <glyph glyph-name="Oslash.smcp" horiz-adv-x="699" 
d="M87 3l43 59c-58 52 -94 128 -94 216c0 169 131 291 292 291c55 0 106 -15 151 -40l45 62l56 -42l-46 -62c53 -52 86 -124 86 -209c0 -168 -131 -290 -292 -290c-52 0 -99 12 -142 34l-44 -60zM173 120l264 352c-32 17 -69 26 -109 26c-125 0 -217 -93 -217 -220
c0 -62 22 -119 62 -158zM229 80c30 -14 63 -22 99 -22c124 0 216 94 216 220c0 60 -20 111 -54 151z" />
    <glyph glyph-name="Oslashacute.smcp" horiz-adv-x="699" 
d="M301 596l39 116h97l-79 -116h-57zM87 3l43 59c-58 52 -94 128 -94 216c0 169 131 291 292 291c55 0 106 -15 151 -40l45 62l56 -42l-46 -62c53 -52 86 -124 86 -209c0 -168 -131 -290 -292 -290c-52 0 -99 12 -142 34l-44 -60zM173 120l264 352c-32 17 -69 26 -109 26
c-125 0 -217 -93 -217 -220c0 -62 22 -119 62 -158zM229 80c30 -14 63 -22 99 -22c124 0 216 94 216 220c0 60 -20 111 -54 151z" />
    <glyph glyph-name="OE.smcp" horiz-adv-x="931" 
d="M38 278c0 169 134 291 300 291c98 0 174 -39 220 -99v88h279v-71h-202v-158h186v-70h-186v-189h208v-70h-285v87c-46 -60 -122 -99 -220 -99c-166 0 -300 122 -300 290zM113 278c0 -126 96 -220 225 -220s224 94 224 220c0 127 -95 220 -224 220s-225 -93 -225 -220z" />
    <glyph glyph-name="Racute.smcp" horiz-adv-x="563" 
d="M207 596l42 116h97l-82 -116h-57zM76 0v558h208c99 0 180 -74 180 -170c0 -75 -47 -136 -111 -162l142 -226h-88l-131 213h-4h-119v-213h-77zM153 283h123c64 0 111 44 111 105c0 56 -45 99 -106 99h-128v-204z" />
    <glyph glyph-name="Rcaron.smcp" horiz-adv-x="563" 
d="M249 592l-143 120h87l56 -51l56 51h87zM76 0v558h208c99 0 180 -74 180 -170c0 -75 -47 -136 -111 -162l142 -226h-88l-131 213h-4h-119v-213h-77zM153 283h123c64 0 111 44 111 105c0 56 -45 99 -106 99h-128v-204z" />
    <glyph glyph-name="Rcommaaccent.smcp" horiz-adv-x="563" 
d="M76 0v558h208c99 0 180 -74 180 -170c0 -75 -47 -136 -111 -162l142 -226h-88l-131 213h-4h-119v-213h-77zM153 283h123c64 0 111 44 111 105c0 56 -45 99 -106 99h-128v-204zM191 -154l42 116h98l-82 -116h-58z" />
    <glyph glyph-name="Sacute.smcp" horiz-adv-x="506" 
d="M206 596l42 116h98l-83 -116h-57zM33 123l66 31c25 -55 69 -94 139 -94c110 0 112 74 112 90c0 62 -49 83 -128 115c-90 37 -157 70 -157 162c0 83 70 144 164 144c76 0 129 -33 161 -97l-66 -33c-19 42 -48 59 -96 59c-47 0 -86 -24 -86 -71c0 -52 48 -71 117 -100
c109 -46 168 -81 168 -178c0 -89 -65 -161 -190 -161c-89 0 -168 40 -204 133z" />
    <glyph glyph-name="Scircumflex.smcp" horiz-adv-x="506" 
d="M90 615l143 120l144 -120h-88l-56 51l-56 -51h-87zM33 123l66 31c25 -55 69 -94 139 -94c110 0 112 74 112 90c0 62 -49 83 -128 115c-90 37 -157 70 -157 162c0 83 70 144 164 144c76 0 129 -33 161 -97l-66 -33c-19 42 -48 59 -96 59c-47 0 -86 -24 -86 -71
c0 -52 48 -71 117 -100c109 -46 168 -81 168 -178c0 -89 -65 -161 -190 -161c-89 0 -168 40 -204 133z" />
    <glyph glyph-name="Scaron.smcp" horiz-adv-x="506" 
d="M233 592l-143 120h87l56 -51l56 51h87zM33 123l66 31c25 -55 69 -94 139 -94c110 0 112 74 112 90c0 62 -49 83 -128 115c-90 37 -157 70 -157 162c0 83 70 144 164 144c76 0 129 -33 161 -97l-66 -33c-19 42 -48 59 -96 59c-47 0 -86 -24 -86 -71c0 -52 48 -71 117 -100
c109 -46 168 -81 168 -178c0 -89 -65 -161 -190 -161c-89 0 -168 40 -204 133z" />
    <glyph glyph-name="Scommaaccent.smcp" horiz-adv-x="506" 
d="M33 123l66 31c25 -55 69 -94 139 -94c110 0 112 74 112 90c0 62 -49 83 -128 115c-90 37 -157 70 -157 162c0 83 70 144 164 144c76 0 129 -33 161 -97l-66 -33c-19 42 -48 59 -96 59c-47 0 -86 -24 -86 -71c0 -52 48 -71 117 -100c109 -46 168 -81 168 -178
c0 -89 -65 -161 -190 -161c-89 0 -168 40 -204 133zM137 -154l42 116h100l-82 -116h-60z" />
    <glyph glyph-name="Scedilla.smcp" horiz-adv-x="506" 
d="M33 123l66 31c25 -55 69 -94 139 -94c110 0 112 74 112 90c0 62 -49 83 -128 115c-90 37 -157 70 -157 162c0 83 70 144 164 144c76 0 129 -33 161 -97l-66 -33c-19 42 -48 59 -96 59c-47 0 -86 -24 -86 -71c0 -52 48 -71 117 -100c109 -46 168 -81 168 -178
c0 -88 -63 -159 -185 -161l-11 -22c29 -1 55 -25 55 -62c0 -53 -38 -72 -96 -72c-25 0 -54 10 -66 18l19 38c16 -8 27 -13 46 -13c22 0 38 11 38 29c0 28 -23 32 -62 34l24 54c-69 12 -127 53 -156 129z" />
    <glyph glyph-name="germandbls.smcp" horiz-adv-x="985" 
d="M507 123l66 31c25 -55 69 -94 139 -94c110 0 112 74 112 90c0 62 -49 83 -128 115c-90 37 -157 70 -157 162c0 83 70 144 164 144c76 0 129 -33 161 -97l-66 -33c-19 42 -48 59 -96 59c-47 0 -86 -24 -86 -71c0 -52 48 -71 117 -100c109 -46 168 -81 168 -178
c0 -89 -65 -161 -190 -161c-89 0 -168 40 -204 133zM33 123l66 31c25 -55 69 -94 139 -94c110 0 112 74 112 90c0 62 -49 83 -128 115c-90 37 -157 70 -157 162c0 83 70 144 164 144c76 0 129 -33 161 -97l-66 -33c-19 42 -48 59 -96 59c-47 0 -86 -24 -86 -71
c0 -52 48 -71 117 -100c109 -46 168 -81 168 -178c0 -89 -65 -161 -190 -161c-89 0 -168 40 -204 133z" />
    <glyph glyph-name="Tcaron.smcp" horiz-adv-x="479" 
d="M217 592l-143 120h87l56 -51l56 51h87zM180 0v487h-157v71h390v-71h-157v-487h-76z" />
    <glyph glyph-name="Tcommaaccent.smcp" horiz-adv-x="479" 
d="M180 0v487h-157v71h390v-71h-157v-487h-76zM128 -154l43 116h97l-82 -116h-58z" />
    <glyph glyph-name="Tbar.smcp" horiz-adv-x="479" 
d="M180 0v277h-87v67h87v143h-157v71h390v-71h-157v-143h87v-67h-87v-277h-76z" />
    <glyph glyph-name="Ugrave.smcp" horiz-adv-x="638" 
d="M277 596l-82 116h97l42 -116h-57zM72 201v357h76v-349c0 -103 60 -151 151 -151c92 0 151 48 151 152v348h77v-348c0 -147 -101 -221 -232 -221c-127 0 -223 71 -223 212z" />
    <glyph glyph-name="Uacute.smcp" horiz-adv-x="638" 
d="M268 596l42 116h97l-82 -116h-57zM72 201v357h76v-349c0 -103 60 -151 151 -151c92 0 151 48 151 152v348h77v-348c0 -147 -101 -221 -232 -221c-127 0 -223 71 -223 212z" />
    <glyph glyph-name="Ucircumflex.smcp" horiz-adv-x="638" 
d="M157 615l143 120l144 -120h-88l-56 51l-56 -51h-87zM72 201v357h76v-349c0 -103 60 -151 151 -151c92 0 151 48 151 152v348h77v-348c0 -147 -101 -221 -232 -221c-127 0 -223 71 -223 212z" />
    <glyph glyph-name="Utilde.smcp" horiz-adv-x="638" 
d="M174 606c5 46 34 81 80 81c42 0 68 -28 96 -28c20 0 31 7 37 29l48 -4c-6 -52 -29 -85 -82 -85c-44 0 -68 29 -97 29c-16 0 -29 -6 -35 -26zM72 201v357h76v-349c0 -103 60 -151 151 -151c92 0 151 48 151 152v348h77v-348c0 -147 -101 -221 -232 -221
c-127 0 -223 71 -223 212z" />
    </font>
</defs>
</svg>
