<?xml version="1.0" standalone="no"?>
<!DOCTYPE svg PUBLIC "-//W3C//DTD SVG 1.1//EN" "http://www.w3.org/Graphics/SVG/1.1/DTD/svg11.dtd" >
<svg xmlns="http://www.w3.org/2000/svg">
<metadata></metadata>
<defs>
<font id="pill_gothic_600mglight" horiz-adv-x="1259" >
<font-face units-per-em="2048" ascent="1638" descent="-410" />
<missing-glyph horiz-adv-x="446" />
<glyph unicode="&#xdf;" horiz-adv-x="1282" d="M104 905v99h109v215q0 68 26.5 123t70.5 94t103.5 60.5t125.5 21.5q41 0 91 -10.5t91 -26.5l-33 -103q-33 14 -71.5 20.5t-67.5 6.5q-104 0 -162.5 -51t-58.5 -156v-194h788v-93l-272 -315h78q70 0 115.5 -22.5t74.5 -56.5t41 -76t12 -79v-153q0 -47 -23.5 -88t-64.5 -72 t-94 -48t-115 -17q-104 0 -183 43t-107 112l81 58q16 -47 74 -78t129 -31q78 0 132.5 35t54.5 96v131q0 66 -39 107t-119 41h-197v96l269 309h-631v-903h-119v905h-109z" />
<glyph unicode="&#xfb01;" horiz-adv-x="1142" d="M47 903v101h211v210q0 66 24.5 121.5t69.5 96.5t107.5 64.5t136.5 23.5q61 0 124.5 -17.5t119 -40t95.5 -44t54 -29.5l-53 -99q-12 6 -48 24.5t-84 40t-103.5 38t-104.5 16.5q-96 0 -157.5 -55.5t-61.5 -134.5v-215h233v-101h-233v-903h-119v903h-211zM852 0v1004h121 v-1004h-121z" />
<glyph unicode="&#xfb02;" horiz-adv-x="1169" d="M47 903v103h213v215q0 63 25.5 118.5t71.5 95.5t107.5 62.5t135.5 22.5q37 0 82 -6.5t91 -17.5t89 -24.5t72 -29.5h47v-1442h-123v1354q-57 27 -132 40t-126 13q-96 0 -157.5 -53.5t-61.5 -134.5v-213h235v-103h-239v-903h-121v903h-209z" />
<glyph horiz-adv-x="2048" />
<glyph horiz-adv-x="2048" />
<glyph unicode="&#xd;" horiz-adv-x="446" />
<glyph unicode=" "  horiz-adv-x="446" />
<glyph unicode="&#x09;" horiz-adv-x="446" />
<glyph unicode="&#xa0;" horiz-adv-x="446" />
<glyph unicode="!" horiz-adv-x="489" d="M176 0v201h182v-201h-182zM203 1393h127l-8 -910h-111z" />
<glyph unicode="&#x22;" horiz-adv-x="587" d="M123 1399h104l-4 -453h-96zM362 1399h105l-4 -453h-96z" />
<glyph unicode="#" horiz-adv-x="1417" d="M104 334v94h349l77 412h-368v94h385l67 369h97l-68 -369h281l67 369h94l-65 -369h295v-94h-314l-75 -412h327v-94h-344l-59 -334h-96l57 334h-279l-61 -334h-94l57 334h-330zM549 428h280l76 412h-278z" />
<glyph unicode="$" horiz-adv-x="1067" d="M106 240l105 57q41 -88 127 -139.5t203 -51.5q61 0 115.5 12.5t96.5 42t66.5 79t24.5 122.5v127l-701 318v237q0 90 33 154t85 106t118.5 62t136.5 27v215h109v-219q111 -6 197.5 -62.5t133.5 -155.5l-96 -63q-41 80 -113.5 126t-171.5 46q-43 0 -97 -7t-101 -31.5 t-80 -73t-33 -128.5v-155l701 -318v-200q0 -86 -29 -153t-78 -113t-114.5 -72.5t-139.5 -32.5v-258h-108v256q-135 4 -238.5 68.5t-151.5 177.5z" />
<glyph unicode="%" horiz-adv-x="1468" d="M141 1001v199q0 47 20.5 86t56.5 66.5t84 44t101 16.5t99.5 -16.5t82.5 -45t56.5 -67.5t20.5 -84v-199q0 -47 -20.5 -85.5t-55.5 -67.5t-82 -45.5t-101 -16.5q-55 0 -102 15.5t-83 44t-56.5 68.5t-20.5 87zM227 0l889 1393h123l-883 -1393h-129zM252 1006q0 -51 44 -83 t107 -32q59 0 104.5 33.5t45.5 81.5v192q0 49 -45 80t-105 31q-61 0 -106 -33t-45 -80v-190zM815 190v209q0 47 20.5 86t55.5 68t81 44t99 15t99.5 -15t81 -43t55 -66.5t20.5 -86.5v-206q0 -47 -19.5 -86t-54 -68t-82 -45t-100.5 -16q-51 0 -97 16t-82 44t-56.5 66.5 t-20.5 83.5zM922 199q0 -47 45 -81t104 -34t104.5 34t45.5 83v192q0 49 -43 81t-107 32q-59 0 -104 -34t-45 -81v-192z" />
<glyph unicode="&#x26;" horiz-adv-x="1392" d="M104 330q0 82 34 146.5t86 120.5t115.5 107.5t121.5 104.5l-174 197v172q0 53 20.5 96t56 74.5t85 49t106.5 17.5q135 0 210 -69.5t75 -196.5q0 -109 -61.5 -194t-147.5 -156l362 -404l197 219l88 -77l-205 -224l248 -258l-90 -84l-236 252q-45 -51 -94 -96t-106.5 -78 t-124 -51t-144.5 -18q-197 0 -309.5 86t-112.5 264zM227 340q0 -47 14.5 -91t48.5 -79t90 -55.5t142 -20.5q66 0 120 17.5t100 46t88 68.5t83 83l-376 420q-51 -49 -106.5 -91t-100.5 -86t-74 -94t-29 -118zM399 1044l152 -174q72 63 123 129t51 144q0 164 -168 164 q-45 0 -75.5 -15.5t-49 -37t-26 -46t-7.5 -41.5v-123z" />
<glyph unicode="'" horiz-adv-x="440" d="M160 1434h121l-9 -465h-102z" />
<glyph unicode="(" horiz-adv-x="653" d="M182 193v714q0 219 80 390t217 253l51 -77q-104 -66 -171.5 -210.5t-67.5 -355.5v-714q0 -217 67.5 -356.5t171.5 -205.5l-51 -82q-137 82 -217 253t-80 391z" />
<glyph unicode=")" horiz-adv-x="663" d="M123 -371q104 68 171.5 215.5t67.5 366.5v682q0 211 -64.5 359.5t-168.5 213.5l45 84q68 -41 123 -107.5t93 -152.5t58.5 -187.5t20.5 -209.5v-682q0 -109 -20.5 -210t-58.5 -187t-93 -153t-123 -107z" />
<glyph unicode="*" horiz-adv-x="784" d="M104 1196l27 88l213 -65v217h96v-219l213 67l27 -88l-211 -66l131 -178l-76 -55l-131 178l-133 -178l-76 55l131 178z" />
<glyph unicode="+" horiz-adv-x="1163" d="M66 731v115h454v424h121v-424h457v-115h-457v-465h-121v465h-454z" />
<glyph unicode="," horiz-adv-x="354" d="M47 -205q16 25 29.5 49.5t23 53t13.5 64.5t4 83v113h114v-54q0 -76 -9 -131t-26.5 -96t-39 -71.5t-45.5 -57.5z" />
<glyph unicode="-" horiz-adv-x="665" d="M104 524v113h459v-113h-459z" />
<glyph unicode="." horiz-adv-x="468" d="M141 0v199h187v-199h-187z" />
<glyph unicode="/" horiz-adv-x="729" d="M47 -174l528 1567h119l-528 -1567h-119z" />
<glyph unicode="0" horiz-adv-x="1312" d="M160 401v588q0 102 41 181t110.5 133.5t158.5 82t185 27.5t186.5 -27.5t159 -82t109.5 -133t41 -181.5v-588q0 -102 -41 -181t-109.5 -132t-158.5 -80.5t-187 -27.5q-96 0 -185 27.5t-158.5 80.5t-110.5 132t-41 181zM281 401q0 -78 31.5 -136t84 -96t120 -57.5 t138.5 -19.5q72 0 139.5 19.5t120 57.5t84 96.5t31.5 135.5v588q0 78 -31.5 136.5t-84 97.5t-120 58t-139.5 19t-139 -19t-119.5 -58t-84 -97.5t-31.5 -136.5v-588z" />
<glyph unicode="1" horiz-adv-x="886" d="M139 1280v113h451v-1393h-121v1280h-330z" />
<glyph unicode="2" horiz-adv-x="1077" d="M131 0v59q0 117 21.5 208t67.5 167t119 138.5t175 123.5q57 33 112.5 67t99.5 75t71.5 90t27.5 112q0 125 -73.5 182.5t-196.5 57.5q-51 0 -101.5 -14.5t-94.5 -37t-81.5 -51t-62.5 -59.5l-74 84q76 84 183.5 137.5t230.5 53.5q80 0 151.5 -19.5t125 -61.5t84 -106.5 t30.5 -156.5q0 -80 -27.5 -141.5t-73.5 -110.5t-106.5 -90t-126.5 -82q-80 -47 -146.5 -100.5t-114.5 -115t-73.5 -135t-25.5 -161.5h731v-113h-852z" />
<glyph unicode="3" horiz-adv-x="1165" d="M123 287l108 22q4 -49 35 -89t78 -67.5t107.5 -43t121.5 -15.5q53 0 111.5 12.5t107 37t80 63.5t31.5 92v152q0 55 -31.5 97t-79 68.5t-104.5 41t-106 14.5h-158v112h154q53 0 108 13.5t100 39t74 65.5t29 93v88q0 59 -25.5 100.5t-68.5 68t-98.5 37.5t-114.5 11 q-53 0 -109.5 -14t-102.5 -41.5t-78 -67.5t-36 -94l-104 25q6 72 47 129t103.5 96t138 59.5t149.5 20.5q84 0 159.5 -19.5t134 -60.5t92.5 -103.5t34 -146.5v-88q0 -53 -20.5 -98t-53.5 -79t-75 -57.5t-85 -35.5q45 -14 89 -36.5t80 -55.5t57.5 -78t21.5 -104v-152 q0 -80 -40 -139.5t-104.5 -99.5t-143.5 -59t-158 -19q-88 0 -168 20.5t-141.5 59t-100.5 95t-45 130.5z" />
<glyph unicode="4" horiz-adv-x="1107" d="M45 426v100l584 867h196v-854h244v-113h-244v-424h-120v424h-660zM182 539h523v747h-19z" />
<glyph unicode="5" horiz-adv-x="1142" d="M131 328l119 16q2 -55 27.5 -102t69.5 -80t102.5 -51.5t123.5 -18.5q59 0 115.5 16.5t101 47t72 75.5t27.5 105v137q0 59 -23.5 105.5t-62.5 77t-91.5 47t-111.5 16.5h-414l68 674h672v-113h-561l-46 -449h287q84 0 157 -23.5t128 -69.5t87 -112.5t32 -152.5v-137 q0 -84 -38 -149.5t-99.5 -111.5t-140.5 -70.5t-163 -24.5q-86 0 -163.5 22.5t-137 67.5t-96.5 109.5t-41 148.5z" />
<glyph unicode="6" horiz-adv-x="1169" d="M160 330v751q0 76 34.5 137.5t93 104.5t138.5 66.5t168 23.5q106 0 195.5 -36t154.5 -99l-70 -94q-53 55 -127.5 85.5t-152.5 30.5q-66 0 -123 -14t-99 -43t-66.5 -68.5t-24.5 -93.5v-340q66 72 150.5 108t180.5 36q80 0 155 -21.5t133 -65.5t93 -109.5t35 -153.5v-205 q0 -88 -37 -153.5t-98.5 -109.5t-139 -65.5t-159.5 -21.5t-160 21.5t-139.5 65.5t-98 109.5t-36.5 153.5zM281 330q0 -63 27.5 -108.5t71.5 -74t100.5 -42t113.5 -13.5t113.5 13.5t100.5 42t71.5 73.5t27.5 109v196q0 61 -27.5 107.5t-71.5 75t-100.5 43t-113.5 14.5 t-113.5 -16.5t-100.5 -47t-71.5 -75.5t-27.5 -101v-196z" />
<glyph unicode="7" horiz-adv-x="937" d="M18 1280v113h863l-467 -1393h-135l432 1280h-693z" />
<glyph unicode="8" horiz-adv-x="1187" d="M160 313v142q0 47 18.5 90t49 78.5t71.5 63.5t86 44q-86 37 -141.5 112t-55.5 167v82q0 84 34 145t90.5 103t130 62.5t151.5 20.5t150.5 -20.5t129 -62.5t90 -103t33.5 -145v-93q0 -43 -15 -84t-42 -75.5t-62.5 -62t-74.5 -46.5q43 -16 83 -44t71.5 -62.5t50 -77.5 t18.5 -92v-142q0 -88 -37 -151.5t-97.5 -103.5t-138 -59t-159.5 -19t-160 19t-139.5 59t-98 103.5t-36.5 151.5zM281 315q0 -61 27.5 -104t72.5 -69.5t101.5 -38t111.5 -11.5t110.5 11.5t100.5 38t72.5 68.5t27.5 103v142q0 51 -26.5 92t-68.5 68.5t-93 42t-103 14.5h-41 q-51 0 -104 -15.5t-94 -43t-67.5 -67.5t-26.5 -91v-140zM309 999q0 -49 22.5 -88t60.5 -66.5t86 -43t97 -17.5h39q49 2 97.5 17.5t85.5 42t59.5 65.5t22.5 90v93q0 57 -25 99t-65.5 68.5t-91 39t-103.5 12.5q-51 0 -102.5 -12.5t-92.5 -39t-65.5 -68.5t-24.5 -99v-93z" />
<glyph unicode="9" horiz-adv-x="1169" d="M141 838v225q0 82 37 146.5t97.5 109.5t139 69.5t160.5 24.5t159 -24.5t137.5 -69.5t97.5 -109.5t37 -146.5v-733q0 -88 -37 -153.5t-97.5 -109.5t-137.5 -65.5t-159 -21.5q-51 0 -105 8t-105.5 25.5t-96.5 43t-80 62.5l72 90q49 -37 125 -77t188 -40q57 0 112.5 13.5 t99.5 42t72 73.5t28 109v291q-59 -70 -145.5 -104t-174.5 -34q-82 0 -158.5 22.5t-135 66.5t-94.5 111t-36 155zM262 838q0 -63 27.5 -108.5t72 -75t100.5 -43t113 -13.5t112.5 15.5t99.5 46t71 75.5t27 103v225q0 57 -27 101t-71 75t-99 46t-113 15q-57 0 -113 -15 t-100.5 -46t-72 -75t-27.5 -101v-225z" />
<glyph unicode=":" horiz-adv-x="550" d="M201 0v221h172v-221h-172zM201 786v218h172v-218h-172z" />
<glyph unicode=";" horiz-adv-x="600" d="M207 -205q16 25 29.5 49.5t22.5 53t13 64.5t4 83v113h115v-54q0 -76 -9 -131t-26.5 -96t-39 -71.5t-46.5 -57.5zM264 723v223h150v-223h-150z" />
<glyph unicode="&#x3c;" horiz-adv-x="1228" d="M104 492l930 546l53 -86l-774 -456l811 -435l-53 -90z" />
<glyph unicode="=" horiz-adv-x="1275" d="M104 457v104h1067v-104h-1067zM104 899v105h1067v-105h-1067z" />
<glyph unicode="&#x3e;" horiz-adv-x="1183" d="M109 59l770 441l-742 448l58 86l886 -532l-919 -533z" />
<glyph unicode="?" horiz-adv-x="800" d="M55 1266q61 66 141.5 106.5t172.5 40.5q156 0 242.5 -71.5t86.5 -225.5v-104q0 -70 -45 -120t-98 -95q-66 -53 -113 -108.5t-47 -135.5v-139h-121v168q0 41 14.5 76.5t38 68.5t54.5 62.5t63 58.5q23 18 46.5 36.5t43 40t32 46t12.5 55.5v88q0 92 -57.5 139t-149.5 47 q-70 0 -135.5 -31.5t-108.5 -84.5zM236 0v201h192v-201h-192z" />
<glyph unicode="@" horiz-adv-x="1650" d="M104 528q0 57 6.5 130t16.5 147q16 129 74.5 241.5t151.5 196.5t218.5 133t272.5 49q152 0 279.5 -43t220 -119.5t144.5 -182t52 -232.5q0 -119 -17.5 -212t-56.5 -158.5t-102.5 -100.5t-153.5 -35q-66 0 -123 29.5t-83 89.5q-49 -63 -130 -105.5t-178 -42.5 q-68 0 -114.5 17.5t-77.5 47.5t-44.5 68.5t-13.5 81.5q0 12 4.5 44t10.5 72t15 83t18 80q16 63 52 119.5t87 97.5t114.5 65.5t133.5 24.5q123 0 191.5 -55t68.5 -150q0 -29 -8.5 -72.5t-18.5 -93.5q-10 -51 -19.5 -99t-9.5 -77q0 -53 35 -92t90 -39q115 0 172.5 98.5 t57.5 317.5q0 106 -44 194.5t-123 152t-188.5 98t-240.5 34.5q-129 0 -236.5 -42t-187.5 -114.5t-130 -169t-63 -206.5q-10 -72 -17 -141.5t-7 -125.5q0 -98 48 -182t132 -145.5t201.5 -96t255.5 -34.5q84 0 167 21.5t160 62.5l50 -84q-86 -47 -182.5 -70.5t-194.5 -23.5 q-160 0 -295 41.5t-232.5 115.5t-153 174.5t-55.5 216.5zM557 555q0 -72 40 -107.5t114 -35.5q104 0 182 60t94 155q14 63 29.5 133.5t15.5 132.5q0 66 -41 94.5t-119 28.5q-51 0 -98 -20.5t-85 -54.5t-62.5 -79t-34.5 -94q-6 -27 -12.5 -62.5t-11.5 -67.5t-8 -55.5 t-3 -27.5z" />
<glyph unicode="A" d="M49 0l522 1411h131l508 -1411h-131l-164 455h-565l-168 -455h-133zM389 563h488l-242 690z" />
<glyph unicode="B" horiz-adv-x="1177" d="M178 0v1393h449q80 0 148.5 -22.5t118.5 -68t80 -111t30 -149.5v-49q0 -90 -53.5 -163.5t-133.5 -102.5q104 -35 171 -112.5t67 -194.5v-78q0 -84 -30 -147.5t-82 -106.5t-119.5 -65.5t-145.5 -22.5h-500zM299 113h360q51 0 100.5 13t88.5 42t62.5 72t23.5 100v82 q0 59 -25.5 104t-68.5 76t-98.5 46.5t-114.5 15.5h-328v-551zM299 772h309q51 0 100.5 15.5t88.5 43t62.5 69.5t23.5 93v49q0 127 -78 182.5t-197 55.5h-309v-508z" />
<glyph unicode="C" horiz-adv-x="1138" d="M123 414v565q0 100 39 180t106.5 136.5t157.5 87t190 30.5q274 0 433 -172l-72 -88q-66 70 -158 108.5t-203 38.5q-76 0 -143 -22.5t-118.5 -63t-81 -101t-29.5 -134.5v-565q0 -80 28.5 -140.5t78.5 -100.5t119 -60.5t148 -20.5q109 0 206.5 29t168.5 92l58 -94 q-90 -78 -198 -108.5t-235 -30.5q-106 0 -196 27.5t-156.5 82.5t-104.5 136t-38 188z" />
<glyph unicode="D" horiz-adv-x="1243" d="M180 0v1393h416q106 0 201.5 -28t167 -83t113.5 -136t42 -188v-526q0 -111 -43 -191.5t-115.5 -134t-169 -80t-204.5 -26.5h-408zM299 113h289q84 0 157.5 18.5t131 58t90 100t32.5 142.5v526q0 78 -33.5 138.5t-89 101.5t-128 61.5t-152.5 20.5h-297v-1167z" />
<glyph unicode="E" horiz-adv-x="1044" d="M180 0v1393h709v-113h-590v-510h498v-111h-498v-546h641v-113h-760z" />
<glyph unicode="F" horiz-adv-x="952" d="M180 0v1393h707v-113h-588v-496h498v-110h-496v-674h-121z" />
<glyph unicode="G" horiz-adv-x="1284" d="M123 414v565q0 92 43 172t115.5 138.5t168 91t201.5 32.5q127 0 243 -43t187 -123l-69 -90q-61 63 -158.5 103t-202.5 40q-80 0 -153.5 -25.5t-130 -69.5t-90 -102.5t-33.5 -123.5v-565q0 -70 32.5 -129.5t88 -102.5t130 -66.5t158.5 -23.5q129 0 216 30t153 73v405h-375 v107h496v-572q-45 -27 -93.5 -55.5t-106.5 -50t-129 -35.5t-161 -14q-111 0 -207 31.5t-168.5 90t-113.5 138t-41 174.5z" />
<glyph unicode="H" horiz-adv-x="1415" d="M195 0v1393h120v-664h797v664h121v-1393h-121v616h-797v-616h-120z" />
<glyph unicode="I" horiz-adv-x="579" d="M227 0v1393h121v-1393h-121z" />
<glyph unicode="J" horiz-adv-x="1003" d="M47 309l117 19q2 -49 24.5 -92t59.5 -75t86 -50.5t102 -18.5q51 0 99.5 15.5t86 45t60.5 71.5t23 93v1076h118v-1076q0 -78 -31.5 -140t-84 -106t-122 -67.5t-147.5 -23.5t-146.5 23.5t-121.5 66.5t-86 103t-37 136z" />
<glyph unicode="K" horiz-adv-x="1249" d="M180 0v1393h119v-693l705 693h167l-663 -652l731 -741h-168l-649 655l-123 -112v-543h-119z" />
<glyph unicode="L" horiz-adv-x="1005" d="M180 0v1393h119v-1280h694v-113h-813z" />
<glyph unicode="M" horiz-adv-x="1624" d="M180 0v1393h150l481 -846l481 846h152v-1393h-113v1229l-489 -881h-64l-485 875v-1223h-113z" />
<glyph unicode="N" horiz-adv-x="1454" d="M180 0v1393h156l825 -1239v1239h113v-1393h-158l-823 1241v-1241h-113z" />
<glyph unicode="O" horiz-adv-x="1339" d="M123 412v567q0 100 45 181t118.5 137.5t170 86t196.5 29.5h35q100 0 195.5 -30.5t169 -87t119 -136.5t45.5 -180v-567q0 -104 -44.5 -185.5t-117 -135.5t-167.5 -82.5t-200 -28.5h-33q-106 0 -202.5 27.5t-170 81.5t-116.5 135t-43 188zM244 412q0 -80 34.5 -139.5 t91 -99.5t131 -60.5t154.5 -20.5h33q78 0 151.5 20.5t131 60.5t91.5 99.5t34 139.5v565q0 76 -36 135t-93.5 101t-131 64.5t-147.5 22.5h-35q-76 0 -149.5 -22.5t-131 -63t-93 -101t-35.5 -134.5v-567z" />
<glyph unicode="P" horiz-adv-x="1105" d="M178 0v1393h434q80 0 151 -23.5t124 -69t83.5 -109t30.5 -142.5v-152q0 -80 -30.5 -139.5t-82.5 -99.5t-123 -60t-149 -20h-317v-578h-121zM299 690h313q53 0 101.5 12.5t85.5 38t59.5 64.5t22.5 92v152q0 53 -22.5 95t-59.5 72.5t-85 47t-102 16.5h-313v-590z" />
<glyph unicode="Q" horiz-adv-x="1339" d="M123 412v567q0 100 45 181t118.5 137.5t170 86t196.5 29.5h35q100 0 195.5 -30.5t169 -87t119 -136.5t45.5 -180v-567q0 -111 -47.5 -193t-125.5 -137l27 -33q29 -37 52.5 -58.5t48 -32.5t52 -14t66.5 -3v-97q-57 0 -99 5.5t-77 20.5t-65.5 43t-67.5 75l-31 43 q-125 -51 -262 -51h-33q-106 0 -202.5 27.5t-170 81.5t-116.5 135t-43 188zM244 412q0 -80 34.5 -139.5t91 -99.5t131 -60.5t154.5 -20.5h33q96 0 189 35l-187 248l82 65l201 -262q53 39 88 97.5t35 136.5v565q0 76 -36 135t-93.5 101t-131 64.5t-147.5 22.5h-35 q-76 0 -149.5 -22.5t-131 -63t-93 -101t-35.5 -134.5v-567z" />
<glyph unicode="R" horiz-adv-x="1204" d="M180 0v1393h512q80 0 150.5 -25t123 -69t83 -107.5t30.5 -142.5v-111q0 -70 -25.5 -124t-68.5 -93t-100.5 -63.5t-122.5 -32.5l346 -625h-137l-344 618h-326v-618h-121zM301 731h389q49 0 97.5 13.5t86 40t61 64.5t23.5 89v111q0 51 -22.5 93t-60 72.5t-86 48t-99.5 17.5 h-389v-549z" />
<glyph unicode="S" horiz-adv-x="1179" d="M106 225l95 68q29 -49 75 -86t101 -61.5t115.5 -37t117.5 -12.5q72 0 135.5 14.5t110.5 46t74.5 83t27.5 122.5q0 74 -28.5 122t-79.5 81t-117.5 56.5t-144.5 48.5q-90 29 -169 58.5t-137.5 72.5t-92 104.5t-33.5 153.5q0 94 34.5 160.5t96 109.5t143.5 63.5t176 20.5 q147 0 257 -53t188 -135l-78 -90q-59 66 -155.5 115.5t-213.5 49.5q-66 0 -125 -13t-105 -41.5t-73 -75t-27 -111.5q0 -70 34 -115t88.5 -75.5t122.5 -53t140 -45.5q96 -31 173 -60.5t132.5 -73.5t85 -108.5t29.5 -165.5q0 -98 -35.5 -169.5t-99 -118.5t-147.5 -69.5 t-183 -22.5q-76 0 -151.5 14t-143 43t-122 76t-91.5 110z" />
<glyph unicode="T" horiz-adv-x="1097" d="M29 1278v113h1040v-113h-463v-1278h-121v1278h-456z" />
<glyph unicode="U" horiz-adv-x="1406" d="M180 418v975h119v-975q0 -82 33 -143.5t88 -102.5t130 -60.5t157 -19.5q78 0 149.5 21.5t126.5 62.5t89 101.5t34 140.5v975h119v-975q0 -109 -40 -191t-110.5 -137t-165 -82.5t-202.5 -27.5q-111 0 -207.5 26.5t-167 80.5t-111.5 137t-41 194z" />
<glyph unicode="V" horiz-adv-x="1247" d="M47 1393h123l448 -1229l459 1229h125l-516 -1393h-133z" />
<glyph unicode="W" horiz-adv-x="1789" d="M47 1393h127l318 -1221l335 1221h121l336 -1223l311 1223h129l-366 -1393h-146l-323 1194l-330 -1194h-145z" />
<glyph unicode="X" horiz-adv-x="1280" d="M90 0l490 700l-463 693h145l391 -592l404 592h145l-477 -693l475 -700h-145l-402 600l-415 -600h-148z" />
<glyph unicode="Y" horiz-adv-x="1290" d="M47 1393h141l445 -711l448 711h144l-533 -830v-563h-121v563z" />
<glyph unicode="Z" horiz-adv-x="1189" d="M104 0v55l787 1225h-760v113h934v-74l-768 -1206h786v-113h-979z" />
<glyph unicode="[" horiz-adv-x="552" d="M174 -340v1733h275v-101h-158v-1532h149v-100h-266z" />
<glyph unicode="\" horiz-adv-x="784" d="M66 1393h120l533 -1393h-119z" />
<glyph unicode="]" horiz-adv-x="548" d="M104 1288v105h271v-1719h-269v103h150v1511h-152z" />
<glyph unicode="^" horiz-adv-x="817" d="M104 907l310 510l299 -508l-105 -20l-194 332l-201 -332z" />
<glyph unicode="_" horiz-adv-x="1087" d="M104 -55h879v-107h-879v107z" />
<glyph unicode="`" horiz-adv-x="495" d="M102 1378l101 76l190 -301l-78 -53z" />
<glyph unicode="a" horiz-adv-x="1011" d="M104 285v194l646 113v88q0 233 -238 233q-49 0 -98 -10t-92 -25.5t-79 -33t-59 -31.5l-43 94q29 18 73 39t94 38t105.5 28.5t106.5 11.5q164 0 258 -90t94 -254v-680h-108l-12 137q-59 -92 -138 -123.5t-178 -31.5q-72 0 -132 20.5t-105 60t-70 96t-25 126.5zM223 289 q0 -47 18.5 -84t50.5 -61.5t75 -38t90 -13.5q51 0 103 16.5t94 45t69 71.5t27 94v173l-527 -93v-110z" />
<glyph unicode="b" horiz-adv-x="1105" d="M162 0v1475h121v-623q23 43 59.5 74.5t81.5 54.5t95 34t99 11q84 0 154 -23.5t121 -68.5t79.5 -109.5t28.5 -148.5v-344q0 -84 -28.5 -149.5t-80.5 -110.5t-122 -68.5t-154 -23.5q-109 0 -199.5 38.5t-137.5 114.5l-9 -133h-108zM283 330q0 -61 26.5 -105.5t70.5 -74 t101.5 -44t118.5 -14.5q55 0 106.5 15.5t90.5 46t61.5 75.5t22.5 103v344q0 59 -22.5 103t-60.5 73t-89.5 44t-110.5 15q-57 0 -113.5 -16t-101.5 -47t-72.5 -75t-27.5 -99v-344z" />
<glyph unicode="c" horiz-adv-x="899" d="M104 330v342q0 82 30 146.5t83 110.5t125 70.5t154 24.5q111 0 188.5 -31.5t149.5 -109.5l-76 -86q-53 55 -120.5 84.5t-141.5 29.5q-57 0 -106.5 -16t-86.5 -47t-58.5 -76t-21.5 -100v-342q0 -121 80 -179.5t201 -58.5q72 0 136.5 20.5t131.5 75.5l55 -96 q-80 -70 -155.5 -91t-171.5 -21q-88 0 -161 21.5t-125 65.5t-81 109.5t-29 153.5z" />
<glyph unicode="d" horiz-adv-x="1079" d="M104 346v316q0 86 28 153.5t79 114.5t121.5 71.5t156.5 24.5q96 0 184.5 -35t141.5 -112v596h119v-1475h-105l-14 135q-53 -84 -142 -119.5t-184 -35.5q-86 0 -156.5 24.5t-121.5 72.5t-79 115.5t-28 153.5zM225 346q0 -125 81 -188.5t206 -63.5q59 0 113.5 14.5t96.5 44 t67.5 74.5t25.5 105v344q0 61 -24.5 105t-67.5 74t-98.5 44t-116.5 14q-59 0 -110.5 -17t-90.5 -49t-60.5 -79t-21.5 -106v-316z" />
<glyph unicode="e" horiz-adv-x="999" d="M104 336v350q0 76 32 138.5t87.5 106.5t131 68.5t161.5 24.5q84 0 153.5 -24.5t122 -68.5t81 -105.5t28.5 -137.5v-135l-678 -98v-119q0 -61 28 -107.5t74 -77t105.5 -45t122.5 -14.5q55 0 103.5 10.5t87 24.5t67.5 30.5t45 30.5l59 -86q-72 -63 -170 -92.5t-196 -29.5 q-88 0 -169 21.5t-142.5 65.5t-97.5 110.5t-36 158.5zM223 553l555 80v57q0 96 -74.5 158.5t-189.5 62.5q-59 0 -111.5 -16t-92.5 -47t-63.5 -72t-23.5 -90v-133z" />
<glyph unicode="f" horiz-adv-x="608" d="M18 905v99h211v206q0 74 26 128.5t69 91t101 55t124 18.5q41 0 91 -10t91 -27l-26 -96q-74 25 -148 25q-98 0 -152.5 -47.5t-54.5 -149.5v-194h244v-99h-244v-905h-121v905h-211z" />
<glyph unicode="g" horiz-adv-x="1073" d="M98 -184q0 106 51.5 159.5t149.5 77.5q-57 29 -90 68t-33 110q0 45 31 84t78 56q-74 41 -108 104.5t-34 153.5v78q0 80 31 139t85 99t126 60.5t152 20.5q63 0 119.5 -13.5t113.5 -41.5l234 76l32 -97l-176 -55q33 -43 52.5 -88t19.5 -96v-88q0 -80 -31 -138.5t-83 -97.5 t-121.5 -58.5t-147.5 -19.5q-39 0 -84 4t-80 17q-37 -10 -65.5 -30.5t-28.5 -63.5q0 -27 14 -48.5t35.5 -37t45.5 -25.5t44 -14l567 -144v-160q0 -74 -35.5 -125t-93 -82.5t-130 -47t-144.5 -15.5h-105q-76 0 -146.5 15.5t-124.5 49t-87 87t-33 127.5zM215 -180 q0 -53 25.5 -87t67.5 -53.5t94.5 -27.5t105.5 -8h96q47 0 94 8t85 26.5t62.5 50t31.5 78.5v89l-441 108q-39 -2 -79 -12t-71.5 -30.5t-51 -55.5t-19.5 -86zM260 618q0 -96 77 -150t208 -54q55 0 104 11t86 35.5t58.5 63.5t21.5 94v93q-4 53 -28.5 91t-62.5 64.5t-86 39 t-101 12.5q-51 0 -101.5 -13.5t-89.5 -39t-62.5 -64.5t-23.5 -90v-93z" />
<glyph unicode="h" horiz-adv-x="1128" d="M160 0v1475h121v-662q55 98 151 155.5t213 57.5q166 0 254 -91t88 -257v-678h-119v678q0 113 -66.5 174t-178.5 61q-57 0 -119 -23.5t-111 -63.5t-80.5 -92t-31.5 -111v-623h-121z" />
<glyph unicode="i" horiz-adv-x="497" d="M182 1241v152h135v-152h-135zM193 0v1004h118v-1004h-118z" />
<glyph unicode="j" horiz-adv-x="540" d="M-78 -342q80 43 139.5 79t99.5 82t60.5 109.5t20.5 165.5v910h120v-916q0 -113 -25.5 -191.5t-74.5 -137t-122.5 -103.5t-172.5 -88zM236 1241v152h124v-152h-124z" />
<glyph unicode="k" horiz-adv-x="915" d="M160 0v1454h121v-862h59l387 412h141l-428 -465l469 -539h-153l-420 483h-55v-483h-121z" />
<glyph unicode="l" horiz-adv-x="495" d="M186 0v1454h121v-1454h-121z" />
<glyph unicode="m" horiz-adv-x="1724" d="M162 0v1004h108l9 -185q51 92 138 149.5t193 57.5q113 0 192 -44t109 -155q113 199 346 199q160 0 243 -88t83 -248v-690h-121v672q0 109 -57 175t-164 66q-66 0 -122 -19.5t-98 -56t-66.5 -88t-24.5 -116.5v-633h-121v686q0 106 -57.5 167.5t-163.5 61.5 q-55 0 -110.5 -25.5t-98.5 -66.5t-69.5 -94t-26.5 -108v-621h-121z" />
<glyph unicode="n" horiz-adv-x="1130" d="M160 0v1004h114l9 -195q59 98 149 157.5t209 59.5q166 0 256 -91t90 -257v-678h-119v666q0 117 -64.5 182t-180.5 65q-57 0 -118 -23.5t-110 -63.5t-80.5 -92t-31.5 -111v-623h-123z" />
<glyph unicode="o" horiz-adv-x="1034" d="M104 336v340q0 80 34 145.5t91.5 110.5t132 69.5t156.5 24.5q84 0 159 -24.5t131 -70.5t89 -110.5t33 -144.5v-340q0 -80 -34 -145.5t-91 -111.5t-132 -71.5t-155 -25.5t-154.5 24.5t-132 70.5t-92.5 111.5t-35 147.5zM223 336q0 -57 24.5 -101.5t66.5 -75t95.5 -47 t108.5 -16.5t107.5 16.5t93.5 47t65.5 76t24.5 100.5v340q0 55 -24.5 99t-65.5 75t-93.5 47t-107.5 16t-108.5 -16t-94.5 -47t-66.5 -75t-25.5 -99v-340z" />
<glyph unicode="p" horiz-adv-x="1097" d="M160 -451v1455h102l14 -150q47 76 135.5 123t192.5 47q84 0 154.5 -26.5t123 -73.5t82 -110.5t29.5 -139.5v-340q0 -76 -29.5 -140.5t-82 -112.5t-123 -74.5t-154.5 -26.5q-49 0 -98 10t-92 28.5t-78 46t-55 62.5v-578h-121zM281 332q0 -55 25.5 -99.5t67.5 -75t97 -48 t117 -17.5q59 0 110.5 17.5t90 50.5t61 77t22.5 97v338q0 55 -22.5 100t-61 76t-90 47t-110.5 16q-61 0 -116.5 -19.5t-97.5 -51t-67.5 -75.5t-25.5 -93v-340z" />
<glyph unicode="q" horiz-adv-x="1040" d="M104 336v342q0 80 30 144.5t82 110.5t122.5 70.5t150.5 24.5q90 0 183.5 -38t148.5 -113l15 127h102v-1455h-121v582q-25 -39 -62.5 -67.5t-81.5 -46t-91 -25.5t-93 -8q-80 0 -150.5 24.5t-122.5 70.5t-82 111.5t-30 145.5zM223 336q0 -55 24.5 -99t64.5 -76t91.5 -48.5 t106.5 -16.5q57 0 111.5 15.5t97.5 46t69.5 76t26.5 102.5v342q0 55 -26.5 99t-70.5 75t-98.5 47t-109.5 16q-57 0 -109.5 -16t-91.5 -48t-62.5 -76t-23.5 -99v-340z" />
<glyph unicode="r" horiz-adv-x="663" d="M170 0v1004h102l13 -211q14 45 39.5 87t59.5 73.5t76 51t89 19.5q57 0 106 -12l-22 -119q-20 4 -48 7t-50 3q-55 0 -100.5 -27.5t-77 -73.5t-49 -102.5t-17.5 -115.5v-584h-121z" />
<glyph unicode="s" horiz-adv-x="899" d="M78 137l57 88q57 -59 145.5 -97t174.5 -38q53 0 98 7t80 27.5t54.5 54.5t19.5 87q0 51 -26 83t-67 53.5t-90 36t-98 28.5q-63 20 -119.5 41.5t-97.5 53.5t-65.5 78t-24.5 114q0 72 26.5 123t73.5 83.5t110.5 48t137.5 15.5q37 0 80 -8t85 -23.5t82 -36t70 -43.5l-57 -102 q-55 41 -125 71.5t-139 30.5q-49 0 -90 -7t-71 -25.5t-46 -49t-16 -77.5t24.5 -76t62.5 -48.5t84 -32t89 -26.5q66 -20 124 -44.5t103 -57.5t70.5 -79t25.5 -111q0 -80 -28.5 -136.5t-79.5 -92.5t-119 -52t-145 -16q-106 0 -203.5 39.5t-169.5 115.5z" />
<glyph unicode="t" horiz-adv-x="741" d="M37 903v101h190v305h121v-305h283v-101h-283v-657q0 -66 33.5 -105t99.5 -39q61 0 117.5 14.5t83.5 26.5l33 -96q-35 -14 -98.5 -34.5t-135.5 -20.5q-121 0 -187.5 64.5t-66.5 185.5v661h-190z" />
<glyph unicode="u" horiz-adv-x="1116" d="M160 332v672h121v-672q0 -55 23.5 -99.5t63.5 -76t91 -48t106 -16.5t107.5 16.5t92.5 47t64.5 75.5t24.5 101v672h121v-672q0 -80 -34 -145.5t-90 -111.5t-130 -70.5t-156 -24.5q-80 0 -153.5 24.5t-130 70.5t-89 111.5t-32.5 145.5z" />
<glyph unicode="v" horiz-adv-x="1011" d="M47 1004h131l330 -854l328 854h131l-404 -1004h-112z" />
<glyph unicode="w" horiz-adv-x="1396" d="M47 1004h127l227 -854l236 854h119l243 -852l224 852h127l-289 -1006h-125l-236 821l-235 -821h-129z" />
<glyph unicode="x" horiz-adv-x="901" d="M43 0l338 522l-315 482h135l252 -390l252 390h141l-324 -482l338 -522h-137l-270 428l-273 -428h-137z" />
<glyph unicode="y" horiz-adv-x="923" d="M35 -332q117 0 210 64.5t134 177.5l18 57l-356 1037h131l293 -885l297 885h131l-397 -1121q-55 -158 -175 -238.5t-278 -80.5z" />
<glyph unicode="z" horiz-adv-x="915" d="M92 0v84l545 821h-533v99h680v-70l-542 -825h581v-109h-731z" />
<glyph unicode="{" horiz-adv-x="610" d="M160 602l82 117l-49 344q0 78 17 140.5t51 115.5t85 100t119 97l39 -86q-109 -74 -157 -159t-50 -204l47 -365l-63 -96l65 -82l-49 -420q4 -121 54 -207.5t157 -160.5l-41 -88q-74 53 -126 103t-85 104.5t-48 117t-15 140.5l47 391z" />
<glyph unicode="|" horiz-adv-x="460" d="M180 -301v1694h103v-1694h-103z" />
<glyph unicode="}" horiz-adv-x="622" d="M162 -264q115 76 165 164t54 204l-49 420l63 82l-63 94l49 367q-2 98 -47 189.5t-166 173.5l39 83q72 -47 124 -96t86 -102t51 -115.5t17 -136.5l-51 -344l84 -117l-84 -98l51 -391q0 -68 -13 -128.5t-46 -116.5t-87 -109.5t-134 -108.5z" />
<glyph unicode="~" horiz-adv-x="798" d="M96 1276q37 59 78 93t101 34q37 0 70.5 -14.5t67.5 -33t66.5 -33.5t65.5 -15q31 2 49 20.5t35 46.5l78 -47q-10 -20 -25.5 -42.5t-36 -41t-46 -31t-56.5 -12.5q-43 0 -78 14.5t-67.5 33t-63.5 32.5t-66 14q-37 0 -59 -23.5t-37 -47.5z" />
<glyph unicode="&#xa1;" horiz-adv-x="497" d="M201 -399l22 954h113l24 -954h-159zM203 844v160h157v-160h-157z" />
<glyph unicode="&#xa2;" horiz-adv-x="962" d="M104 350v303q0 72 33 138.5t87.5 116.5t127 81t152.5 31h43l45 276l108 -16l-45 -272q59 -16 111.5 -50t91.5 -88l-76 -77q-47 59 -113.5 89.5t-138.5 30.5q-59 0 -114.5 -21.5t-97.5 -57t-67.5 -82.5t-25.5 -99v-303q0 -55 24.5 -102t65.5 -82t96.5 -55.5t118.5 -20.5 q72 0 138.5 21.5t115.5 68.5l66 -92q-68 -66 -143.5 -88.5t-163.5 -22.5h-32.5t-33.5 5l-45 -263l-108 17l45 266q-59 18 -108.5 53t-84.5 81t-53.5 101.5t-18.5 112.5z" />
<glyph unicode="&#xa3;" horiz-adv-x="1116" d="M104 614v103h304l-23 258q0 96 39 176t109.5 136t168 88t216.5 32v-113q-90 0 -166 -22.5t-129.5 -63.5t-84 -98t-32.5 -125l24 -268h371v-103h-358q6 -74 11 -123t5 -55q0 -47 -2 -92t-14.5 -86t-37 -78t-69.5 -67h576v-113h-879v100q96 2 155.5 26t92.5 67t44 102 t11 129l-16 190h-316z" />
<glyph unicode="&#xa5;" horiz-adv-x="1314" d="M47 1393h141l467 -639l459 639h156l-525 -709h408v-92h-438v-166h438v-90h-438v-336h-121v336h-424v90h424v166h-424v92h393z" />
<glyph unicode="&#xa6;" horiz-adv-x="315" d="M104 -231v669h107v-669h-107zM104 743v670h107v-670h-107z" />
<glyph unicode="&#xa7;" horiz-adv-x="1177" d="M119 602q0 43 16.5 84t42 73t57 54.5t64.5 30.5q-37 47 -52.5 105.5t-15.5 111.5q0 86 30 150.5t83 109.5t126 67.5t159 22.5q133 0 230 -51t147 -141l-82 -64q-39 70 -115 110t-176 40q-57 0 -108.5 -17.5t-89.5 -50.5t-60.5 -77t-22.5 -99q0 -70 36 -121t91.5 -90 t121 -67.5t124.5 -53.5q70 -31 133.5 -63.5t112.5 -75.5t78.5 -96.5t29.5 -124.5q0 -37 -7 -76t-27.5 -75t-55.5 -66.5t-88 -51.5q37 -43 55.5 -100t18.5 -113q0 -82 -32 -147.5t-85 -110.5t-126 -68.5t-154 -23.5q-133 0 -241 56.5t-155 154.5l88 59q16 -35 47 -65.5 t72 -52t88 -33.5t96 -12q57 0 108.5 15t89.5 45t60.5 75t22.5 104q0 70 -40 126.5t-102.5 101.5t-138 79.5t-145.5 63.5q-57 25 -113.5 52.5t-99.5 67.5t-69.5 95t-26.5 133zM238 602q0 -49 18 -85t56 -65.5t94.5 -56t130.5 -57.5q74 -33 144.5 -66.5t131.5 -81.5 q31 4 58.5 18.5t47 36t32 48t12.5 53.5q0 51 -17.5 89t-54.5 70t-93.5 59.5t-131.5 60.5q-72 29 -140.5 62.5t-130.5 80.5q-66 -6 -111.5 -56t-45.5 -110z" />
<glyph unicode="&#xa8;" horiz-adv-x="700" d="M102 1188v153h144v-153h-144zM455 1188v153h143v-153h-143z" />
<glyph unicode="&#xa9;" horiz-adv-x="1638" d="M104 715q0 150 56.5 279.5t153 227t226.5 154t279 56.5q150 0 280 -56.5t227 -154t153.5 -227.5t56.5 -279q0 -150 -56.5 -280t-153.5 -227t-227 -153.5t-280 -56.5t-279.5 56.5t-226 152.5t-153 227t-56.5 281zM199 715q0 -129 48 -243t133 -199t198.5 -133t242.5 -48 t242 48t198 133t133 199t48 243t-48 242.5t-133 197.5t-198 133t-242 49t-242.5 -49t-198.5 -133t-133 -197.5t-48 -242.5zM451 651v97q0 68 29.5 129t81.5 107t121 72.5t146 26.5q98 0 175 -31.5t135 -101.5l-62 -80q-41 51 -110.5 80t-137.5 29q-55 0 -103 -18.5t-85 -51 t-57.5 -73.5t-20.5 -88v-97q0 -51 22.5 -94t59.5 -73.5t87 -48t106 -17.5q66 0 134 23.5t115 66.5l56 -82q-57 -57 -140 -85t-169 -28q-82 0 -152 26t-121 71t-80.5 106.5t-29.5 134.5z" />
<glyph unicode="&#xaa;" horiz-adv-x="692" d="M104 954v148l371 53v33q0 78 -37 103.5t-96 25.5q-41 0 -90 -17.5t-72 -31.5l-39 88q35 18 91.5 35.5t111.5 21.5q106 0 172 -48t66 -153v-426h-82l-15 58q-33 -29 -79 -45.5t-91 -16.5q-90 0 -150.5 49.5t-60.5 122.5zM209 956q0 -29 36 -52t85 -23q23 0 48 6t45.5 16 t34 24.5t13.5 33.5v112l-262 -37v-80z" />
<glyph unicode="&#xab;" horiz-adv-x="933" d="M104 356l322 371l59 -72l-237 -295l237 -286l-59 -74zM449 356l321 371l59 -72l-235 -295l235 -286l-59 -74z" />
<glyph unicode="&#xac;" horiz-adv-x="903" d="M104 571v105h697v-303h-105v198h-592z" />
<glyph unicode="&#xad;" horiz-adv-x="665" d="M104 524v113h459v-113h-459z" />
<glyph unicode="&#xae;" horiz-adv-x="1638" d="M104 715q0 152 55.5 281.5t152 227t227.5 153t280 55.5q150 0 281 -56.5t227 -153t152.5 -227.5t56.5 -280q0 -150 -56.5 -281t-152.5 -227t-227 -152.5t-281 -56.5t-280.5 55.5t-227 152.5t-152 228t-55.5 281zM199 715q0 -131 48 -245t132 -198t197.5 -132t244.5 -48 q129 0 243 48t198 132t132 198t48 245q0 129 -48 242.5t-132 198.5t-198 133t-243 48q-131 0 -244.5 -48t-197.5 -133t-132 -198.5t-48 -242.5zM561 319v789h326q49 0 92 -17.5t73.5 -48t49 -71.5t18.5 -86v-33q0 -78 -50 -132t-132 -69l205 -332h-125l-197 324h-155v-324 h-105zM664 731h210q53 0 99.5 33t46.5 86v31q0 53 -43 93t-103 40h-210v-283z" />
<glyph unicode="&#xaf;" horiz-adv-x="944" d="M102 1305v88h740v-88h-740z" />
<glyph unicode="&#xb0;" horiz-adv-x="737" d="M104 1133v61q0 47 20.5 87t56.5 69.5t84.5 46t103.5 16.5q53 0 101 -16.5t84 -46t57.5 -69.5t21.5 -87v-61q0 -47 -21.5 -87t-57.5 -69t-84 -45.5t-101 -16.5q-55 0 -103.5 16.5t-84.5 45.5t-56.5 68.5t-20.5 87.5zM209 1128q2 -53 49 -84.5t111 -31.5q63 0 110 32.5 t47 83.5v72q0 49 -47 83t-110 34t-111.5 -34t-48.5 -83v-72z" />
<glyph unicode="&#xb1;" horiz-adv-x="1101" d="M104 0v104h895v-104h-895zM113 629v108h370v350h115v-350h379v-108h-379v-375h-115v375h-370z" />
<glyph unicode="&#xb2;" horiz-adv-x="985" d="M203 682v82q0 55 21.5 98t58 76t86 59.5t104.5 46.5q33 12 65.5 27.5t60.5 34t45.5 41t17.5 51.5q0 25 -4.5 45.5t-22 36.5t-50 25.5t-87.5 9.5q-66 0 -112 -24.5t-87 -78.5l-68 72q45 59 115 94t156 35q150 0 208 -58.5t58 -152.5q0 -43 -17.5 -76.5t-46 -60.5 t-65.5 -48.5t-76 -37.5q-45 -18 -88 -37.5t-78 -42t-56.5 -51.5t-23.5 -68h449v-98h-563z" />
<glyph unicode="&#xb3;" horiz-adv-x="716" d="M96 870l88 23q6 -57 61.5 -87t127.5 -30q33 0 64.5 5t57 16.5t42 29t16.5 43.5v31q0 31 -15.5 53.5t-41 38t-56 23.5t-61.5 8h-129v92h119q31 0 61.5 5t56 17.5t41 34t15.5 54.5v16q0 33 -14.5 53.5t-38 32.5t-53 16.5t-60.5 4.5q-72 0 -128 -33t-65 -86l-80 26 q6 41 31 75t61.5 59.5t83 40t95.5 14.5q55 0 104 -9.5t86 -32t59.5 -60t22.5 -97.5v-14q0 -43 -13 -71.5t-33.5 -47t-45.5 -29t-47 -16.5q25 -6 50.5 -17.5t48 -29.5t36.5 -48t14 -73v-33q0 -51 -23.5 -87t-63.5 -58.5t-90 -32.5t-105 -10q-51 0 -99.5 13.5t-86 38t-62.5 59 t-31 79.5z" />
<glyph unicode="&#xb4;" horiz-adv-x="493" d="M102 1153l197 291l92 -70l-209 -268z" />
<glyph unicode="&#xb6;" horiz-adv-x="1042" d="M104 1040v68q0 59 21.5 110.5t61.5 89.5t98.5 61.5t134.5 23.5h440v-1393h-96v1309h-176v-1309h-103v768h-65q-139 0 -227.5 71.5t-88.5 200.5z" />
<glyph unicode="&#xb7;" horiz-adv-x="376" d="M141 408v199h187v-199h-187z" />
<glyph unicode="&#xb8;" horiz-adv-x="462" d="M102 -176l41 176h107l-33 -113q4 -2 27.5 -12t49 -32.5t46 -57.5t20.5 -86q0 -82 -59 -135t-156 -80l-39 76q18 6 43 16t47.5 26.5t39 38t16.5 46.5q0 39 -19.5 65.5t-45 42t-50 21.5t-35.5 8z" />
<glyph unicode="&#xb9;" horiz-adv-x="544" d="M66 1282v111h337v-703h-108v592h-229z" />
<glyph unicode="&#xba;" horiz-adv-x="739" d="M104 1010v184q0 47 21.5 87t57.5 69.5t84.5 46t101.5 16.5t101 -16.5t84 -46t57.5 -69.5t21.5 -87v-186q0 -47 -21.5 -87t-57.5 -70t-84 -46.5t-101 -16.5t-101.5 16.5t-84.5 46.5t-57.5 71t-21.5 88zM211 1012q4 -59 48 -92t110 -33q61 0 108 32.5t47 84.5v194 q-4 53 -50 85t-105 32q-61 0 -109.5 -32t-48.5 -85v-186z" />
<glyph unicode="&#xbb;" horiz-adv-x="921" d="M80 655l59 72l324 -371l-324 -356l-57 74l233 286zM426 74l236 286l-236 295l59 72l322 -371l-322 -356z" />
<glyph unicode="&#xbc;" horiz-adv-x="1378" d="M66 1282v111h337v-703h-108v592h-229zM116 0l889 1393h123l-883 -1393h-129zM660 213v74l319 447h162v-435h151v-86h-151v-206h-105v206h-376zM774 299h262v355h-12z" />
<glyph unicode="&#xbd;" horiz-adv-x="1353" d="M66 1282v111h337v-703h-108v592h-229zM98 0l889 1393h123l-883 -1393h-129zM709 2v82q0 55 21.5 98t58 76t86 59.5t104.5 46.5q33 12 65.5 27.5t60.5 34t45.5 41t17.5 51.5q0 25 -4.5 45.5t-22 36.5t-50 25.5t-87.5 9.5q-66 0 -112 -24.5t-87 -78.5l-68 72q45 59 115 94 t156 35q150 0 208 -58.5t58 -152.5q0 -43 -17.5 -76.5t-46 -60.5t-65.5 -48.5t-76 -37.5q-45 -18 -88 -37.5t-78 -42t-56.5 -51.5t-23.5 -68h449v-98h-563z" />
<glyph unicode="&#xbe;" horiz-adv-x="1437" d="M69 870l88 23q6 -57 61.5 -87t127.5 -30q33 0 64.5 5t57 16.5t42 29t16.5 43.5v31q0 31 -15.5 53.5t-41 38t-56 23.5t-61.5 8h-129v92h119q31 0 61.5 5t56 17.5t41 34t15.5 54.5v16q0 33 -14.5 53.5t-38 32.5t-53 16.5t-60.5 4.5q-72 0 -128 -33t-65 -86l-80 26 q6 41 31 75t61.5 59.5t83 40t95.5 14.5q55 0 104 -9.5t86 -32t59.5 -60t22.5 -97.5v-14q0 -43 -13 -71.5t-33.5 -47t-45.5 -29t-47 -16.5q25 -6 50.5 -17.5t48 -29.5t36.5 -48t14 -73v-33q0 -51 -23.5 -87t-63.5 -58.5t-90 -32.5t-105 -10q-51 0 -99.5 13.5t-86 38t-62.5 59 t-31 79.5zM245 0l889 1393h123l-883 -1393h-129zM738 210v74l319 447h162v-435h151v-86h-151v-206h-105v206h-376zM852 296h262v355h-12z" />
<glyph unicode="&#xbf;" horiz-adv-x="796" d="M98 -18q0 74 46 125t106 100q31 25 57.5 50.5t48 54t33.5 61.5t12 73v144h119v-168q0 -86 -51 -150.5t-121 -124.5q-49 -43 -90 -85t-41 -95v-121q0 -59 21.5 -96t53.5 -56.5t68.5 -26.5t65.5 -7q70 0 135.5 36t118.5 81l55 -88q-51 -49 -130 -94.5t-177 -45.5 q-330 0 -330 297v136zM360 803v201h191v-201h-191z" />
<glyph unicode="&#xc0;" d="M49 0l522 1411h131l508 -1411h-131l-164 455h-565l-168 -455h-133zM389 563h488l-242 690zM415 1804l101 76l190 -301l-78 -53z" />
<glyph unicode="&#xc1;" d="M49 0l522 1411h131l508 -1411h-131l-164 455h-565l-168 -455h-133zM389 563h488l-242 690zM548 1583l197 291l92 -70l-209 -268z" />
<glyph unicode="&#xc2;" d="M49 0l522 1411h131l508 -1411h-131l-164 455h-565l-168 -455h-133zM378 1593l250 172l252 -174l-57 -74l-193 129l-198 -127zM389 563h488l-242 690z" />
<glyph unicode="&#xc3;" d="M49 0l522 1411h131l508 -1411h-131l-164 455h-565l-168 -455h-133zM323 1624q37 59 78 93t101 34q37 0 70.5 -14.5t67.5 -33t66.5 -33.5t65.5 -15q31 2 49 20.5t35 46.5l78 -47q-10 -20 -25.5 -42.5t-36 -41t-46 -31t-56.5 -12.5q-43 0 -78 14.5t-67.5 33t-63.5 32.5 t-66 14q-37 0 -59 -23.5t-37 -47.5zM389 563h488l-242 690z" />
<glyph unicode="&#xc4;" d="M49 0l522 1411h131l508 -1411h-131l-164 455h-565l-168 -455h-133zM381 1534v153h144v-153h-144zM389 563h488l-242 690zM734 1534v153h143v-153h-143z" />
<glyph unicode="&#xc5;" d="M49 0l522 1411h131l508 -1411h-131l-164 455h-565l-168 -455h-133zM389 563h488l-242 690zM467 1691q0 68 48 113t114 45t114.5 -45t48.5 -113q0 -66 -48.5 -112.5t-114.5 -46.5q-33 0 -61.5 12t-51.5 33.5t-36 51.5t-13 62zM545 1689q0 -35 25.5 -58t60.5 -23t59.5 23.5 t24.5 57.5q0 35 -25 60.5t-59 25.5q-35 0 -60.5 -25.5t-25.5 -60.5z" />
<glyph unicode="&#xc6;" horiz-adv-x="1832" d="M43 0l887 1393h768v-113h-590v-502h498v-108h-498v-557h641v-113h-762v403h-541l-262 -403h-141zM508 512h479v764z" />
<glyph unicode="&#xc7;" horiz-adv-x="1114" d="M123 414v565q0 100 39 180t106.5 136.5t157.5 87t190 30.5q274 0 433 -172l-72 -88q-66 70 -158 108.5t-203 38.5q-76 0 -143 -22.5t-118.5 -63t-81 -101t-29.5 -134.5v-565q0 -80 28.5 -140.5t78.5 -100.5t119 -60.5t148 -20.5q109 0 206.5 29t168.5 92l58 -94 q-90 -78 -198 -108.5t-235 -30.5q-106 0 -196 27.5t-156.5 82.5t-104.5 136t-38 188zM514 -176l41 176h107l-33 -113q4 -2 27.5 -12t49 -32.5t46 -57.5t20.5 -86q0 -82 -59 -135t-156 -80l-39 76q18 6 43 16t47.5 26.5t39 38t16.5 46.5q0 39 -19.5 65.5t-45 42t-50 21.5 t-35.5 8z" />
<glyph unicode="&#xc8;" horiz-adv-x="1044" d="M180 0v1393h709v-113h-590v-510h498v-111h-498v-546h641v-113h-760zM346 1788l101 76l190 -301l-78 -53z" />
<glyph unicode="&#xc9;" horiz-adv-x="1044" d="M180 0v1393h709v-113h-590v-510h498v-111h-498v-546h641v-113h-760zM479 1583l197 291l92 -70l-209 -268z" />
<glyph unicode="&#xca;" horiz-adv-x="1044" d="M180 0v1393h709v-113h-590v-510h498v-111h-498v-546h641v-113h-760zM307 1593l250 172l252 -174l-57 -74l-193 129l-198 -127z" />
<glyph unicode="&#xcb;" horiz-adv-x="1044" d="M180 0v1393h709v-113h-590v-510h498v-111h-498v-546h641v-113h-760zM311 1534v153h144v-153h-144zM664 1534v153h143v-153h-143z" />
<glyph unicode="&#xcc;" horiz-adv-x="579" d="M96 1808l101 76l190 -301l-78 -53zM243 0v1393h121v-1393h-121z" />
<glyph unicode="&#xcd;" horiz-adv-x="579" d="M208 1583l197 291l92 -70l-209 -268zM229 0v1393h121v-1393h-121z" />
<glyph unicode="&#xce;" horiz-adv-x="579" d="M47 1595l250 172l252 -174l-57 -74l-193 129l-198 -127zM235 0v1393h121v-1393h-121z" />
<glyph unicode="&#xcf;" horiz-adv-x="579" d="M49 1530v153h144v-153h-144zM233 0v1393h121v-1393h-121zM402 1530v153h143v-153h-143z" />
<glyph unicode="&#xd0;" horiz-adv-x="1384" d="M53 655v105h287v643h412q104 0 199.5 -33t169 -91t116.5 -137t43 -169v-541q0 -94 -42 -174t-113.5 -137.5t-168 -89t-206.5 -31.5h-410v655h-287zM461 113h289q84 0 158.5 23.5t130 66.5t88 101t32.5 128v541q0 66 -34.5 123t-91 100t-130.5 68.5t-151 25.5h-289v-530 h313v-105h-315v-542z" />
<glyph unicode="&#xd1;" horiz-adv-x="1454" d="M180 0v1393h156l825 -1239v1239h113v-1393h-158l-823 1241v-1241h-113zM421 1604q37 59 78 93t101 34q37 0 70.5 -14.5t67.5 -33t66.5 -33.5t65.5 -15q31 2 49 20.5t35 46.5l78 -47q-10 -20 -25.5 -42.5t-36 -41t-46 -31t-56.5 -12.5q-43 0 -78 14.5t-67.5 33t-63.5 32.5 t-66 14q-37 0 -59 -23.5t-37 -47.5z" />
<glyph unicode="&#xd2;" horiz-adv-x="1339" d="M123 412v567q0 100 45 181t118.5 137.5t170 86t196.5 29.5h35q100 0 195.5 -30.5t169 -87t119 -136.5t45.5 -180v-567q0 -104 -44.5 -185.5t-117 -135.5t-167.5 -82.5t-200 -28.5h-33q-106 0 -202.5 27.5t-170 81.5t-116.5 135t-43 188zM244 412q0 -80 34.5 -139.5 t91 -99.5t131 -60.5t154.5 -20.5h33q78 0 151.5 20.5t131 60.5t91.5 99.5t34 139.5v565q0 76 -36 135t-93.5 101t-131 64.5t-147.5 22.5h-35q-76 0 -149.5 -22.5t-131 -63t-93 -101t-35.5 -134.5v-567zM456 1808l101 76l190 -301l-78 -53z" />
<glyph unicode="&#xd3;" horiz-adv-x="1339" d="M123 412v567q0 100 45 181t118.5 137.5t170 86t196.5 29.5h35q100 0 195.5 -30.5t169 -87t119 -136.5t45.5 -180v-567q0 -104 -44.5 -185.5t-117 -135.5t-167.5 -82.5t-200 -28.5h-33q-106 0 -202.5 27.5t-170 81.5t-116.5 135t-43 188zM244 412q0 -80 34.5 -139.5 t91 -99.5t131 -60.5t154.5 -20.5h33q78 0 151.5 20.5t131 60.5t91.5 99.5t34 139.5v565q0 76 -36 135t-93.5 101t-131 64.5t-147.5 22.5h-35q-76 0 -149.5 -22.5t-131 -63t-93 -101t-35.5 -134.5v-567zM589 1583l197 291l92 -70l-209 -268z" />
<glyph unicode="&#xd4;" horiz-adv-x="1339" d="M123 412v567q0 100 45 181t118.5 137.5t170 86t196.5 29.5h35q100 0 195.5 -30.5t169 -87t119 -136.5t45.5 -180v-567q0 -104 -44.5 -185.5t-117 -135.5t-167.5 -82.5t-200 -28.5h-33q-106 0 -202.5 27.5t-170 81.5t-116.5 135t-43 188zM244 412q0 -80 34.5 -139.5 t91 -99.5t131 -60.5t154.5 -20.5h33q78 0 151.5 20.5t131 60.5t91.5 99.5t34 139.5v565q0 76 -36 135t-93.5 101t-131 64.5t-147.5 22.5h-35q-76 0 -149.5 -22.5t-131 -63t-93 -101t-35.5 -134.5v-567zM417 1614l250 172l252 -174l-57 -74l-193 129l-198 -127z" />
<glyph unicode="&#xd5;" horiz-adv-x="1339" d="M123 412v567q0 100 45 181t118.5 137.5t170 86t196.5 29.5h35q100 0 195.5 -30.5t169 -87t119 -136.5t45.5 -180v-567q0 -104 -44.5 -185.5t-117 -135.5t-167.5 -82.5t-200 -28.5h-33q-106 0 -202.5 27.5t-170 81.5t-116.5 135t-43 188zM244 412q0 -80 34.5 -139.5 t91 -99.5t131 -60.5t154.5 -20.5h33q78 0 151.5 20.5t131 60.5t91.5 99.5t34 139.5v565q0 76 -36 135t-93.5 101t-131 64.5t-147.5 22.5h-35q-76 0 -149.5 -22.5t-131 -63t-93 -101t-35.5 -134.5v-567zM364 1624q37 59 78 93t101 34q37 0 70.5 -14.5t67.5 -33t66.5 -33.5 t65.5 -15q31 2 49 20.5t35 46.5l78 -47q-10 -20 -25.5 -42.5t-36 -41t-46 -31t-56.5 -12.5q-43 0 -78 14.5t-67.5 33t-63.5 32.5t-66 14q-37 0 -59 -23.5t-37 -47.5z" />
<glyph unicode="&#xd6;" horiz-adv-x="1339" d="M123 412v567q0 100 45 181t118.5 137.5t170 86t196.5 29.5h35q100 0 195.5 -30.5t169 -87t119 -136.5t45.5 -180v-567q0 -104 -44.5 -185.5t-117 -135.5t-167.5 -82.5t-200 -28.5h-33q-106 0 -202.5 27.5t-170 81.5t-116.5 135t-43 188zM244 412q0 -80 34.5 -139.5 t91 -99.5t131 -60.5t154.5 -20.5h33q78 0 151.5 20.5t131 60.5t91.5 99.5t34 139.5v565q0 76 -36 135t-93.5 101t-131 64.5t-147.5 22.5h-35q-76 0 -149.5 -22.5t-131 -63t-93 -101t-35.5 -134.5v-567zM421 1534v153h144v-153h-144zM774 1534v153h143v-153h-143z" />
<glyph unicode="&#xd7;" horiz-adv-x="1105" d="M104 0l385 518l-362 486h121l303 -402l307 402h121l-363 -486l388 -518h-130l-323 434l-322 -434h-125z" />
<glyph unicode="&#xd8;" horiz-adv-x="1292" d="M123 412v567q0 100 45 181t118.5 137.5t170 86t196.5 29.5h35q115 0 225 -41l82 189h107l-103 -232q96 -55 157 -144t61 -206v-567q0 -104 -44.5 -185.5t-117 -135.5t-167.5 -82.5t-200 -28.5h-33q-61 0 -119.5 10t-111.5 26l-76 -170h-108l92 211q-94 53 -151.5 142.5 t-57.5 212.5zM244 412q0 -84 37.5 -144.5t101.5 -99.5l481 1100q-43 16 -87 24t-89 8h-35q-76 0 -149.5 -22.5t-131 -63t-93 -101t-35.5 -134.5v-567zM471 121q90 -29 184 -29h33q78 0 151.5 20.5t131 60.5t91.5 99.5t34 139.5v565q0 78 -41 139.5t-107 102.5z" />
<glyph unicode="&#xd9;" horiz-adv-x="1406" d="M180 418v975h119v-975q0 -82 33 -143.5t88 -102.5t130 -60.5t157 -19.5q78 0 149.5 21.5t126.5 62.5t89 101.5t34 140.5v975h119v-975q0 -109 -40 -191t-110.5 -137t-165 -82.5t-202.5 -27.5q-111 0 -207.5 26.5t-167 80.5t-111.5 137t-41 194zM489 1747l101 76l190 -301 l-78 -53z" />
<glyph unicode="&#xda;" horiz-adv-x="1406" d="M180 418v975h119v-975q0 -82 33 -143.5t88 -102.5t130 -60.5t157 -19.5q78 0 149.5 21.5t126.5 62.5t89 101.5t34 140.5v975h119v-975q0 -109 -40 -191t-110.5 -137t-165 -82.5t-202.5 -27.5q-111 0 -207.5 26.5t-167 80.5t-111.5 137t-41 194zM622 1522l197 291l92 -70 l-209 -268z" />
<glyph unicode="&#xdb;" horiz-adv-x="1406" d="M180 418v975h119v-975q0 -82 33 -143.5t88 -102.5t130 -60.5t157 -19.5q78 0 149.5 21.5t126.5 62.5t89 101.5t34 140.5v975h119v-975q0 -109 -40 -191t-110.5 -137t-165 -82.5t-202.5 -27.5q-111 0 -207.5 26.5t-167 80.5t-111.5 137t-41 194zM450 1599l250 172 l252 -174l-57 -74l-193 129l-198 -127z" />
<glyph unicode="&#xdc;" horiz-adv-x="1406" d="M180 418v975h119v-975q0 -82 33 -143.5t88 -102.5t130 -60.5t157 -19.5q78 0 149.5 21.5t126.5 62.5t89 101.5t34 140.5v975h119v-975q0 -109 -40 -191t-110.5 -137t-165 -82.5t-202.5 -27.5q-111 0 -207.5 26.5t-167 80.5t-111.5 137t-41 194zM454 1536v153h144v-153 h-144zM807 1536v153h143v-153h-143z" />
<glyph unicode="&#xdd;" horiz-adv-x="1290" d="M47 1393h141l445 -711l448 711h144l-533 -830v-563h-121v563zM555 1524l197 291l92 -70l-209 -268z" />
<glyph unicode="&#xde;" horiz-adv-x="1019" d="M104 -2v1395h119v-281h334q80 0 146.5 -27.5t113.5 -74.5t74 -113t27 -139v-39q0 -145 -97.5 -236.5t-263.5 -91.5h-334v-393h-119zM223 504h330q111 0 177.5 61.5t66.5 153.5v39q0 45 -16.5 88t-48.5 76.5t-77 55t-102 21.5h-330v-495z" />
<glyph unicode="&#xe0;" horiz-adv-x="1013" d="M106 285v194l646 113v88q0 233 -238 233q-49 0 -98 -10t-92 -25.5t-79 -33t-59 -31.5l-43 94q29 18 73 39t94 38t105.5 28.5t106.5 11.5q164 0 258 -90t94 -254v-680h-108l-12 137q-59 -92 -138 -123.5t-178 -31.5q-72 0 -132 20.5t-105 60t-70 96t-25 126.5zM225 289 q0 -47 18.5 -84t50.5 -61.5t75 -38t90 -13.5q51 0 103 16.5t94 45t69 71.5t27 94v173l-527 -93v-110zM274 1401l101 76l190 -301l-78 -53z" />
<glyph unicode="&#xe1;" horiz-adv-x="1013" d="M106 285v194l646 113v88q0 233 -238 233q-49 0 -98 -10t-92 -25.5t-79 -33t-59 -31.5l-43 94q29 18 73 39t94 38t105.5 28.5t106.5 11.5q164 0 258 -90t94 -254v-680h-108l-12 137q-59 -92 -138 -123.5t-178 -31.5q-72 0 -132 20.5t-105 60t-70 96t-25 126.5zM225 289 q0 -47 18.5 -84t50.5 -61.5t75 -38t90 -13.5q51 0 103 16.5t94 45t69 71.5t27 94v173l-527 -93v-110zM407 1173l197 291l92 -70l-209 -268z" />
<glyph unicode="&#xe2;" horiz-adv-x="1013" d="M106 285v194l646 113v88q0 233 -238 233q-49 0 -98 -10t-92 -25.5t-79 -33t-59 -31.5l-43 94q29 18 73 39t94 38t105.5 28.5t106.5 11.5q164 0 258 -90t94 -254v-680h-108l-12 137q-59 -92 -138 -123.5t-178 -31.5q-72 0 -132 20.5t-105 60t-70 96t-25 126.5zM225 289 q0 -47 18.5 -84t50.5 -61.5t75 -38t90 -13.5q51 0 103 16.5t94 45t69 71.5t27 94v173l-527 -93v-110zM237 1229l250 172l252 -174l-57 -74l-193 129l-198 -127z" />
<glyph unicode="&#xe3;" horiz-adv-x="1013" d="M106 285v194l646 113v88q0 233 -238 233q-49 0 -98 -10t-92 -25.5t-79 -33t-59 -31.5l-43 94q29 18 73 39t94 38t105.5 28.5t106.5 11.5q164 0 258 -90t94 -254v-680h-108l-12 137q-59 -92 -138 -123.5t-178 -31.5q-72 0 -132 20.5t-105 60t-70 96t-25 126.5zM182 1276 q37 59 78 93t101 34q37 0 70.5 -14.5t67.5 -33t66.5 -33.5t65.5 -15q31 2 49 20.5t35 46.5l78 -47q-10 -20 -25.5 -42.5t-36 -41t-46 -31t-56.5 -12.5q-43 0 -78 14.5t-67.5 33t-63.5 32.5t-66 14q-37 0 -59 -23.5t-37 -47.5zM225 289q0 -47 18.5 -84t50.5 -61.5t75 -38 t90 -13.5q51 0 103 16.5t94 45t69 71.5t27 94v173l-527 -93v-110z" />
<glyph unicode="&#xe4;" horiz-adv-x="1013" d="M106 285v194l646 113v88q0 233 -238 233q-49 0 -98 -10t-92 -25.5t-79 -33t-59 -31.5l-43 94q29 18 73 39t94 38t105.5 28.5t106.5 11.5q164 0 258 -90t94 -254v-680h-108l-12 137q-59 -92 -138 -123.5t-178 -31.5q-72 0 -132 20.5t-105 60t-70 96t-25 126.5zM225 289 q0 -47 18.5 -84t50.5 -61.5t75 -38t90 -13.5q51 0 103 16.5t94 45t69 71.5t27 94v173l-527 -93v-110zM239 1170v153h144v-153h-144zM592 1170v153h143v-153h-143z" />
<glyph unicode="&#xe5;" horiz-adv-x="1013" d="M106 285v194l646 113v88q0 233 -238 233q-49 0 -98 -10t-92 -25.5t-79 -33t-59 -31.5l-43 94q29 18 73 39t94 38t105.5 28.5t106.5 11.5q164 0 258 -90t94 -254v-680h-108l-12 137q-59 -92 -138 -123.5t-178 -31.5q-72 0 -132 20.5t-105 60t-70 96t-25 126.5zM225 289 q0 -47 18.5 -84t50.5 -61.5t75 -38t90 -13.5q51 0 103 16.5t94 45t69 71.5t27 94v173l-527 -93v-110zM324 1300q0 68 48 113t114 45t114.5 -45t48.5 -113q0 -66 -48.5 -112.5t-114.5 -46.5q-33 0 -61.5 12t-51.5 33.5t-36 51.5t-13 62zM402 1298q0 -35 25.5 -58t60.5 -23 t59.5 23.5t24.5 57.5q0 35 -25 60.5t-59 25.5q-35 0 -60.5 -25.5t-25.5 -60.5z" />
<glyph unicode="&#xe6;" horiz-adv-x="1662" d="M104 289v192l648 92v111q0 117 -60.5 175.5t-177.5 58.5q-43 0 -91 -10.5t-93 -26t-83 -34t-61 -32.5l-43 94q29 20 72 42t92 38.5t103.5 27.5t107.5 11q113 0 188.5 -47t110.5 -127q47 78 137 127t207 49q84 0 153.5 -24.5t122 -70.5t81 -111.5t28.5 -145.5v-115 l-678 -82v-139q0 -63 28 -109.5t74 -77t105.5 -45t122.5 -14.5q55 0 103.5 10.5t87 25.5t67.5 31.5t45 31.5l60 -82q-72 -66 -170.5 -96.5t-196.5 -30.5q-131 0 -237.5 45t-159.5 143q-29 -53 -69 -90t-87 -58.5t-98 -30.5t-101 -9q-70 0 -132 20.5t-107 60t-72 96 t-27 126.5zM225 293q0 -47 18.5 -84t50.5 -62.5t75 -39t90 -13.5q51 0 103 12.5t95 37t70 63.5t27 90v178l-529 -69v-113zM868 580l555 63v45q0 117 -74.5 173.5t-189.5 56.5q-59 0 -111.5 -19.5t-92.5 -51.5t-63.5 -76t-23.5 -93v-98z" />
<glyph unicode="&#xe7;" horiz-adv-x="919" d="M104 330v342q0 82 30 146.5t83 110.5t125 70.5t154 24.5q111 0 188.5 -31.5t149.5 -109.5l-76 -86q-53 55 -120.5 84.5t-141.5 29.5q-57 0 -106.5 -16t-86.5 -47t-58.5 -76t-21.5 -100v-342q0 -121 80 -179.5t201 -58.5q72 0 136.5 20.5t131.5 75.5l55 -96 q-80 -70 -155.5 -91t-171.5 -21q-88 0 -161 21.5t-125 65.5t-81 109.5t-29 153.5zM385 -147l41 176h107l-33 -113q4 -2 27.5 -12t49 -32.5t46 -57.5t20.5 -86q0 -82 -59 -135t-156 -80l-39 76q18 6 43 16t47.5 26.5t39 38t16.5 46.5q0 39 -19.5 65.5t-45 42t-50 21.5 t-35.5 8z" />
<glyph unicode="&#xe8;" horiz-adv-x="999" d="M104 336v350q0 76 32 138.5t87.5 106.5t131 68.5t161.5 24.5q84 0 153.5 -24.5t122 -68.5t81 -105.5t28.5 -137.5v-135l-678 -98v-119q0 -61 28 -107.5t74 -77t105.5 -45t122.5 -14.5q55 0 103.5 10.5t87 24.5t67.5 30.5t45 30.5l59 -86q-72 -63 -170 -92.5t-196 -29.5 q-88 0 -169 21.5t-142.5 65.5t-97.5 110.5t-36 158.5zM223 553l555 80v57q0 96 -74.5 158.5t-189.5 62.5q-59 0 -111.5 -16t-92.5 -47t-63.5 -72t-23.5 -90v-133zM297 1378l101 76l190 -301l-78 -53z" />
<glyph unicode="&#xe9;" horiz-adv-x="999" d="M104 336v350q0 76 32 138.5t87.5 106.5t131 68.5t161.5 24.5q84 0 153.5 -24.5t122 -68.5t81 -105.5t28.5 -137.5v-135l-678 -98v-119q0 -61 28 -107.5t74 -77t105.5 -45t122.5 -14.5q55 0 103.5 10.5t87 24.5t67.5 30.5t45 30.5l59 -86q-72 -63 -170 -92.5t-196 -29.5 q-88 0 -169 21.5t-142.5 65.5t-97.5 110.5t-36 158.5zM223 553l555 80v57q0 96 -74.5 158.5t-189.5 62.5q-59 0 -111.5 -16t-92.5 -47t-63.5 -72t-23.5 -90v-133zM430 1173l197 291l92 -70l-209 -268z" />
<glyph unicode="&#xea;" horiz-adv-x="999" d="M104 336v350q0 76 32 138.5t87.5 106.5t131 68.5t161.5 24.5q84 0 153.5 -24.5t122 -68.5t81 -105.5t28.5 -137.5v-135l-678 -98v-119q0 -61 28 -107.5t74 -77t105.5 -45t122.5 -14.5q55 0 103.5 10.5t87 24.5t67.5 30.5t45 30.5l59 -86q-72 -63 -170 -92.5t-196 -29.5 q-88 0 -169 21.5t-142.5 65.5t-97.5 110.5t-36 158.5zM223 553l555 80v57q0 96 -74.5 158.5t-189.5 62.5q-59 0 -111.5 -16t-92.5 -47t-63.5 -72t-23.5 -90v-133zM258 1227l250 172l252 -174l-57 -74l-193 129l-198 -127z" />
<glyph unicode="&#xeb;" horiz-adv-x="999" d="M104 336v350q0 76 32 138.5t87.5 106.5t131 68.5t161.5 24.5q84 0 153.5 -24.5t122 -68.5t81 -105.5t28.5 -137.5v-135l-678 -98v-119q0 -61 28 -107.5t74 -77t105.5 -45t122.5 -14.5q55 0 103.5 10.5t87 24.5t67.5 30.5t45 30.5l59 -86q-72 -63 -170 -92.5t-196 -29.5 q-88 0 -169 21.5t-142.5 65.5t-97.5 110.5t-36 158.5zM223 553l555 80v57q0 96 -74.5 158.5t-189.5 62.5q-59 0 -111.5 -16t-92.5 -47t-63.5 -72t-23.5 -90v-133zM262 1153v153h144v-153h-144zM615 1153v153h143v-153h-143z" />
<glyph unicode="&#xec;" horiz-adv-x="497" d="M55 1398l101 76l190 -301l-78 -53zM205 0v1004h119v-1004h-119z" />
<glyph unicode="&#xed;" horiz-adv-x="497" d="M184 1173l197 291l92 -70l-209 -268zM205 0v1004h119v-1004h-119z" />
<glyph unicode="&#xee;" horiz-adv-x="497" d="M12 1245l250 172l252 -174l-57 -74l-193 129l-198 -127zM200 0v1004h119v-1004h-119z" />
<glyph unicode="&#xef;" horiz-adv-x="497" d="M14 1170v153h144v-153h-144zM200 0v1004h119v-1004h-119zM367 1170v153h143v-153h-143z" />
<glyph unicode="&#xf0;" horiz-adv-x="1056" d="M104 332v321q0 74 29 138.5t79 111.5t119.5 74t151.5 27q84 0 164 -24t135 -87q-23 96 -75 178t-123 154l-308 -140l-36 82l268 123q-66 53 -135.5 88t-151.5 52l29 110q217 -53 379 -194l274 124l41 -79l-246 -113q111 -111 171.5 -258.5t60.5 -331.5v-356 q0 -74 -34 -138.5t-91 -112.5t-134 -74.5t-163 -26.5q-84 0 -158 26.5t-128 73.5t-86 111.5t-32 140.5zM223 332q0 -51 22.5 -95t61.5 -76t91.5 -50.5t111.5 -18.5t113.5 18.5t95.5 50.5t65.5 76t24.5 93v321q0 53 -24.5 96.5t-65.5 75t-96.5 49t-114.5 17.5 q-57 0 -109.5 -17.5t-91.5 -49t-61.5 -74.5t-22.5 -95v-321z" />
<glyph unicode="&#xf1;" horiz-adv-x="1130" d="M160 0v1004h114l9 -195q59 98 149 157.5t209 59.5q166 0 256 -91t90 -257v-678h-119v666q0 117 -64.5 182t-180.5 65q-57 0 -118 -23.5t-110 -63.5t-80.5 -92t-31.5 -111v-623h-123zM270 1276q37 59 78 93t101 34q37 0 70.5 -14.5t67.5 -33t66.5 -33.5t65.5 -15 q31 2 49 20.5t35 46.5l78 -47q-10 -20 -25.5 -42.5t-36 -41t-46 -31t-56.5 -12.5q-43 0 -78 14.5t-67.5 33t-63.5 32.5t-66 14q-37 0 -59 -23.5t-37 -47.5z" />
<glyph unicode="&#xf2;" horiz-adv-x="1034" d="M104 336v340q0 80 34 145.5t91.5 110.5t132 69.5t156.5 24.5q84 0 159 -24.5t131 -70.5t89 -110.5t33 -144.5v-340q0 -80 -34 -145.5t-91 -111.5t-132 -71.5t-155 -25.5t-154.5 24.5t-132 70.5t-92.5 111.5t-35 147.5zM223 336q0 -57 24.5 -101.5t66.5 -75t95.5 -47 t108.5 -16.5t107.5 16.5t93.5 47t65.5 76t24.5 100.5v340q0 55 -24.5 99t-65.5 75t-93.5 47t-107.5 16t-108.5 -16t-94.5 -47t-66.5 -75t-25.5 -99v-340zM303 1378l101 76l190 -301l-78 -53z" />
<glyph unicode="&#xf3;" horiz-adv-x="1034" d="M104 336v340q0 80 34 145.5t91.5 110.5t132 69.5t156.5 24.5q84 0 159 -24.5t131 -70.5t89 -110.5t33 -144.5v-340q0 -80 -34 -145.5t-91 -111.5t-132 -71.5t-155 -25.5t-154.5 24.5t-132 70.5t-92.5 111.5t-35 147.5zM223 336q0 -57 24.5 -101.5t66.5 -75t95.5 -47 t108.5 -16.5t107.5 16.5t93.5 47t65.5 76t24.5 100.5v340q0 55 -24.5 99t-65.5 75t-93.5 47t-107.5 16t-108.5 -16t-94.5 -47t-66.5 -75t-25.5 -99v-340zM436 1173l197 291l92 -70l-209 -268z" />
<glyph unicode="&#xf4;" horiz-adv-x="1034" d="M104 336v340q0 80 34 145.5t91.5 110.5t132 69.5t156.5 24.5q84 0 159 -24.5t131 -70.5t89 -110.5t33 -144.5v-340q0 -80 -34 -145.5t-91 -111.5t-132 -71.5t-155 -25.5t-154.5 24.5t-132 70.5t-92.5 111.5t-35 147.5zM223 336q0 -57 24.5 -101.5t66.5 -75t95.5 -47 t108.5 -16.5t107.5 16.5t93.5 47t65.5 76t24.5 100.5v340q0 55 -24.5 99t-65.5 75t-93.5 47t-107.5 16t-108.5 -16t-94.5 -47t-66.5 -75t-25.5 -99v-340zM264 1227l250 172l252 -174l-57 -74l-193 129l-198 -127z" />
<glyph unicode="&#xf5;" horiz-adv-x="1034" d="M104 336v340q0 80 34 145.5t91.5 110.5t132 69.5t156.5 24.5q84 0 159 -24.5t131 -70.5t89 -110.5t33 -144.5v-340q0 -80 -34 -145.5t-91 -111.5t-132 -71.5t-155 -25.5t-154.5 24.5t-132 70.5t-92.5 111.5t-35 147.5zM211 1237q37 59 78 93t101 34q37 0 70.5 -14.5 t67.5 -33t66.5 -33.5t65.5 -15q31 2 49 20.5t35 46.5l78 -47q-10 -20 -25.5 -42.5t-36 -41t-46 -31t-56.5 -12.5q-43 0 -78 14.5t-67.5 33t-63.5 32.5t-66 14q-37 0 -59 -23.5t-37 -47.5zM223 336q0 -57 24.5 -101.5t66.5 -75t95.5 -47t108.5 -16.5t107.5 16.5t93.5 47 t65.5 76t24.5 100.5v340q0 55 -24.5 99t-65.5 75t-93.5 47t-107.5 16t-108.5 -16t-94.5 -47t-66.5 -75t-25.5 -99v-340z" />
<glyph unicode="&#xf6;" horiz-adv-x="1034" d="M104 336v340q0 80 34 145.5t91.5 110.5t132 69.5t156.5 24.5q84 0 159 -24.5t131 -70.5t89 -110.5t33 -144.5v-340q0 -80 -34 -145.5t-91 -111.5t-132 -71.5t-155 -25.5t-154.5 24.5t-132 70.5t-92.5 111.5t-35 147.5zM223 336q0 -57 24.5 -101.5t66.5 -75t95.5 -47 t108.5 -16.5t107.5 16.5t93.5 47t65.5 76t24.5 100.5v340q0 55 -24.5 99t-65.5 75t-93.5 47t-107.5 16t-108.5 -16t-94.5 -47t-66.5 -75t-25.5 -99v-340zM268 1149v153h144v-153h-144zM621 1149v153h143v-153h-143z" />
<glyph unicode="&#xf7;" horiz-adv-x="1384" d="M104 530v105h1176v-105h-1176zM590 166v188h194v-188h-194zM590 803v192h194v-192h-194z" />
<glyph unicode="&#xf8;" horiz-adv-x="1038" d="M80 -127l131 221q-49 45 -78 106.5t-29 135.5v340q0 80 34 145.5t91.5 110.5t132 69.5t156.5 24.5q119 0 217 -51l80 131h100l-106 -176q57 -47 89 -110.5t32 -143.5v-340q0 -80 -34 -145.5t-91 -111.5t-132 -71.5t-155 -25.5q-131 0 -235 63l-101 -172h-102zM223 336 q0 -80 49 -135l406 673q-74 39 -160 39q-55 0 -108.5 -16t-94.5 -47t-66.5 -75t-25.5 -99v-340zM340 145q78 -49 178 -49q55 0 107.5 16.5t93.5 47t65.5 76t24.5 100.5v340q0 45 -17.5 78.5t-46.5 62.5z" />
<glyph unicode="&#xf9;" horiz-adv-x="1116" d="M160 332v672h121v-672q0 -55 23.5 -99.5t63.5 -76t91 -48t106 -16.5t107.5 16.5t92.5 47t64.5 75.5t24.5 101v672h121v-672q0 -80 -34 -145.5t-90 -111.5t-130 -70.5t-156 -24.5q-80 0 -153.5 24.5t-130 70.5t-89 111.5t-32.5 145.5zM354 1378l101 76l190 -301l-78 -53z " />
<glyph unicode="&#xfa;" horiz-adv-x="1116" d="M160 332v672h121v-672q0 -55 23.5 -99.5t63.5 -76t91 -48t106 -16.5t107.5 16.5t92.5 47t64.5 75.5t24.5 101v672h121v-672q0 -80 -34 -145.5t-90 -111.5t-130 -70.5t-156 -24.5q-80 0 -153.5 24.5t-130 70.5t-89 111.5t-32.5 145.5zM487 1153l197 291l92 -70l-209 -268z " />
<glyph unicode="&#xfb;" horiz-adv-x="1116" d="M160 332v672h121v-672q0 -55 23.5 -99.5t63.5 -76t91 -48t106 -16.5t107.5 16.5t92.5 47t64.5 75.5t24.5 101v672h121v-672q0 -80 -34 -145.5t-90 -111.5t-130 -70.5t-156 -24.5q-80 0 -153.5 24.5t-130 70.5t-89 111.5t-32.5 145.5zM315 1245l250 172l252 -174l-57 -74 l-193 129l-198 -127z" />
<glyph unicode="&#xfc;" horiz-adv-x="1116" d="M160 332v672h121v-672q0 -55 23.5 -99.5t63.5 -76t91 -48t106 -16.5t107.5 16.5t92.5 47t64.5 75.5t24.5 101v672h121v-672q0 -80 -34 -145.5t-90 -111.5t-130 -70.5t-156 -24.5q-80 0 -153.5 24.5t-130 70.5t-89 111.5t-32.5 145.5zM319 1188v153h144v-153h-144z M672 1188v153h143v-153h-143z" />
<glyph unicode="&#xfd;" horiz-adv-x="923" d="M35 -332q117 0 210 64.5t134 177.5l18 57l-356 1037h131l293 -885l297 885h131l-397 -1121q-55 -158 -175 -238.5t-278 -80.5zM372 1153l197 291l92 -70l-209 -268z" />
<glyph unicode="&#xfe;" horiz-adv-x="1103" d="M160 -535v1969h121v-560q53 70 142 111t189 41q84 0 156 -25.5t124 -71.5t80.5 -109.5t28.5 -139.5v-350q0 -76 -29.5 -140.5t-81.5 -111.5t-123 -74t-155 -27q-104 0 -192 42t-139 114v-668h-121zM291 326q0 -51 24.5 -94.5t66.5 -74t97.5 -48t116.5 -17.5 q59 0 111.5 17.5t90.5 48t60.5 73.5t22.5 95v354q0 51 -22.5 94t-61.5 74t-90.5 48t-110.5 17q-61 0 -116.5 -18t-97.5 -49t-66.5 -74t-24.5 -92v-354z" />
<glyph unicode="&#xff;" horiz-adv-x="923" d="M35 -332q117 0 210 64.5t134 177.5l18 57l-356 1037h131l293 -885l297 885h131l-397 -1121q-55 -158 -175 -238.5t-278 -80.5zM204 1188v153h144v-153h-144zM557 1188v153h143v-153h-143z" />
<glyph unicode="&#x152;" horiz-adv-x="1816" d="M123 434v524q0 86 43 164t115.5 137.5t168 95.5t201.5 36h1012v-113h-590v-502h496v-110h-496v-553h641v-113h-1061q-111 0 -207 34t-167.5 93t-113.5 138t-42 169zM244 434q2 -70 34.5 -129t88 -102t129 -66.5t157.5 -23.5h299v1165h-301q-74 0 -146.5 -25.5t-131 -69.5 t-94 -102.5t-35.5 -122.5v-524z" />
<glyph unicode="&#x153;" horiz-adv-x="1722" d="M104 342v322q0 74 30 137t83 109t126 72t157 26q55 0 110.5 -12.5t103.5 -36t86 -58.5t62 -80q23 35 55.5 69t76.5 60.5t97.5 43t116.5 16.5q78 0 150 -20.5t127 -63.5t89 -108.5t34 -153.5v-117l-676 -96v-117q0 -57 28.5 -100.5t75.5 -73t106 -44t118 -14.5 q39 0 79.5 7.5t79.5 20.5t73 30.5t54 38.5l72 -80q-33 -31 -77 -53.5t-92 -39t-98.5 -24.5t-95.5 -8q-59 0 -117.5 10t-110.5 32.5t-95 57.5t-72 84q-49 -88 -146.5 -137t-211.5 -49q-86 0 -159 26.5t-126 73.5t-83 110.5t-30 139.5zM223 342q0 -51 23.5 -94t63.5 -75 t93.5 -50.5t112.5 -18.5q57 0 109.5 17.5t92.5 48.5t64.5 73t24.5 91v338q0 49 -24.5 90t-64.5 71.5t-92.5 48t-111.5 17.5t-112.5 -18.5t-93.5 -50t-62.5 -74.5t-22.5 -92v-322zM932 551l553 78v39q0 49 -21.5 91t-57.5 73.5t-84 49t-101 17.5q-55 0 -107.5 -18.5 t-92.5 -49t-64.5 -71.5t-24.5 -88v-121z" />
<glyph unicode="&#x178;" horiz-adv-x="1290" d="M47 1393h141l445 -711l448 711h144l-533 -830v-563h-121v563zM387 1495v153h144v-153h-144zM740 1495v153h143v-153h-143z" />
<glyph unicode="&#x2c6;" horiz-adv-x="706" d="M102 1245l250 172l252 -174l-57 -74l-193 129l-198 -127z" />
<glyph unicode="&#x2dc;" horiz-adv-x="815" d="M102 1276q37 59 78 93t101 34q37 0 70.5 -14.5t67.5 -33t66.5 -33.5t65.5 -15q31 2 49 20.5t35 46.5l78 -47q-10 -20 -25.5 -42.5t-36 -41t-46 -31t-56.5 -12.5q-43 0 -78 14.5t-67.5 33t-63.5 32.5t-66 14q-37 0 -59 -23.5t-37 -47.5z" />
<glyph unicode="&#x2000;" horiz-adv-x="942" />
<glyph unicode="&#x2001;" horiz-adv-x="1884" />
<glyph unicode="&#x2002;" horiz-adv-x="942" />
<glyph unicode="&#x2003;" horiz-adv-x="1884" />
<glyph unicode="&#x2004;" horiz-adv-x="628" />
<glyph unicode="&#x2005;" horiz-adv-x="471" />
<glyph unicode="&#x2006;" horiz-adv-x="314" />
<glyph unicode="&#x2007;" horiz-adv-x="314" />
<glyph unicode="&#x2008;" horiz-adv-x="235" />
<glyph unicode="&#x2009;" horiz-adv-x="376" />
<glyph unicode="&#x200a;" horiz-adv-x="104" />
<glyph unicode="&#x2010;" horiz-adv-x="665" d="M104 524v113h459v-113h-459z" />
<glyph unicode="&#x2011;" horiz-adv-x="665" d="M104 524v113h459v-113h-459z" />
<glyph unicode="&#x2012;" horiz-adv-x="665" d="M104 524v113h459v-113h-459z" />
<glyph unicode="&#x2013;" horiz-adv-x="1144" d="M4 545v102h1126v-102h-1126z" />
<glyph unicode="&#x2014;" horiz-adv-x="1583" d="M6 545v102h1569v-102h-1569z" />
<glyph unicode="&#x2018;" horiz-adv-x="239" d="M61 1001v58q0 139 22.5 220t72.5 134l69 -45q-29 -49 -39 -110.5t-10 -139.5v-117h-115z" />
<glyph unicode="&#x2019;" horiz-adv-x="245" d="M0 1026q16 25 29.5 49.5t23 53t13.5 64.5t4 83v113h114v-54q0 -76 -9 -131t-26.5 -96t-39 -71.5t-45.5 -57.5z" />
<glyph unicode="&#x201a;" horiz-adv-x="442" d="M184 -205q16 25 29.5 49.5t23 53t13.5 64.5t4 83v113h114v-54q0 -76 -9 -131t-26.5 -96t-39 -71.5t-45.5 -57.5z" />
<glyph unicode="&#x201c;" horiz-adv-x="487" d="M61 1001v58q0 139 22.5 220t72.5 134l69 -45q-29 -49 -39 -110.5t-10 -139.5v-117h-115zM319 1001v58q0 139 22.5 220t72.5 134l69 -45q-29 -49 -39 -110.5t-10 -139.5v-117h-115z" />
<glyph unicode="&#x201d;" horiz-adv-x="514" d="M0 1028q16 25 29.5 49.5t23 53t13.5 64.5t4 83v113h114v-54q0 -76 -9 -131t-26.5 -96t-39 -71.5t-45.5 -57.5zM268 1028q16 25 29.5 49.5t23 53t13.5 64.5t4 83v113h114v-54q0 -76 -9 -131t-26.5 -96t-39 -71.5t-45.5 -57.5z" />
<glyph unicode="&#x201e;" horiz-adv-x="788" d="M184 -203q16 25 29.5 49.5t23 53t13.5 64.5t4 83v113h114v-54q0 -76 -9 -131t-26.5 -96t-39 -71.5t-45.5 -57.5zM516 -201q16 25 29.5 49.5t23 53t13.5 64.5t4 83v113h114v-54q0 -76 -9 -131t-26.5 -96t-39 -71.5t-45.5 -57.5z" />
<glyph unicode="&#x2022;" horiz-adv-x="684" d="M160 360v357h364v-357h-364z" />
<glyph unicode="&#x2026;" horiz-adv-x="1482" d="M160 0v203h190v-203h-190zM647 0v203h191v-203h-191zM1133 0v203h190v-203h-190z" />
<glyph unicode="&#x202f;" horiz-adv-x="376" />
<glyph unicode="&#x2039;" horiz-adv-x="589" d="M98 356l324 371l63 -72l-235 -295l235 -286l-63 -74z" />
<glyph unicode="&#x203a;" horiz-adv-x="589" d="M104 74l236 286l-236 295l64 72l324 -371l-324 -356z" />
<glyph unicode="&#x205f;" horiz-adv-x="471" />
<glyph unicode="&#x20ac;" horiz-adv-x="1325" d="M84 547v94h307v166h-307v92h307v141q0 86 33 160t91 128t140 84t183 30q215 0 374 -135l-61 -86q-59 51 -144 79.5t-169 28.5q-158 0 -242 -87t-84 -218v-125h500v-92h-500v-166h500v-94h-500v-144q0 -66 25.5 -122t70.5 -97t105.5 -64.5t128.5 -23.5q88 0 168 29t139 80 l63 -88q-158 -135 -370 -135q-102 0 -186.5 31.5t-142.5 88t-90 133t-32 166.5v146h-307z" />
<glyph unicode="&#x2122;" horiz-adv-x="1122" d="M80 1352v84h379v-84h-146v-351h-86v351h-147zM545 1004v430h88l121 -207l129 207h88v-430h-88v288l-107 -176h-43l-102 182v-294h-86z" />
<glyph unicode="&#x25fc;" horiz-adv-x="1003" d="M0 0v1004h1004v-1004h-1004z" />
<glyph unicode="&#xfb03;" horiz-adv-x="1656" d="M-27 905v103h211v176q0 66 23.5 121t66.5 96t103.5 64.5t134.5 23.5q86 0 186.5 -31t184.5 -78q12 16 35.5 37t59.5 39.5t84 31.5t105 13q55 0 114.5 -16.5t110 -35.5t87.5 -37.5t47 -22.5l-49 -99q-4 0 -35 15.5t-76 34t-99.5 32.5t-105.5 14q-96 0 -158.5 -53 t-62.5 -135v-194h231v-101h-233v-903h-119v903h-211v101h211v180q0 53 15 96q-68 37 -153 66.5t-169 29.5q-102 0 -155.5 -55t-53.5 -133v-180h186v-103h-186v-905h-119v905h-211zM1393 0v1004h118v-1004h-118z" />
<glyph unicode="&#xfb04;" horiz-adv-x="1693" d="M-2 905v103h211v176q0 66 23.5 121t67.5 96t104.5 64.5t134.5 23.5q70 0 161 -26.5t172 -69.5q47 51 116 78.5t155 27.5q39 0 86 -7t93 -19.5t87 -26.5t68 -29h47v-1417h-123v1333q-27 12 -60.5 22.5t-68.5 18.5t-69 12.5t-60 4.5q-98 0 -160.5 -50.5t-62.5 -142.5v-194 h239v-101h-239v-903h-119v903h-201v101h203v194q0 57 20 100q-68 33 -143.5 55.5t-140.5 22.5q-102 0 -155.5 -55t-53.5 -133v-180h184v-103h-184v-905h-121v905h-211z" />
</font>
</defs>
</svg>
