<?xml version="1.0" standalone="no"?>
<!DOCTYPE svg PUBLIC "-//W3C//DTD SVG 1.1//EN" "http://www.w3.org/Graphics/SVG/1.1/DTD/svg11.dtd" >
<svg xmlns="http://www.w3.org/2000/svg">
<metadata></metadata>
<defs>
<font id="coggers_tariqaregular" horiz-adv-x="1337" >
<font-face units-per-em="2048" ascent="1638" descent="-410" />
<missing-glyph horiz-adv-x="626" />
<glyph horiz-adv-x="0" />
<glyph horiz-adv-x="682" />
<glyph unicode=" "  horiz-adv-x="626" />
<glyph unicode="&#x09;" horiz-adv-x="626" />
<glyph unicode="&#xa0;" horiz-adv-x="626" />
<glyph unicode="!" horiz-adv-x="641" d="M102 111v161q0 41 31 72t72 31h231q41 0 72 -31t31 -72v-161q0 -43 -31 -73t-72 -30h-231q-41 0 -72 30t-31 73zM102 569v813q0 41 31 72t72 31h231q41 0 72 -31t31 -72v-813q0 -43 -31 -72.5t-72 -29.5h-231q-41 0 -72 29.5t-31 72.5z" />
<glyph unicode="&#x22;" horiz-adv-x="1165" d="M102 838v546q0 41 31 72t72 31h231q41 0 72 -31t31 -72v-206q0 -121 -28 -205t-74 -137.5t-106.5 -77t-125.5 -23.5q-41 0 -72 30t-31 73zM627 838v546q0 41 30.5 72t71.5 31h232q41 0 71.5 -31t30.5 -72v-206q0 -121 -27.5 -205t-74 -137.5t-106.5 -77t-126 -23.5 q-41 0 -71.5 30t-30.5 73z" />
<glyph unicode="#" horiz-adv-x="1216" d="M102 432v35q0 41 31 71.5t72 30.5h96l33 228h-129q-41 0 -72 29.5t-31 72.5v35q0 41 31 71.5t72 30.5h164l49 346q6 41 41 72t76 31t67.5 -31t20.5 -72l-50 -346h177l49 346q6 41 40.5 72t75.5 31t68 -31t21 -72l-50 -346h58q41 0 71.5 -30.5t30.5 -71.5v-35 q0 -43 -30.5 -72.5t-71.5 -29.5h-92l-33 -228h125q41 0 71.5 -30.5t30.5 -71.5v-35q0 -43 -30.5 -72.5t-71.5 -29.5h-160l-31 -219q-6 -43 -41 -73t-75 -30q-41 0 -67 30t-22 73l31 219h-176l-31 -219q-6 -43 -40.5 -73t-75.5 -30t-67 30t-21 73l30 219h-61q-41 0 -72 29.5 t-31 72.5zM506 569h176l33 228h-176z" />
<glyph unicode="$" d="M102 293v156q0 43 30 72.5t73 29.5h229q43 0 74 -29.5t31 -72.5v-66q0 -53 35.5 -90t89.5 -37h16q51 2 85 38t34 87v227q0 53 -36 90t-89 37h-469q-43 0 -73 30t-30 73v342q0 43 30 72.5t73 29.5h332q41 4 68.5 31.5t31.5 68.5v207q0 33 33 33t32 -33v-196q0 -45 30 -77 t75 -34h326q43 0 72.5 -30.5t29.5 -71.5v-156q0 -43 -29.5 -72.5t-72.5 -29.5h-230q-43 0 -73.5 29.5t-30.5 72.5v66q0 53 -36 90t-89 37h-10q-53 0 -89 -36t-36 -89v-166q0 -53 35.5 -90t89.5 -37h469q43 0 72.5 -30t29.5 -73v-403q0 -43 -29.5 -73t-72.5 -30h-330 q-43 -4 -72 -34.5t-29 -75.5v-197q0 -33 -32 -33q-33 0 -33 33v207q-4 41 -33 69.5t-72 30.5h-327q-43 0 -73 31t-30 72z" />
<glyph unicode="%" horiz-adv-x="1931" d="M111 328v4q-16 39 2 78t57 53l1518 733q41 14 78.5 -4t54.5 -57v-5q16 -41 -2.5 -78.5t-57.5 -52.5l-1517 -731q-41 -16 -79 1.5t-54 58.5zM123 1376q0 41 30.5 72t71.5 31h949q41 0 71.5 -31t30.5 -72v-237q0 -43 -31 -73t-71 -30h-947q-43 0 -72.5 30t-29.5 73z M559 1241q0 -59 41 -99t100 -40q57 0 98.5 40t41.5 99v33q0 45 -28 81t-69 50q-10 4 -21 6t-22 2h-10l-35 -8q-41 -14 -68.5 -50t-27.5 -81v-33zM668 348q0 41 30.5 72t71.5 31h948q41 0 72 -31t31 -72v-237q0 -43 -31 -73t-72 -30h-946q-43 0 -72.5 30t-29.5 73zM1104 213 q0 -59 41 -99t100 -40q57 0 98 40t41 99v33q0 45 -27.5 80.5t-68.5 50.5q-10 4 -21.5 6t-21.5 2h-10l-35 -8q-41 -14 -68.5 -50t-27.5 -81v-33z" />
<glyph unicode="&#x26;" horiz-adv-x="1456" d="M102 109v284q0 43 30 78t73 45l315 68l-315 67q-43 10 -73 46t-30 79v219q0 43 30 73t73 30h928q43 0 72.5 -30t29.5 -73v-219q0 -43 -29.5 -78.5t-72.5 -46.5l-469 -100q-53 -10 -89 -55t-36 -99v-200q0 -51 33.5 -87t84.5 -38h17q53 0 89 36.5t36 90.5v69h-15 q-41 0 -71.5 30t-30.5 73q0 41 30.5 71.5t71.5 30.5h467q41 0 72 -30.5t31 -71.5q0 -43 -31 -73t-72 -30h-16v-159q0 -41 -29.5 -72t-72.5 -31h-928q-43 0 -73 30t-30 73zM539 770q0 -53 35.5 -98t89.5 -56l4 -2l6 2q53 10 89 55.5t36 98.5v137q0 53 -36 89t-89 36h-10 q-53 0 -89 -35.5t-36 -89.5v-137z" />
<glyph unicode="'" horiz-adv-x="641" d="M102 838v546q0 41 31 72t72 31h231q41 0 72 -31t31 -72v-206q0 -121 -28 -205t-74 -137.5t-106.5 -77t-125.5 -23.5q-41 0 -72 30t-31 73z" />
<glyph unicode="(" horiz-adv-x="985" d="M102 868q0 14 2 65.5t11.5 119t31 144.5t59.5 140.5t95 105.5t141 42h408q33 0 33 -33t-33 -33h-180q-35 0 -59.5 -13t-41 -33.5t-23.5 -45t-7 -47.5v-1067q0 -55 37.5 -95t91.5 -44h182q33 0 33 -33t-33 -33h-404q-86 0 -144 41t-97 102.5t-58.5 136t-30 141.5 t-11.5 117t-1 64z" />
<glyph unicode=")" horiz-adv-x="985" d="M102 41q0 33 33 33h182q53 4 91 44t38 95v1067q0 23 -7 47.5t-23.5 45t-41 33.5t-59.5 13h-180q-33 0 -33 33t33 33h408q84 0 141 -42t95 -105.5t59.5 -140.5t31 -144.5t11.5 -118.5t2 -66l-2 -258q0 -14 -1 -64t-11.5 -117t-30 -141.5t-58.5 -136t-97 -102.5t-144 -41 h-404q-33 0 -33 33z" />
<glyph unicode="*" horiz-adv-x="1212" d="M109 1059l81 235q12 41 46 48.5t69 -21.5l131 -115q35 -33 49.5 -82t-0.5 -88l7 11q-16 -39 -56.5 -68t-85.5 -29l-168 8q-41 4 -64 33t-9 68zM164 773.5q4 33.5 43 55.5l153 86q41 23 93.5 19t83.5 -31l-5 2q31 -25 42.5 -71t-5.5 -86l-63 -154q-16 -41 -52 -51.5 t-69 14.5l-190 154q-35 29 -31 62.5zM426 1384q-12 41 9.5 72t62.5 31h247q41 0 59.5 -31t2.5 -72l-66 -161q-18 -41 -57 -70t-80 -33h2h-8h-2h2q-41 4 -78 33t-47 70zM612 760q-12 45 5.5 90t54.5 68l-10 -5q35 23 87 21t89 -29l145 -100q35 -29 36 -63.5t-36 -57.5 l-209 -131q-35 -23 -69.5 -8.5t-45.5 57.5zM723 1049l6 -11q-10 41 8.5 88.5t59.5 75.5l143 98q37 25 68.5 15t42.5 -51l55 -244q10 -41 -16.5 -67.5t-67.5 -22.5l-168 8q-45 4 -83 37t-48 74z" />
<glyph unicode="+" horiz-adv-x="1161" d="M102 578v161q0 41 31 72t72 31h192v190q0 41 30 72t73 31h162q41 0 71.5 -31t30.5 -72v-190h192q41 0 72 -31t31 -72v-161q0 -43 -31 -73t-72 -30h-192v-194q0 -41 -31 -72t-71 -31h-162q-43 0 -73 31t-30 72v194h-192q-41 0 -72 30t-31 73z" />
<glyph unicode="," horiz-adv-x="641" d="M102 272q0 41 31 72t72 31h231q41 0 72 -31t31 -72v-206q0 -121 -28 -205t-74 -137.5t-106.5 -77t-125.5 -23.5q-41 0 -72 30t-31 73v546z" />
<glyph unicode="-" horiz-adv-x="901" d="M102 578v161q0 41 31 72t72 31h491q41 0 72 -31t31 -72v-161q0 -43 -31 -73t-72 -30h-491q-41 0 -72 30t-31 73z" />
<glyph unicode="." horiz-adv-x="641" d="M102 111v161q0 41 31 72t72 31h231q41 0 72 -31t31 -72v-161q0 -43 -31 -73t-72 -30h-231q-41 0 -72 30t-31 73z" />
<glyph unicode="/" horiz-adv-x="827" d="M104 111l183 1271q6 41 40.5 72t75.5 31h232q41 0 67.5 -31t20.5 -72l-182 -1271q-6 -43 -41 -73t-76 -30h-231q-41 0 -67 30t-22 73z" />
<glyph unicode="0" horiz-adv-x="1357" d="M102 776v606q0 41 31 72t72 31h948q41 0 71.5 -31t30.5 -72v-1271q0 -43 -30.5 -73t-71.5 -30h-946q-43 0 -73 30t-30 73v665h-2zM539 213q0 -59 41 -99t100 -40q57 0 98 40t41 99v1067q0 45 -27.5 81t-68.5 50q-10 4 -21.5 6t-21.5 2h-10l-35 -8q-41 -14 -68.5 -50 t-27.5 -81v-1067z" />
<glyph unicode="1" horiz-adv-x="641" d="M102 111v1271q0 41 31 72t72 31h231q41 0 72 -31t31 -72v-1271q0 -43 -31 -73t-72 -30h-231q-41 0 -72 30t-31 73z" />
<glyph unicode="2" d="M102 111v274q0 43 30 79t73 46l469 108q53 12 89 57.5t36 98.5v522q0 53 -36 89t-89 36h-10q-53 0 -89 -34.5t-36 -88.5v-194q0 -43 -31 -73t-74 -30h-229q-43 0 -73 30t-30 73v280q0 41 30 72t73 31h928q43 0 72.5 -30t29.5 -73v-598q0 -43 -29.5 -78.5t-72.5 -45.5 l-469 -109q-53 -12 -89 -57t-36 -99v-198q0 -51 33.5 -87t84.5 -38h17q53 0 89 36.5t36 90.5v65q0 43 30.5 73t73.5 30h230q43 0 72.5 -30t29.5 -73v-155q0 -41 -29.5 -72t-72.5 -31h-928q-43 0 -73 30t-30 73z" />
<glyph unicode="3" d="M102 111v280q0 43 30 73t73 30h229q43 0 74 -30t31 -73v-194q0 -53 35.5 -88t89.5 -35h10q53 0 89 35.5t36 89.5v530q-2 45 -34 75t-77 30h-196q-33 0 -33 32q0 33 33 33h206q41 4 70 33t31 72v305q0 47 -32 78.5t-79 31.5h-6q-45 0 -78 -31.5t-33 -78.5v-203 q0 -43 -29.5 -74t-72.5 -31h-229q-43 0 -73 31t-30 74v276q0 41 30 72t73 31h893q41 0 71.5 -31t30.5 -72v-1271q0 -43 -30.5 -73t-71.5 -30h-928q-43 0 -73 31t-30 72z" />
<glyph unicode="4" horiz-adv-x="1357" d="M102 496v886q0 43 31 73t72 30h231q41 0 72 -30t31 -73v-794q4 -53 45 -91t94 -38q55 0 96 38t45 91v794q0 43 31 73t72 30h231q41 0 71.5 -30t30.5 -73v-1269q0 -43 -30.5 -74t-73.5 -31h-229q-43 0 -73 30t-30 73v217q0 29 -19.5 47t-45.5 18h-549q-41 0 -72 31t-31 72 z" />
<glyph unicode="5" d="M102 111v155q0 43 30 73t73 30h229q43 0 74 -30t31 -73v-65q0 -53 35.5 -90t89.5 -37h16q51 2 85 37.5t34 87.5v612q0 53 -36 90t-89 37h-469q-43 0 -73 29.5t-30 72.5v342q0 43 30 73t73 30h928q43 0 72.5 -31t29.5 -72v-155q0 -43 -29.5 -73t-72.5 -30h-230 q-43 0 -73.5 30t-30.5 73v65q0 53 -36 90t-89 37h-10q-53 0 -89 -35.5t-36 -89.5v-166q0 -53 35.5 -90t89.5 -37h469q43 0 72.5 -29.5t29.5 -72.5v-788q0 -43 -29.5 -73t-72.5 -30h-928q-43 0 -73 31t-30 72z" />
<glyph unicode="6" d="M102 111v1271q0 41 31 72t72 31h928q43 0 72.5 -31t29.5 -72v-155q0 -43 -29.5 -73t-72.5 -30h-230q-43 0 -73.5 30t-30.5 73v65q0 53 -36 90t-89 37h-8q-53 0 -90 -36.5t-37 -90.5v-225q0 -27 18 -46.5t47 -19.5h529q43 0 72.5 -29.5t29.5 -72.5v-788q0 -43 -29.5 -73 t-72.5 -30h-928q-41 0 -72 30t-31 73zM539 199q0 -53 36.5 -89t90.5 -36h8q53 0 89 35.5t36 89.5v612q0 53 -36 90t-89 37h-8q-53 0 -90 -37t-37 -90v-612z" />
<glyph unicode="7" horiz-adv-x="1298" d="M102 1106v276q0 41 30 72t73 31h913q41 0 63.5 -31t10.5 -72l-346 -1271q-12 -43 -51 -73t-80 -30h-232q-41 0 -63.5 30t-9.5 73l327 1198q12 47 -11.5 78.5t-70.5 31.5h-8q-45 0 -77.5 -31.5t-32.5 -78.5v-203q0 -43 -30 -74t-73 -31h-229q-43 0 -73 31t-30 74z" />
<glyph unicode="8" horiz-adv-x="1357" d="M102 565q0 43 31 73t72 30h237q37 6 60.5 32.5t27.5 65.5v35q-4 39 -27.5 65.5t-60.5 32.5h-237q-41 0 -72 29.5t-31 72.5v381q0 41 31 72t72 31h948q41 0 71.5 -31t30.5 -72v-381q0 -43 -30.5 -72.5t-71.5 -29.5h-250q-37 -8 -61.5 -38t-24.5 -68v-17q0 -41 24.5 -70.5 t61.5 -37.5h246q41 0 73.5 -30t32.5 -73v-454q0 -43 -30.5 -73t-71.5 -30h-946q-43 0 -73 30t-30 73zM539 213q0 -59 41 -99t100 -40q57 0 98 40t41 99v264q0 53 -37 89t-90 36h-28q-51 0 -86 -33.5t-39 -81.5v-274zM539 1090q0 -53 35.5 -89t89.5 -36h28q53 0 90 35.5 t37 89.5v190q0 45 -27.5 81t-68.5 50q-10 4 -21.5 6t-21.5 2h-10l-35 -8q-41 -14 -68.5 -50t-27.5 -81v-190z" />
<glyph unicode="9" d="M102 111v155q0 43 30 73t73 30h229q43 0 74 -30t31 -73v-65q0 -53 35.5 -90t89.5 -37h8q53 0 90 36.5t37 90.5v225q0 27 -18.5 46.5t-47.5 19.5h-528q-43 0 -73 29.5t-30 72.5v788q0 43 30 73t73 30h928q41 0 71.5 -30t30.5 -73v-1271q0 -41 -30.5 -72t-71.5 -31h-928 q-43 0 -73 31t-30 72zM539 682q0 -53 35.5 -90t89.5 -37h8q53 0 90 37t37 90v612q0 53 -37 89t-90 36h-8q-53 0 -89 -35.5t-36 -89.5v-612z" />
<glyph unicode=":" horiz-adv-x="641" d="M102 111v161q0 41 31 72t72 31h231q41 0 72 -31t31 -72v-161q0 -43 -31 -73t-72 -30h-231q-41 0 -72 30t-31 73zM102 578v161q0 41 31 72t72 31h231q41 0 72 -31t31 -72v-161q0 -43 -31 -73t-72 -30h-231q-41 0 -72 30t-31 73z" />
<glyph unicode=";" horiz-adv-x="641" d="M102 272q0 41 31 72t72 31h231q41 0 72 -31t31 -72v-206q0 -121 -28 -205t-74 -137.5t-106.5 -77t-125.5 -23.5q-41 0 -72 30t-31 73v546zM102 578v161q0 41 31 72t72 31h231q41 0 72 -31t31 -72v-161q0 -43 -31 -73t-72 -30h-231q-41 0 -72 30t-31 73z" />
<glyph unicode="&#x3c;" horiz-adv-x="845" d="M103 530.5q1 42.5 30 71.5l320 318q29 29 71.5 29.5t71.5 -29.5l115 -115q29 -29 28.5 -72t-28.5 -71l-136 -136l138 -135q29 -31 28.5 -74t-28.5 -71l-115 -115q-31 -31 -74 -30t-71 30l-320 326q-31 31 -30 73.5z" />
<glyph unicode="=" horiz-adv-x="901" d="M102 238v34q0 41 31 72t72 31h491q41 0 72 -31t31 -72v-34q0 -43 -31 -73t-72 -30h-491q-41 0 -72 30t-31 73zM102 705v34q0 41 31 72t72 31h491q41 0 72 -31t31 -72v-34q0 -43 -31 -73t-72 -30h-491q-41 0 -72 30t-31 73z" />
<glyph unicode="&#x3e;" horiz-adv-x="845" d="M104 317.5q0 42.5 29 73.5l137 135l-135 136q-29 29 -29 71.5t29 71.5l115 115q29 31 72 29.5t71 -29.5l320 -318q29 -29 29.5 -72t-29.5 -73l-320 -326q-29 -29 -71.5 -30t-73.5 30l-115 115q-29 29 -29 71.5z" />
<glyph unicode="?" horiz-adv-x="1310" d="M102 1274v108q0 41 30 72t73 31h817q63 0 108.5 -47t64.5 -123t8 -169t-60 -185l-205 -383q-23 -41 -56.5 -72t-74.5 -31h-232q-41 0 -65.5 31t-7.5 72l229 430q43 80 52.5 154.5t-5 131t-47.5 91t-76 34.5h-8q-45 0 -77.5 -31.5t-32.5 -78.5v-35q0 -43 -30 -74t-73 -31 h-229q-43 0 -73 31t-30 74zM479 111v161q0 41 31 72t72 31h231q41 0 71.5 -31t30.5 -72v-161q0 -43 -30.5 -73t-71.5 -30h-231q-41 0 -72 30t-31 73z" />
<glyph unicode="@" horiz-adv-x="1396" d="M102 791q0 37 14.5 68.5t39 56t56.5 39t69 14.5h829q37 0 69.5 -14.5t57.5 -39t39 -56.5t14 -68v-603q0 -76 -53 -128t-127 -52h-711q-43 0 -72.5 30t-29.5 73l-4 243q0 43 29.5 73t72.5 30h369q29 0 47 19.5t18 45.5v96q0 53 -36.5 90t-90.5 37h-8q-53 0 -89 -36.5 t-36 -90.5q0 -45 -30.5 -74.5t-73.5 -29.5h-62q-43 0 -72.5 29.5t-29.5 72.5v93q0 41 29.5 71.5t72.5 30.5h590q41 0 72 -30.5t31 -71.5l-6 -547q0 -49 16 -58.5t37.5 3t39 38t17.5 43.5v603q0 35 -26.5 62.5t-63.5 27.5h-829q-35 0 -63 -28t-28 -62l3 -777 q0 -39 26.5 -64.5t63.5 -25.5h1011v-90h-1011q-76 0 -127.5 52.5t-51.5 127.5zM569 201q0 -53 36 -89t89 -36h8q53 0 90 35.5t37 89.5v65q0 53 -36.5 90t-90.5 37h-8q-53 0 -89 -37t-36 -90v-65z" />
<glyph unicode="A" horiz-adv-x="1361" d="M102 113v1271q0 43 30 73t73 30h946q41 0 71.5 -30t30.5 -73l7 -1278q0 -43 -30 -71.5t-73 -28.5l-237 4q-43 0 -73 30t-30 73v217q0 29 -19.5 47t-45.5 18h-150q-27 0 -46 -18.5t-19 -46.5v-217q0 -43 -30 -73t-73 -30h-229q-43 0 -73 30t-30 73zM537 600 q0 -55 38.5 -96t96.5 -43h22q51 6 87 46t36 93v682q0 59 -41 99t-98 40q-59 0 -100 -40t-41 -99v-682z" />
<glyph unicode="B" horiz-adv-x="1357" d="M102 109v1273q0 41 31 72t72 31h948q41 0 71.5 -31t30.5 -72v-387q0 -41 -30.5 -85t-71.5 -62l-389 -164h389q41 0 71.5 -30.5t30.5 -71.5v-471q0 -43 -30.5 -73t-71.5 -30h-946q-43 0 -74 29t-31 72zM539 213q0 -59 41 -99t100 -40q57 0 98 40t41 99v276q-4 53 -45 91 t-94 38q-55 0 -96 -37.5t-45 -91.5v-276zM539 750q0 -29 19.5 -47.5t45.5 -18.5h6l70 29q27 12 51.5 32.5t43 46t30.5 54t14 57.5v377q0 45 -27.5 81t-68.5 50q-10 4 -21.5 6t-21.5 2h-10l-35 -8q-41 -14 -68.5 -50t-27.5 -81v-530z" />
<glyph unicode="C" d="M102 111v1271q0 41 31 72t72 31h928q43 0 72.5 -31t29.5 -72v-155q0 -43 -29.5 -73t-72.5 -30h-230q-43 0 -73.5 30t-30.5 73v65q0 53 -36 90t-89 37h-8q-53 0 -90 -37t-37 -90v-1091q0 -53 36.5 -90t90.5 -37h8q53 0 89 36.5t36 90.5v65q0 43 30.5 73t73.5 30h230 q43 0 72.5 -30t29.5 -73v-155q0 -41 -29.5 -72t-72.5 -31h-928q-41 0 -72 31t-31 72z" />
<glyph unicode="D" horiz-adv-x="1357" d="M102 1382q0 41 31 72t72 31h737q51 0 94 -32t78 -82t61.5 -108.5t44 -112.5t26.5 -95t9 -56v-524q0 -14 -8 -54t-26.5 -92.5t-44 -108.5t-60.5 -103t-79 -78t-95 -31h-735q-43 0 -73 30t-30 73zM539 213q0 -59 41 -99t100 -40q57 0 98 40t41 99v1067q0 45 -27.5 81 t-68.5 50q-10 4 -21.5 6t-21.5 2h-10l-35 -8q-41 -14 -68.5 -50t-27.5 -81v-1067z" />
<glyph unicode="E" d="M102 111v1271q0 41 31 72t72 31h893q43 0 72.5 -31t29.5 -72v-276q0 -43 -29.5 -74t-72.5 -31h-230q-43 0 -72.5 31t-29.5 74v203q0 47 -33 78.5t-78 31.5h-6q-47 0 -78.5 -31.5t-31.5 -78.5v-529q4 -41 31.5 -68.5t68.5 -31.5h207q33 0 33 -33t-33 -33h-197 q-45 0 -75.5 -28.5t-34.5 -71.5v-313q0 -53 36.5 -90t90.5 -37h8q53 0 89 36.5t36 90.5v65q0 43 30.5 73t73.5 30h230q43 0 72.5 -30t29.5 -73v-155q0 -41 -29.5 -72t-72.5 -31h-928q-41 0 -72 31t-31 72z" />
<glyph unicode="F" horiz-adv-x="1302" d="M102 111v1271q0 41 31 72t72 31h893q43 0 72.5 -31t29.5 -72v-276q0 -43 -29.5 -74t-72.5 -31h-230q-43 0 -72.5 31t-29.5 74v203q0 47 -33 78.5t-78 31.5h-6q-47 0 -78.5 -31.5t-31.5 -78.5v-529q4 -41 31.5 -68.5t68.5 -31.5h207q33 0 33 -33t-33 -33h-197 q-45 0 -75.5 -28.5t-34.5 -71.5v-403q0 -43 -31 -73t-72 -30h-231q-41 0 -72 30t-31 73z" />
<glyph unicode="G" d="M102 111v1271q0 41 31 72t72 31h928q43 0 72.5 -31t29.5 -72v-155q0 -43 -29.5 -73t-72.5 -30h-230q-43 0 -73.5 30t-30.5 73v65q0 53 -36 90t-89 37h-8q-53 0 -90 -37t-37 -90v-1091q0 -53 36.5 -90t90.5 -37h8q53 0 89 36.5t36 90.5v428q0 43 30.5 72.5t73.5 29.5h230 q43 0 72.5 -29.5t29.5 -72.5v-518q0 -41 -29.5 -72t-72.5 -31h-928q-41 0 -72 31t-31 72z" />
<glyph unicode="H" horiz-adv-x="1357" d="M102 111v1269q0 43 31 74t74 31h229q43 0 73 -30t30 -73v-632q0 -29 19.5 -47.5t45.5 -18.5h150q27 0 46 18.5t19 47.5v632q0 43 30 73t73 30h229q43 0 73.5 -31t30.5 -74v-1269q0 -43 -30.5 -73t-71.5 -30h-231q-41 0 -72 30t-31 73v378q-4 53 -45 90t-94 39h-12 q-51 -4 -88 -40.5t-41 -88.5v-378v-9q0 -37 -29 -64q-33 -30 -74 -30h-231q-41 0 -72 30t-31 73z" />
<glyph unicode="I" horiz-adv-x="641" d="M102 111v1271q0 41 31 72t72 31h231q41 0 72 -31t31 -72v-1271q0 -43 -31 -73t-72 -30h-231q-41 0 -72 30t-31 73z" />
<glyph unicode="J" horiz-adv-x="641" d="M102 -272v1654q0 41 31 72t72 31h231q41 0 72 -31t31 -72v-1654q0 -43 -31 -73t-72 -30h-231q-41 0 -72 30t-31 73z" />
<glyph unicode="K" horiz-adv-x="1357" d="M102 109v1269q0 43 31 74t74 31h229q43 0 73 -30t30 -73v-628q0 -29 19.5 -47.5t45.5 -18.5h6l70 29q27 12 51.5 32.5t43 46t30.5 54.5t14 57v475q0 43 31 73t72 30h231q41 0 71.5 -30t30.5 -73v-383q0 -41 -30.5 -85t-71.5 -62l-389 -164h389q41 0 71.5 -30.5 t30.5 -71.5v-475q0 -43 -30.5 -73t-71.5 -30h-231q-41 0 -72 30t-31 73v383q-4 53 -45 91t-94 38q-55 0 -96 -38t-45 -91v-383q0 -43 -31 -73t-72 -30h-231q-41 0 -72 30t-31 73z" />
<glyph unicode="L" horiz-adv-x="1302" d="M102 111v1271q0 43 31 73t72 30h231q41 0 72 -30t31 -73v-1198q0 -47 31.5 -78.5t78.5 -31.5h6q45 0 78 31.5t33 78.5v203q0 43 29.5 74t72.5 31h230q43 0 72.5 -31t29.5 -74v-276q0 -41 -29.5 -72t-72.5 -31h-893q-41 0 -72 31t-31 72z" />
<glyph unicode="M" horiz-adv-x="2033" d="M102 104v1278q0 41 31 72t72 31h1624q43 0 72.5 -31t29.5 -72v-1278q0 -43 -29.5 -72.5t-72.5 -29.5h-230q-43 0 -72.5 29.5t-29.5 72.5v1188q0 53 -37 90t-90 37h-8q-53 0 -90 -36.5t-37 -90.5v-1188q0 -43 -30.5 -72.5t-71.5 -29.5h-232q-41 0 -71.5 29.5t-30.5 72.5 v1188q0 53 -36 90t-89 37h-8q-53 0 -90 -36.5t-37 -90.5v-1188q0 -43 -31 -72.5t-72 -29.5h-231q-41 0 -72 29.5t-31 72.5z" />
<glyph unicode="N" horiz-adv-x="1339" d="M102 111l2 1269q0 43 31 73t72 30h928q41 0 71.5 -30t30.5 -73l-2 -1269q0 -41 -30.5 -72t-71.5 -31h-232q-41 0 -71.5 31t-30.5 72l2 1181q0 53 -37 89t-90 36h-8q-53 0 -89 -35.5t-36 -89.5l-2 -1181q0 -41 -31 -72t-72 -31h-231q-41 0 -72 31t-31 72z" />
<glyph unicode="O" horiz-adv-x="1357" d="M102 1382q0 41 31 72t72 31h948q41 0 71.5 -31t30.5 -72v-1271q0 -43 -30.5 -73t-71.5 -30h-946q-43 0 -73 30t-30 73zM539 213q0 -59 41 -99t100 -40q57 0 98 40t41 99v1067q0 45 -27.5 81t-68.5 50q-10 4 -21.5 6t-21.5 2h-10l-35 -8q-41 -14 -68.5 -50t-27.5 -81 v-1067z" />
<glyph unicode="P" horiz-adv-x="1355" d="M102 113v1271q0 43 30 73t73 30h946q41 0 71.5 -30t30.5 -73v-886q0 -41 -30.5 -72t-71.5 -31h-549q-27 0 -46 -18.5t-19 -46.5v-217q0 -43 -30 -73t-73 -30h-229q-43 0 -73 30t-30 73zM537 600q0 -57 40.5 -98t100.5 -41q57 0 98 41t41 98v682q0 59 -41 99t-98 40 q-59 0 -100 -40t-41 -99v-682z" />
<glyph unicode="Q" horiz-adv-x="1357" d="M102 1382q0 41 31 72t72 31h948q41 0 71.5 -31t30.5 -72v-1271q0 -43 -30.5 -73t-71.5 -30h-264q6 -16 6 -33v-161q0 -43 -30.5 -73t-71.5 -30h-232q-41 0 -71.5 30t-30.5 73v161q0 23 4 33h-256q-43 0 -73 30t-30 73zM539 213q0 -51 29.5 -88t76.5 -47h68q45 10 75.5 47 t30.5 88v1067q0 45 -27.5 81t-68.5 50q-10 4 -21.5 6t-21.5 2h-10l-35 -8q-41 -14 -68.5 -50t-27.5 -81v-1067z" />
<glyph unicode="R" horiz-adv-x="1359" d="M102 109l2 1269q0 43 31 73t72 30h948q41 0 71.5 -30t30.5 -73l-2 -397q0 -51 -31.5 -87t-70.5 -56l-389 -164h389q41 0 71.5 -31t30.5 -72v-462q0 -43 -30.5 -73t-71.5 -30h-231q-41 0 -72 30t-31 73v370q-4 53 -45 91t-94 38q-55 0 -96 -38t-45 -91v-370q0 -43 -31 -73 t-72 -30h-231q-41 0 -72 30t-31 73zM539 739q0 -29 19.5 -47t45.5 -18h6l70 28q27 12 51.5 33t43 46.5t30.5 54t14 57.5l2 397q0 53 -36.5 89t-90.5 36h-28q-53 0 -89 -36t-36 -89z" />
<glyph unicode="S" d="M102 111v401q0 43 30 72.5t73 29.5h229q43 0 74 -29.5t31 -72.5v-311q0 -53 35.5 -90t89.5 -37h16q51 2 85 37.5t34 87.5v473q0 53 -36 90t-89 37h-469q-43 0 -73 29.5t-30 72.5v481q0 43 30 73t73 30h928q43 0 72.5 -31t29.5 -72v-295q0 -43 -29.5 -72.5t-72.5 -29.5 h-230q-43 0 -73.5 29.5t-30.5 72.5v205q0 53 -36 90t-89 37h-10q-53 0 -89 -35.5t-36 -89.5v-305q0 -53 35.5 -90t89.5 -37h469q43 0 72.5 -29.5t29.5 -72.5v-649q0 -43 -29.5 -73t-72.5 -30h-928q-43 0 -73 31t-30 72z" />
<glyph unicode="T" horiz-adv-x="1916" d="M102 1106v276q0 41 30 72t73 31h1507q43 0 73 -31t30 -72v-276q0 -43 -30 -74t-73 -31h-203q-43 0 -72.5 31t-29.5 74v203q0 47 -33 78.5t-78 31.5h-6q-45 0 -75.5 -29.5t-34.5 -72.5v-1206q0 -43 -31 -73t-72 -30h-231q-41 0 -72 30t-31 73v1198q0 47 -31.5 78.5 t-78.5 31.5h-6q-45 0 -78 -31.5t-33 -78.5v-203q0 -43 -29.5 -74t-72.5 -31h-209q-43 0 -73 31t-30 74z" />
<glyph unicode="U" d="M102 111v1271q0 41 31 72t72 31h231q41 0 72 -31t31 -72v-1183q0 -53 36 -89t89 -36h8q53 0 90 35.5t37 89.5v1183q0 41 30.5 72t71.5 31h232q41 0 71.5 -31t30.5 -72v-1271q0 -43 -30.5 -73t-71.5 -30h-928q-41 0 -72 30t-31 73z" />
<glyph unicode="V" d="M102 614v766q0 41 31 72t72 31h231q41 0 72 -31t31 -72v-1181q0 -53 36 -89t89 -36h8q53 0 90 35.5t37 89.5v1181q0 41 30.5 72t71.5 31h232q41 0 71.5 -31t30.5 -72v-766q0 -102 -32 -209.5t-80 -195.5t-106.5 -144.5t-113.5 -56.5h-459q-20 0 -76.5 56.5t-114.5 144.5 t-104.5 195.5t-46.5 209.5z" />
<glyph unicode="W" horiz-adv-x="2033" d="M102 618v762q0 43 31 73t72 30h231q41 0 72 -30t31 -73v-1179q0 -53 36.5 -90t90.5 -37h8q53 0 89 36.5t36 90.5v1179q0 43 30.5 73t71.5 30h232q41 0 71.5 -30t30.5 -73v-1179q0 -53 37 -90t90 -37h8q53 0 90 36.5t37 90.5v1179q0 43 29.5 73t72.5 30h230q43 0 72.5 -30 t29.5 -73v-762q0 -14 -20.5 -64t-52 -117.5t-71.5 -143.5t-77 -139.5t-67 -104.5t-44 -41h-1163q-14 0 -44 41t-66.5 104.5t-76.5 139.5t-73 143.5t-53.5 117.5t-20.5 64z" />
<glyph unicode="X" d="M102 109v450q0 43 31 73t72 30h266q37 6 60.5 32.5t27.5 65.5v35q-4 39 -27.5 65.5t-60.5 32.5h-266q-41 0 -72 29.5t-31 72.5v391q0 41 31 72t72 31h231q41 0 72 -31t31 -72v-303q0 -53 35.5 -89t89.5 -36h8q53 0 90 36t37 89v303q0 41 30.5 72t71.5 31h232 q41 0 71.5 -31t30.5 -72v-391q0 -43 -30.5 -72.5t-71.5 -29.5h-254q-37 -8 -61.5 -38t-24.5 -69v-16q0 -41 24.5 -70.5t61.5 -37.5h254q41 0 71.5 -30t30.5 -73v-450q0 -41 -30.5 -72t-71.5 -31h-232q-41 0 -71.5 31t-30.5 72v362q0 53 -37 89t-90 36h-8q-53 0 -89 -36 t-36 -89v-362q0 -41 -31 -72t-72 -31h-231q-41 0 -72 31t-31 72z" />
<glyph unicode="Y" d="M102 999v383q0 41 31 72t72 31h231q41 0 72 -31t31 -72v-798q0 -53 36 -89t89 -36h8q53 0 90 35.5t37 89.5v798q0 41 30.5 72t71.5 31h232q41 0 71.5 -31t30.5 -72v-383q0 -102 -32 -209.5t-80 -195.5t-106.5 -144.5t-113.5 -56.5h-8v-282q0 -43 -30.5 -73t-71.5 -30 h-232q-41 0 -71.5 30t-30.5 73v282h-15q-20 0 -76.5 56.5t-114.5 144.5t-104.5 195.5t-46.5 209.5z" />
<glyph unicode="Z" d="M102 102v508q0 43 30 78t73 45l469 101q53 10 89 55t36 98v309q0 53 -36 89t-89 36h-10q-53 0 -89 -36.5t-36 -90.5v-237q0 -43 -31 -73t-74 -30h-229q-43 0 -73 30t-30 73v327q0 41 30 72t73 31h928q43 0 72.5 -30t29.5 -73v-391q0 -43 -29.5 -78.5t-72.5 -46.5 l-469 -100q-53 -10 -89 -55t-36 -99v-424q0 -51 33.5 -86.5t84.5 -37.5h17q53 0 89 36.5t36 90.5v288q0 43 30.5 73t73.5 30h230q43 0 72.5 -30t29.5 -73v-379q0 -41 -29.5 -71.5t-72.5 -30.5h-928q-43 0 -73 29.5t-30 72.5z" />
<glyph unicode="[" horiz-adv-x="985" d="M102 1382q0 41 31 72t72 31h645q33 0 33 -33t-33 -33h-180q-25 0 -48.5 -14t-42 -33.5t-29.5 -44t-11 -47.5v-1067q0 -55 37.5 -95t91.5 -44h182q33 0 33 -33t-33 -33h-643q-43 0 -73 30t-30 73z" />
<glyph unicode="\" horiz-adv-x="827" d="M104 1382q-6 41 21 72t68 31h231q41 0 76 -31t41 -72l182 -1271q4 -43 -21.5 -73t-66.5 -30h-232q-41 0 -75.5 30t-40.5 73z" />
<glyph unicode="]" horiz-adv-x="985" d="M102 41q0 33 33 33h182q53 4 91 44t38 95v1067q0 23 -5 47.5t-19 45t-40 33.5t-67 13h-180q-33 0 -33 33t33 33h645q41 0 72 -31t31 -72l-2 -1271q0 -43 -30 -73t-73 -30h-643q-33 0 -33 33z" />
<glyph unicode="^" horiz-adv-x="1054" d="M103 1040.5q1 42.5 30 71.5l318 320q29 29 71.5 29.5t73.5 -29.5l326 -320q29 -29 29.5 -72t-29.5 -73l-115 -115q-29 -29 -72 -29t-73 29l-136 137l-135 -135q-29 -29 -72 -29t-71 29l-115 115q-31 29 -30 71.5z" />
<glyph unicode="_" horiz-adv-x="964" d="M102 -141q0 41 31 71.5t72 30.5h555q41 0 71.5 -30.5t30.5 -71.5q0 -43 -30.5 -73t-71.5 -30h-555q-41 0 -72 30t-31 73z" />
<glyph unicode="`" horiz-adv-x="729" d="M106.5 1454q12.5 31 53.5 31h231q41 0 90 -31t74 -72l55 -92q25 -43 11.5 -72.5t-54.5 -29.5h-231q-41 0 -89 29.5t-73 72.5l-55 92q-25 41 -12.5 72z" />
<glyph unicode="a" d="M102 111v403q0 43 30 72.5t73 29.5h528q29 0 47.5 19.5t18.5 46.5v225q0 53 -37 90t-90 37h-8q-53 0 -89 -36.5t-36 -90.5v-65q0 -43 -31 -73t-74 -30h-229q-43 0 -73 30t-30 73v155q0 41 30 72t73 31h928q41 0 71.5 -31t30.5 -72v-886q0 -43 -30.5 -73t-71.5 -30h-928 q-43 0 -73 30t-30 73zM539 199q0 -53 36 -89t89 -36h8q53 0 90 35.5t37 89.5v227q0 53 -37 90t-90 37h-8q-53 0 -89 -37t-36 -90v-227z" />
<glyph unicode="b" horiz-adv-x="1355" d="M102 111v1271q0 43 30 73t73 30h229q43 0 73 -30t30 -73v-217q0 -29 19 -47t46 -18h549q41 0 71.5 -31t30.5 -72v-886q0 -43 -30.5 -73t-71.5 -30h-946q-43 0 -73 30t-30 73zM537 213q0 -59 41 -99t100 -40q57 0 98 40t41 99v682q0 57 -41 98t-98 41q-59 0 -100 -41 t-41 -98v-682z" />
<glyph unicode="c" d="M102 111v884q0 41 31 72t72 31h928q43 0 72.5 -31t29.5 -72v-155q0 -43 -29.5 -73t-72.5 -30h-230q-43 0 -73.5 30t-30.5 73v65q0 53 -36 90t-89 37h-8q-53 0 -90 -37t-37 -90v-704q0 -53 36.5 -90t90.5 -37h8q53 0 89 36.5t36 90.5v65q0 43 30.5 73t73.5 30h230 q43 0 72.5 -30t29.5 -73v-155q0 -41 -29.5 -72t-72.5 -31h-928q-41 0 -72 31t-31 72z" />
<glyph unicode="d" horiz-adv-x="1355" d="M102 111v886q0 41 31 72t72 31h549q27 0 46 18.5t19 46.5v217q0 43 30 73t73 30h229q43 0 72.5 -30t29.5 -73v-1271q0 -43 -29.5 -73t-72.5 -30h-946q-41 0 -72 30t-31 73zM539 213q0 -59 41 -99t98 -40q59 0 100 40t41 99v682q0 57 -41 98t-100 41q-57 0 -98 -41 t-41 -98v-682z" />
<glyph unicode="e" d="M102 111v886q0 43 31 73t72 30h928q43 0 72.5 -30t29.5 -73v-403q0 -43 -29.5 -72.5t-72.5 -29.5h-529q-29 0 -47 -19.5t-18 -46.5v-225q0 -53 36.5 -90t90.5 -37h8q53 0 89 36.5t36 90.5v65q0 43 30.5 73t73.5 30h230q43 0 72.5 -30t29.5 -73v-155q0 -41 -29.5 -72 t-72.5 -31h-928q-41 0 -72 31t-31 72zM539 682q0 -53 36.5 -90t90.5 -37h8q53 0 89 37t36 90v227q0 53 -36 89t-89 36h-8q-53 0 -90 -35.5t-37 -89.5v-227z" />
<glyph unicode="f" horiz-adv-x="1302" d="M102 111v1271q0 41 31 72t72 31h893q43 0 72.5 -31t29.5 -72v-276q0 -43 -29.5 -74t-72.5 -31h-230q-43 0 -72.5 31t-29.5 74v203q0 47 -33 78.5t-78 31.5h-6q-47 0 -78.5 -31.5t-31.5 -78.5v-310q4 -41 31.5 -68.5t68.5 -31.5h207q33 0 33 -33t-33 -32h-197 q-45 0 -75.5 -29t-34.5 -72v-622q0 -43 -31 -73t-72 -30h-231q-41 0 -72 30t-31 73z" />
<glyph unicode="g" d="M102 111v886q0 43 30 73t73 30h928q41 0 71.5 -30t30.5 -73v-1269q0 -41 -30.5 -72t-71.5 -31h-928q-43 0 -73 31t-30 72v55q0 43 30 72.5t73 29.5h229q43 0 74 -29.5t31 -72.5q0 -53 35.5 -72.5t89.5 -19.5h8q53 0 90 19.5t37 72.5v160q0 27 -18.5 46t-47.5 19h-528 q-43 0 -73 30t-30 73zM539 199q0 -53 35.5 -90t89.5 -37h8q53 0 90 36.5t37 90.5v710q0 53 -37 89t-90 36h-8q-53 0 -89 -35.5t-36 -89.5v-710z" />
<glyph unicode="h" horiz-adv-x="1357" d="M102 111v1269q0 43 31 74t74 31h229q43 0 73 -30t30 -73v-217q0 -29 19.5 -47t45.5 -18h549q41 0 71.5 -31t30.5 -72v-886q0 -43 -30.5 -73t-71.5 -30h-231q-41 0 -72 30t-31 73v794q-4 53 -45 91t-94 38q-55 0 -96 -38t-45 -91v-794q0 -43 -31 -73t-72 -30h-231 q-41 0 -72 30t-31 73z" />
<glyph unicode="i" horiz-adv-x="641" d="M102 111v886q0 41 31 72t72 31h231q41 0 72 -31t31 -72v-886q0 -43 -31 -73t-72 -30h-231q-41 0 -72 30t-31 73z" />
<glyph unicode="j" horiz-adv-x="641" d="M102 -272v1271q0 41 31 72t72 31h231q41 0 72 -31t31 -72v-1271q0 -43 -31 -73t-72 -30h-231q-41 0 -72 30t-31 73z" />
<glyph unicode="k" horiz-adv-x="1357" d="M102 109v1269q0 43 31 74t74 31h229q43 0 73 -30t30 -73v-698q0 -29 19.5 -47.5t45.5 -18.5h6l70 29q27 12 51.5 32.5t43 46.5t30.5 54.5t14 57.5v153q0 43 31 73t72 30h231q41 0 71.5 -30t30.5 -73v-61q0 -41 -30.5 -85t-71.5 -63l-389 -164h389q41 0 71.5 -30.5 t30.5 -71.5v-405q0 -43 -30.5 -73t-71.5 -30h-231q-41 0 -72 30t-31 73v313q-4 53 -45 91t-94 38q-55 0 -96 -38t-45 -91v-313q0 -43 -31 -73t-72 -30h-231q-41 0 -72 30t-31 73z" />
<glyph unicode="l" horiz-adv-x="641" d="M102 111v1271q0 41 31 72t72 31h231q41 0 72 -31t31 -72v-1271q0 -43 -31 -73t-72 -30h-231q-41 0 -72 30t-31 73z" />
<glyph unicode="m" horiz-adv-x="2033" d="M102 111v886q0 41 31 72t72 31h1624q43 0 72.5 -31t29.5 -72v-886q0 -43 -29.5 -73t-72.5 -30h-230q-43 0 -72.5 30t-29.5 73v796q0 53 -37 90t-90 37h-8q-53 0 -90 -36.5t-37 -90.5v-796q0 -43 -30.5 -73t-71.5 -30h-232q-41 0 -71.5 30t-30.5 73v796q0 53 -36 90 t-89 37h-8q-53 0 -90 -36.5t-37 -90.5v-796q0 -43 -31 -73t-72 -30h-231q-41 0 -72 30t-31 73z" />
<glyph unicode="n" d="M102 111v886q0 43 31 73t72 30h928q41 0 71.5 -30t30.5 -73v-886q0 -41 -30.5 -72t-71.5 -31h-232q-41 0 -71.5 31t-30.5 72v798q0 53 -37 89t-90 36h-8q-53 0 -89 -35.5t-36 -89.5v-798q0 -41 -31 -72t-72 -31h-231q-41 0 -72 31t-31 72z" />
<glyph unicode="o" horiz-adv-x="1357" d="M102 997q0 41 31 72t72 31h948q41 0 71.5 -31t30.5 -72v-886q0 -43 -30.5 -73t-71.5 -30h-946q-43 0 -73 30t-30 73zM539 213q0 -59 41 -99t100 -40q57 0 98 40t41 99v682q0 45 -27.5 81t-68.5 50q-10 4 -21.5 6t-21.5 2h-10l-35 -8q-41 -14 -68.5 -50t-27.5 -81v-682z " />
<glyph unicode="p" horiz-adv-x="1355" d="M102 -276v1271q0 43 30 73t73 30h946q41 0 71.5 -30t30.5 -73v-886q0 -41 -30.5 -72t-71.5 -31h-549q-27 0 -46 -18.5t-19 -46.5v-217q0 -43 -30 -73t-73 -30h-229q-43 0 -73 30t-30 73zM537 211q0 -57 40.5 -98t100.5 -41q57 0 98 41t41 98v682q0 59 -41 99t-98 40 q-59 0 -100 -40t-41 -99v-682z" />
<glyph unicode="q" horiz-adv-x="1355" d="M102 109v886q0 43 31 73t72 30h946q43 0 72.5 -30t29.5 -73v-1271q0 -43 -29.5 -73t-72.5 -30h-229q-43 0 -73 30t-30 73v217q0 29 -19.5 47t-45.5 18h-549q-41 0 -72 31t-31 72zM539 211q0 -57 41 -98t98 -41q59 0 100 41t41 98v682q0 59 -41 99t-100 40q-57 0 -98 -40 t-41 -99v-682z" />
<glyph unicode="r" horiz-adv-x="1302" d="M102 111v886q0 41 31 72t72 31h893q43 0 72.5 -31t29.5 -72v-276q0 -43 -29.5 -74t-72.5 -31h-230q-43 0 -72.5 31t-29.5 74v203q0 47 -33 78.5t-78 31.5h-6q-47 0 -78.5 -31.5t-31.5 -78.5v-813q0 -43 -31 -73t-72 -30h-231q-41 0 -72 30t-31 73z" />
<glyph unicode="s" d="M102 111v155q0 43 30 73t73 30h229q43 0 74 -30t31 -73v-65q0 -53 35.5 -90t89.5 -37h16q51 2 85 37.5t34 87.5v227q0 53 -36 90t-89 37h-469q-43 0 -73 29.5t-30 72.5v342q0 43 30 73t73 30h928q43 0 72.5 -31t29.5 -72v-155q0 -43 -29.5 -73t-72.5 -30h-230 q-43 0 -73.5 30t-30.5 73v65q0 53 -36 90t-89 37h-10q-53 0 -89 -35.5t-36 -89.5v-166q0 -53 35.5 -90t89.5 -37h469q43 0 72.5 -29.5t29.5 -72.5v-403q0 -43 -29.5 -73t-72.5 -30h-928q-43 0 -73 31t-30 72z" />
<glyph unicode="t" horiz-adv-x="1302" d="M102 111v1271q0 43 31 73t72 30h231q41 0 72 -30t31 -73v-180q2 -43 30.5 -71.5t69.5 -32.5h207q33 0 33 -33t-33 -33h-197q-45 0 -75.5 -28.5t-34.5 -71.5v-748q0 -47 31.5 -78.5t78.5 -31.5h6q45 0 78 31.5t33 78.5v203q0 43 29.5 74t72.5 31h230q43 0 72.5 -31 t29.5 -74v-276q0 -41 -29.5 -72t-72.5 -31h-893q-41 0 -72 31t-31 72z" />
<glyph unicode="u" d="M102 111v886q0 41 31 72t72 31h231q41 0 72 -31t31 -72v-798q0 -53 36 -89t89 -36h8q53 0 90 35.5t37 89.5v798q0 41 30.5 72t71.5 31h232q41 0 71.5 -31t30.5 -72v-886q0 -43 -30.5 -73t-71.5 -30h-928q-41 0 -72 30t-31 73z" />
<glyph unicode="v" d="M102 614v383q0 41 31 72t72 31h231q41 0 72 -31t31 -72v-798q0 -53 36 -89t89 -36h8q53 0 90 35.5t37 89.5v798q0 41 30.5 72t71.5 31h232q41 0 71.5 -31t30.5 -72v-383q0 -102 -32 -209.5t-80 -195.5t-106.5 -144.5t-113.5 -56.5h-459q-20 0 -76.5 56.5t-114.5 144.5 t-104.5 195.5t-46.5 209.5z" />
<glyph unicode="w" horiz-adv-x="2033" d="M102 618v379q0 43 31 73t72 30h231q41 0 72 -30t31 -73v-796q0 -53 36.5 -90t90.5 -37h8q53 0 89 36.5t36 90.5v796q0 43 30.5 73t71.5 30h232q41 0 71.5 -30t30.5 -73v-796q0 -53 37 -90t90 -37h8q53 0 90 36.5t37 90.5v796q0 43 29.5 73t72.5 30h230q43 0 72.5 -30 t29.5 -73v-379q0 -14 -20.5 -64t-52 -117.5t-71.5 -143.5t-77 -139.5t-67 -104.5t-44 -41h-1163q-14 0 -44 41t-66.5 104.5t-76.5 139.5t-73 143.5t-53.5 117.5t-20.5 64z" />
<glyph unicode="x" d="M102 111v266q0 43 31 72.5t72 29.5h266q37 6 60.5 33t27.5 66v34q-4 39 -27.5 66t-60.5 33h-266q-41 0 -72 29.5t-31 72.5v186q0 41 31 72t72 31h231q41 0 72 -31t31 -72v-98q0 -53 35.5 -89t89.5 -36h8q53 0 90 36t37 89v98q0 41 30.5 72t71.5 31h232q41 0 71.5 -31 t30.5 -72v-186q0 -43 -30.5 -72.5t-71.5 -29.5h-254q-37 -8 -61.5 -38t-24.5 -69v-16q0 -41 24.5 -71t61.5 -38h254q41 0 71.5 -29.5t30.5 -72.5v-266q0 -41 -30.5 -72t-71.5 -31h-232q-41 0 -71.5 31t-30.5 72v178q0 53 -37 89t-90 36h-8q-53 0 -89 -36t-36 -89v-178 q0 -41 -31 -72t-72 -31h-231q-41 0 -72 31t-31 72z" />
<glyph unicode="y" horiz-adv-x="1357" d="M102 616v381q0 43 31 73t72 30h231q41 0 72 -30t31 -73v-794q4 -53 45 -91t94 -38q55 0 96 38t45 91v794q0 43 31 73t72 30h231q41 0 71.5 -30t30.5 -73v-1269q0 -43 -30.5 -74t-73.5 -31h-229q-43 0 -73 30t-30 73v217q0 29 -19.5 47t-45.5 18h-332q-14 0 -43 32 t-64.5 83t-72.5 115.5t-69 132t-51.5 132t-19.5 113.5z" />
<glyph unicode="z" d="M102 109v284q0 43 30 78t73 45l469 100q53 10 89 55.5t36 98.5v137q0 53 -36 89t-89 36h-10q-53 0 -89 -37t-36 -90v-65q0 -43 -31 -73t-74 -30h-229q-43 0 -73 30t-30 73v155q0 41 30 72t73 31h928q43 0 72.5 -30t29.5 -73v-219q0 -43 -29.5 -78.5t-72.5 -46.5 l-469 -100q-53 -10 -89 -55t-36 -99v-200q0 -51 33.5 -87t84.5 -38h17q53 0 89 36.5t36 90.5v65q0 43 30.5 73t73.5 30h230q43 0 72.5 -30t29.5 -73v-155q0 -41 -29.5 -72t-72.5 -31h-928q-43 0 -73 30t-30 73z" />
<glyph unicode="{" horiz-adv-x="1169" d="M102 729q0 33 33 33h53q39 4 68 29.5t33 66.5v524q0 41 30.5 72t71.5 31h643q33 0 33 -33t-33 -33h-180q-35 0 -60.5 -13t-41 -33.5t-22.5 -45t-7 -47.5v-1067q0 -55 38 -95t91 -44h182q33 0 33 -33t-33 -33h-643q-43 0 -72.5 30t-29.5 73v489q-4 41 -36 68.5t-75 27.5 h-43q-33 0 -33 33z" />
<glyph unicode="|" horiz-adv-x="641" d="M102 -279v1661q0 41 31 72t72 31h231q41 0 72 -31t31 -72v-1661q0 -43 -31 -72.5t-72 -29.5h-231q-41 0 -72 29.5t-31 72.5z" />
<glyph unicode="}" horiz-adv-x="1169" d="M102 41q0 33 33 33h182q53 4 91 44t38 95v1067q0 23 -7 47.5t-22.5 45t-41 33.5t-60.5 13h-180q-33 0 -33 33t33 33h643q41 0 72 -31t31 -72v-524q4 -41 32.5 -66.5t67.5 -29.5h53q33 0 33 -33t-33 -33h-43q-43 0 -74.5 -27.5t-35.5 -68.5v-489q0 -43 -30 -73t-73 -30 h-643q-33 0 -33 33z" />
<glyph unicode="~" horiz-adv-x="1523" d="M107.5 505q-13.5 30 11.5 73l55 92q25 41 74 71.5t90 30.5h477q41 0 55 -33l72 -112l27 43q25 41 74 71.5t90 30.5h231q41 0 53.5 -30.5t-12.5 -71.5l-55 -92q-25 -43 -73 -73t-89 -30h-477q-41 0 -56 31l-75 112l-25 -40q-25 -43 -73 -73t-89 -30h-231q-41 0 -54.5 30z " />
<glyph unicode="&#xa1;" horiz-adv-x="641" d="M102 -285v813q0 43 31 73t72 30h231q41 0 72 -30t31 -73v-813q0 -41 -31 -71.5t-72 -30.5h-231q-41 0 -72 30.5t-31 71.5zM102 825v162q0 43 31 73t72 30h231q41 0 72 -30t31 -73v-162q0 -41 -31 -71.5t-72 -30.5h-231q-41 0 -72 30.5t-31 71.5z" />
<glyph unicode="&#xa7;" d="M102 111v86q0 43 30 72.5t73 29.5h229q43 0 74 -29.5t31 -72.5v4q0 -53 35.5 -90t89.5 -37h16q51 2 85 37.5t34 87.5v157q0 53 -36 90t-89 37h-469q-43 0 -73 30t-30 73v2v155v9v176q0 41 27 69.5t68 32.5q-41 4 -68 33t-27 70v251q0 43 30 73t73 30h928q43 0 72.5 -31 t29.5 -72v-65q0 -43 -29.5 -72.5t-72.5 -29.5h-230q-43 0 -73.5 29.5t-30.5 72.5v-25q0 53 -36 90t-89 37h-10q-53 0 -89 -35.5t-36 -89.5v-75q0 -53 35.5 -90t89.5 -37h469q43 0 72.5 -30t29.5 -73v-55v-8v-314q0 -23 -21.5 -45t-70.5 -34q41 -2 66.5 -29t25.5 -62v-333 q0 -43 -29.5 -73t-72.5 -30h-928q-43 0 -73 31t-30 72zM539 678q0 -53 36 -90t89 -37h16q51 2 85 38t34 87v162q0 53 -36 90t-89 37h-10q-53 0 -89 -36t-36 -89v-162z" />
<glyph unicode="&#xa8;" horiz-adv-x="1325" d="M102 1290v92q0 41 31 72t72 31h231q41 0 72 -31t31 -72v-92q0 -43 -31 -72.5t-72 -29.5h-231q-41 0 -72 29.5t-31 72.5zM786 1290v92q0 41 31 72t72 31h231q41 0 72 -31t31 -72v-92q0 -43 -31 -72.5t-72 -29.5h-231q-41 0 -72 29.5t-31 72.5z" />
<glyph unicode="&#xa9;" horiz-adv-x="1392" d="M102 963q0 37 14.5 68.5t39 56t56.5 39t69 14.5h829q37 0 69.5 -14.5t57.5 -39t39 -56.5t14 -68v-777q0 -76 -53 -128t-127 -52h-827q-76 0 -127.5 52.5t-51.5 127.5zM190 963l3 -777q0 -39 26.5 -64.5t63.5 -25.5h827q37 0 63.5 25.5t26.5 64.5v777q0 35 -26.5 62.5 t-63.5 27.5h-829q-35 0 -63 -28t-28 -62zM315 289v573q0 41 31 72t72 31h567q43 0 72.5 -31t29.5 -72v-96q0 -43 -29.5 -72.5t-72.5 -29.5h-55q-43 0 -74 29.5t-31 72.5v6q0 53 -35.5 90t-89.5 37h-8q-53 0 -90 -37t-37 -90v-393q0 -53 37 -90t90 -37h8q53 0 89 37t36 90 q0 43 31 72.5t74 29.5h55q43 0 72.5 -29.5t29.5 -72.5v-90q0 -41 -29.5 -72t-72.5 -31h-567q-41 0 -72 31t-31 72z" />
<glyph unicode="&#xab;" horiz-adv-x="1527" d="M103 530.5q1 42.5 30 71.5l320 318q29 29 71.5 29.5t71.5 -29.5l115 -115q29 -29 28.5 -72t-28.5 -71l-136 -136l138 -135q29 -31 28.5 -74t-28.5 -71l-115 -115q-31 -31 -74 -30t-71 30l-320 326q-31 31 -30 73.5zM785 530.5q1 42.5 30 71.5l320 318q29 29 71.5 29.5 t71.5 -29.5l115 -115q29 -29 28.5 -72t-28.5 -71l-136 -136l138 -135q29 -31 28.5 -74t-28.5 -71l-115 -115q-31 -31 -74 -30t-71 30l-320 326q-31 31 -30 73.5z" />
<glyph unicode="&#xac;" horiz-adv-x="901" d="M102 578v161q0 41 31 72t72 31h491q41 0 72 -31t31 -72v-161q0 -43 -31 -73t-72 -30h-491q-41 0 -72 30t-31 73z" />
<glyph unicode="&#xad;" horiz-adv-x="901" d="M102 578v161q0 41 31 72t72 31h491q41 0 72 -31t31 -72v-161q0 -43 -31 -73t-72 -30h-491q-41 0 -72 30t-31 73z" />
<glyph unicode="&#xae;" horiz-adv-x="1392" d="M102 963q0 37 14.5 68.5t39 56t56.5 39t69 14.5h829q37 0 69.5 -14.5t57.5 -39t39 -56.5t14 -68v-777q0 -76 -53 -128t-127 -52h-827q-76 0 -127.5 52.5t-51.5 127.5zM190 963l3 -777q0 -39 26.5 -64.5t63.5 -25.5h827q37 0 63.5 25.5t26.5 64.5v777q0 35 -26.5 62.5 t-63.5 27.5h-829q-35 0 -63 -28t-28 -62zM315 289v573q0 41 31 72t72 31h567q43 0 72.5 -31t29.5 -72v-180q0 -43 -29.5 -72.5t-72.5 -29.5h-55q-43 0 -74 29.5t-31 72.5v90q0 53 -35.5 90t-89.5 37h-8q-53 0 -90 -37t-37 -90l-4 -483q0 -41 -29.5 -72t-72.5 -31h-41 q-41 0 -72 31t-31 72z" />
<glyph unicode="&#xb0;" horiz-adv-x="765" d="M102 1165v144q0 37 14.5 68.5t39 56t56.5 39t69 14.5h202q37 0 70 -14.5t57.5 -39t39 -56t14.5 -68.5v-144q0 -37 -14.5 -69.5t-39 -57t-57.5 -38t-70 -13.5h-202q-37 0 -69 13.5t-56.5 38t-39 57t-14.5 69.5zM299 1165q0 -37 27.5 -62.5t62.5 -25.5q37 0 63.5 25.5 t26.5 62.5v144q0 35 -26.5 61.5t-63.5 26.5q-35 0 -62.5 -27t-27.5 -61v-144z" />
<glyph unicode="&#xb4;" horiz-adv-x="729" d="M107.5 1217.5q-13.5 29.5 11.5 72.5l55 92q25 41 74 72t90 31h231q41 0 53.5 -31t-12.5 -72l-55 -92q-25 -43 -73 -72.5t-89 -29.5h-231q-41 0 -54.5 29.5z" />
<glyph unicode="&#xb7;" horiz-adv-x="641" d="M102 578v161q0 41 31 72t72 31h231q41 0 72 -31t31 -72v-161q0 -43 -31 -73t-72 -30h-231q-41 0 -72 30t-31 73z" />
<glyph unicode="&#xbb;" horiz-adv-x="1527" d="M104 317.5q0 42.5 29 73.5l137 135l-135 136q-29 29 -29 71.5t29 71.5l115 115q29 31 72 29.5t71 -29.5l320 -318q29 -29 29.5 -72t-29.5 -73l-320 -326q-29 -29 -71.5 -30t-73.5 30l-115 115q-29 29 -29 71.5zM786 317.5q0 42.5 29 73.5l137 135l-135 136 q-29 29 -29 71.5t29 71.5l115 115q29 31 72 29.5t71 -29.5l320 -318q29 -29 29.5 -72t-29.5 -73l-320 -326q-29 -29 -71.5 -30t-73.5 30l-115 115q-29 29 -29 71.5z" />
<glyph unicode="&#xbf;" horiz-adv-x="1310" d="M107.5 -52q11.5 93 60.5 185l205 383q23 41 56.5 71.5t74.5 30.5h231q41 0 65.5 -30.5t8.5 -71.5l-229 -430q-43 -80 -52.5 -154.5t5 -131t47 -91.5t75.5 -35h9q45 0 77.5 32t32.5 79v35q0 43 30 73.5t73 30.5h229q43 0 72.5 -30.5t29.5 -73.5v-109q0 -41 -29.5 -71.5 t-72.5 -30.5h-817q-63 0 -108.5 47t-65 123t-8 169zM395 821v162q0 43 31 72.5t72 29.5h231q41 0 71.5 -29.5t30.5 -72.5v-162q0 -41 -30.5 -71.5t-71.5 -30.5h-231q-41 0 -72 30.5t-31 71.5z" />
<glyph unicode="&#xc0;" d="M102 111v403q0 43 30 72.5t73 29.5h528q29 0 47.5 19.5t18.5 46.5v225q0 53 -37 90t-90 37h-8q-53 0 -89 -36.5t-36 -90.5v-65q0 -43 -31 -73t-74 -30h-229q-43 0 -73 30t-30 73v155q0 41 30 72t73 31h928q41 0 71.5 -31t30.5 -72v-886q0 -43 -30.5 -73t-71.5 -30h-928 q-43 0 -73 30t-30 73zM409.5 1454q12.5 31 53.5 31h231q41 0 90 -31t74 -72l55 -92q25 -43 11.5 -72.5t-54.5 -29.5h-231q-41 0 -89 29.5t-73 72.5l-55 92q-25 41 -12.5 72zM539 199q0 -53 36 -89t89 -36h8q53 0 90 35.5t37 89.5v227q0 53 -37 90t-90 37h-8q-53 0 -89 -37 t-36 -90v-227z" />
<glyph unicode="&#xc1;" d="M102 111v403q0 43 30 72.5t73 29.5h528q29 0 47.5 19.5t18.5 46.5v225q0 53 -37 90t-90 37h-8q-53 0 -89 -36.5t-36 -90.5v-65q0 -43 -31 -73t-74 -30h-229q-43 0 -73 30t-30 73v155q0 41 30 72t73 31h928q41 0 71.5 -31t30.5 -72v-886q0 -43 -30.5 -73t-71.5 -30h-928 q-43 0 -73 30t-30 73zM410.5 1217.5q-13.5 29.5 11.5 72.5l55 92q25 41 74 72t90 31h231q41 0 53.5 -31t-12.5 -72l-55 -92q-25 -43 -73 -72.5t-89 -29.5h-231q-41 0 -54.5 29.5zM539 199q0 -53 36 -89t89 -36h8q53 0 90 35.5t37 89.5v227q0 53 -37 90t-90 37h-8 q-53 0 -89 -37t-36 -90v-227z" />
<glyph unicode="&#xc2;" d="M102 111v403q0 43 30 72.5t73 29.5h528q29 0 47.5 19.5t18.5 46.5v225q0 53 -37 90t-90 37h-8q-53 0 -89 -36.5t-36 -90.5v-65q0 -43 -31 -73t-74 -30h-229q-43 0 -73 30t-30 73v155q0 41 30 72t73 31h928q41 0 71.5 -31t30.5 -72v-886q0 -43 -30.5 -73t-71.5 -30h-928 q-43 0 -73 30t-30 73zM199.5 1217.5q-13.5 29.5 11.5 72.5l55 92q25 41 74 72t90 31h477q41 0 90 -31t74 -72l55 -92q25 -43 11.5 -72.5t-54.5 -29.5h-231q-41 0 -89 29.5t-73 72.5l-23 37l-20 -37q-25 -43 -73 -72.5t-89 -29.5h-231q-41 0 -54.5 29.5zM539 199 q0 -53 36 -89t89 -36h8q53 0 90 35.5t37 89.5v227q0 53 -37 90t-90 37h-8q-53 0 -89 -37t-36 -90v-227z" />
<glyph unicode="&#xc3;" d="M102 111v403q0 43 30 72.5t73 29.5h528q29 0 47.5 19.5t18.5 46.5v225q0 53 -37 90t-90 37h-8q-53 0 -89 -36.5t-36 -90.5v-65q0 -43 -31 -73t-74 -30h-229q-43 0 -73 30t-30 73v155q0 41 30 72t73 31h928q41 0 71.5 -31t30.5 -72v-886q0 -43 -30.5 -73t-71.5 -30h-928 q-43 0 -73 30t-30 73zM136.5 1217.5q-13.5 29.5 11.5 72.5l55 92q25 41 74 72t90 31h231q41 0 56 -33l71 -113l27 43q25 41 74 72t90 31h231q41 0 53.5 -31t-12.5 -72l-55 -92q-25 -43 -73 -72.5t-89 -29.5h-231q-41 0 -56 31l-75 112l-25 -41q-25 -43 -73 -72.5t-89 -29.5 h-231q-41 0 -54.5 29.5zM539 199q0 -53 36 -89t89 -36h8q53 0 90 35.5t37 89.5v227q0 53 -37 90t-90 37h-8q-53 0 -89 -37t-36 -90v-227z" />
<glyph unicode="&#xc4;" d="M102 111v403q0 43 30 72.5t73 29.5h528q29 0 47.5 19.5t18.5 46.5v225q0 53 -37 90t-90 37h-8q-53 0 -89 -36.5t-36 -90.5v-65q0 -43 -31 -73t-74 -30h-229q-43 0 -73 30t-30 73v155q0 41 30 72t73 31h928q41 0 71.5 -31t30.5 -72v-886q0 -43 -30.5 -73t-71.5 -30h-928 q-43 0 -73 30t-30 73zM102 1290v92q0 41 31 72t72 31h231q41 0 72 -31t31 -72v-92q0 -43 -31 -72.5t-72 -29.5h-231q-41 0 -72 29.5t-31 72.5zM539 199q0 -53 36 -89t89 -36h8q53 0 90 35.5t37 89.5v227q0 53 -37 90t-90 37h-8q-53 0 -89 -37t-36 -90v-227zM786 1290v92 q0 41 31 72t72 31h231q41 0 72 -31t31 -72v-92q0 -43 -31 -72.5t-72 -29.5h-231q-41 0 -72 29.5t-31 72.5z" />
<glyph unicode="&#xc5;" d="M102 111v403q0 43 30 72.5t73 29.5h528q29 0 47.5 19.5t18.5 46.5v225q0 53 -37 90t-90 37h-8q-53 0 -89 -36.5t-36 -90.5v-65q0 -43 -31 -73t-74 -30h-229q-43 0 -73 30t-30 73v155q0 41 30 72t73 31h928q41 0 71.5 -31t30.5 -72v-886q0 -43 -30.5 -73t-71.5 -30h-928 q-43 0 -73 30t-30 73zM453 1290v92q0 41 30.5 72t71.5 31h231q41 0 72 -31t31 -72v-92q0 -43 -31 -72.5t-72 -29.5h-231q-41 0 -71.5 29.5t-30.5 72.5zM539 199q0 -53 36 -89t89 -36h8q53 0 90 35.5t37 89.5v227q0 53 -37 90t-90 37h-8q-53 0 -89 -37t-36 -90v-227z M590 1337q0 -35 21.5 -56t56.5 -21t57.5 21.5t22.5 55.5q0 35 -23 57.5t-57 22.5q-35 0 -56.5 -22.5t-21.5 -57.5z" />
<glyph unicode="&#xc6;" horiz-adv-x="2033" d="M102 111v403q0 43 30 72.5t73 29.5h528q29 0 47.5 19.5t18.5 46.5v225q0 53 -37 90t-90 37h-8q-53 0 -89 -36.5t-36 -90.5v-65q0 -43 -31 -73t-74 -30h-229q-43 0 -73 30t-30 73v155q0 41 30 72t73 31l1624 2q43 0 72.5 -30t29.5 -73v-403q0 -43 -29.5 -72.5t-72.5 -29.5 h-529q-29 0 -47 -19.5t-18 -46.5v-225q0 -53 37 -90t90 -37h8q53 0 89 37t36 90v65q0 43 30.5 73t73.5 30h230q43 0 72.5 -30t29.5 -73v-155q0 -41 -29.5 -72t-72.5 -31l-1624 -2q-43 0 -73 30t-30 73zM539 199q0 -53 36 -89t89 -36h8q53 0 90 35.5t37 89.5v227q0 53 -37 90 t-90 37h-8q-53 0 -89 -37t-36 -90v-227zM1235 684q0 -53 37 -90t90 -37h8q53 0 89 37t36 90v227q0 53 -36 89t-89 36h-8q-53 0 -90 -35.5t-37 -89.5v-227z" />
<glyph unicode="&#xc7;" d="M102 111v884q0 41 31 72t72 31h928q43 0 72.5 -31t29.5 -72v-155q0 -43 -29.5 -73t-72.5 -30h-230q-43 0 -73.5 30t-30.5 73v65q0 53 -36 90t-89 37h-8q-53 0 -90 -37t-37 -90v-704q0 -53 36.5 -90t90.5 -37h8q53 0 89 36.5t36 90.5v65q0 43 30.5 73t73.5 30h230 q43 0 72.5 -30t29.5 -73v-155q0 -41 -29.5 -72t-72.5 -31h-558v-49h207q41 0 72 -30.5t31 -71.5v-93q0 -43 -31 -72.5t-72 -29.5h-231q-39 0 -68.5 25.5t-33.5 66.5h165q25 -20 56 -20q35 0 56.5 21.5t21.5 56.5t-21.5 57t-56.5 22q-39 0 -64 -30h-160v147h-241 q-41 0 -72 31t-31 72z" />
<glyph unicode="&#xc8;" d="M102 111v886q0 43 31 73t72 30h928q43 0 72.5 -30t29.5 -73v-403q0 -43 -29.5 -72.5t-72.5 -29.5h-529q-29 0 -47 -19.5t-18 -46.5v-225q0 -53 36.5 -90t90.5 -37h8q53 0 89 36.5t36 90.5v65q0 43 30.5 73t73.5 30h230q43 0 72.5 -30t29.5 -73v-155q0 -41 -29.5 -72 t-72.5 -31h-928q-41 0 -72 31t-31 72zM409.5 1454q12.5 31 53.5 31h231q41 0 90 -31t74 -72l55 -92q25 -43 11.5 -72.5t-54.5 -29.5h-231q-41 0 -89 29.5t-73 72.5l-55 92q-25 41 -12.5 72zM539 682q0 -53 36.5 -90t90.5 -37h8q53 0 89 37t36 90v227q0 53 -36 89t-89 36h-8 q-53 0 -90 -35.5t-37 -89.5v-227z" />
<glyph unicode="&#xc9;" d="M102 111v886q0 43 31 73t72 30h928q43 0 72.5 -30t29.5 -73v-403q0 -43 -29.5 -72.5t-72.5 -29.5h-529q-29 0 -47 -19.5t-18 -46.5v-225q0 -53 36.5 -90t90.5 -37h8q53 0 89 36.5t36 90.5v65q0 43 30.5 73t73.5 30h230q43 0 72.5 -30t29.5 -73v-155q0 -41 -29.5 -72 t-72.5 -31h-928q-41 0 -72 31t-31 72zM410.5 1217.5q-13.5 29.5 11.5 72.5l55 92q25 41 74 72t90 31h231q41 0 53.5 -31t-12.5 -72l-55 -92q-25 -43 -73 -72.5t-89 -29.5h-231q-41 0 -54.5 29.5zM539 682q0 -53 36.5 -90t90.5 -37h8q53 0 89 37t36 90v227q0 53 -36 89 t-89 36h-8q-53 0 -90 -35.5t-37 -89.5v-227z" />
<glyph unicode="&#xca;" d="M102 111v886q0 43 31 73t72 30h928q43 0 72.5 -30t29.5 -73v-403q0 -43 -29.5 -72.5t-72.5 -29.5h-529q-29 0 -47 -19.5t-18 -46.5v-225q0 -53 36.5 -90t90.5 -37h8q53 0 89 36.5t36 90.5v65q0 43 30.5 73t73.5 30h230q43 0 72.5 -30t29.5 -73v-155q0 -41 -29.5 -72 t-72.5 -31h-928q-41 0 -72 31t-31 72zM199.5 1217.5q-13.5 29.5 11.5 72.5l55 92q25 41 74 72t90 31h477q41 0 90 -31t74 -72l55 -92q25 -43 11.5 -72.5t-54.5 -29.5h-231q-41 0 -89 29.5t-73 72.5l-23 37l-20 -37q-25 -43 -73 -72.5t-89 -29.5h-231q-41 0 -54.5 29.5z M539 682q0 -53 36.5 -90t90.5 -37h8q53 0 89 37t36 90v227q0 53 -36 89t-89 36h-8q-53 0 -90 -35.5t-37 -89.5v-227z" />
<glyph unicode="&#xcb;" d="M102 111v886q0 43 31 73t72 30h928q43 0 72.5 -30t29.5 -73v-403q0 -43 -29.5 -72.5t-72.5 -29.5h-529q-29 0 -47 -19.5t-18 -46.5v-225q0 -53 36.5 -90t90.5 -37h8q53 0 89 36.5t36 90.5v65q0 43 30.5 73t73.5 30h230q43 0 72.5 -30t29.5 -73v-155q0 -41 -29.5 -72 t-72.5 -31h-928q-41 0 -72 31t-31 72zM108 1290v92q0 41 31 72t72 31h231q41 0 72 -31t31 -72v-92q0 -43 -31 -72.5t-72 -29.5h-231q-41 0 -72 29.5t-31 72.5zM539 682q0 -53 36.5 -90t90.5 -37h8q53 0 89 37t36 90v227q0 53 -36 89t-89 36h-8q-53 0 -90 -35.5t-37 -89.5 v-227zM792 1290v92q0 41 31 72t72 31h231q41 0 72 -31t31 -72v-92q0 -43 -31 -72.5t-72 -29.5h-231q-41 0 -72 29.5t-31 72.5z" />
<glyph unicode="&#xcc;" horiz-adv-x="729" d="M106.5 1454q12.5 31 53.5 31h231q41 0 90 -31t74 -72l55 -92q25 -43 11.5 -72.5t-54.5 -29.5h-231q-41 0 -89 29.5t-73 72.5l-55 92q-25 41 -12.5 72zM145 111v886q0 41 31 72t72 31h231q41 0 72 -31t31 -72v-886q0 -43 -31 -73t-72 -30h-231q-41 0 -72 30t-31 73z" />
<glyph unicode="&#xcd;" horiz-adv-x="729" d="M107.5 1217.5q-13.5 29.5 11.5 72.5l55 92q25 41 74 72t90 31h231q41 0 53.5 -31t-12.5 -72l-55 -92q-25 -43 -73 -72.5t-89 -29.5h-231q-41 0 -54.5 29.5zM145 111v886q0 41 31 72t72 31h231q41 0 72 -31t31 -72v-886q0 -43 -31 -73t-72 -30h-231q-41 0 -72 30t-31 73z " />
<glyph unicode="&#xce;" horiz-adv-x="1153" d="M107.5 1217.5q-13.5 29.5 11.5 72.5l55 92q25 41 74 72t90 31h477q41 0 90 -31t74 -72l55 -92q25 -43 11.5 -72.5t-54.5 -29.5h-231q-41 0 -89 29.5t-73 72.5l-23 37l-20 -37q-25 -43 -73 -72.5t-89 -29.5h-231q-41 0 -54.5 29.5zM358 111v886q0 41 31 72t72 31h231 q41 0 72 -31t31 -72v-886q0 -43 -31 -73t-72 -30h-231q-41 0 -72 30t-31 73z" />
<glyph unicode="&#xcf;" horiz-adv-x="1325" d="M102 1290v92q0 41 31 72t72 31h231q41 0 72 -31t31 -72v-92q0 -43 -31 -72.5t-72 -29.5h-231q-41 0 -72 29.5t-31 72.5zM444 111v886q0 41 31 72t72 31h231q41 0 72 -31t31 -72v-886q0 -43 -31 -73t-72 -30h-231q-41 0 -72 30t-31 73zM786 1290v92q0 41 31 72t72 31h231 q41 0 72 -31t31 -72v-92q0 -43 -31 -72.5t-72 -29.5h-231q-41 0 -72 29.5t-31 72.5z" />
<glyph unicode="&#xd0;" horiz-adv-x="1357" d="M102 549v221q0 41 31 71.5t72 30.5h567l-92 138l-199 -66q-41 -14 -77.5 4.5t-51.5 59.5q-14 41 5.5 78.5t58.5 52.5l145 49l-129 194q-25 41 -12.5 72t53.5 31h232q41 0 91 -31t85 -63l49 -80l172 57q41 12 79 -6.5t50 -58.5q14 -41 -5.5 -79t-58.5 -50l-123 -41 l103 -160q49 -57 73.5 -134t34.5 -188v-540q0 -43 -30.5 -73t-71.5 -30h-946q-43 0 -73 30t-30 73v438h-2zM539 213q0 -59 41 -99t100 -40q57 0 98 40t41 99v455q0 45 -27.5 80.5t-68.5 50.5q-10 4 -21.5 6t-21.5 2h-10l-35 -8q-41 -14 -68.5 -50t-27.5 -81v-455z" />
<glyph unicode="&#xd1;" d="M102 111v886q0 43 31 73t72 30h928q41 0 71.5 -30t30.5 -73v-886q0 -41 -30.5 -72t-71.5 -31h-232q-41 0 -71.5 31t-30.5 72v798q0 53 -37 89t-90 36h-8q-53 0 -89 -35.5t-36 -89.5v-798q0 -41 -31 -72t-72 -31h-231q-41 0 -72 31t-31 72zM136.5 1217.5 q-13.5 29.5 11.5 72.5l55 92q25 41 74 72t90 31h231q41 0 56 -33l71 -113l27 43q25 41 74 72t90 31h231q41 0 53.5 -31t-12.5 -72l-55 -92q-25 -43 -73 -72.5t-89 -29.5h-231q-41 0 -56 31l-75 112l-25 -41q-25 -43 -73 -72.5t-89 -29.5h-231q-41 0 -54.5 29.5z" />
<glyph unicode="&#xd2;" horiz-adv-x="1357" d="M102 997q0 41 31 72t72 31h948q41 0 71.5 -31t30.5 -72v-886q0 -43 -30.5 -73t-71.5 -30h-946q-43 0 -73 30t-30 73zM419.5 1454q12.5 31 53.5 31h231q41 0 90 -31t74 -72l55 -92q25 -43 11.5 -72.5t-54.5 -29.5h-231q-41 0 -89 29.5t-73 72.5l-55 92q-25 41 -12.5 72z M539 213q0 -59 41 -99t100 -40q57 0 98 40t41 99v682q0 45 -27.5 81t-68.5 50q-10 4 -21.5 6t-21.5 2h-10l-35 -8q-41 -14 -68.5 -50t-27.5 -81v-682z" />
<glyph unicode="&#xd3;" horiz-adv-x="1357" d="M102 997q0 41 31 72t72 31h948q41 0 71.5 -31t30.5 -72v-886q0 -43 -30.5 -73t-71.5 -30h-946q-43 0 -73 30t-30 73zM420.5 1217.5q-13.5 29.5 11.5 72.5l55 92q25 41 74 72t90 31h231q41 0 53.5 -31t-12.5 -72l-55 -92q-25 -43 -73 -72.5t-89 -29.5h-231 q-41 0 -54.5 29.5zM539 213q0 -59 41 -99t100 -40q57 0 98 40t41 99v682q0 45 -27.5 81t-68.5 50q-10 4 -21.5 6t-21.5 2h-10l-35 -8q-41 -14 -68.5 -50t-27.5 -81v-682z" />
<glyph unicode="&#xd4;" horiz-adv-x="1357" d="M102 997q0 41 31 72t72 31h948q41 0 71.5 -31t30.5 -72v-886q0 -43 -30.5 -73t-71.5 -30h-946q-43 0 -73 30t-30 73zM209.5 1217.5q-13.5 29.5 11.5 72.5l55 92q25 41 74 72t90 31h477q41 0 90 -31t74 -72l55 -92q25 -43 11.5 -72.5t-54.5 -29.5h-231q-41 0 -89 29.5 t-73 72.5l-23 37l-20 -37q-25 -43 -73 -72.5t-89 -29.5h-231q-41 0 -54.5 29.5zM539 213q0 -59 41 -99t100 -40q57 0 98 40t41 99v682q0 45 -27.5 81t-68.5 50q-10 4 -21.5 6t-21.5 2h-10l-35 -8q-41 -14 -68.5 -50t-27.5 -81v-682z" />
<glyph unicode="&#xd5;" horiz-adv-x="1357" d="M102 997q0 41 31 72t72 31h948q41 0 71.5 -31t30.5 -72v-886q0 -43 -30.5 -73t-71.5 -30h-946q-43 0 -73 30t-30 73zM146.5 1217.5q-13.5 29.5 11.5 72.5l55 92q25 41 74 72t90 31h231q41 0 56 -33l71 -113l27 43q25 41 74 72t90 31h231q41 0 53.5 -31t-12.5 -72l-55 -92 q-25 -43 -73 -72.5t-89 -29.5h-231q-41 0 -56 31l-75 112l-25 -41q-25 -43 -73 -72.5t-89 -29.5h-231q-41 0 -54.5 29.5zM539 213q0 -59 41 -99t100 -40q57 0 98 40t41 99v682q0 45 -27.5 81t-68.5 50q-10 4 -21.5 6t-21.5 2h-10l-35 -8q-41 -14 -68.5 -50t-27.5 -81v-682z " />
<glyph unicode="&#xd6;" horiz-adv-x="1357" d="M102 997q0 41 31 72t72 31h948q41 0 71.5 -31t30.5 -72v-886q0 -43 -30.5 -73t-71.5 -30h-946q-43 0 -73 30t-30 73zM118 1290v92q0 41 31 72t72 31h231q41 0 72 -31t31 -72v-92q0 -43 -31 -72.5t-72 -29.5h-231q-41 0 -72 29.5t-31 72.5zM539 213q0 -59 41 -99t100 -40 q57 0 98 40t41 99v682q0 45 -27.5 81t-68.5 50q-10 4 -21.5 6t-21.5 2h-10l-35 -8q-41 -14 -68.5 -50t-27.5 -81v-682zM802 1290v92q0 41 31 72t72 31h231q41 0 72 -31t31 -72v-92q0 -43 -31 -72.5t-72 -29.5h-231q-41 0 -72 29.5t-31 72.5z" />
<glyph unicode="&#xd7;" horiz-adv-x="1056" d="M103 447.5q1 41.5 30 72.5l137 137l-137 136q-29 29 -29 71.5t29 73.5l115 115q29 29 72.5 29t72.5 -29l135 -138l136 136q29 29 71.5 29.5t73.5 -29.5l115 -115q29 -29 28.5 -72t-28.5 -73l-136 -134l136 -137q31 -29 30.5 -71.5t-30.5 -71.5l-113 -115q-31 -31 -74 -30 t-71 30l-138 135l-137 -137q-29 -29 -72 -29t-71 29l-115 115q-31 31 -30 72.5z" />
<glyph unicode="&#xd8;" horiz-adv-x="1357" d="M102 776v221q0 41 31 72t72 31h948q41 0 71.5 -31t30.5 -72v-886q0 -43 -30.5 -73t-71.5 -30h-946q-43 0 -73 30t-30 73v665h-2zM539 213q0 -59 41 -99t100 -40q57 0 98 40t41 99v504l-280 -486v-18zM539 420l280 485q-4 41 -30.5 74t-65.5 47q-10 4 -21.5 6t-21.5 2h-10 l-35 -8q-41 -14 -68.5 -50t-27.5 -81v-475z" />
<glyph unicode="&#xd9;" d="M102 111v886q0 41 31 72t72 31h231q41 0 72 -31t31 -72v-798q0 -53 36 -89t89 -36h8q53 0 90 35.5t37 89.5v798q0 41 30.5 72t71.5 31h232q41 0 71.5 -31t30.5 -72v-886q0 -43 -30.5 -73t-71.5 -30h-928q-41 0 -72 30t-31 73zM409.5 1454q12.5 31 53.5 31h231 q41 0 90 -31t74 -72l55 -92q25 -43 11.5 -72.5t-54.5 -29.5h-231q-41 0 -89 29.5t-73 72.5l-55 92q-25 41 -12.5 72z" />
<glyph unicode="&#xda;" d="M102 111v886q0 41 31 72t72 31h231q41 0 72 -31t31 -72v-798q0 -53 36 -89t89 -36h8q53 0 90 35.5t37 89.5v798q0 41 30.5 72t71.5 31h232q41 0 71.5 -31t30.5 -72v-886q0 -43 -30.5 -73t-71.5 -30h-928q-41 0 -72 30t-31 73zM410.5 1217.5q-13.5 29.5 11.5 72.5l55 92 q25 41 74 72t90 31h231q41 0 53.5 -31t-12.5 -72l-55 -92q-25 -43 -73 -72.5t-89 -29.5h-231q-41 0 -54.5 29.5z" />
<glyph unicode="&#xdb;" d="M102 111v886q0 41 31 72t72 31h231q41 0 72 -31t31 -72v-798q0 -53 36 -89t89 -36h8q53 0 90 35.5t37 89.5v798q0 41 30.5 72t71.5 31h232q41 0 71.5 -31t30.5 -72v-886q0 -43 -30.5 -73t-71.5 -30h-928q-41 0 -72 30t-31 73zM199.5 1217.5q-13.5 29.5 11.5 72.5l55 92 q25 41 74 72t90 31h477q41 0 90 -31t74 -72l55 -92q25 -43 11.5 -72.5t-54.5 -29.5h-231q-41 0 -89 29.5t-73 72.5l-23 37l-20 -37q-25 -43 -73 -72.5t-89 -29.5h-231q-41 0 -54.5 29.5z" />
<glyph unicode="&#xdc;" d="M102 111v886q0 41 31 72t72 31h231q41 0 72 -31t31 -72v-798q0 -53 36 -89t89 -36h8q53 0 90 35.5t37 89.5v798q0 41 30.5 72t71.5 31h232q41 0 71.5 -31t30.5 -72v-886q0 -43 -30.5 -73t-71.5 -30h-928q-41 0 -72 30t-31 73zM108 1290v92q0 41 31 72t72 31h231 q41 0 72 -31t31 -72v-92q0 -43 -31 -72.5t-72 -29.5h-231q-41 0 -72 29.5t-31 72.5zM792 1290v92q0 41 31 72t72 31h231q41 0 72 -31t31 -72v-92q0 -43 -31 -72.5t-72 -29.5h-231q-41 0 -72 29.5t-31 72.5z" />
<glyph unicode="&#xdd;" horiz-adv-x="1357" d="M102 616v381q0 43 31 73t72 30h231q41 0 72 -30t31 -73v-794q4 -53 45 -91t94 -38q55 0 96 38t45 91v794q0 43 31 73t72 30h231q41 0 71.5 -30t30.5 -73v-1269q0 -43 -30.5 -74t-73.5 -31h-229q-43 0 -73 30t-30 73v217q0 29 -19.5 47t-45.5 18h-332q-14 0 -43 32 t-64.5 83t-72.5 115.5t-69 132t-51.5 132t-19.5 113.5zM420.5 1217.5q-13.5 29.5 11.5 72.5l55 92q25 41 74 72t90 31h231q41 0 53.5 -31t-12.5 -72l-55 -92q-25 -43 -73 -72.5t-89 -29.5h-231q-41 0 -54.5 29.5z" />
<glyph unicode="&#xde;" horiz-adv-x="1361" d="M102 -272v1652q0 43 31 74t74 31h229q43 0 73 -30t30 -73v-217q0 -29 19.5 -47t45.5 -18h549q41 0 71.5 -31t30.5 -72v-350q2 -8 3.5 -14.5t1.5 -14.5l-5 -507q0 -41 -30.5 -72t-71.5 -31h-549q-27 0 -46 -18.5t-19 -46.5v-217q0 -43 -30 -73t-73 -30h-229q-43 0 -74 31 t-31 74zM539 203q4 -53 45 -91t96 -38q53 0 94 38t45 91v702q-4 53 -45 91t-94 38q-55 0 -96 -38t-45 -91v-258q2 -8 3 -14t1 -15z" />
<glyph unicode="&#xdf;" horiz-adv-x="1302" d="M102 111v1271q0 41 31 72t72 31h893q43 0 72.5 -31t29.5 -72v-276q0 -43 -29.5 -74t-72.5 -31h-230q-43 0 -72.5 31t-29.5 74v203q0 47 -33 78.5t-78 31.5h-6q-47 0 -78.5 -31.5t-31.5 -78.5v-312q4 -41 31.5 -68.5t68.5 -31.5h459q41 0 71.5 -30.5t30.5 -71.5v-684 q0 -41 -30.5 -72t-71.5 -31h-461q-33 0 -33 33t33 33h10q47 4 82 40t35 87v504q0 51 -36 87.5t-89 38.5q-41 -4 -68.5 -31.5t-31.5 -68.5v-620q0 -43 -31 -73t-72 -30h-231q-41 0 -72 30t-31 73z" />
<glyph unicode="&#xe0;" d="M102 111v403q0 43 30 72.5t73 29.5h528q29 0 47.5 19.5t18.5 46.5v225q0 53 -37 90t-90 37h-8q-53 0 -89 -36.5t-36 -90.5v-65q0 -43 -31 -73t-74 -30h-229q-43 0 -73 30t-30 73v155q0 41 30 72t73 31h928q41 0 71.5 -31t30.5 -72v-886q0 -43 -30.5 -73t-71.5 -30h-928 q-43 0 -73 30t-30 73zM409.5 1454q12.5 31 53.5 31h231q41 0 90 -31t74 -72l55 -92q25 -43 11.5 -72.5t-54.5 -29.5h-231q-41 0 -89 29.5t-73 72.5l-55 92q-25 41 -12.5 72zM539 199q0 -53 36 -89t89 -36h8q53 0 90 35.5t37 89.5v227q0 53 -37 90t-90 37h-8q-53 0 -89 -37 t-36 -90v-227z" />
<glyph unicode="&#xe1;" d="M102 111v403q0 43 30 72.5t73 29.5h528q29 0 47.5 19.5t18.5 46.5v225q0 53 -37 90t-90 37h-8q-53 0 -89 -36.5t-36 -90.5v-65q0 -43 -31 -73t-74 -30h-229q-43 0 -73 30t-30 73v155q0 41 30 72t73 31h928q41 0 71.5 -31t30.5 -72v-886q0 -43 -30.5 -73t-71.5 -30h-928 q-43 0 -73 30t-30 73zM410.5 1217.5q-13.5 29.5 11.5 72.5l55 92q25 41 74 72t90 31h231q41 0 53.5 -31t-12.5 -72l-55 -92q-25 -43 -73 -72.5t-89 -29.5h-231q-41 0 -54.5 29.5zM539 199q0 -53 36 -89t89 -36h8q53 0 90 35.5t37 89.5v227q0 53 -37 90t-90 37h-8 q-53 0 -89 -37t-36 -90v-227z" />
<glyph unicode="&#xe2;" d="M102 111v403q0 43 30 72.5t73 29.5h528q29 0 47.5 19.5t18.5 46.5v225q0 53 -37 90t-90 37h-8q-53 0 -89 -36.5t-36 -90.5v-65q0 -43 -31 -73t-74 -30h-229q-43 0 -73 30t-30 73v155q0 41 30 72t73 31h928q41 0 71.5 -31t30.5 -72v-886q0 -43 -30.5 -73t-71.5 -30h-928 q-43 0 -73 30t-30 73zM199.5 1217.5q-13.5 29.5 11.5 72.5l55 92q25 41 74 72t90 31h477q41 0 90 -31t74 -72l55 -92q25 -43 11.5 -72.5t-54.5 -29.5h-231q-41 0 -89 29.5t-73 72.5l-23 37l-20 -37q-25 -43 -73 -72.5t-89 -29.5h-231q-41 0 -54.5 29.5zM539 199 q0 -53 36 -89t89 -36h8q53 0 90 35.5t37 89.5v227q0 53 -37 90t-90 37h-8q-53 0 -89 -37t-36 -90v-227z" />
<glyph unicode="&#xe3;" d="M102 111v403q0 43 30 72.5t73 29.5h528q29 0 47.5 19.5t18.5 46.5v225q0 53 -37 90t-90 37h-8q-53 0 -89 -36.5t-36 -90.5v-65q0 -43 -31 -73t-74 -30h-229q-43 0 -73 30t-30 73v155q0 41 30 72t73 31h928q41 0 71.5 -31t30.5 -72v-886q0 -43 -30.5 -73t-71.5 -30h-928 q-43 0 -73 30t-30 73zM136.5 1217.5q-13.5 29.5 11.5 72.5l55 92q25 41 74 72t90 31h231q41 0 56 -33l71 -113l27 43q25 41 74 72t90 31h231q41 0 53.5 -31t-12.5 -72l-55 -92q-25 -43 -73 -72.5t-89 -29.5h-231q-41 0 -56 31l-75 112l-25 -41q-25 -43 -73 -72.5t-89 -29.5 h-231q-41 0 -54.5 29.5zM539 199q0 -53 36 -89t89 -36h8q53 0 90 35.5t37 89.5v227q0 53 -37 90t-90 37h-8q-53 0 -89 -37t-36 -90v-227z" />
<glyph unicode="&#xe4;" d="M102 111v403q0 43 30 72.5t73 29.5h528q29 0 47.5 19.5t18.5 46.5v225q0 53 -37 90t-90 37h-8q-53 0 -89 -36.5t-36 -90.5v-65q0 -43 -31 -73t-74 -30h-229q-43 0 -73 30t-30 73v155q0 41 30 72t73 31h928q41 0 71.5 -31t30.5 -72v-886q0 -43 -30.5 -73t-71.5 -30h-928 q-43 0 -73 30t-30 73zM102 1290v92q0 41 31 72t72 31h231q41 0 72 -31t31 -72v-92q0 -43 -31 -72.5t-72 -29.5h-231q-41 0 -72 29.5t-31 72.5zM539 199q0 -53 36 -89t89 -36h8q53 0 90 35.5t37 89.5v227q0 53 -37 90t-90 37h-8q-53 0 -89 -37t-36 -90v-227zM786 1290v92 q0 41 31 72t72 31h231q41 0 72 -31t31 -72v-92q0 -43 -31 -72.5t-72 -29.5h-231q-41 0 -72 29.5t-31 72.5z" />
<glyph unicode="&#xe5;" d="M102 111v403q0 43 30 72.5t73 29.5h528q29 0 47.5 19.5t18.5 46.5v225q0 53 -37 90t-90 37h-8q-53 0 -89 -36.5t-36 -90.5v-65q0 -43 -31 -73t-74 -30h-229q-43 0 -73 30t-30 73v155q0 41 30 72t73 31h928q41 0 71.5 -31t30.5 -72v-886q0 -43 -30.5 -73t-71.5 -30h-928 q-43 0 -73 30t-30 73zM453 1290v92q0 41 30.5 72t71.5 31h231q41 0 72 -31t31 -72v-92q0 -43 -31 -72.5t-72 -29.5h-231q-41 0 -71.5 29.5t-30.5 72.5zM539 199q0 -53 36 -89t89 -36h8q53 0 90 35.5t37 89.5v227q0 53 -37 90t-90 37h-8q-53 0 -89 -37t-36 -90v-227z M590 1337q0 -35 21.5 -56t56.5 -21t57.5 21.5t22.5 55.5q0 35 -23 57.5t-57 22.5q-35 0 -56.5 -22.5t-21.5 -57.5z" />
<glyph unicode="&#xe6;" horiz-adv-x="2033" d="M102 111v403q0 43 30 72.5t73 29.5h528q29 0 47.5 19.5t18.5 46.5v225q0 53 -37 90t-90 37h-8q-53 0 -89 -36.5t-36 -90.5v-65q0 -43 -31 -73t-74 -30h-229q-43 0 -73 30t-30 73v155q0 41 30 72t73 31l1624 2q43 0 72.5 -30t29.5 -73v-403q0 -43 -29.5 -72.5t-72.5 -29.5 h-529q-29 0 -47 -19.5t-18 -46.5v-225q0 -53 37 -90t90 -37h8q53 0 89 37t36 90v65q0 43 30.5 73t73.5 30h230q43 0 72.5 -30t29.5 -73v-155q0 -41 -29.5 -72t-72.5 -31l-1624 -2q-43 0 -73 30t-30 73zM539 199q0 -53 36 -89t89 -36h8q53 0 90 35.5t37 89.5v227q0 53 -37 90 t-90 37h-8q-53 0 -89 -37t-36 -90v-227zM1235 684q0 -53 37 -90t90 -37h8q53 0 89 37t36 90v227q0 53 -36 89t-89 36h-8q-53 0 -90 -35.5t-37 -89.5v-227z" />
<glyph unicode="&#xe7;" d="M102 111v884q0 41 31 72t72 31h928q43 0 72.5 -31t29.5 -72v-155q0 -43 -29.5 -73t-72.5 -30h-230q-43 0 -73.5 30t-30.5 73v65q0 53 -36 90t-89 37h-8q-53 0 -90 -37t-37 -90v-704q0 -53 36.5 -90t90.5 -37h8q53 0 89 36.5t36 90.5v65q0 43 30.5 73t73.5 30h230 q43 0 72.5 -30t29.5 -73v-155q0 -41 -29.5 -72t-72.5 -31h-558v-49h207q41 0 72 -30.5t31 -71.5v-93q0 -43 -31 -72.5t-72 -29.5h-231q-39 0 -68.5 25.5t-33.5 66.5h165q25 -20 56 -20q35 0 56.5 21.5t21.5 56.5t-21.5 57t-56.5 22q-39 0 -64 -30h-160v147h-241 q-41 0 -72 31t-31 72z" />
<glyph unicode="&#xe8;" d="M102 111v886q0 43 31 73t72 30h928q43 0 72.5 -30t29.5 -73v-403q0 -43 -29.5 -72.5t-72.5 -29.5h-529q-29 0 -47 -19.5t-18 -46.5v-225q0 -53 36.5 -90t90.5 -37h8q53 0 89 36.5t36 90.5v65q0 43 30.5 73t73.5 30h230q43 0 72.5 -30t29.5 -73v-155q0 -41 -29.5 -72 t-72.5 -31h-928q-41 0 -72 31t-31 72zM409.5 1454q12.5 31 53.5 31h231q41 0 90 -31t74 -72l55 -92q25 -43 11.5 -72.5t-54.5 -29.5h-231q-41 0 -89 29.5t-73 72.5l-55 92q-25 41 -12.5 72zM539 682q0 -53 36.5 -90t90.5 -37h8q53 0 89 37t36 90v227q0 53 -36 89t-89 36h-8 q-53 0 -90 -35.5t-37 -89.5v-227z" />
<glyph unicode="&#xe9;" d="M102 111v886q0 43 31 73t72 30h928q43 0 72.5 -30t29.5 -73v-403q0 -43 -29.5 -72.5t-72.5 -29.5h-529q-29 0 -47 -19.5t-18 -46.5v-225q0 -53 36.5 -90t90.5 -37h8q53 0 89 36.5t36 90.5v65q0 43 30.5 73t73.5 30h230q43 0 72.5 -30t29.5 -73v-155q0 -41 -29.5 -72 t-72.5 -31h-928q-41 0 -72 31t-31 72zM410.5 1217.5q-13.5 29.5 11.5 72.5l55 92q25 41 74 72t90 31h231q41 0 53.5 -31t-12.5 -72l-55 -92q-25 -43 -73 -72.5t-89 -29.5h-231q-41 0 -54.5 29.5zM539 682q0 -53 36.5 -90t90.5 -37h8q53 0 89 37t36 90v227q0 53 -36 89 t-89 36h-8q-53 0 -90 -35.5t-37 -89.5v-227z" />
<glyph unicode="&#xea;" d="M102 111v886q0 43 31 73t72 30h928q43 0 72.5 -30t29.5 -73v-403q0 -43 -29.5 -72.5t-72.5 -29.5h-529q-29 0 -47 -19.5t-18 -46.5v-225q0 -53 36.5 -90t90.5 -37h8q53 0 89 36.5t36 90.5v65q0 43 30.5 73t73.5 30h230q43 0 72.5 -30t29.5 -73v-155q0 -41 -29.5 -72 t-72.5 -31h-928q-41 0 -72 31t-31 72zM199.5 1217.5q-13.5 29.5 11.5 72.5l55 92q25 41 74 72t90 31h477q41 0 90 -31t74 -72l55 -92q25 -43 11.5 -72.5t-54.5 -29.5h-231q-41 0 -89 29.5t-73 72.5l-23 37l-20 -37q-25 -43 -73 -72.5t-89 -29.5h-231q-41 0 -54.5 29.5z M539 682q0 -53 36.5 -90t90.5 -37h8q53 0 89 37t36 90v227q0 53 -36 89t-89 36h-8q-53 0 -90 -35.5t-37 -89.5v-227z" />
<glyph unicode="&#xeb;" d="M102 111v886q0 43 31 73t72 30h928q43 0 72.5 -30t29.5 -73v-403q0 -43 -29.5 -72.5t-72.5 -29.5h-529q-29 0 -47 -19.5t-18 -46.5v-225q0 -53 36.5 -90t90.5 -37h8q53 0 89 36.5t36 90.5v65q0 43 30.5 73t73.5 30h230q43 0 72.5 -30t29.5 -73v-155q0 -41 -29.5 -72 t-72.5 -31h-928q-41 0 -72 31t-31 72zM108 1290v92q0 41 31 72t72 31h231q41 0 72 -31t31 -72v-92q0 -43 -31 -72.5t-72 -29.5h-231q-41 0 -72 29.5t-31 72.5zM539 682q0 -53 36.5 -90t90.5 -37h8q53 0 89 37t36 90v227q0 53 -36 89t-89 36h-8q-53 0 -90 -35.5t-37 -89.5 v-227zM792 1290v92q0 41 31 72t72 31h231q41 0 72 -31t31 -72v-92q0 -43 -31 -72.5t-72 -29.5h-231q-41 0 -72 29.5t-31 72.5z" />
<glyph unicode="&#xec;" horiz-adv-x="729" d="M106.5 1454q12.5 31 53.5 31h231q41 0 90 -31t74 -72l55 -92q25 -43 11.5 -72.5t-54.5 -29.5h-231q-41 0 -89 29.5t-73 72.5l-55 92q-25 41 -12.5 72zM145 111v886q0 41 31 72t72 31h231q41 0 72 -31t31 -72v-886q0 -43 -31 -73t-72 -30h-231q-41 0 -72 30t-31 73z" />
<glyph unicode="&#xed;" horiz-adv-x="729" d="M107.5 1217.5q-13.5 29.5 11.5 72.5l55 92q25 41 74 72t90 31h231q41 0 53.5 -31t-12.5 -72l-55 -92q-25 -43 -73 -72.5t-89 -29.5h-231q-41 0 -54.5 29.5zM145 111v886q0 41 31 72t72 31h231q41 0 72 -31t31 -72v-886q0 -43 -31 -73t-72 -30h-231q-41 0 -72 30t-31 73z " />
<glyph unicode="&#xee;" horiz-adv-x="1153" d="M107.5 1217.5q-13.5 29.5 11.5 72.5l55 92q25 41 74 72t90 31h477q41 0 90 -31t74 -72l55 -92q25 -43 11.5 -72.5t-54.5 -29.5h-231q-41 0 -89 29.5t-73 72.5l-23 37l-20 -37q-25 -43 -73 -72.5t-89 -29.5h-231q-41 0 -54.5 29.5zM358 111v886q0 41 31 72t72 31h231 q41 0 72 -31t31 -72v-886q0 -43 -31 -73t-72 -30h-231q-41 0 -72 30t-31 73z" />
<glyph unicode="&#xef;" horiz-adv-x="1325" d="M102 1290v92q0 41 31 72t72 31h231q41 0 72 -31t31 -72v-92q0 -43 -31 -72.5t-72 -29.5h-231q-41 0 -72 29.5t-31 72.5zM444 111v886q0 41 31 72t72 31h231q41 0 72 -31t31 -72v-886q0 -43 -31 -73t-72 -30h-231q-41 0 -72 30t-31 73zM786 1290v92q0 41 31 72t72 31h231 q41 0 72 -31t31 -72v-92q0 -43 -31 -72.5t-72 -29.5h-231q-41 0 -72 29.5t-31 72.5z" />
<glyph unicode="&#xf0;" horiz-adv-x="1357" d="M102 549v221q0 41 31 71.5t72 30.5h567l-92 138l-199 -66q-41 -14 -77.5 4.5t-51.5 59.5q-14 41 5.5 78.5t58.5 52.5l145 49l-129 194q-25 41 -12.5 72t53.5 31h232q41 0 91 -31t85 -63l49 -80l172 57q41 12 79 -6.5t50 -58.5q14 -41 -5.5 -79t-58.5 -50l-123 -41 l103 -160q49 -57 73.5 -134t34.5 -188v-540q0 -43 -30.5 -73t-71.5 -30h-946q-43 0 -73 30t-30 73v438h-2zM539 213q0 -59 41 -99t100 -40q57 0 98 40t41 99v455q0 45 -27.5 80.5t-68.5 50.5q-10 4 -21.5 6t-21.5 2h-10l-35 -8q-41 -14 -68.5 -50t-27.5 -81v-455z" />
<glyph unicode="&#xf1;" d="M102 111v886q0 43 31 73t72 30h928q41 0 71.5 -30t30.5 -73v-886q0 -41 -30.5 -72t-71.5 -31h-232q-41 0 -71.5 31t-30.5 72v798q0 53 -37 89t-90 36h-8q-53 0 -89 -35.5t-36 -89.5v-798q0 -41 -31 -72t-72 -31h-231q-41 0 -72 31t-31 72zM136.5 1217.5 q-13.5 29.5 11.5 72.5l55 92q25 41 74 72t90 31h231q41 0 56 -33l71 -113l27 43q25 41 74 72t90 31h231q41 0 53.5 -31t-12.5 -72l-55 -92q-25 -43 -73 -72.5t-89 -29.5h-231q-41 0 -56 31l-75 112l-25 -41q-25 -43 -73 -72.5t-89 -29.5h-231q-41 0 -54.5 29.5z" />
<glyph unicode="&#xf2;" horiz-adv-x="1357" d="M102 997q0 41 31 72t72 31h948q41 0 71.5 -31t30.5 -72v-886q0 -43 -30.5 -73t-71.5 -30h-946q-43 0 -73 30t-30 73zM419.5 1454q12.5 31 53.5 31h231q41 0 90 -31t74 -72l55 -92q25 -43 11.5 -72.5t-54.5 -29.5h-231q-41 0 -89 29.5t-73 72.5l-55 92q-25 41 -12.5 72z M539 213q0 -59 41 -99t100 -40q57 0 98 40t41 99v682q0 45 -27.5 81t-68.5 50q-10 4 -21.5 6t-21.5 2h-10l-35 -8q-41 -14 -68.5 -50t-27.5 -81v-682z" />
<glyph unicode="&#xf3;" horiz-adv-x="1357" d="M102 997q0 41 31 72t72 31h948q41 0 71.5 -31t30.5 -72v-886q0 -43 -30.5 -73t-71.5 -30h-946q-43 0 -73 30t-30 73zM420.5 1217.5q-13.5 29.5 11.5 72.5l55 92q25 41 74 72t90 31h231q41 0 53.5 -31t-12.5 -72l-55 -92q-25 -43 -73 -72.5t-89 -29.5h-231 q-41 0 -54.5 29.5zM539 213q0 -59 41 -99t100 -40q57 0 98 40t41 99v682q0 45 -27.5 81t-68.5 50q-10 4 -21.5 6t-21.5 2h-10l-35 -8q-41 -14 -68.5 -50t-27.5 -81v-682z" />
<glyph unicode="&#xf4;" horiz-adv-x="1357" d="M102 997q0 41 31 72t72 31h948q41 0 71.5 -31t30.5 -72v-886q0 -43 -30.5 -73t-71.5 -30h-946q-43 0 -73 30t-30 73zM209.5 1217.5q-13.5 29.5 11.5 72.5l55 92q25 41 74 72t90 31h477q41 0 90 -31t74 -72l55 -92q25 -43 11.5 -72.5t-54.5 -29.5h-231q-41 0 -89 29.5 t-73 72.5l-23 37l-20 -37q-25 -43 -73 -72.5t-89 -29.5h-231q-41 0 -54.5 29.5zM539 213q0 -59 41 -99t100 -40q57 0 98 40t41 99v682q0 45 -27.5 81t-68.5 50q-10 4 -21.5 6t-21.5 2h-10l-35 -8q-41 -14 -68.5 -50t-27.5 -81v-682z" />
<glyph unicode="&#xf5;" horiz-adv-x="1357" d="M102 997q0 41 31 72t72 31h948q41 0 71.5 -31t30.5 -72v-886q0 -43 -30.5 -73t-71.5 -30h-946q-43 0 -73 30t-30 73zM146.5 1217.5q-13.5 29.5 11.5 72.5l55 92q25 41 74 72t90 31h231q41 0 56 -33l71 -113l27 43q25 41 74 72t90 31h231q41 0 53.5 -31t-12.5 -72l-55 -92 q-25 -43 -73 -72.5t-89 -29.5h-231q-41 0 -56 31l-75 112l-25 -41q-25 -43 -73 -72.5t-89 -29.5h-231q-41 0 -54.5 29.5zM539 213q0 -59 41 -99t100 -40q57 0 98 40t41 99v682q0 45 -27.5 81t-68.5 50q-10 4 -21.5 6t-21.5 2h-10l-35 -8q-41 -14 -68.5 -50t-27.5 -81v-682z " />
<glyph unicode="&#xf6;" horiz-adv-x="1357" d="M102 997q0 41 31 72t72 31h948q41 0 71.5 -31t30.5 -72v-886q0 -43 -30.5 -73t-71.5 -30h-946q-43 0 -73 30t-30 73zM118 1290v92q0 41 31 72t72 31h231q41 0 72 -31t31 -72v-92q0 -43 -31 -72.5t-72 -29.5h-231q-41 0 -72 29.5t-31 72.5zM539 213q0 -59 41 -99t100 -40 q57 0 98 40t41 99v682q0 45 -27.5 81t-68.5 50q-10 4 -21.5 6t-21.5 2h-10l-35 -8q-41 -14 -68.5 -50t-27.5 -81v-682zM802 1290v92q0 41 31 72t72 31h231q41 0 72 -31t31 -72v-92q0 -43 -31 -72.5t-72 -29.5h-231q-41 0 -72 29.5t-31 72.5z" />
<glyph unicode="&#xf7;" horiz-adv-x="901" d="M102 580v34q0 41 31 72t72 31h491q41 0 72 -31t31 -72v-34q0 -43 -31 -73t-72 -30h-491q-41 0 -72 30t-31 73zM238 111v161q0 41 30.5 72t71.5 31h231q41 0 72 -31t31 -72v-161q0 -43 -31 -73t-72 -30h-231q-41 0 -71.5 30t-30.5 73zM238 946v162q0 41 30.5 71.5 t71.5 30.5h231q41 0 72 -30.5t31 -71.5v-162q0 -43 -31 -72.5t-72 -29.5h-231q-41 0 -71.5 29.5t-30.5 72.5z" />
<glyph unicode="&#xf8;" horiz-adv-x="1357" d="M102 776v221q0 41 31 72t72 31h948q41 0 71.5 -31t30.5 -72v-886q0 -43 -30.5 -73t-71.5 -30h-946q-43 0 -73 30t-30 73v665h-2zM539 213q0 -59 41 -99t100 -40q57 0 98 40t41 99v504l-280 -486v-18zM539 420l280 485q-4 41 -30.5 74t-65.5 47q-10 4 -21.5 6t-21.5 2h-10 l-35 -8q-41 -14 -68.5 -50t-27.5 -81v-475z" />
<glyph unicode="&#xf9;" d="M102 111v886q0 41 31 72t72 31h231q41 0 72 -31t31 -72v-798q0 -53 36 -89t89 -36h8q53 0 90 35.5t37 89.5v798q0 41 30.5 72t71.5 31h232q41 0 71.5 -31t30.5 -72v-886q0 -43 -30.5 -73t-71.5 -30h-928q-41 0 -72 30t-31 73zM409.5 1454q12.5 31 53.5 31h231 q41 0 90 -31t74 -72l55 -92q25 -43 11.5 -72.5t-54.5 -29.5h-231q-41 0 -89 29.5t-73 72.5l-55 92q-25 41 -12.5 72z" />
<glyph unicode="&#xfa;" d="M102 111v886q0 41 31 72t72 31h231q41 0 72 -31t31 -72v-798q0 -53 36 -89t89 -36h8q53 0 90 35.5t37 89.5v798q0 41 30.5 72t71.5 31h232q41 0 71.5 -31t30.5 -72v-886q0 -43 -30.5 -73t-71.5 -30h-928q-41 0 -72 30t-31 73zM410.5 1217.5q-13.5 29.5 11.5 72.5l55 92 q25 41 74 72t90 31h231q41 0 53.5 -31t-12.5 -72l-55 -92q-25 -43 -73 -72.5t-89 -29.5h-231q-41 0 -54.5 29.5z" />
<glyph unicode="&#xfb;" d="M102 111v886q0 41 31 72t72 31h231q41 0 72 -31t31 -72v-798q0 -53 36 -89t89 -36h8q53 0 90 35.5t37 89.5v798q0 41 30.5 72t71.5 31h232q41 0 71.5 -31t30.5 -72v-886q0 -43 -30.5 -73t-71.5 -30h-928q-41 0 -72 30t-31 73zM199.5 1217.5q-13.5 29.5 11.5 72.5l55 92 q25 41 74 72t90 31h477q41 0 90 -31t74 -72l55 -92q25 -43 11.5 -72.5t-54.5 -29.5h-231q-41 0 -89 29.5t-73 72.5l-23 37l-20 -37q-25 -43 -73 -72.5t-89 -29.5h-231q-41 0 -54.5 29.5z" />
<glyph unicode="&#xfc;" d="M102 111v886q0 41 31 72t72 31h231q41 0 72 -31t31 -72v-798q0 -53 36 -89t89 -36h8q53 0 90 35.5t37 89.5v798q0 41 30.5 72t71.5 31h232q41 0 71.5 -31t30.5 -72v-886q0 -43 -30.5 -73t-71.5 -30h-928q-41 0 -72 30t-31 73zM108 1290v92q0 41 31 72t72 31h231 q41 0 72 -31t31 -72v-92q0 -43 -31 -72.5t-72 -29.5h-231q-41 0 -72 29.5t-31 72.5zM792 1290v92q0 41 31 72t72 31h231q41 0 72 -31t31 -72v-92q0 -43 -31 -72.5t-72 -29.5h-231q-41 0 -72 29.5t-31 72.5z" />
<glyph unicode="&#xfd;" horiz-adv-x="1357" d="M102 616v381q0 43 31 73t72 30h231q41 0 72 -30t31 -73v-794q4 -53 45 -91t94 -38q55 0 96 38t45 91v794q0 43 31 73t72 30h231q41 0 71.5 -30t30.5 -73v-1269q0 -43 -30.5 -74t-73.5 -31h-229q-43 0 -73 30t-30 73v217q0 29 -19.5 47t-45.5 18h-332q-14 0 -43 32 t-64.5 83t-72.5 115.5t-69 132t-51.5 132t-19.5 113.5zM420.5 1217.5q-13.5 29.5 11.5 72.5l55 92q25 41 74 72t90 31h231q41 0 53.5 -31t-12.5 -72l-55 -92q-25 -43 -73 -72.5t-89 -29.5h-231q-41 0 -54.5 29.5z" />
<glyph unicode="&#xfe;" horiz-adv-x="1361" d="M102 -272v1652q0 43 31 74t74 31h229q43 0 73 -30t30 -73v-217q0 -29 19.5 -47t45.5 -18h549q41 0 71.5 -31t30.5 -72v-350q2 -8 3.5 -14.5t1.5 -14.5l-5 -507q0 -41 -30.5 -72t-71.5 -31h-549q-27 0 -46 -18.5t-19 -46.5v-217q0 -43 -30 -73t-73 -30h-229q-43 0 -74 31 t-31 74zM539 203q4 -53 45 -91t96 -38q53 0 94 38t45 91v702q-4 53 -45 91t-94 38q-55 0 -96 -38t-45 -91v-258q2 -8 3 -14t1 -15z" />
<glyph unicode="&#xff;" horiz-adv-x="1357" d="M102 616v381q0 43 31 73t72 30h231q41 0 72 -30t31 -73v-794q4 -53 45 -91t94 -38q55 0 96 38t45 91v794q0 43 31 73t72 30h231q41 0 71.5 -30t30.5 -73v-1269q0 -43 -30.5 -74t-73.5 -31h-229q-43 0 -73 30t-30 73v217q0 29 -19.5 47t-45.5 18h-332q-14 0 -43 32 t-64.5 83t-72.5 115.5t-69 132t-51.5 132t-19.5 113.5zM118 1290v92q0 41 31 72t72 31h231q41 0 72 -31t31 -72v-92q0 -43 -31 -72.5t-72 -29.5h-231q-41 0 -72 29.5t-31 72.5zM802 1290v92q0 41 31 72t72 31h231q41 0 72 -31t31 -72v-92q0 -43 -31 -72.5t-72 -29.5h-231 q-41 0 -72 29.5t-31 72.5z" />
<glyph unicode="&#x152;" horiz-adv-x="2056" d="M102 776v221q0 41 31 72t72 31h1646q43 0 73 -30t30 -73v-403q0 -43 -30 -72.5t-73 -29.5h-528q-29 0 -47.5 -19.5t-18.5 -46.5v-225q0 -53 37 -90t90 -37h9q53 0 89 36.5t36 90.5v65q0 43 30.5 73t73.5 30h229q43 0 73 -30t30 -73v-155q0 -41 -30 -72t-73 -31h-1644 q-43 0 -73 30t-30 73v665h-2zM539 213q0 -59 41 -99t100 -40q57 0 98 40t41 99v682q0 45 -27.5 81t-68.5 50q-10 4 -21.5 6t-21.5 2h-10l-35 -8q-41 -14 -68.5 -50t-27.5 -81v-682zM1257 682q0 -53 37 -90t90 -37h9q53 0 89 37t36 90v227q0 53 -36 89t-89 36h-9 q-53 0 -90 -35.5t-37 -89.5v-227z" />
<glyph unicode="&#x153;" horiz-adv-x="2056" d="M102 776v221q0 41 31 72t72 31h1646q43 0 73 -30t30 -73v-403q0 -43 -30 -72.5t-73 -29.5h-528q-29 0 -47.5 -19.5t-18.5 -46.5v-225q0 -53 37 -90t90 -37h9q53 0 89 36.5t36 90.5v65q0 43 30.5 73t73.5 30h229q43 0 73 -30t30 -73v-155q0 -41 -30 -72t-73 -31h-1644 q-43 0 -73 30t-30 73v665h-2zM539 213q0 -59 41 -99t100 -40q57 0 98 40t41 99v682q0 45 -27.5 81t-68.5 50q-10 4 -21.5 6t-21.5 2h-10l-35 -8q-41 -14 -68.5 -50t-27.5 -81v-682zM1257 682q0 -53 37 -90t90 -37h9q53 0 89 37t36 90v227q0 53 -36 89t-89 36h-9 q-53 0 -90 -35.5t-37 -89.5v-227z" />
<glyph unicode="&#x178;" horiz-adv-x="1357" d="M102 616v381q0 43 31 73t72 30h231q41 0 72 -30t31 -73v-794q4 -53 45 -91t94 -38q55 0 96 38t45 91v794q0 43 31 73t72 30h231q41 0 71.5 -30t30.5 -73v-1269q0 -43 -30.5 -74t-73.5 -31h-229q-43 0 -73 30t-30 73v217q0 29 -19.5 47t-45.5 18h-332q-14 0 -43 32 t-64.5 83t-72.5 115.5t-69 132t-51.5 132t-19.5 113.5zM118 1290v92q0 41 31 72t72 31h231q41 0 72 -31t31 -72v-92q0 -43 -31 -72.5t-72 -29.5h-231q-41 0 -72 29.5t-31 72.5zM802 1290v92q0 41 31 72t72 31h231q41 0 72 -31t31 -72v-92q0 -43 -31 -72.5t-72 -29.5h-231 q-41 0 -72 29.5t-31 72.5z" />
<glyph unicode="&#x2c6;" horiz-adv-x="1153" d="M107.5 1217.5q-13.5 29.5 11.5 72.5l55 92q25 41 74 72t90 31h477q41 0 90 -31t74 -72l55 -92q25 -43 11.5 -72.5t-54.5 -29.5h-231q-41 0 -89 29.5t-73 72.5l-23 37l-20 -37q-25 -43 -73 -72.5t-89 -29.5h-231q-41 0 -54.5 29.5z" />
<glyph unicode="&#x2dc;" horiz-adv-x="1277" d="M107.5 1217.5q-13.5 29.5 11.5 72.5l55 92q25 41 74 72t90 31h231q41 0 56 -33l71 -113l27 43q25 41 74 72t90 31h231q41 0 53.5 -31t-12.5 -72l-55 -92q-25 -43 -73 -72.5t-89 -29.5h-231q-41 0 -56 31l-75 112l-25 -41q-25 -43 -73 -72.5t-89 -29.5h-231 q-41 0 -54.5 29.5z" />
<glyph unicode="&#x2000;" horiz-adv-x="811" />
<glyph unicode="&#x2001;" horiz-adv-x="1622" />
<glyph unicode="&#x2002;" horiz-adv-x="811" />
<glyph unicode="&#x2003;" horiz-adv-x="1622" />
<glyph unicode="&#x2004;" horiz-adv-x="540" />
<glyph unicode="&#x2005;" horiz-adv-x="405" />
<glyph unicode="&#x2006;" horiz-adv-x="270" />
<glyph unicode="&#x2007;" horiz-adv-x="270" />
<glyph unicode="&#x2008;" horiz-adv-x="202" />
<glyph unicode="&#x2009;" horiz-adv-x="324" />
<glyph unicode="&#x200a;" horiz-adv-x="90" />
<glyph unicode="&#x2010;" horiz-adv-x="901" d="M102 578v161q0 41 31 72t72 31h491q41 0 72 -31t31 -72v-161q0 -43 -31 -73t-72 -30h-491q-41 0 -72 30t-31 73z" />
<glyph unicode="&#x2011;" horiz-adv-x="901" d="M102 578v161q0 41 31 72t72 31h491q41 0 72 -31t31 -72v-161q0 -43 -31 -73t-72 -30h-491q-41 0 -72 30t-31 73z" />
<glyph unicode="&#x2012;" horiz-adv-x="901" d="M102 578v161q0 41 31 72t72 31h491q41 0 72 -31t31 -72v-161q0 -43 -31 -73t-72 -30h-491q-41 0 -72 30t-31 73z" />
<glyph unicode="&#x2013;" horiz-adv-x="1103" d="M102 578v161q0 41 31 72t72 31h694q41 0 71.5 -31t30.5 -72v-161q0 -43 -30.5 -73t-71.5 -30h-694q-41 0 -72 30t-31 73z" />
<glyph unicode="&#x2014;" horiz-adv-x="1576" d="M102 578v161q0 41 31 72t72 31h1167q41 0 72 -31t31 -72v-161q0 -43 -31 -73t-72 -30h-1167q-41 0 -72 30t-31 73z" />
<glyph unicode="&#x2018;" horiz-adv-x="641" d="M102 838v206q0 121 28 205t74 137.5t106.5 77t125.5 23.5q41 0 72 -30t31 -73v-546q0 -41 -31 -72t-72 -31h-231q-41 0 -72 31t-31 72z" />
<glyph unicode="&#x2019;" horiz-adv-x="641" d="M102 838v546q0 41 31 72t72 31h231q41 0 72 -31t31 -72v-206q0 -121 -28 -205t-74 -137.5t-106.5 -77t-125.5 -23.5q-41 0 -72 30t-31 73z" />
<glyph unicode="&#x201a;" horiz-adv-x="641" d="M102 272q0 41 31 72t72 31h231q41 0 72 -31t31 -72v-206q0 -121 -28 -205t-74 -137.5t-106.5 -77t-125.5 -23.5q-41 0 -72 30t-31 73v546z" />
<glyph unicode="&#x201c;" horiz-adv-x="1165" d="M102 838v206q0 121 28 205t74 137.5t106.5 77t125.5 23.5q41 0 72 -30t31 -73v-546q0 -41 -31 -72t-72 -31h-231q-41 0 -72 31t-31 72zM627 838v206q0 121 27.5 205t73.5 137.5t106.5 77t126.5 23.5q41 0 71.5 -30t30.5 -73v-546q0 -41 -30.5 -72t-71.5 -31h-232 q-41 0 -71.5 31t-30.5 72z" />
<glyph unicode="&#x201d;" horiz-adv-x="1165" d="M102 838v546q0 41 31 72t72 31h231q41 0 72 -31t31 -72v-206q0 -121 -28 -205t-74 -137.5t-106.5 -77t-125.5 -23.5q-41 0 -72 30t-31 73zM627 838v546q0 41 30.5 72t71.5 31h232q41 0 71.5 -31t30.5 -72v-206q0 -121 -27.5 -205t-74 -137.5t-106.5 -77t-126 -23.5 q-41 0 -71.5 30t-30.5 73z" />
<glyph unicode="&#x201e;" horiz-adv-x="1179" d="M102 272q0 41 31 72t72 31h231q41 0 72 -31t31 -72v-206q0 -121 -28 -205t-74 -137.5t-106.5 -77t-125.5 -23.5q-41 0 -72 30t-31 73v546zM641 272q0 41 30.5 72t71.5 31h232q41 0 71.5 -31t30.5 -72v-206q0 -121 -27.5 -205t-73.5 -137.5t-106.5 -77t-126.5 -23.5 q-41 0 -71.5 30t-30.5 73v546z" />
<glyph unicode="&#x2022;" horiz-adv-x="765" d="M102 594v143q0 37 14.5 69t39 56.5t56.5 38.5t69 14h202q37 0 70 -14t57.5 -38.5t39 -56.5t14.5 -69v-143q0 -37 -14.5 -69.5t-39 -57.5t-57.5 -38t-70 -13h-202q-37 0 -69 13t-56.5 38t-39 57.5t-14.5 69.5zM299 594q0 -37 27.5 -62.5t62.5 -25.5q37 0 63.5 25.5 t26.5 62.5v143q0 35 -26.5 61.5t-63.5 26.5q-35 0 -62.5 -26.5t-27.5 -61.5v-143z" />
<glyph unicode="&#x2026;" horiz-adv-x="1882" d="M102 111v161q0 41 31 72t72 31h231q41 0 72 -31t31 -72v-161q0 -43 -31 -73t-72 -30h-231q-41 0 -72 30t-31 73zM723 111v161q0 41 30.5 72t71.5 31h232q41 0 71.5 -31t30.5 -72v-161q0 -43 -30.5 -73t-71.5 -30h-232q-41 0 -71.5 30t-30.5 73zM1343 111v161q0 41 31 72 t72 31h231q41 0 72 -31t31 -72v-161q0 -43 -31 -73t-72 -30h-231q-41 0 -72 30t-31 73z" />
<glyph unicode="&#x202f;" horiz-adv-x="324" />
<glyph unicode="&#x2039;" horiz-adv-x="845" d="M103 530.5q1 42.5 30 71.5l320 318q29 29 71.5 29.5t71.5 -29.5l115 -115q29 -29 28.5 -72t-28.5 -71l-136 -136l138 -135q29 -31 28.5 -74t-28.5 -71l-115 -115q-31 -31 -74 -30t-71 30l-320 326q-31 31 -30 73.5z" />
<glyph unicode="&#x203a;" horiz-adv-x="845" d="M104 317.5q0 42.5 29 73.5l137 135l-135 136q-29 29 -29 71.5t29 71.5l115 115q29 31 72 29.5t71 -29.5l320 -318q29 -29 29.5 -72t-29.5 -73l-320 -326q-29 -29 -71.5 -30t-73.5 30l-115 115q-29 29 -29 71.5z" />
<glyph unicode="&#x205f;" horiz-adv-x="405" />
<glyph unicode="&#x20ac;" horiz-adv-x="1447" d="M102 584v121h111v92h-111v121h111v464q0 41 30.5 72t71.5 31h928q43 0 73 -31t30 -72v-155q0 -43 -30 -73t-73 -30h-229q-43 0 -74 30t-31 73v65q0 53 -35.5 90t-89.5 37h-8q-53 0 -90 -36.5t-37 -90.5v-374h434v-121h-434v-92h434v-121h-434v-383q0 -53 37 -90t90 -37h8 q53 0 89 36.5t36 90.5v65q0 43 31 73t74 30h229q43 0 73 -30t30 -73v-155q0 -41 -30 -72t-73 -31h-928q-41 0 -71.5 31t-30.5 72v473h-111z" />
<glyph unicode="&#x2122;" horiz-adv-x="2017" d="M102 690v735q0 25 17.5 42.5t42.5 17.5h133q25 0 42 -17.5t17 -42.5v-104q2 -25 18.5 -41t41.5 -18h98q29 0 38 -17.5t9 -34.5q0 -16 -6 -32.5t-41 -16.5h-92q-27 0 -45.5 -16t-20.5 -41v-326q0 -27 18.5 -45t47.5 -18h2q27 0 46 18.5t19 44.5v72q0 25 16.5 42t43.5 17 h131q27 0 43 -17.5t16 -41.5v-160q0 -25 -16 -42t-43 -17h-516q-25 0 -42.5 17.5t-17.5 41.5zM856 690v524q0 25 18.5 36.5t40.5 11.5h940q25 0 42.5 -17.5t17.5 -42.5v-512q0 -27 -17.5 -43t-42.5 -16h-133q-25 0 -42 16.5t-17 42.5v400q0 29 -21.5 51t-50.5 22h-6 q-29 0 -51.5 -22.5t-22.5 -50.5v-400q0 -27 -17 -43t-42 -16h-133q-25 0 -42 16.5t-17 42.5v400q0 29 -21.5 51t-50.5 22h-6q-29 0 -50.5 -22.5t-21.5 -50.5v-400q0 -27 -18.5 -43t-40.5 -16h-136q-23 0 -41 16.5t-18 42.5z" />
<glyph unicode="&#x25fc;" horiz-adv-x="1105" d="M0 0v1106h1106v-1106h-1106z" />
<glyph unicode="&#xfb01;" horiz-adv-x="1302" d="M102 111v1271q0 41 31 72t72 31h893q43 0 72.5 -31t29.5 -72v-98q0 -43 -29.5 -73.5t-72.5 -30.5h-230q-43 0 -72.5 30.5t-29.5 73.5v25q0 47 -33 78.5t-78 31.5h-6q-47 0 -78.5 -31.5t-31.5 -78.5v-310q4 -41 31.5 -68.5t68.5 -31.5h125v98q0 41 30.5 72t71.5 31h232 q41 0 71.5 -31t30.5 -72v-886q0 -43 -30.5 -73t-71.5 -30h-232q-41 0 -71.5 30t-30.5 73v723h-115q-45 0 -75.5 -29t-34.5 -72v-622q0 -43 -31 -73t-72 -30h-231q-41 0 -72 30t-31 73z" />
<glyph unicode="&#xfb02;" horiz-adv-x="1308" d="M102 111v1271q0 41 31 72t72 31h899q43 0 72.5 -31t29.5 -72l-4 -1271q0 -43 -30.5 -73t-71.5 -30h-232q-41 0 -71.5 30t-30.5 73v723h-117q-45 0 -75.5 -29t-34.5 -72v-622q0 -43 -31 -73t-72 -30h-231q-41 0 -72 30t-31 73zM539 999q4 -41 31.5 -68.5t68.5 -31.5h127 v410q0 47 -33 78.5t-78 31.5h-6q-47 0 -78.5 -31.5t-31.5 -78.5v-310z" />
<glyph unicode="&#xfb03;" horiz-adv-x="1968" d="M102 111v1271q0 41 31 72t72 31h1558q43 0 73 -31t30 -72v-98q0 -43 -30 -73.5t-73 -30.5h-229q-43 0 -72.5 30.5t-29.5 73.5v25q0 47 -33 78.5t-78 31.5h-6q-47 0 -79 -31.5t-32 -78.5v-310q4 -41 32 -68.5t69 -31.5h125v98q0 41 30.5 72t71.5 31h231q41 0 72 -31 t31 -72v-886q0 -43 -31 -73t-72 -30h-231q-41 0 -71.5 30t-30.5 73v723h-115q-45 0 -76 -29t-35 -72v-622q0 -43 -30.5 -73t-71.5 -30h-232q-41 0 -71.5 30t-30.5 73v723h-119q-45 0 -75.5 -29t-34.5 -72v-622q0 -43 -31 -73t-72 -30h-231q-41 0 -72 30t-31 73zM539 999 q4 -41 31.5 -68.5t68.5 -31.5h129v186q-2 7 -2 21v203q0 47 -33 78.5t-78 31.5h-6q-47 0 -78.5 -31.5t-31.5 -78.5v-310z" />
<glyph unicode="&#xfb04;" horiz-adv-x="1972" d="M102 111v1271q0 41 31 72t72 31h1562q43 0 73 -31t30 -72l-4 -1271q0 -43 -31 -73t-72 -30h-231q-41 0 -71.5 30t-30.5 73v723h-117q-45 0 -76 -29t-35 -72v-622q0 -43 -30.5 -73t-71.5 -30h-232q-41 0 -71.5 30t-30.5 73v723h-117q-45 0 -75.5 -29t-34.5 -72v-622 q0 -43 -31 -73t-72 -30h-231q-41 0 -72 30t-31 73zM539 999q4 -41 31.5 -68.5t68.5 -31.5h127v410q0 47 -33 78.5t-78 31.5h-6q-47 0 -78.5 -31.5t-31.5 -78.5v-310zM1202 999q4 -41 32 -68.5t69 -31.5h127v410q0 47 -33 78.5t-78 31.5h-6q-47 0 -79 -31.5t-32 -78.5v-310z " />
</font>
</defs>
</svg>
